<?xml version="1.0" standalone="no"?>
<!DOCTYPE svg PUBLIC "-//W3C//DTD SVG 1.1//EN" "http://www.w3.org/Graphics/SVG/1.1/DTD/svg11.dtd" >
<svg xmlns="http://www.w3.org/2000/svg" xmlns:xlink="http://www.w3.org/1999/xlink" version="1.1">
<metadata>
Created by FontForge 20160407 at Mon Oct 24 08:53:35 2016
 By Jimmy Wärting
Team Prada (c) (PRADA programer font aksara sunda - facebook ). &#60;2015&#62;. All Rights Reserved
</metadata>
<defs>
<font id="candrasaap" horiz-adv-x="0" >
  <font-face 
    font-family="candrasa ap"
    font-weight="400"
    font-stretch="normal"
    units-per-em="2048"
    panose-1="2 0 5 0 0 0 0 0 0 0"
    ascent="1638"
    descent="-410"
    bbox="-3299 -2241 3991 2558.5"
    underline-thickness="150"
    underline-position="-292"
    unicode-range="U+001D-E07C"
  />
<missing-glyph 
 />
    <glyph glyph-name="uni1B8A.conj" unicode="&#x1bab;&#x1b8a;" horiz-adv-x="1458" 
d="M715 112l-428 -1272h-198l474 1163h-548l72 246h534q139 5 94 -137zM1398 112l-429 -1272h-198l474 1163h-465l72 246h452q139 5 94 -137z" />
    <glyph glyph-name="uni1B8B.conj" unicode="&#x1bab;&#x1b8b;" horiz-adv-x="1809" 
d="M477 3l-263 -1163h-199l345 1163h-121l71 246h1296q140 5 109 -138l-287 -1271h-199l345 1163h-502l-262 -1163h-200l346 1163h-479z" />
    <glyph glyph-name="uni1B8C.conj" unicode="&#x1bab;&#x1b8c;" horiz-adv-x="1283" 
d="M15 -1160l474 1163h-466l73 246h451q140 5 95 -137l-348 -1032h577l188 378h-439l72 246h425q151 5 94 -135l-263 -729h-933z" />
    <glyph glyph-name="uni1B8D.conj" unicode="&#x1bab;&#x1b8d;" horiz-adv-x="1105" 
d="M935 -915l-275 341l71 174l379 -506l-138 -254h-957l534 1163h-512l72 246h528q140 5 95 -137l-437 -1027h640z" />
    <glyph glyph-name="uni1B8E.conj" unicode="&#x1bab;&#x1b8e;" horiz-adv-x="1480" 
d="M1022 -799l145 1048h198l-306 -1356q-49 -202 -525 236q-176 -289 -467 -315q-52 807 396 575l250 614h-252h-337l73 246h574q140 5 95 -137l-279 -826q428 -231 435 -85zM175.5 -786q-59.5 -157 219.5 20q-160 137 -219.5 -20z" />
    <glyph glyph-name="uni1B8F.conj" unicode="&#x1bab;&#x1b8f;" horiz-adv-x="1374" 
d="M647 -386q71 181 255 -32l366 -411l-166 -167l-339 487q-102 142 -116 123zM481 -920l46 209q85 165 201 11l299 -422l-146 -153l-264 509l-52 -392l-550 -2l339 1265q23 149 193 144h362l-68 -246h-395l-203 -923h238z" />
    <glyph glyph-name="uni1B90.conj" unicode="&#x1bab;&#x1b90;" horiz-adv-x="1285" 
d="M700 -542l65 -360l-88 -258h-662l474 1163h-466l73 246h451q140 5 95 -137l-347 -1027h325l-15 288q-47 325 198 331h199q238 5 186 -264l-111 -600h-185l185 618h-377z" />
    <glyph glyph-name="uni1B91.conj" unicode="&#x1bab;&#x1b91;" horiz-adv-x="1943" 
d="M419 3h-374l85 246h570l-461 -1164h468l101 312q59 136 161 38l349 -407l361 927l-533 48l-67 -194h-167l150 440h714q152 5 95 -137l-432 -1346l-569 392l-66 -322l2 4h-639q-152 -6 -95 136z" />
    <glyph glyph-name="uni1B92.conj" unicode="&#x1bab;&#x1b92;" horiz-adv-x="1524" 
d="M916 216h261q152 6 94 -136l-191 -722h-146l183 613h-281l-202 -613h-567l321 613h-373l72 245h357q139 6 94 -136l-197 -482h233l333 1169h191z" />
    <glyph glyph-name="uni1B93.conj" unicode="&#x1bab;&#x1b93;" horiz-adv-x="1262" 
d="M520 -920l103 317q58 136 161 38l363 -437l-114 -231l-376 451l-51 -376l-591 -2l339 1265q23 149 193 144h362l-68 -246h-381l-190 -923h250z" />
    <glyph glyph-name="uni1B94.conj" unicode="&#x1bab;&#x1b94;" horiz-adv-x="902" 
d="M37 -1160l504 1163h-496l72 246h522q140 5 95 -137l-399 -1032h610l-56 -240h-852z" />
    <glyph glyph-name="uni1B95.conj" unicode="&#x1bab;&#x1b95;" horiz-adv-x="1404" 
d="M15 -1160l474 1163h-466l73 246h451q140 5 95 -137l-348 -1032h578l305 923h-396l72 246h384q152 5 94 -137l-383 -1272h-933z" />
    <glyph glyph-name="uni1B96.conj" unicode="&#x1bab;&#x1b96;" horiz-adv-x="1409" 
d="M15 -1160l474 1163h-466l73 246h451q140 5 95 -137l-348 -1032h593l279 1169h198l-416 -1409h-933z" />
    <glyph glyph-name="uni1B97.conj" unicode="&#x1bab;&#x1b97;" horiz-adv-x="1380" 
d="M15 -1160l434 1409h201l-423 -1169h662l278 1169h198l-416 -1409h-934z" />
    <glyph glyph-name="uni1B98.conj" unicode="&#x1bab;&#x1b98;" horiz-adv-x="1943" 
d="M804 -1164l2 4h-639q-152 -6 -95 136l429 1273h380l-69 -246h-210l-363 -918h468l101 312q59 136 161 38l349 -407l386 975h-558l-81 -194h-153l150 440h714q152 5 95 -137l-432 -1345l-569 447z" />
    <glyph glyph-name="uni1B99.conj" unicode="&#x1bab;&#x1b99;" horiz-adv-x="1384" 
d="M67 -1160l321 613h-373l72 245h357q139 6 94 -136l-197 -482h512l305 923h-628l72 246h616q151 5 94 -137l-384 -1272h-861z" />
    <glyph glyph-name="uni1B9A.conj" unicode="&#x1bab;&#x1b9a;" horiz-adv-x="1556" 
d="M727 -328l-103 -314h-557l321 613h-373l72 245h357q139 6 94 -136l-197 -482h223l333 1169h191l-276 -837l178 -383l73 669h218l-215 -861q-59 -135 -161 -37z" />
    <glyph glyph-name="uni1B9B.conj" unicode="&#x1bab;&#x1b9b;" horiz-adv-x="945" 
d="M590 -781h-489l57 191h544l113 224h-782l57 191h769q140 6 94 -163l-116 -252h128l-61 -191h-160l-152 -379h-196zM15 30l72 219h1023l-77 -219h-1018z" />
    <glyph glyph-name="uni1B9C.conj" unicode="&#x1bab;&#x1b9c;" horiz-adv-x="1464" 
d="M651 -920h311l209 1169h198l-347 -1409h-655l408 1168h-283l-279 -1168h-198l416 1409h327q221 0 153 -226z" />
    <glyph glyph-name="uni1B9D.conj" unicode="&#x1bab;&#x1b9d;" horiz-adv-x="1339" 
d="M440 103q65 151 210 146h440l-112 -246h-452l-230 -923h631l158 378h-439l72 246h425q151 5 94 -135l-233 -729h-989z" />
    <glyph glyph-name="uni1B9E.conj" unicode="&#x1bab;&#x1b9e;" horiz-adv-x="1390" 
d="M337 -549h-267l72 246h296l125 306h-548l72 246h534q139 5 94 -137l-140 -415h139l-75 -246h-146l-206 -611h-198zM912 -549h-186l72 246h215l124 306h-397l72 246h384q139 5 94 -137l-141 -415h109l-53 -246h-138l-206 -611h-198z" />
    <glyph glyph-name="uni1B9F.conj" unicode="&#x1bab;&#x1b9f;" horiz-adv-x="1417" 
d="M425 -344l138 347h-548l72 246h1146q139 5 94 -137l-429 -1272h-198l249 611h-456l-206 -611h-198l248 611h-267l58 205h297zM679 3l-118 -347h475l138 347h-495z" />
    <glyph glyph-name="uni1BA0.conj" unicode="&#x1bab;&#x1ba0;" horiz-adv-x="1445" 
d="M1258 767q152 5 93 -137l-306 -1272h-201l353 1163h-297l-246 -1163h-614l334 613h-359l72 245h357q139 6 94 -135l-225 -483h269l196 1169h480z" />
    <glyph glyph-name="uni1BAE.conj" unicode="&#x1bab;&#x1bae;" horiz-adv-x="2030" 
d="M900 228q139 5 94 -137l-141 -414h218q139 6 94 -135l-225 -483h269l167 1169h449q152 5 93 -137l-326 -1272h-200l372 1163h-267l-216 -1163h-614l334 613h-229l-207 -613h-198l474 1163h-217l-392 -1163h-198l474 1163h-493l72 246h813z" />
    <glyph glyph-name="uni1BAF.conj" unicode="&#x1bab;&#x1baf;" horiz-adv-x="1870" 
d="M599 -2l-64 -306h203l84 306h-223zM793 -552l-186 -613h-198l228 611h-184l-166 -611h-198l208 611h-227l72 246h256l85 306h-468l72 246h794q139 5 94 -137l-100 -414h199q127 6 93 -136l-187 -482h182l243 1169h191l-206 -836l151 -394l65 679h218l-205 -861
q-59 -135 -160 -38l-151 362l-86 -321h-519l314 613h-224z" />
    <glyph glyph-name="uni1BBD.conj" unicode="&#x1bab;&#x1bbd;" horiz-adv-x="1910" 
d="M902 -925l308 1024q45 150 191 145h481l6 9l-175 -684q-3 -97 -106 -91h-215l67 226h182l33 294h-366l-204 -924h498l-94 -239h-1476l95 239h330l350 924h-362l-157 -294h170l-78 -226h-222q-96 -4 -41 84l261 682v0h515q140 5 95 -137l-322 -1032h236z" />
    <glyph glyph-name=".notdef" 
 />
    <glyph glyph-name=".notdef" 
 />
    <glyph glyph-name="nonmarkingreturn" unicode="&#xa0;" 
 />
    <glyph glyph-name="space" unicode=" " 
 />
    <glyph glyph-name="HDA" horiz-adv-x="2140" 
d="M1257 1157h-297l-246 -1163h-614l334 613h-359l72 245h357q139 6 94 -135l-225 -483h269l196 1169h480q152 5 93 -137l-248 -1032h237l103 317q58 136 161 38l363 -437l-114 -231l-376 451l-51 -376l-589 -2z" />
    <glyph glyph-name="HRA" horiz-adv-x="1850" 
d="M675 1184l72 219h1023l-77 -219h-1018zM750 979h769q140 6 94 -163l-116 -252h128l-61 -191h-160l-152 -379h-196l194 379h-389l57 191h444l113 224h-592l-199 -794h-614l334 613h-359l72 245h357q139 6 94 -135l-225 -483h269z" />
    <glyph glyph-name="KTA" horiz-adv-x="2040" 
d="M230 360l-154 -10l242 436h-212l56 188h223q95 6 41 -101zM848 -353l542 1510h-396l72 246h384q152 5 94 -137l-584 -1856l-596 -3l66 240h418zM715 1166h-533l72 237h520q139 5 94 -132l-443 -1274l-254 -6zM954 360l-154 -10l241 436h-211l56 188h222q96 6 41 -101z
M1762 401h-533l72 221h520q139 5 94 -123l-312 -950l-254 -6z" />
    <glyph glyph-name="MPA" horiz-adv-x="2100" 
d="M625 577l-48 -194h-461l42 194h467zM489 196l-48 -202h-339l43 202h344zM762 945l-48 -183h-584l42 183h590zM1736 885l101 272h-277zM588 -6l474 1163h-943l72 246h930q139 5 94 -137l-361 -1070h593l243 594l-320 357l76 256h451q140 5 95 -137l-413 -1272h-991z" />
    <glyph glyph-name="JYA" horiz-adv-x="2320" 
d="M571 234l46 209q85 165 201 11l299 -422l-146 -153l-264 509l-52 -392l-550 -2l339 1265q23 149 193 144h362l-68 -246h-395l-203 -923h238zM1296 -25l-443 630q-102 142 -116 123q71 181 255 -32l253 -284l186 631h693l-382 -803h454l-73 -246h-451q-140 -5 -95 137
l268 672h-383z" />
    <glyph glyph-name="uni1B80" unicode="&#x1b80;" 
d="M-474 1696q0 -74 -69 -128.5t-169 -54.5q-101 0 -170 54.5t-69 128.5v30q0 74 69 128.5t170 54.5q100 0 169 -54.5t69 -128.5v-30zM-712 1855q-42 0 -68.5 -53t-26.5 -91t26.5 -91.5t68.5 -53.5t69.5 53.5t27.5 91.5t-27.5 91t-69.5 53z" />
    <glyph glyph-name="uni1B81" unicode="&#x1b81;" 
d="M-760 1776l-43 -148l-127 51l144 200q36 64 152 -51l121 -132l42 152l126 -53l-142 -199q-36 -64 -154 51z" />
    <glyph glyph-name="uni1B82" unicode="&#x1b82;" horiz-adv-x="844" 
d="M556 41l-58 -82l-473 956l-10 -28l228 -1zM829 41l-58 -82l-473 956l-10 -28l228 -1z" />
    <glyph glyph-name="uni1BA2" unicode="&#x1ba2;" 
d="M-1283 -518q111 57 260 3q121 -52 237 -140q104 -77 185 -68.5t162 62.5l30 -130q-43 -51 -97 -81q-90 -39 -162 -27.5t-118 61.5q-180 198 -283 244t-206 -96l-105 111z" />
    <glyph glyph-name="uni1B83" unicode="&#x1b83;" horiz-adv-x="1283" 
d="M771 798q228 -23 362.5 -108.5t134.5 -278.5q0 -96 -43.5 -175t-118.5 -135.5t-177 -87t-218 -30.5q-164 0 -292 59.5t-218 171t-138 270t-48 358.5q0 188 87 584l207 -64q-129 -335 -129 -516q-37 -181 5.5 -322t113 -215.5t166 -123.5t196.5 -49q72 0 166.5 47
t113.5 105t19 128q0 144 -88 229.5t-263 85.5l-27 70l349 356h-450l72 246h493q175 5 95 -133z" />
    <glyph glyph-name="uni1B84" unicode="&#x1b84;" horiz-adv-x="1143" 
d="M602 1157l-363 -918h683l53 194h153l-126 -439h-835q-152 -6 -95 136l429 1273h380l-69 -246h-210z" />
    <glyph glyph-name="uni1B85" unicode="&#x1b85;" horiz-adv-x="1361" 
d="M321 237h685l-125 233q-115 167 -85 274.5t216 107.5h334l-68 -245h-341l277 -392l-127 -221h-839q-151 -6 -94 136l347 1027h-486l72 246h534q139 5 94 -137z" />
    <glyph glyph-name="uni1B86" unicode="&#x1b86;" horiz-adv-x="1283" 
d="M879 783q17 20 26 31q67 74 142 127t150 77q47 15 70 16l-67 -195q8 -7 3 -4q-45 12 -91 7t-92 -31q-22 -13 -64 -45q112 -34 180 -77q132 -85 132 -278q0 -96 -43.5 -175t-118.5 -135.5t-177 -87t-218 -30.5q-164 0 -292 59.5t-218 171t-138 270t-48 358.5q0 188 87 584
l207 -64q-129 -335 -129 -516q-37 -181 5.5 -322t113 -215.5t166 -123.5t196.5 -49q72 0 166.5 47t113.5 105t19 128q0 144 -88 229.5t-263 85.5l-27 70l349 356h-450l72 246h493q175 5 95 -133l-370 -472q65 -7 108 -15z" />
    <glyph glyph-name="uni1B87" unicode="&#x1b87;" horiz-adv-x="1285" 
d="M20 1147l76 256h451q140 5 95 -137l-347 -1027h325l-15 288q-47 325 198 331h229q238 5 186 -264l-111 -600h-185l185 618h-407l65 -360l-88 -258h-662l325 796zM386 885l101 272h-277z" />
    <glyph glyph-name="uni1B88" unicode="&#x1b88;" horiz-adv-x="1237" 
d="M670 1244q63 78 142.5 117t151 46.5t258.5 -30.5l-8 8l-190 -244q-70 68 -205 36.5t-173 -326.5l209 -12q359 -59 359 -400q-2 -124 -45 -203.5t-111 -142t-143 -86.5t-190 -24q-164 0 -292.5 59.5t-218.5 171t-137.5 271t-61.5 445.5l214 -42q-45 -223 -16 -363.5
t99 -215t144.5 -124t177.5 -49.5q144 5 214.5 93t70.5 187q14 185 -96 279q-87 61 -292 65l-74 65q114 309 213 419z" />
    <glyph glyph-name="uni1B89" unicode="&#x1b89;" horiz-adv-x="1283" 
d="M892 1157h154q175 5 95 -131l-452 -369q310 8 444.5 -77t134.5 -237q0 -149 -118 -243.5t-220.5 -105.5t-218.5 -11q-164 0 -292 59.5t-218 171t-138 270t-48 358.5q0 188 87 584l207 -64q-129 -335 -129 -516q-37 -181 5.5 -322t113 -215.5t166 -123.5t196.5 -49
q72 0 185.5 56t113.5 183q0 79 -123 149t-296 70l-28 69l355 289h-386l71 205h197l-280 229l103 52l193 -220l91 197l278 -15z" />
    <glyph glyph-name="uni1B8A" unicode="&#x1b8a;" horiz-adv-x="1458" 
d="M715 1266l-428 -1272h-198l474 1163h-548l72 246h534q139 5 94 -137zM1398 1266l-429 -1272h-198l474 1163h-465l72 246h452q139 5 94 -137z" />
    <glyph glyph-name="uni1B8B" unicode="&#x1b8b;" horiz-adv-x="1761" 
d="M477 1157l-263 -1163h-199l345 1163h-121l71 246h1296q140 5 109 -138l-287 -1271h-199l345 1163h-502l-262 -1163h-200l346 1163h-479z" />
    <glyph glyph-name="uni1B8C" unicode="&#x1b8c;" horiz-adv-x="1283" 
d="M15 -6l474 1163h-466l73 246h451q140 5 95 -137l-348 -1032h577l188 378h-439l72 246h425q151 5 94 -135l-263 -729h-933z" />
    <glyph glyph-name="uni1B8D" unicode="&#x1b8d;" horiz-adv-x="1105" 
d="M935 239l-275 341l71 174l379 -506l-138 -254h-957l534 1163h-512l72 246h528q140 5 95 -137l-437 -1027h640z" />
    <glyph glyph-name="uni1B8E" unicode="&#x1b8e;" horiz-adv-x="1410" 
d="M1022 355l145 1048h198l-306 -1356q-49 -202 -525 236q-176 -289 -467 -315q-52 807 396 575l250 614h-252h-337l73 246h574q140 5 95 -137l-279 -826q428 -231 435 -85zM175.5 368q-59.5 -157 219.5 20q-160 137 -219.5 -20z" />
    <glyph glyph-name="uni1B8F" unicode="&#x1b8f;" horiz-adv-x="1310" 
d="M647 768q71 181 255 -32l366 -411l-166 -167l-339 487q-102 142 -116 123zM481 234l46 209q85 165 201 11l299 -422l-146 -153l-264 509l-52 -392l-550 -2l339 1265q23 149 193 144h362l-68 -246h-395l-203 -923h238z" />
    <glyph glyph-name="uni1B90" unicode="&#x1b90;" horiz-adv-x="1220" 
d="M700 612l65 -360l-88 -258h-662l474 1163h-466l73 246h451q140 5 95 -137l-347 -1027h325l-15 288q-47 325 198 331h199q238 5 186 -264l-111 -600h-185l185 618h-377z" />
    <glyph glyph-name="uni1B91" unicode="&#x1b91;" horiz-adv-x="1943" 
d="M419 1157h-374l85 246h570l-461 -1164h468l101 312q59 136 161 38l349 -407l387 975h-559l-67 -194h-167l150 440h714q152 5 95 -137l-432 -1346l-569 392l-66 -322l2 4h-639q-152 -6 -95 136z" />
    <glyph glyph-name="uni1B92" unicode="&#x1b92;" horiz-adv-x="1340" 
d="M916 852h261q152 6 94 -136l-191 -722h-146l183 613h-281l-202 -613h-567l321 613h-373l72 245h357q139 6 94 -136l-197 -482h233l333 1169h191z" />
    <glyph glyph-name="uni1B93" unicode="&#x1b93;" horiz-adv-x="1180" 
d="M520 234l103 317q58 136 161 38l363 -437l-114 -231l-376 451l-51 -376l-591 -2l339 1265q23 149 193 144h362l-68 -246h-381l-190 -923h250z" />
    <glyph glyph-name="uni1B94" unicode="&#x1b94;" horiz-adv-x="978" 
d="M37 -6l504 1163h-496l72 246h522q140 5 95 -137l-399 -1032h610l-56 -240h-852z" />
    <glyph glyph-name="uni1B95" unicode="&#x1b95;" horiz-adv-x="1404" 
d="M15 -6l474 1163h-466l73 246h451q140 5 95 -137l-348 -1032h578l305 923h-396l72 246h384q152 5 94 -137l-383 -1272h-933z" />
    <glyph glyph-name="uni1B96" unicode="&#x1b96;" horiz-adv-x="1409" 
d="M15 -6l474 1163h-466l73 246h451q140 5 95 -137l-348 -1032h593l279 1169h198l-416 -1409h-933z" />
    <glyph glyph-name="uni1B97" unicode="&#x1b97;" horiz-adv-x="1380" 
d="M15 -6l434 1409h201l-423 -1169h662l278 1169h198l-416 -1409h-934z" />
    <glyph glyph-name="uni1B98" unicode="&#x1b98;" horiz-adv-x="1943" 
d="M804 -10l2 4h-639q-152 -6 -95 136l429 1273h380l-69 -246h-210l-363 -918h468l101 312q59 136 161 38l349 -407l386 975h-558l-81 -194h-153l150 440h714q152 5 95 -137l-432 -1345l-569 447z" />
    <glyph glyph-name="uni1B99" unicode="&#x1b99;" horiz-adv-x="1384" 
d="M67 -6l321 613h-373l72 245h357q139 6 94 -136l-197 -482h512l305 923h-628l72 246h616q151 5 94 -137l-384 -1272h-861z" />
    <glyph glyph-name="uni1B9A" unicode="&#x1b9a;" horiz-adv-x="1340" 
d="M727 308l-103 -314h-557l321 613h-373l72 245h357q139 6 94 -136l-197 -482h223l333 1169h191l-276 -837l178 -383l73 669h218l-215 -861q-59 -135 -161 -37z" />
    <glyph glyph-name="uni1B9B" unicode="&#x1b9b;" horiz-adv-x="1150" 
d="M590 373h-489l57 191h544l113 224h-782l57 191h769q140 6 94 -163l-116 -252h128l-61 -191h-160l-152 -379h-196zM15 1184l72 219h1023l-77 -219h-1018z" />
    <glyph glyph-name="uni1B9C" unicode="&#x1b9c;" horiz-adv-x="1410" 
d="M651 234h311l209 1169h198l-347 -1409h-655l408 1168h-283l-279 -1168h-198l416 1409h327q221 0 153 -226z" />
    <glyph glyph-name="uni1B9D" unicode="&#x1b9d;" horiz-adv-x="1339" 
d="M440 1257q65 151 210 146h440l-112 -246h-452l-230 -923h631l158 378h-439l72 246h425q151 5 94 -135l-233 -729h-989z" />
    <glyph glyph-name="uni1B9E" unicode="&#x1b9e;" horiz-adv-x="1390" 
d="M337 605h-267l72 246h296l125 306h-548l72 246h534q139 5 94 -137l-140 -415h139l-75 -246h-146l-206 -611h-198zM912 605h-186l72 246h215l124 306h-397l72 246h384q139 5 94 -137l-141 -415h109l-53 -246h-138l-206 -611h-198z" />
    <glyph glyph-name="uni1B9F" unicode="&#x1b9f;" horiz-adv-x="1417" 
d="M425 810l138 347h-548l72 246h1146q139 5 94 -137l-429 -1272h-198l249 611h-456l-206 -611h-198l248 611h-267l58 205h297zM679 1157l-118 -347h475l138 347h-495z" />
    <glyph glyph-name="uni1BA0" unicode="&#x1ba0;" horiz-adv-x="1445" 
d="M1258 1403q152 5 93 -137l-306 -1272h-201l353 1163h-297l-246 -1163h-614l334 613h-359l72 245h357q139 6 94 -135l-225 -483h269l196 1169h480z" />
    <glyph glyph-name="uni1BA2_uni1BA5" 
d="M-1283 -518q111 57 260 3q121 -52 237 -140q104 -77 185 -68.5t162 62.5l30 -130q-43 -51 -97 -81q-90 -39 -162 -27.5t-118 61.5q-180 198 -283 244t-206 -96l-105 111zM-558 -217l-160 -324l-112 80l159 176h-365l42 143h347q143 4 89 -75z" />
    <glyph glyph-name="uni1BA3" unicode="&#x1ba3;" 
d="M-968 -134q127 4 78 -79l-93 -191l201 35l-37 -142l-313 19l123 198h-182l-38 -143l-151 -45l121 295q22 55 96 53h195z" />
    <glyph glyph-name="uni1BA3_uni1BA5" 
d="M-1018 -134q127 4 78 -79l-93 -191l201 35l-37 -142l-313 19l123 198h-182l-38 -143l-151 -45l121 295q22 55 96 53h195zM-536 -202l-160 -324l-112 80l159 176h-365l42 143h347q143 4 89 -75z" />
    <glyph glyph-name="uni1BA4" unicode="&#x1ba4;" 
d="M-440 1832l-176 -321h-97l-70 110h111l115 146h-354l41 139h341q142 4 89 -74z" />
    <glyph glyph-name="uni1BA4_uni1B80" 
d="M-590 1832l-176 -321h-97l-70 110h111l115 146h-354l41 139h341q142 4 89 -74zM-124 1696q0 -74 -69 -128.5t-169 -54.5q-101 0 -170 54.5t-69 128.5v30q0 74 69 128.5t170 54.5q100 0 169 -54.5t69 -128.5v-30zM-362 1855q-42 0 -68.5 -53t-26.5 -91t26.5 -91.5
t68.5 -53.5t69.5 53.5t27.5 91.5t-27.5 91t-69.5 53z" />
    <glyph glyph-name="uni1BA4_uni1B81" 
d="M-520 1761l-43 -148l-127 51l144 200q36 64 152 -51l121 -132l42 152l126 -53l-142 -199q-36 -64 -154 51zM-680 1832l-176 -321h-97l-70 110h111l115 146h-354l41 139h341q142 4 89 -74z" />
    <glyph glyph-name="uni1BA5" unicode="&#x1ba5;" 
d="M-741 -217l-160 -324l-112 80l159 176h-365l42 143h347q143 4 89 -75z" />
    <glyph glyph-name="uni1BA6" unicode="&#x1ba6;" horiz-adv-x="604" 
d="M416 657h-295l42 158h357q77 0 52 -86l-165 -291h153l-58 -134h-165l-85 -135h339l-41 -155h-378q-97 -4 -51 83z" />
    <glyph glyph-name="uni1BA7" unicode="&#x1ba7;" horiz-adv-x="563" 
d="M186 172h306l-43 -158h-356q-78 0 -52 86l154 291h-143l59 133h156l78 135h-323l41 156h378q96 4 50 -83z" />
    <glyph glyph-name="uni1BA8" unicode="&#x1ba8;" horiz-adv-x="20" 
d="M-669 1668l99 227l190 -15l-195 -277q-56 -93 -120 -34l-272 292l119 63z" />
    <glyph glyph-name="uni1BA8_uni1B80" 
d="M-940 1668l99 227l190 -15l-195 -277q-56 -93 -120 -34l-272 292l119 63zM-189 1696q0 -74 -69 -128.5t-169 -54.5q-101 0 -170 54.5t-69 128.5v30q0 74 69 128.5t170 54.5q100 0 169 -54.5t69 -128.5v-30zM-427 1855q-42 0 -68.5 -53t-26.5 -91t26.5 -91.5t68.5 -53.5
t69.5 53.5t27.5 91.5t-27.5 91t-69.5 53z" />
    <glyph glyph-name="uni1BA8_uni1B81" 
d="M-969 1668l99 227l190 -15l-195 -277q-56 -93 -120 -34l-272 292l119 63zM-565 1776l-43 -148l-127 51l144 200q36 64 152 -51l121 -132l42 152l126 -53l-142 -199q-36 -64 -154 51z" />
    <glyph glyph-name="uni1BA9" unicode="&#x1ba9;" horiz-adv-x="20" 
d="M-754 1792l25 121l125 9l-108 -189l44 -71l99 230l191 -12l-195 -277q-56 -73 -120 -34l-272 293l118 60z" />
    <glyph glyph-name="uni1BA9_uni1B80" 
d="M-1039 1777l25 121l125 9l-108 -189l44 -71l99 230l191 -12l-195 -277q-56 -73 -120 -34l-272 293l118 60zM-159 1681q0 -74 -69 -128.5t-169 -54.5q-101 0 -170 54.5t-69 128.5v30q0 74 69 128.5t170 54.5q100 0 169 -54.5t69 -128.5v-30zM-397 1840q-42 0 -68.5 -53
t-26.5 -91t26.5 -91.5t68.5 -53.5t69.5 53.5t27.5 91.5t-27.5 91t-69.5 53z" />
    <glyph glyph-name="uni1BA9_uni1B81" 
d="M-1025 1792l25 121l125 9l-108 -189l44 -71l99 230l191 -12l-195 -277q-56 -73 -120 -34l-272 293l118 60zM-535 1776l-43 -148l-127 51l144 200q36 64 152 -51l121 -132l42 152l126 -53l-142 -199q-36 -64 -154 51z" />
    <glyph glyph-name="uni1BAA" unicode="&#x1baa;" horiz-adv-x="735" 
d="M284 -329l-124 -195q-165 313 51 507q239 187 230 287q0 133 -61.5 168.5t-210.5 -1.5l-31 121l244 249h-285l48 158h345q115 3 63 -83l-266 -326q215 16 293.5 -74t53.5 -206q1 -99 -177.5 -214.5t-209 -198t36.5 -192.5z" />
    <glyph glyph-name="uni1BAC" unicode="&#x1bac;" horiz-adv-x="16" 
d="M-1370 -118l41 -98q-200 -212 162 -205q191 4 346.5 64t245.5 202l71 -65q-147 -169 -391 -271q-163 -73 -327 -72q-175 7 -231 91q-79 130 83 354z" />
    <glyph glyph-name="uni1BAC_uni1BA5" 
d="M-546 -412l-160 -324l-112 80l159 176h-365l42 143h347q143 4 89 -75zM-1564 -43l41 -98q-200 -212 162 -205q191 4 346.5 64t245.5 202l71 -65q-147 -169 -391 -271q-163 -73 -327 -72q-175 7 -231 91q-79 130 83 354z" />
    <glyph glyph-name="uni1BAD" unicode="&#x1bad;" horiz-adv-x="29" 
d="M-1179 -508v14l-89 71l149 150h-191l39 123h163q119 3 73 -75l-90 -183l193 34l-33 -135zM-714 -153v-12l89 -71l-146 -150h191l-41 -123h-162q-120 -4 -77 73l93 185l-192 -34l34 135z" />
    <glyph glyph-name="uni1BAD_uni1BA5" 
d="M-546 -232l-160 -324l-112 80l159 176h-365l42 143h347q143 4 89 -75zM-1450 -523v14l-89 71l149 150h-191l39 123h163q119 3 73 -75l-90 -183l193 34l-33 -135zM-985 -168v-12l89 -71l-146 -150h191l-41 -123h-162q-120 -4 -77 73l93 185l-192 -34l34 135z" />
    <glyph glyph-name="uni1BA1" unicode="&#x1ba1;" horiz-adv-x="442" 
d="M-231 -775h-755l94 276l57 -79h704l361 1626l217 -133l-101 -65l-422 -1491q-28 -139 -155 -134z" />
    <glyph glyph-name="uni1BA1_uni1BA5" horiz-adv-x="464" 
d="M-346 -236l-160 -324l-112 80l159 176h-365l42 143h347q143 4 89 -75zM-231 -775h-755l94 276l57 -79h704l361 1626l217 -133l-101 -65l-422 -1491q-28 -139 -155 -134z" />
    <glyph glyph-name="uni1BAB" unicode="&#x1bab;" horiz-adv-x="735" 
d="M284 -329l-124 -195q-165 313 51 507q239 187 230 287q0 133 -61.5 168.5t-210.5 -1.5l-31 121l244 249h-285l48 158h345q115 3 63 -83l-266 -326q215 16 293.5 -74t53.5 -206q1 -99 -177.5 -214.5t-209 -198t36.5 -192.5z" />
    <glyph glyph-name="uni1BAE" unicode="&#x1bae;" horiz-adv-x="2030" 
d="M900 1403q139 5 94 -137l-141 -414h218q139 6 94 -135l-225 -483h269l167 1169h449q152 5 93 -137l-326 -1272h-200l372 1163h-267l-216 -1163h-614l334 613h-229l-207 -613h-198l474 1163h-217l-392 -1163h-198l474 1163h-493l72 246h813z" />
    <glyph glyph-name="uni1BAF" unicode="&#x1baf;" horiz-adv-x="1870" 
d="M599 1157l-64 -306h203l84 306h-223zM793 607l-186 -613h-198l228 611h-184l-166 -611h-198l208 611h-227l72 246h256l85 306h-468l72 246h794q139 5 94 -137l-100 -414h199q127 6 93 -136l-187 -482h182l243 1169h191l-206 -836l151 -394l65 679h218l-205 -861
q-59 -135 -160 -38l-151 362l-86 -321h-519l314 613h-224z" />
    <glyph glyph-name="uni1BB0" unicode="&#x1bb0;" horiz-adv-x="1259" 
d="M1092.5 1222.5q151.5 -218.5 122.5 -528.5q-30 -311 -222.5 -530t-434.5 -219q-240 0 -391.5 218t-122.5 528q30 312 222.5 531t433.5 219t392.5 -218.5zM679 1212q-437 -24 -489 -521q8 -464 403 -506q447 18 501 497q21 475 -415 530z" />
    <glyph glyph-name="uni1BB1" unicode="&#x1bb1;" horiz-adv-x="1283" 
d="M606 1157l-299 -923h564l188 378h-439l72 246h425q151 5 94 -135l-263 -729h-933l446 1163h-225l-63 -194h-153l147 440h890l-127 -440h-153l57 194h-228z" />
    <glyph glyph-name="uni1BB2" unicode="&#x1bb2;" horiz-adv-x="1066" 
d="M431 607l-124 -373l534 3l25 273l185 -2l-94 -514h-942l446 1163h-225l-63 -194h-153l147 440h528l-183 -551h298l-69 -245h-310z" />
    <glyph glyph-name="uni1BB3" unicode="&#x1bb3;" horiz-adv-x="1234" 
d="M15 -6l446 1163h-225l-63 -194h-153l147 440h528l-388 -1169l572 3l-125 233q-115 167 -85 274.5t216 107.5h334l-68 -245h-341l277 -392l-127 -221h-945z" />
    <glyph glyph-name="uni1BB4" unicode="&#x1bb4;" horiz-adv-x="1064" 
d="M623 604l-197 -610h-225l235 610h-171l-34 -137h-152l119 385h332l117 305h-416l-63 -194h-153l146 440h720l-178 -551h145l48 151h153l-133 -399h-293z" />
    <glyph glyph-name="uni1BB5" unicode="&#x1bb5;" horiz-adv-x="1346" 
d="M15 -6l446 1163h-225l-63 -194h-153l147 440h528l-388 -1169l590 3l-22 1066q6 100 103 100h353l-68 -246h-262l89 -938l-130 -225h-945z" />
    <glyph glyph-name="uni1BB6" unicode="&#x1bb6;" horiz-adv-x="1236" 
d="M15 -6l535 1409h508l-127 -440h-153l58 194h-228l-299 -923l572 3l-181 326q-60 100 -30.5 194.5t216.5 94.5h335l-69 -245h-341l277 -392l-127 -221h-946z" />
    <glyph glyph-name="uni1BB7" unicode="&#x1bb7;" horiz-adv-x="1674" 
d="M20 -6l41 179h157l308 1230h405q221 0 160 -226l-306 -943h298l220 1169h349l-37 -183h-158l-295 -1226h-654l446 1168h-363l-214 -1168h-357z" />
    <glyph glyph-name="uni1BB8" unicode="&#x1bb8;" horiz-adv-x="1593" 
d="M393 390q-161 136 -206.5 -37.5t206.5 37.5zM1578 1403l-37 -183h-131l-341 -1173q-49 -202 -535 236q-176 -289 -467 -315q-52 807 396 575l250 614h-417l-63 -194h-152l146 440h544q140 5 95 -137l-279 -826q438 -231 445 -85l235 1048h311z" />
    <glyph glyph-name="uni1BB9" unicode="&#x1bb9;" horiz-adv-x="1234" 
d="M15 -6l446 1163h-225l-63 -194h-153l147 440h890l-127 -440h-153l57 194h-228l-299 -923l572 3l-125 233q-115 167 -85 274.5t216 107.5h334l-68 -245h-341l277 -392l-127 -221h-945z" />
    <glyph glyph-name="uni1BBA" unicode="&#x1bba;" horiz-adv-x="872" 
d="M433 605h-266l72 246h296l124 306h-547l72 246h534q139 5 94 -137l-598 -1791h-199z" />
    <glyph glyph-name="uni1BBB" unicode="&#x1bbb;" horiz-adv-x="1274" 
d="M143 360l299 797h-423l72 246h411q140 5 93 -137l-184 -666h482l169 557h-312l72 246h288q152 5 93 -137l-182 -906h-878zM1010 212l-47 -218h-951l90 218h908z" />
    <glyph glyph-name="uni1BBC" unicode="&#x1bbc;" horiz-adv-x="1952" 
d="M517 234l103 317q59 136 161 38l449 -384l-113 -230l-463 395l-51 -374l-591 -2l353 1265q23 149 193 144h335l-68 -246h-381l-204 -923h277zM1688 -350l25 192l174 -142l-139 -332q-80 -187 -440 237q-178 -291 -468 -317q-52 807 396 575l506 1294h-588l72 246h575
q139 5 94 -137l-535 -1504q349 -241 328 -112zM948.5 -312q-59.5 -157 218.5 20q-159 137 -218.5 -20z" />
    <glyph glyph-name="uni1BBD" unicode="&#x1bbd;" horiz-adv-x="1910" 
d="M902 234l308 1024q45 150 191 145h481l6 9l-175 -684q-3 -97 -106 -91h-215l67 226h182l33 294h-366l-204 -924h498l-94 -239h-1476l95 239h330l350 924h-362l-157 -294h170l-78 -226h-222q-96 -4 -41 84l261 682v0h515q140 5 95 -137l-322 -1032h236z" />
    <glyph glyph-name="uni1BBE" unicode="&#x1bbe;" horiz-adv-x="1614" 
d="M281 488l-154 -8l242 359h-212l56 155h223q95 5 41 -83zM339 233l376 924h-533l72 246h520q139 5 94 -137l-348 -1032h565l305 923h-396l72 246h384q152 5 94 -137l-311 -1033h224l-94 -239h-1351l94 239h233zM1005 488l-154 -8l241 359h-211l56 155h222q96 5 41 -83z
" />
    <glyph glyph-name="uni1BBF" unicode="&#x1bbf;" horiz-adv-x="1182" 
d="M1125 1266l-429 -1272h-198l474 1163h-943l72 246h930q139 5 94 -137zM535 567l-48 -184h-461l42 184h467zM399 177l-48 -183h-339l43 183h344zM672 945l-48 -183h-584l42 183h590z" />
    <glyph glyph-name="uni1CC0" unicode="&#x1cc0;" horiz-adv-x="2033" 
d="M1008 828q-56 0 -90.5 -47t-33 -110t39 -108.5t92.5 -45.5q56 1 91.5 47.5t34 110t-40.5 109t-93 44.5zM1270 675q2 -109 -72 -178t-179 -71q-107 -1 -183.5 67.5t-79.5 178.5q-2 115 72 184.5t182 71.5q104 1 181 -68t79 -185zM1001 1198q-165 -3 -275 -155
t-107.5 -370.5t117.5 -368t278 -148.5q167 3 281.5 155t112 370.5t-122 368t-284.5 148.5zM1461 1131q162 -145 195 -414q27 51 38 66l167 201l14 -203l-136 -101l159 -170l-40 -124l-200 283q-16 -281 -182 -438q-161 -149 -396 -173l1 -37q19 -10 32 -22l191 -187
l-182 -15l-97 149l-155 -171l-119 44l240 203l-1 34q-245 14 -417 167q-167 147 -195 419q-28 -52 -38 -65l-168 -201l-14 202l136 101l-159 171l40 124l202 -284q19 280 181 433q160 150 395 172l-3 42q-16 11 -30 23l-191 187l184 15l97 -148l156 170l117 -43l-241 -205
v-38q247 -14 419 -167z" />
    <glyph glyph-name="uni1CC1" unicode="&#x1cc1;" horiz-adv-x="1555" 
d="M771 766l263 313q-114 120 -254 119q-153 -1 -272 -142zM718 710q-83 82 -295 192q-38 -114 -37 -231q2 -97 32 -199zM778 639l-280 -318q7 -12 10 -15q121 -151 287 -149q157 2 273 152zM847 698q99 -115 304 -216q26 100 26 200q-3 124 -47 243zM318.5 1123
q183.5 172 447.5 175q266 2 456 -166.5t194 -455.5q4 -273 -179.5 -445t-448.5 -175q-265 -2 -455 166.5t-194 444.5q-4 284 179.5 456z" />
    <glyph glyph-name="uni1CC2" unicode="&#x1cc2;" horiz-adv-x="1555" 
d="M512 1011q117 -152 279 -150q161 2 267 157q4 2 8 12q-7 14 -11 18q-114 151 -279 150q-163 -3 -283 -157q11 -21 19 -30zM1069 345q-111 150 -270 148q-161 -1 -277 -155q-7 -11 -20 -29q126 -154 289 -152q165 2 275 155q6 5 13 19q-7 9 -10 14zM785 593
q195 1 366 -105q23 101 22 194q-2 93 -29 190q-164 -110 -360 -111q-202 -3 -376 113q-27 -102 -24 -203q0 -97 31 -198q167 117 370 120zM318.5 1123q183.5 172 447.5 175q266 2 456 -166.5t194 -455.5q4 -273 -179.5 -445t-448.5 -175q-265 -2 -455 166.5t-194 444.5
q-4 284 179.5 456z" />
    <glyph glyph-name="uni1CC3" unicode="&#x1cc3;" horiz-adv-x="1555" 
d="M1416 676q4 -273 -179.5 -445t-448.5 -175q-265 -2 -455 166.5t-194 444.5q-4 284 179.5 456t448.5 175q265 2 455 -166.5t194 -455.5zM760 1198q-148 -3 -245 -155t-94.5 -370t105 -368t247.5 -149q150 3 251 156t98.5 370.5t-109 367t-253.5 148.5z" />
    <glyph glyph-name="uni1CC4" unicode="&#x1cc4;" horiz-adv-x="2550" 
d="M540 234l103 317q58 136 161 38l449 -384l-113 -230l-463 395l-51 -374l-591 -2l352 1265q24 149 194 144h254l-56 -246h-312l-204 -923h277zM1697 -350l39 193l174 -143l-139 -332q-80 -187 -440 237q-178 -291 -468 -317q-52 807 396 575l506 1294h-400l63 246h396
q139 5 94 -137l-535 -1504q336 -241 314 -112zM971 -312q-59 -157 219 20q-160 137 -219 -20zM2187 590l-46 -184h-353l41 184h358zM2487 1403l-46 -183h-380l41 183h385zM2037 173l-47 -183h-338l41 183h344zM2337 996l-46 -183h-366l41 183h371zM1469 997l-47 -184h-762
l41 184h768zM1360 579l-47 -183h-97l-179 183h323zM1265 1403l-37 -183h-294l41 183h290z" />
    <glyph glyph-name="uni1CC5" unicode="&#x1cc5;" horiz-adv-x="1340" 
d="M754 802l47 184h393l-41 -184h-399zM508 -10l47 183h502l-41 -183h-508zM891 1220l46 183h339l-41 -183h-344zM631 396l47 183h448l-41 -183h-454zM685 1266l-429 -1272h-198l474 1163h-507l73 246h492q140 5 95 -137z" />
    <glyph glyph-name="uni1CC6" unicode="&#x1cc6;" horiz-adv-x="2120" 
d="M540 234l103 317q58 136 161 38l382 -384l-50 -228l-459 393l-51 -374l-591 -2l352 1265q24 149 194 144h254l-56 -246h-312l-204 -923h277zM1805 590l-47 -184h-557l41 184h563zM2078 1403l-47 -183h-1048l41 183h1054zM1654 173l-46 -183h-339l41 183h344zM1941 996
l-46 -183h-817l41 183h822z" />
    <glyph glyph-name="uni1CC7" unicode="&#x1cc7;" horiz-adv-x="2900" 
d="M2354 802l47 184h394l-43 -184h-398zM2108 -10l48 183h502l-42 -183h-508zM2490 1220l48 183h338l-42 -183h-344zM2231 396l47 183h448l-42 -183h-453zM1304 -10l1 4h-639q-152 -6 -100 136l377 1273h380l-58 -246h-210l-326 -918h468l87 313q55 135 160 37l365 -407
l347 975h-557l-73 -194h-154l132 440h714q152 5 100 -137l-378 -1345l-587 447zM528 590l-48 -184h-393l42 184h399zM774 1403l-48 -183h-502l42 183h508zM392 173l-48 -183h-339l42 183h345zM651 996l-48 -183h-448l43 183h453z" />
    <glyph glyph-name="uni25CC" unicode="&#x25cc;" horiz-adv-x="1383" 
d="M1251 1019l-129 -92q-63 102 -164 165l91 126q124 -78 202 -199zM833 1313l-26 -152q-56 13 -115 13q-60 0 -116 -13l-27 152q74 17 142 17q71 0 142 -17zM1338 683q0 -70 -16 -142l-153 26q13 56 13 114q0 62 -13 118l153 26q16 -73 16 -142zM1251 347
q-80 -122 -202 -201l-91 127q101 63 164 165zM425 1092q-101 -63 -163 -165l-130 92q78 121 204 199zM214 567l-154 -26q-15 68 -15 142q0 73 15 142l154 -26q-13 -56 -13 -118q0 -58 13 -114zM833 52q-71 -17 -142 -17q-68 0 -142 17l27 153q56 -14 116 -14q59 0 115 14z
M425 273l-89 -127q-124 79 -204 201l130 91q62 -102 163 -165z" />
    <glyph glyph-name="uni0308" unicode="&#x308;" 
d="M-732 1366v-221h210v221h-210zM-1066 1366v-221h210v221h-210z" />
    <glyph glyph-name="uni035C" unicode="&#x35c;" 
d="M-722 -183v-275h1400v267l-105 -1l-1 -125h-1194v134h-100z" />
    <glyph glyph-name="uniA980" unicode="&#xa980;" 
d="M-938 1213v-95h472v105h-117l1 139h-100l-1 150h-66v-155h-95v-144h-94zM-755 1229v67h79l-1 -67h-78z" />
    <glyph glyph-name="uniA981" unicode="&#xa981;" 
d="M-975 1356v-211h328v83h-139v127z" />
    <glyph glyph-name="uniA982" unicode="&#xa982;" 
d="M-1014 1043l-1 1100h118l-5 -1100h-112z" />
    <glyph glyph-name="uniA982.repha" 
d="M-1014 1043l-1 1100h118l-5 -1100h-112z" />
    <glyph glyph-name="uniA983" unicode="&#xa983;" horiz-adv-x="860" 
d="M672 -2h-494v321h306v489h-195v-184h-117v317l500 -1v-726l-294 -1v-110l470 1l4 -2001l-183 4z" />
    <glyph glyph-name="cerek" 
d="M759 -138v-256l175 -1v-514h164v595l-244 -1l1 177h-96z" />
    <glyph glyph-name="cerek.conj" 
d="M-1019 -1205v-256l175 -1v-514h164v595l-244 -1l1 177h-96z" />
    <glyph glyph-name="cerek2" 
d="M1228 -846h-318v83h165v226l-162 1v423h314v-79h-157v-265h158v-389z" />
    <glyph glyph-name="cerek.conj2" 
d="M-977 -1876h-318v83h165v226l-162 1v423h314v-79h-157v-265h158v-389z" />
    <glyph glyph-name="uniA984" unicode="&#xa984;" horiz-adv-x="2600" 
d="M180 -1v1394h606v-94l-501 -1l1 -1193l311 -1v295l-190 -1v123h189l1 318l-112 -2l1 -144l-100 1l-1 244l401 -1l-1 -937zM845 102l946 -1v844h491l-1 -944h-195l-2 833l-200 -1l-1 -831l-1041 -1zM1371 416l1138 5v-306l-99 1v205h-1146l2 284l104 -1z" />
    <glyph glyph-name="uniA984.conj" 
d="M-2280 -1123v1097h606v-94l-501 -1l1 -901l311 4v290l-190 -1v123h189l1 318l-112 -2l1 -144l-100 1l-1 244l401 -1l-1 -937zM-375 -816l-1 523l-200 -1l-1 -523zM-375 -1132v218h-202v-211l-1036 -1l-2 101l946 -1v112h-440l-3 284l109 -1l-4 -183l338 -3v635h491
l-1 -633l215 1v-306l-99 1v205h-116v-218h-196z" />
    <glyph glyph-name="uniA984_uniA9B8.conj" 
d="M-2280 -1123v1097h606v-94l-501 -1l1 -901l311 4v290l-190 -1v123h189l1 318l-112 -2l1 -144l-100 1l-1 244l401 -1l-1 -937zM-375 -816l-1 523l-200 -1l-1 -523zM-669 -817v635h491l-1 -633l215 1v-306l-99 1v205h-116l-2 -889l122 -1v658h96v-758l-413 1l1 989h-202
v-211l-1036 -1l-2 101l946 -1v112h-440l-3 284l109 -1l-4 -183z" />
    <glyph glyph-name="uniA984_uniA9B9.conj" 
d="M-2280 -1123v1097h606v-94l-501 -1l1 -901l311 4v290l-190 -1v123h189l1 318l-112 -2l1 -144l-100 1l-1 244l401 -1l-1 -937zM-375 -816l-1 523l-200 -1l-1 -523zM-375 -1132v218h-202v-211l-1036 -1l-2 101l946 -1v112h-440l-3 284l109 -1l-4 -183l338 -3v635h491
l-1 -633l215 1v-306l-99 1v205h-116v-218h-196zM-179 -1422v-378l119 -1v379h-119zM-179 -1328h213l-1 -573l-407 1v478h-158v265h158v84h195v-84h215l-1 -94h-214v-77zM-374 -1328v77h-62v-77h62z" />
    <glyph glyph-name="uniA984_uniA9BD.conj" 
d="M-2280 -1123v1097h606v-94l-501 -1l1 -901l311 4v290l-190 -1v123h189l1 318l-112 -2l1 -144l-100 1l-1 244l401 -1l-1 -937zM-375 -816l-1 523l-200 -1l-1 -523zM-375 -1132v218h-202v-211l-1036 -1l-2 101l946 -1v112h-440l-3 284l109 -1l-4 -183l338 -3v635h491
l-1 -633l215 1v-306l-99 1v205h-116v-218h-196z" />
    <glyph glyph-name="uniA985" unicode="&#xa985;" horiz-adv-x="1900" 
d="M1515 833h-307v-174h-105v174h-318l-1 -732h266v-102l-637 1v838h-139v-838l-94 1v933h433l3 -836l63 -1l1 835h1039l1 -932h-205v833zM964 -138v-256l175 -1v-514h164v595l-244 -1l1 177h-96z" />
    <glyph glyph-name="uniA985.conj" 
d="M-383 -274h-307v-179h-105v179h-318l-1 -737h266v-97l-637 -4v838h-139v-838l-94 1v933h438l-2 -836l63 -1l1 840h1039l1 -937h-205v838zM-1008 -1205v-256l175 -1v-514h164v595l-244 -1l1 177h-96z" />
    <glyph glyph-name="uniA986" unicode="&#xa986;" horiz-adv-x="2434" 
d="M1689 932l3 -830l63 -4v835h499v-932h-205l3 828l-203 1v-831l-362 1l-2 833h-295v-174h-105v174h-300l-1 -732h266v-102l-637 1v838h-139v-838l-94 1v933h438l3 -836l58 4l1 830h1009zM1181 -116v-256l175 -1v-514h164v595l-244 -1l1 177h-96z" />
    <glyph glyph-name="uniA986.conj" horiz-adv-x="3" 
d="M-747 -181l3 -835l68 1v835h499v-932h-200l3 828l-208 1v-831l-362 1l-2 833h-295v-174h-105v174h-300l-1 -732h266v-102l-637 1v838h-139v-838l-94 1v933h438l-2 -836l63 -1l1 835h1004zM-1300 -1216v-256l175 -1v-514h164v595l-244 -1l1 177h-96z" />
    <glyph glyph-name="uniA987" unicode="&#xa987;" horiz-adv-x="2440" 
d="M1689 932l3 -830l63 -4v835h499v-932h-205l3 828l-203 1v-831l-362 1l-2 833h-295v-174h-105v174h-300l-1 -732h266v-102l-637 1v838h-139v-838l-94 1v933h438l3 -836l58 4l1 830h1009zM1358 -846h-318v83h165v226l-162 1v423h314v-79h-157v-265h158v-389z" />
    <glyph glyph-name="uniA987.conj" horiz-adv-x="3" 
d="M-747 -181l3 -835l68 1v835h499v-932h-200l3 828l-208 1v-831l-362 1l-2 833h-295v-174h-105v174h-300l-1 -732h266v-102l-637 1v838h-139v-838l-94 1v933h438l-2 -836l63 -1l1 835h1004zM-1031 -1876h-318v83h165v226l-162 1v423h314v-79h-157v-265h158v-389z" />
    <glyph glyph-name="uniA988" unicode="&#xa988;" horiz-adv-x="1905" 
d="M1515 -267v1105h-307v-174h-105v174h-318l-1 -732h266v-102l-637 1v838h-139v-838l-94 1v933h433l3 -836l63 -1l1 835h1039l1 -1212h-1v-85l-790 -1v-1287h110v631l880 2v-109l-784 3v-649h-400v1503h780z" />
    <glyph glyph-name="uniA988.conj" horiz-adv-x="2" 
d="M-383 -1202v928h-307v-179h-105v179h-318l-1 -737h266v-97l-637 -4v838h-139v-838l-94 1v933h438l-2 -836l63 -1l1 840h1039l1 -1042h-3v-78l-790 -1v-477h110v286h181v3h665v-108l-750 1v-304h-400v693h782z" />
    <glyph glyph-name="uniA989" unicode="&#xa989;" horiz-adv-x="1907" 
d="M413 1v843l-139 2v-845h-94v935l440 -2l-1 -840l575 1l1 844l532 2v-942l-198 2v838h-243l-1 -838h-872zM871 -138v-256l175 -1v-514h164v595l-244 -1l1 177h-96z" />
    <glyph glyph-name="uniA989.conj" horiz-adv-x="1900" 
d="M1519 839h-246l-1 -838h-1092v93l999 1l1 844l540 2v-942l-201 2v838zM1013 -137v-256l175 -1v-514h164v595l-244 -1l1 177h-96z" />
    <glyph glyph-name="uniA98A" unicode="&#xa98a;" horiz-adv-x="1900" 
d="M525 -406v-986l991 3l1 984zM1520 833h-312v-174h-105v174h-318l-1 -732h266v-102l-637 1v838h-139v-838l-94 1v933h433l3 -836l63 -1l1 835h1044l1 -1233l218 -1v-100h-217l-2 -1091h-1313l-3 1187l1111 3z" />
    <glyph glyph-name="uniA98A.conj" 
d="M-1008 -1268v-529h619l1 527zM22 -1272h-201l-2 -629l-946 3l2 730h739l1 886h-312v-174h-105v174h-318l-1 -732h266v-102l-637 1v838h-139v-838l-94 1v933h433l3 -836l63 -1l1 835h1044l1 -988h202v-101z" />
    <glyph glyph-name="uniA98B" unicode="&#xa98b;" horiz-adv-x="2050" 
d="M525 -406v-986l991 3l1 984zM2251 -305l-3 -744l-413 -2l-2 108l216 -3l3 238l-209 -2l4 104l203 3l2 196h-326l-2 -1086h-1313l-3 1187l1111 3l1 1136h-312v-174h-105v174h-318l-1 -732h266v-102l-637 1v838h-139v-838l-94 1v933h433l3 -836l63 -1l1 835h1044l1 -1238z
" />
    <glyph glyph-name="uniA98B.conj" 
d="M-1008 -1268v-529h619l1 527zM134 -1170v-537l-293 3l1 100h138l-2 111l-129 -4l-1 104h128l-1 121h-154l-2 -629l-946 3l2 730h739l1 886h-312v-174h-105v174h-318l-1 -732h266v-102l-637 1v838h-139v-838l-94 1v933h433l3 -836l63 -1l1 835h1044l1 -988z" />
    <glyph glyph-name="uniA98C" unicode="&#xa98c;" horiz-adv-x="1693" 
d="M1080 681v254h-900v-935h1261v-288l206 -1l-1 393l-1272 2v740h500v-165h206z" />
    <glyph glyph-name="uniA98C.conj" 
d="M-595 -454v254h-900v-935h1261v-288l206 -1l-1 393l-1272 2v740h500v-165h206z" />
    <glyph glyph-name="uniA98D" unicode="&#xa98d;" horiz-adv-x="1693" 
d="M1080 681v254h-900v-935h1261v-288l206 -1l-1 393l-1272 2v740h500v-165h206zM914 1025h-318v83h165v226l-162 1v423h314v-79h-157v-265h158v-389z" />
    <glyph glyph-name="uniA98D.conj" 
d="M-595 -454v254h-900v-935h1261v-288l206 -1l-1 393l-1272 2v740h500v-165h206zM-762 -1951h-318v83h165v226l-162 1v423h314v-79h-157v-265h158v-389z" />
    <glyph glyph-name="uniA98D_uniA980" horiz-adv-x="1680" 
d="M1060 681v254h-900v-935h1261v-288l206 -1l-1 393l-1272 2v740h500v-165h206zM612 1171v-95h472v105h-117l1 139h-100l-1 150h-66v-155h-95v-144h-94zM795 1187v67h79l-1 -67h-78zM568 1079h-318v83h165v226l-162 1v423h314v-79h-157v-265h158v-389z" />
    <glyph glyph-name="uniA98D_uniA981" horiz-adv-x="1680" 
d="M1060 681v254h-900v-935h1261v-288l206 -1l-1 393l-1272 2v740h500v-165h206zM732 1297v-211h328v83h-139v127zM668 1089h-318v83h165v226l-162 1v423h314v-79h-157v-265h158v-389z" />
    <glyph glyph-name="uniA98D_uniA982" horiz-adv-x="1680" 
d="M1060 681v254h-900v-935h1261v-288l206 -1l-1 393l-1272 2v740h500v-165h206zM755 977l-1 1122h124l1 -1122h-124zM688 989h-318v83h165v226l-162 1v423h314v-79h-157v-265h158v-389z" />
    <glyph glyph-name="uniA98D_uniA9B3" horiz-adv-x="1680" 
d="M1060 681v254h-900v-935h1261v-288l206 -1l-1 393l-1272 2v740h500v-165h206zM198 1327v-162h252v64h-107v97zM518 1327v-162h252v64h-107v97zM338 1547v-162h252v64h-107v97zM1008 1044h-318v83h165v226l-162 1v423h314v-79h-157v-265h158v-389z" />
    <glyph glyph-name="uniA98D_uniA9B3_uniA980" horiz-adv-x="1680" 
d="M1067 681v254h-900v-935h1261v-288l206 -1l-1 393l-1272 2v740h500v-165h206zM540 1202v-162h252v64h-107v97zM816 1175v-162h252v64h-107v97zM680 1422v-162h252v64h-107v97zM506 1540v-95h472v105h-117l1 139h-100l-1 150h-66v-155h-95v-144h-94zM689 1556v67h79
l-1 -67h-78zM488 1039h-318v83h165v226l-162 1v423h314v-79h-157v-265h158v-389z" />
    <glyph glyph-name="uniA98D_uniA9B3_uniA981" horiz-adv-x="1680" 
d="M1067 681v254h-900v-935h1261v-288l206 -1l-1 393l-1272 2v740h500v-165h206zM520 1187v-162h252v64h-107v97zM840 1187v-162h252v64h-107v97zM660 1407v-162h252v64h-107v97zM600 1701v-211h328v83h-139v127zM488 1024h-318v83h165v226l-162 1v423h314v-79h-157v-265
h158v-389z" />
    <glyph glyph-name="uniA98D_uniA9B3_uniA982" horiz-adv-x="1680" 
d="M1067 681v254h-900v-935h1261v-288l206 -1l-1 393l-1272 2v740h500v-165h206zM100 1332v-162h252v64h-107v97zM420 1332v-162h252v64h-107v97zM240 1552v-162h252v64h-107v97zM940 988l-1 1122h124l1 -1122h-124zM898 1014h-318v83h165v226l-162 1v423h314v-79h-157v-265
h158v-389z" />
    <glyph glyph-name="uniA98E" unicode="&#xa98e;" horiz-adv-x="1920" 
d="M1735 -280h-1v-85l-790 -1v-1287h110v631l880 2v-109l-784 3v-649h-400v1503h780l-1 1111h-243l-1 -838h-872v843l-139 2v-845h-94v935l440 -2l-1 -840l575 1l1 750h-230l1 94l771 2z" />
    <glyph glyph-name="uniA98E.conj" 
d="M-181 -1225v-70l-790 -1v-477h110v286h181v3h665v-108l-750 1v-304h-400v693h780l-1 928h-243l-1 -838h-872v843l-139 2v-845h-94v935l440 -2l-1 -840l575 1l1 750h-230l1 94l771 2l-2 -1053h-1z" />
    <glyph glyph-name="uniA98F" unicode="&#xa98f;" horiz-adv-x="2434" 
d="M988 405l4 -307l121 4v302zM1689 932v-830l66 -4v835h499v-932h-205l3 828l-203 1v-831l-365 1l1 833h-493l-4 -335h310v-496l-410 -4v407l-266 1l-1 -406h-208v838h-139v-838l-94 1v933h438l4 -436h267v434h800z" />
    <glyph glyph-name="uniA98F.conj" 
d="M-875 -715l-1 -307l121 -1v307zM-384 -1120l1 833h-493l1 -335h305v-501l-410 1v407l-318 1l-1 -406h-203v838h-139v-838l-94 1v933h438l-1 -436h319v434h800v-835l541 1v-230h-144v132h-602z" />
    <glyph glyph-name="uniA98F_uniA9B8.conj" horiz-adv-x="1" 
d="M-1440 -708l-1 -307l121 -1v309zM-379 -1095l-2 811l-203 1v-829l-365 -1l1 833h-493l1 -335h305v-501l-410 1v407l-271 1l2 -406h-206v838h-139v-838l-94 1v933h438l-1 -436h272v434h800v-835l66 1v835h499v-932h-2v-691l122 -1v1141h96v-1241l-418 1v808h2z" />
    <glyph glyph-name="uniA98F_uniA9B9.conj" 
d="M-1440 -708l-1 -307l121 -1v309zM-180 -1014v-100h-1v-690l122 -1v791h-121zM-380 -920l-1 189h-63v-189h64zM-381 -397v113l-203 1v-829l-365 -1l1 833h-493l1 -335h305v-501l-410 1v407l-271 1l2 -406h-206v838h-139v-838l-94 1v933h438l-1 -436h272v434h800v-835l66 1
v835h499v-287h-1v-170h220l-1 -94h-219v-189h218l-1 -985l-418 1v798h1v92h-163v377h162l-1 240h1z" />
    <glyph glyph-name="uniA98F_uniA9BD.conj" 
d="M-1440 -708l-1 -307l121 -1v304zM-966 -1558v125l-106 -4l1 -121h105zM-379 -1106l-2 822l-203 1v-834l-365 4l1 833h-493l1 -335h305v-501l-410 1v407l-271 -4l2 -401h-206v838h-139v-838l-94 -4v938h438l-1 -436h272v434h800v-835l66 1v835h499v-812l269 4v-670
l-900 -4l2 -139l235 -1l-2 -88l-391 -1v229h-198l1 315l353 4v-216l703 -1v453z" />
    <glyph glyph-name="uniA98F.conj_full" 
d="M-1440 -708l-1 -307l121 -1v309zM-744 -181v-835l66 1v835h499v-932h-200l-2 828l-203 1v-829l-365 -1l1 833h-493l1 -335h305v-501l-410 1v407l-271 1l2 -406h-206v838h-139v-838l-94 1v933h438l-1 -436h272v434h800z" />
    <glyph glyph-name="uniA98F_uniA9BF.conj" 
d="M-1440 -708l-1 -307l121 -1v304zM-379 -1287l-2 1003l-203 1v-834l-365 4l1 833h-493l1 -335h305v-501l-410 1v407l-271 -4l2 -401h-206v838h-139v-838l-94 1v933h438l-1 -436h272v434h800v-835l66 1v835h499v-1000l307 1l4 -700l-2749 -2v3178h118v-3056h2421v472h-301z
" />
    <glyph glyph-name="uniA990" unicode="&#xa990;" horiz-adv-x="2440" 
d="M995 405l4 -307l121 4v302zM1696 932v-830l66 -4v835h499v-932h-205l3 828l-203 1v-831l-365 1l1 833h-493l-4 -335h310v-496l-410 -4v407l-266 1l-1 -406h-208v838h-139v-838l-94 1v933h438l4 -436h267v434h800zM1159 -128v-256l175 -1v-514h164v595l-244 -1l1 177h-96z
" />
    <glyph glyph-name="uniA990.conj" 
d="M-875 -715l-1 -307l121 -1v307zM-384 -1120l1 833h-493l1 -335h305v-501l-410 1v407l-318 1l-1 -406h-203v838h-139v-838l-94 1v933h438l-1 -436h319v434h800v-835l541 1v-230h-144v132h-602zM-969 -1180v-216l175 -1v-435h164v503l-244 -1l1 150h-96z" />
    <glyph glyph-name="uniA990_uniA9B8.conj" horiz-adv-x="1" 
d="M-1440 -708l-1 -307l121 -1v309zM-379 -1095l-2 811l-203 1v-829l-365 -1l1 833h-493l1 -335h305v-501l-410 1v407l-271 1l2 -406h-206v838h-139v-838l-94 1v933h438l-1 -436h272v434h800v-835l66 1v835h499v-932h-2v-691l122 -1v1141h96v-1241l-418 1v808h2z
M-1374 -1180v-216l175 -1v-435h164v503l-244 -1l1 150h-96z" />
    <glyph glyph-name="uniA990_uniA9B9.conj" 
d="M-1440 -708l-1 -307l121 -1v309zM-180 -1014v-100h-1v-690l122 -1v791h-121zM-380 -920l-1 189h-63v-189h64zM-381 -397v113l-203 1v-829l-365 -1l1 833h-493l1 -335h305v-501l-410 1v407l-271 1l2 -406h-206v838h-139v-838l-94 1v933h438l-1 -436h272v434h800v-835l66 1
v835h499v-287h-1v-170h220l-1 -94h-219v-189h218l-1 -985l-418 1v798h1v92h-163v377h162l-1 240h1zM-1374 -1180v-216l175 -1v-435h164v503l-244 -1l1 150h-96z" />
    <glyph glyph-name="uniA990_uniA9BD.conj" 
d="M-1440 -708l-1 -307l121 -1v304zM-966 -1558v125l-106 -4l1 -121h105zM-379 -1106l-2 822l-203 1v-834l-365 4l1 833h-493l1 -335h305v-501l-410 1v407l-271 -4l2 -401h-206v838h-139v-838l-94 -4v938h438l-1 -436h272v434h800v-835l66 1v835h499v-812l269 4v-670
l-900 -4l2 -139l235 -1l-2 -88l-391 -1v229h-198l1 315l353 4v-216l703 -1v453zM-1569 -1185v-216l175 -1v-435h164v503l-244 -1l1 150h-96z" />
    <glyph glyph-name="uniA990.conj_full" 
d="M-1440 -708l-1 -307l121 -1v309zM-744 -181v-835l66 1v835h499v-932h-200l-2 828l-203 1v-829l-365 -1l1 833h-493l1 -335h305v-501l-410 1v407l-271 1l2 -406h-206v838h-139v-838l-94 1v933h438l-1 -436h272v434h800zM-1681 -1189v-216l175 -1v-435h164v503l-244 -1
l1 150h-96z" />
    <glyph glyph-name="uniA990_uniA9BF.conj" 
d="M-1440 -708l-1 -307l121 -1v304zM-1071 -1759h993v472h-301l-2 1003l-203 1v-834l-365 4l1 833h-493l1 -335h305v-501l-410 1v407l-271 -4l2 -401h-206v838h-139v-838l-94 1v933h438l-1 -436h272v434h800v-835l66 1v835h499v-1000l307 1l4 -700l-2749 -2v3178h118v-3056
h1264v380l-175 1v216h96l-1 -150l244 1v-448z" />
    <glyph glyph-name="uniA991" unicode="&#xa991;" horiz-adv-x="2200" 
d="M1040 405l-1 -307l121 -1v307zM2150 829l-134 1v-831l-485 1l1 833h-493l1 -335h305v-501l-410 1v407l-318 1l-1 -406h-203v838h-139v-838l-94 1v933h438l-1 -436h319v434h800v-835l186 1v835h228v-104z" />
    <glyph glyph-name="uniA991.conj" 
d="M-1157 -707l-1 -307l121 -1v307zM-47 -283l-134 1v-831l-485 1l1 833h-493l1 -335h305v-501l-410 1v407l-318 1l-1 -406h-203v838h-139v-838l-94 1v933h438l-1 -436h319v434h800v-835l186 1v835h228v-104z" />
    <glyph glyph-name="uniA991_uniA9B8.conj" 
d="M-1157 -707l-1 -307l121 -1v307zM-381 -1113l-285 1l1 833h-493l1 -335h305v-501l-410 1v407l-318 1l-1 -406h-203v838h-139v-838l-94 1v933h438l-1 -436h319v434h800v-835l186 1v835h228v-104l-134 1v-1717l122 -1v1326h96v-1426l-418 1v986z" />
    <glyph glyph-name="uniA991_uniA9B9.conj" 
d="M-1157 -707l-1 -307l121 -1v307zM-275 -615v436h228v-104l-134 1v-333h223l-1 -94h-222v-137h221l-1 -1245l-418 1v977l-287 1l1 833h-493l1 -335h305v-501l-410 1v407l-318 1l-1 -406h-203v838h-139v-838l-94 1v933h438l-1 -436h319v434h800v-835l186 1v74h-141v325h141
zM-181 -940v-157h2v-893l122 -1v1051h-124zM-275 -846v137h-42v-137h42z" />
    <glyph glyph-name="uniA991_uniA9BD.conj" 
d="M-1157 -707l-1 -307l121 -1v307zM-961 -1669v115l-104 -1l-1 -114h105zM-380 -1113l-286 1l1 833h-493l1 -335h305v-501l-410 1v407l-318 1l-1 -406h-203v838h-139v-838l-94 1v933h438l-1 -436h319v434h800v-835l186 1v835h228v-104l-134 1v-777h1v-74l275 1l1 -641h-866
l-1 -134l203 -1v-95l-393 1v229h-218l-2 317h411v-214l668 -1v423h-279z" />
    <glyph glyph-name="uniA991_uniA9BF.conj" 
d="M-1162 -707l4 -307l121 -1v312zM-275 -1015v836h228v-104l-134 1v-728l309 1l4 -870l-2749 -2v3178h118v-3056h2421v647h-588l1 833h-493l-4 -335h310v-501l-410 1v407l-318 1l-1 -406h-203v838h-139v-838l-94 1v933h438l-1 -436h319v434h800v-835h186z" />
    <glyph glyph-name="uniA992" unicode="&#xa992;" horiz-adv-x="2437" 
d="M699 98l63 -1l-1 835h731l-2 -835l61 1v835h706v-932h-200l-2 828l-410 1v-831l-355 1l-2 833h-422l1 -834l-371 1l-2 763h-114l-1 -191l-199 -4l1 291h518v-761z" />
    <glyph glyph-name="uniA992.conj" 
d="M-1739 -1016l63 -1l-1 835h726l3 -835l61 1v835h706v-932h-200l3 828l-415 1v-831l-355 1l-2 833h-422l1 -834l-376 1l3 763h-114l-1 -196l-194 1l-4 291h518v-761z" />
    <glyph glyph-name="uniA992_uniA9B8.conj" 
d="M-383 -285l-410 1v-831l-355 1l-2 833h-422l1 -834l-371 1l-2 763h-114l-1 -193l-199 -2l1 291h518v-761l61 1l1 833h731v-833l59 -1v835h706v-1618l122 -1v1126h96v-1226l-418 1z" />
    <glyph glyph-name="uniA992_uniA9B9.conj" 
d="M-382 -637l-1 352l-410 1v-831l-355 1l-2 833h-422l1 -834l-371 1l-2 763h-114l-1 -196l-199 1l1 291h518v-761l63 -1l-1 835h731l-2 -835l61 1v835h706v-456h221l-1 -94h-220v-189h219l-1 -1180l-418 1v1085h-162v377h161zM-181 -1014v-985l122 -1v986h-122zM-381 -920
l-1 189h-62v-189h63z" />
    <glyph glyph-name="uniA992_uniA9BD.conj" 
d="M-961 -1662v105l-106 1l1 -106h105zM-381 -1113l-2 828l-410 1v-831l-355 1l-2 833h-422l1 -834l-371 1l-2 763h-114l-1 -196l-199 1l1 291h518v-761l63 -1l-1 835h731l-2 -835l61 1v835h706v-801h1v-74l275 -1l3 -712l-868 3l-1 -134l203 -1v-95l-393 1v229h-218l1 315
l408 2v-214l668 -1v493h-279v58z" />
    <glyph glyph-name="uniA992_uniA9BF.conj" 
d="M-386 -1268l3 983l-410 1v-831l-355 1l-2 833h-422l1 -834l-376 1l3 763h-114l-1 -196l-194 1l-4 291h518v-761l63 -1l-1 835h726l3 -835l61 1v835h706v-984l309 1l4 -715l-2749 -2v3178h118v-3056h2421v487z" />
    <glyph glyph-name="uniA993" unicode="&#xa993;" horiz-adv-x="2434" 
d="M1482 102l-4 227h105v-231h172v733h-187v102h686v-932h-205l3 828l-203 1v-831l-742 1l-2 833h-320l1 -834l-373 1v771h-139v-771l-94 1v866h438l3 -769l60 -1l-1 835h629l3 -830h170z" />
    <glyph glyph-name="uniA993.conj" 
d="M-957 -1018l1 232h105v-231h172v733h-187v102h686v-932h-200l-2 828l-203 1v-831l-742 1l-2 833h-320l1 -834l-373 1v771h-139v-771l-94 1v866h438l-2 -769l65 -1l-1 835h629l-2 -835h170z" />
    <glyph glyph-name="uniA993_uniA9B8.conj" 
d="M-380 -1095l-2 809l-203 1v-831l-742 1l-2 833h-320l1 -834l-373 1v771h-139v-771l-94 1v866h438l-2 -769l65 -1l-1 835h629l-2 -835h170l1 232h105v-231h172v733h-187v102h686v-932h-1v-689l122 -1v1141h96v-1241l-418 1v808h1z" />
    <glyph glyph-name="uniA993_uniA9B9.conj" 
d="M-381 -637l-1 351l-203 1v-831l-742 1l-2 833h-320l1 -834l-373 1v771h-139v-771l-94 1v866h438l-2 -769l65 -1l-1 835h629l-2 -835h170l1 232h105v-231h172v733h-187v102h686v-455h220l-1 -94h-219v-189h218l-1 -985l-418 1v798h1v92h-163v377h162zM-180 -1014v-100h-1
v-690l122 -1v791h-121zM-380 -920l-1 189h-63v-189h64z" />
    <glyph glyph-name="uniA993_uniA9BD.conj" 
d="M-957 -1018l1 232h105v-231h172v733h-187v102h686v-932h-200l-2 828l-203 1v-831l-742 1l-2 833h-320l1 -834l-373 1v771h-139v-771l-94 1v866h438l-2 -769l65 -1l-1 835h629l-2 -835h170zM-962 -1560v120l-106 1l1 -121h105zM-270 -925h89v-74l275 -1v-665l-900 1
l2 -139l235 4l-2 -93l-391 -1v229h-198l1 315l353 -1v-211l703 -1v448h-167v189z" />
    <glyph glyph-name="uniA993_uniA9BF.conj" 
d="M-242 -1284h-138l-2 998l-203 1v-831l-742 1l3 833h-325l1 -834l-373 1v771h-139v-771l-94 1v866h433l3 -769l65 -1l-1 835h629l-2 -835h170l1 232h105v-231h172v733h-187v102h686v-1003l313 1l4 -700l-2749 -2v3178h118v-3056h2421v477z" />
    <glyph glyph-name="uniA994" unicode="&#xa994;" horiz-adv-x="1900" 
d="M1515 833h-307v-174h-105v174h-318l-1 -732h266v-102l-637 1v838h-139v-838l-94 1v933h433l3 -836l63 -1l1 835h1039l1 -932h-205v833z" />
    <glyph glyph-name="uniA994.conj" horiz-adv-x="2" 
d="M-383 -274h-307v-179h-105v179h-318l-1 -737h266v-97l-637 -4v838h-139v-838l-94 1v933h438l-2 -836l63 -1l1 840h1039l1 -937h-205v838z" />
    <glyph glyph-name="uniA994.conj_uniA9B8" horiz-adv-x="2" 
d="M-180 -1805l125 -1v1141h96v-1241l-418 1l-1 1626h-312v-174h-105v174h-318l1 -732h264v-102l-637 1v838h-139v-838l-93 -1l-1 935h438l-2 -831l65 -1l-1 830h1039z" />
    <glyph glyph-name="uniA994.conj_uniA9B9" horiz-adv-x="2" 
d="M-383 -637v358h-307v-174h-105v174h-318l-1 -732h266v-102l-637 1v838h-139v-838l-94 1v933h438l-2 -836l63 -1l1 835h1039v-457h219l-1 -94h-217v-189h216l-1 -985l-418 1v792h-2v98h-160v377h160zM-178 -1014v-98h-3v-692l122 -1v791h-119zM-383 -920v189h-61v-189h61z
" />
    <glyph glyph-name="uniA994.conj_uniA9BD" horiz-adv-x="2" 
d="M-962 -1565v120l-106 1l1 -121h105zM-270 -1112h-113v833h-307v-174h-105v174h-318l-1 -732h266v-102l-637 1v838h-139v-838l-94 1v933h438l-2 -836l63 -1l1 835h1039l1 -819l272 -1v-670l-900 1l2 -139l235 4l-2 -93l-391 -1v229h-198l1 315l353 -1v-211l703 -1v453
h-167v2z" />
    <glyph glyph-name="uniA994_uniA9BF.conj" horiz-adv-x="2" 
d="M-299 -1112h-84v833h-307v-174h-105v174h-318l-1 -732h266v-102l-637 1v838h-139v-838l-94 1v933h438l-2 -836l63 -1l1 835h1039l1 -835l311 1l4 -870l-2242 -2v3178h118v-3056h1914v647l-226 4v1z" />
    <glyph glyph-name="uniA995" unicode="&#xa995;" horiz-adv-x="1936" 
d="M686 97v206l-180 -1l1 -204zM180 1l1 931l708 1v-535l269 -2v-299l126 1v736h-225v99h697l-1 -932l-198 -2l-2 836l-167 -1l1 -835l-337 2l-2 299l-161 -1l-1 -298l-480 -2l1 399l277 -1v436h-400l-1 -832h-105z" />
    <glyph glyph-name="uniA995.conj" 
d="M-760 -789h207l-4 -490h-205zM-1074 -683v-106h122v-608l506 2l2 604l215 3v-385h219v490h-750l1 255h-493v-855l-304 -1l3 1026h407v101l-597 3l-3 -1241l597 2l-1 867l198 3v-160h-122z" />
    <glyph glyph-name="uniA995_uniA9B8.conj" 
d="M-940 -784h207l-4 -490h-205zM-1254 -678v-106h122v-608l506 2l2 604l230 3v-535l-3 -571l423 -1v1086h-96v-986l-122 1v471h2v640h-750l1 255h-493v-855l-304 -1l3 1026h407v101l-597 3l-3 -1241l597 2l-1 867l198 3v-160h-122z" />
    <glyph glyph-name="uniA995_uniA9B9.conj" 
d="M-69 -1241v-551l-122 1v550h122zM-940 -784h207l-4 -490h-205zM-454 -1147v189h59v-189h-59zM-190 -678h-750l1 255h-493v-855l-304 -1l3 1026h407v101l-597 3l-3 -1241l597 2l-1 867l198 3v-160h-122v-106h122v-608l506 2l2 604l230 3l-1 -81h-158v-377h158l1 -652
l426 -4l-4 750h-218v189h219l1 94h-220v186z" />
    <glyph glyph-name="uniA995_uniA9BD.conj" 
d="M-940 -779h207l-4 -400h-205zM-1078 -1563l-1 121l106 4v-125h-105zM-1254 -673v-106h122v-518l506 2l2 514l230 3v-344h-1v-157h281v-286l-703 1v216l-353 -4l-1 -315h198v-229l391 1l2 88l-235 1l-2 139l900 4v503l-273 1v486h-750l1 255h-493v-765l-304 -1l3 936h407
v101l-597 3l-3 -1151l597 2l-1 777l198 3v-160h-122z" />
    <glyph glyph-name="uniA995.conj_full" 
d="M-931 -739h208l-4 -290h-205zM-1122 -1147l506 2l2 404l230 3v-519l204 -2v626h-750l1 255h-493v-855l-304 -1l3 1026h407v101l-597 3l-3 -1241l597 2l-1 867l198 3v-160h-122v-106h122v-408z" />
    <glyph glyph-name="uniA995.conj_short" 
d="M-180 -678h-1064v-106h521l-4 -290h-205l3 651h-493v-855l-304 -1l3 1026h407v101l-597 3l-3 -1241l597 2l-1 867l198 3v-674l506 2l2 404l230 3v-364l204 -2v471z" />
    <glyph glyph-name="uniA996" unicode="&#xa996;" horiz-adv-x="2435" 
d="M1185 97v206l-180 -1l1 -204zM1388 933v-535l269 -2v-299l126 1v736h-225v99h697l-1 -932l-198 -2l-2 836l-167 -1l1 -835l-337 2l-2 299l-161 -1l-1 -298l-480 -2l1 399l277 -1v436h-400l1 -834l-373 1v771h-139v-771l-94 1v866h435l1 -769l65 -1l-1 835z" />
    <glyph glyph-name="uniA996.conj" 
d="M-2212 -791l177 3v-233l-177 1v229zM-1656 -790v-232l-203 1v231h203zM-1006 -707l-1 239l153 -1v-238h-152zM-572 -788l4 -236h-96v236h92zM-1090 -1116v-217l-91 -4l-1 221h92zM-854 -789v-235l-148 1l1 234h147zM-1566 -707v363l190 1v-364h-190zM-1091 -789l1 -234
h-88v234h87zM-1656 -1115v-240l-204 1v239h204zM-1376 -790v-232h-190v232h190zM-568 -1116v-220l-96 -1v221h96zM-350 -583v-122h-128v121zM-1715 -202v95l-320 3v-603h-277l4 -407l273 -1v-333h469v333l190 -1v-327l380 -2v329h142v-327l375 -1l-1 326l227 -2v-225h185
l-1 323h-411v234l306 -1l-1 317l-401 3v-238h-88v349h-427v-349h-88l-2 472h-475v-472h-202l-3 505h146z" />
    <glyph glyph-name="uniA996_uniA9B8.conj" 
d="M-2362 -786l177 3v-233l-177 1v229zM-1806 -785v-232l-203 1v231h203zM-1156 -702l-1 239l153 -1v-238h-152zM-722 -783l4 -236h-96v236h92zM-1240 -1111v-217l-91 -4l-1 221h92zM-1004 -784v-235l-148 1l1 234h147zM-1716 -702v363l190 1v-364h-190zM-1241 -784l1 -234
h-88v234h87zM-1806 -1110v-240l-204 1v239h204zM-1526 -785v-232h-190v232h190zM-718 -1111v-220l-96 -1v221h96zM-500 -578v-122h-128v121zM-218 -1340l-1 323h-411v234l306 -1l-1 317l-401 3v-238h-88v349h-427v-349h-88l-2 472h-475v-472h-202l-3 505h146v95l-320 3v-603
h-277l4 -407l273 -1v-333h469v333l190 -1v-327l380 -2v329h142v-327l375 -1l-1 326l219 -2v-773l408 -1v901h-96v-801l-122 1l1 448h2z" />
    <glyph glyph-name="uniA996_uniA9B9.conj" 
d="M-2362 -796l177 3v-163l-177 1v159zM-1806 -795v-162l-203 1v161h203zM-1156 -712l-1 239l153 -1v-238h-152zM-722 -793l4 -166h-96v166h92zM-1240 -1051v-217l-91 -4l-1 221h92zM-1004 -794v-165l-148 1l1 164h147zM-1716 -712v363l190 1v-364h-190zM-1241 -794l1 -164
h-88v164h87zM-1806 -1050v-240l-204 1v239h204zM-1526 -795v-162h-190v162h190zM-718 -1051v-220l-96 -1v221h96zM-500 -588v-122h-128v121zM-99 -1471v-326l-122 1v325h122zM-484 -1377v189h74v-189h-74zM-410 -1094h-173v-377h173l1 -427l411 -4l-4 525h-218v97h2v92h217
l1 94h-219v137h-411v164l306 -1l-1 317l-401 3v-238h-88v349h-427v-349h-88l-2 472h-475v-472h-202l-3 505h146v95l-320 3v-603h-277l4 -337l273 -1v-333h469v333l190 -1v-327l380 -2v329h142v-327l375 -1l-1 326l220 -2v-39z" />
    <glyph glyph-name="uniA996_uniA9BD.conj" 
d="M-2212 -791l177 3v-148l-177 1v144zM-996 -1563l1 126l104 4v-130h-105zM-350 -583v-122h-128v121zM-568 -1031v-160l-96 -1v161h96zM-1376 -790v-147h-190v147h190zM-1656 -1030v-180l-204 1v179h204zM-1091 -789l1 -149h-88v149h87zM-1566 -707v363l190 1v-364h-190z
M-854 -789v-150l-148 1l1 149h147zM-1090 -1031v-157l-91 -4l-1 161h92zM-572 -788l4 -151h-96v151h92zM-1006 -707l-1 239l153 -1v-238h-152zM-1656 -790v-147l-203 1v146h203zM-358 -1260l221 -2v-303l-598 1v221l-356 -4l2 -320h198v-229l391 1l2 88l-238 1l1 139l795 4
v500h-233l-1 226h-306v149l306 -1l-1 317l-401 3v-238h-88v349h-427v-349h-88l-2 472h-475v-472h-202l-3 505h146v95l-320 3v-603h-277l4 -322l273 -1v-273h469v273l190 -1v-267l380 -2v269h142v-267l375 -1l-1 266l122 -2v-225z" />
    <glyph glyph-name="uniA996.conj_full" 
d="M-2244 -791l177 3v-148l-177 1v144zM-382 -583v-122h-128v121zM-600 -1031v-100l-96 -1v101h96zM-1408 -790v-147h-190v147h190zM-1688 -1030v-180l-204 1v179h204zM-1123 -789l1 -149h-88v149h87zM-1598 -707v363l190 1v-364h-190zM-886 -789v-150l-148 1l1 149h147z
M-1122 -1031v-157l-91 -4l-1 161h92zM-604 -788l4 -151h-96v151h92zM-1038 -707l-1 239l153 -1v-238h-152zM-1688 -790v-147l-203 1v146h203zM-180 -1132l-1 195h-331v149l306 -1l-1 317l-401 3v-238h-88v349h-427v-349h-88l-2 472h-475v-472h-202l-3 505h146v95l-320 3
v-603h-277l4 -322l273 -1v-273h469v273l190 -1v-267l380 -2v269h142v-207l375 -1l-1 206l122 -2v-97h210z" />
    <glyph glyph-name="uniA996.conj_short" 
d="M-2244 -696l177 3v-148l-177 1v144zM-382 -488v-122h-128v121zM-600 -936v-100l-96 -1v101h96zM-1408 -695v-147h-190v147h190zM-1688 -935v-180l-204 1v179h204zM-1123 -694l1 -149h-88v149h87zM-1598 -612v268l190 1v-269h-190zM-886 -694v-150l-148 1l1 149h147z
M-1122 -936v-157l-91 -4l-1 161h92zM-604 -693l4 -151h-96v151h92zM-1038 -612l-1 204l153 -1v-203h-152zM-1688 -695v-147l-203 1v146h203zM-180 -1237l-1 395h-331v149l306 -1l-1 317l-401 3v-238h-88v314h-427v-314h-88l-2 377h-475v-377h-202l-3 410h146v95l-320 3v-508
h-277l4 -322l273 -1v-273h469v273l190 -1v-267l380 -2v269h142v-207l375 -1l-1 206l122 -2v-297h210z" />
    <glyph glyph-name="uniA997" unicode="&#xa997;" horiz-adv-x="1908" 
d="M976 644h549v201l-550 -1zM1727 439h1v-438h-200v391h-553v-294l237 -1v-96h-799v843l-139 2l1 -847h-95v946h438v-848h163v842h944v-383l-750 -2v-68h752v-47z" />
    <glyph glyph-name="uniA997_uniA9B8" horiz-adv-x="1908" 
d="M976 644h549v201l-550 -1zM1528 14v378h-553v-294l237 -1v-96h-799v843l-139 2l1 -847h-95v946h438v-848h163v842h944v-383l-750 -2v-68h752v-47h1v-438h-2v-1795l122 -1v1398h96v-1498l-418 1v1908h2z" />
    <glyph glyph-name="uniA997_uniA9B9" horiz-adv-x="1908" 
d="M976 644h549v201l-550 -1zM1847 -653h-122v-1149l122 -1v1150zM1525 -370h-90v-189h90v189zM1528 11v381h-553v-294l237 -1v-96h-799v843l-139 2l1 -847h-95v946h438v-848h163v842h944v-383l-750 -2v-68h752v-47h1v-438h-3v-277h221l-1 -94h-220v-189h219l-1 -1344
l-418 1v1249h-189v377h189v287h3z" />
    <glyph glyph-name="uniA997_uniA9BD" horiz-adv-x="1908" 
d="M976 644h549v201l-550 -1zM647 -956v120l-109 1l1 -121h108zM1528 -194v586h-553v-294l237 4v-101h-799v843l-139 2l1 -847h-95v946h438v-848h163v842h944v-383l-750 -2v-68h757l-4 -588l306 1l1 -976l-1227 2l2 -139l243 -1l-2 -88l-404 -1v229h-204l1 330l364 -1v-211
h1017v762z" />
    <glyph glyph-name="uniA997.conj" 
d="M-762 -705h-446v100h1044l-2 -501h-204v401h-220l-1 -612l-1106 1v1210h1223v-100h-1018l-1 -1006h731v507z" />
    <glyph glyph-name="uniA997_uniA9B8.conj" 
d="M-386 -705h-220l-1 -612l-1106 1v1210h1223v-100h-1018l-1 -1006h731v507h-446v100h1044l-1 -1198l122 -1v921h96v-1021l-423 1v1198z" />
    <glyph glyph-name="uniA997_uniA9B9.conj" 
d="M-385 -804v96h-220l-1 -612l-1106 1v1210h1223v-100h-1018l-1 -1006h731v507h-446v100h1044l-1 -196h220l-1 -94h-219v-189h218l-1 -815l-421 -1l-1 722h-158v377h158zM-181 -1181v-620l122 -1v621h-122zM-385 -1087v189h-59v-189h59z" />
    <glyph glyph-name="uniA997_uniA9BD.conj" 
d="M-966 -1553v130l-104 -4l-1 -126h105zM-370 -1108v403h-220l-1 -557l-1106 1v1155h1223v-100h-1023l4 -951h731v452h-446v100h1044l-2 -383h256v-665l-900 -4l-1 -139l238 -1l-2 -88l-391 -1v229h-198l-2 320l356 4v-221l703 -1v443z" />
    <glyph glyph-name="uniA997.conj_full" 
d="M-778 -707h-446v100h1044l-2 -501h-204v401h-220l-1 -442l-1106 1v1040h1223v-100h-1018l-1 -836h731v337z" />
    <glyph glyph-name="uniA997.conj_short" 
d="M-778 -707h-446v100h1044l-2 -686h-204v586h-220l-1 -452l-1106 1v1050h1223v-100h-1018l-1 -846h731v347z" />
    <glyph glyph-name="uniA998" unicode="&#xa998;" horiz-adv-x="1908" 
d="M976 644h549v201l-550 -1zM1727 439h1v-438h-200v391h-553v-294l237 -1v-96h-799v843l-139 2l1 -847h-95v946h438v-848h163v842h944v-383l-750 -2v-68h752v-47zM871 -138v-256l175 -1v-514h164v595l-244 -1l1 177h-96z" />
    <glyph glyph-name="uniA998.conj" 
d="M-762 -705h-446v100h1044l-2 -501h-204v401h-220l-1 -612l-1106 1v1210h1223v-100h-1018l-1 -1006h731v507zM-1105 -1062l-177 1l4 104l280 1l-1 -595h162l1 -99l-269 1v587z" />
    <glyph glyph-name="uniA998_uniA9B8.conj" 
d="M-386 -705h-220l-1 -612l-1106 1v1210h1223v-100h-1018l-1 -1006h731v507h-446v100h1044l-1 -1198l122 -1v921h96v-1021l-423 1v1198zM-1150 -1062l-177 1l4 104l280 1l-1 -595h162l1 -99l-269 1v587z" />
    <glyph glyph-name="uniA998_uniA9B9.conj" 
d="M-385 -804v96h-220l-1 -612l-1106 1v1210h1223v-100h-1018l-1 -1006h731v507h-446v100h1044l-1 -196h220l-1 -94h-219v-189h218l-1 -815l-421 -1l-1 722h-158v377h158zM-181 -1181v-620l122 -1v621h-122zM-385 -1087v189h-59v-189h59zM-1150 -1062l-177 1l4 104l280 1
l-1 -595h162l1 -99l-269 1v587z" />
    <glyph glyph-name="uniA998_uniA9BD.conj" 
d="M-966 -1598v130l-104 -4l-1 -126h105zM-370 -1108v403h-220l-1 -612l-1106 1v1210h1223v-100h-1023l4 -1006h731v507h-446v100h1044l-2 -383h256v-710l-900 -4l-1 -139l238 -1l-2 -88l-391 -1v229h-198l-2 320l356 4v-221l703 -1v488zM-1203 -1704l-269 -1l1 99h162
l-1 595l280 -1l4 -104l-177 -1v-587z" />
    <glyph glyph-name="uniA998.conj_full" 
d="M-778 -707h-446v100h1044l-2 -501h-204v401h-220l-1 -442l-1106 1v1040h1223v-100h-1018l-1 -836h731v337zM-1150 -1002l-177 1l4 104l280 1l-1 -595h162l1 -99l-269 1v587z" />
    <glyph glyph-name="uniA998.conj_short" 
d="M-778 -707h-446v100h1044l-2 -686h-204v586h-220l-1 -452l-1106 1v1050h1223v-100h-1018l-1 -846h731v347zM-985 -987l-177 1l4 104l280 1l-1 -595h162l1 -99l-269 1v587z" />
    <glyph glyph-name="uniA999" unicode="&#xa999;" horiz-adv-x="2860" 
d="M2166 562v274l-135 1l1 -275h134zM1718 -563h-1189v-1205l1638 -2l-1 2228l-338 4l3 471l442 2v-374h440l1 -436h-204v333h-237v-2339h-1956v1418l1200 -1l-2 1297h-307v-174h-105v174h-318l-1 -732h266v-102l-637 1v838h-139v-838l-94 1v933h438l3 -841l58 4l1 835h1039
z" />
    <glyph glyph-name="uniA999_uniA9B8" horiz-adv-x="2930" 
d="M2166 562v274l-135 1l1 -275h134zM2515 458h-242v-2339h-1956v1418l1200 -1l-2 1297h-307v-174h-105v174h-318l-1 -732h266v-102l-637 1v838h-139v-838l-94 1v933h438l3 -841l58 4l1 835h1039l-1 -1495h-1189v-1205l1638 -2l-1 2228l-338 4l3 471l442 2v-374h440l1 -2350
l122 -1v1398h96v-1498l-418 1z" />
    <glyph glyph-name="uniA999_uniA9B9" horiz-adv-x="2940" 
d="M2166 562v274l-135 1l1 -275h134zM2514 -367h-90v-189h90v189zM2836 -650h-122v-1149l122 -1v1150zM2515 458h-242v-2339h-1956v1418l1200 -1l-2 1297h-307v-174h-105v174h-318l-1 -732h266v-102l-637 1v838h-139v-838l-94 1v933h438l3 -841l58 4l1 835h1039l-1 -1495
h-1189v-1205l1638 -2l-1 2228l-338 4l3 471l442 2v-374h440l1 -834h221l-1 -94h-220v-189h219l4 -1344l-423 1v1249h-189v377h189z" />
    <glyph glyph-name="uniA999_uniA9BD" horiz-adv-x="2940" 
d="M2166 562v274l-135 1l1 -275h134zM2576 -1541v120l-106 1l1 -121h105zM2510 458h-237v-2339h-1956v1418l1200 -1l-2 1297h-307v-174h-105v174h-318l-1 -732h266v-102l-637 1v838h-139v-838l-94 1v933h438l3 -841l58 4l1 835h1039l-1 -1495h-1189v-1205l1638 -2l-1 2228
l-338 4l3 471l442 2v-374h440l4 -1496l504 -1v-710l-489 1l-3 -139l242 -1l-2 -88l-393 -1v229h-198l1 315l353 -1v-211l292 4v488h-515z" />
    <glyph glyph-name="uniA999_uniA9BE" horiz-adv-x="3667" 
d="M2166 562v274l-135 1l1 -275h134zM2510 458h-237v-1729h-1956v968l1200 -1l-2 1137h-307v-174h-105v174h-318l-1 -732h266v-102l-637 1v838h-139v-838l-94 1v933h438l3 -841l58 4l1 835h1039l-1 -1335h-1189v-755l1638 -2l-1 1618l-338 4l3 471l442 2v-374h440l1 -2023
h-747l-4 -322l1025 -3l4 2730h495l-4 -2838h-199v2735h-187v-2732h-1341l-1 530l756 2z" />
    <glyph glyph-name="uniA999_uniA9BE_uniA9B8" horiz-adv-x="3702" 
d="M2166 562v274l-135 1l1 -275h134zM3284 840h-187v-2732h-1341l-1 530l756 2l-1 1818h-237v-1729h-1956v968l1200 -1l-2 1137h-307v-174h-105v174h-318l-1 -732h266v-102l-637 1v838h-139v-838l-94 1v933h438l3 -841l58 4l1 835h1039l-1 -1335h-1189v-755l1638 -2l-1 1618
l-338 4l3 471l442 2v-374h440l1 -2023h-747l-4 -322l1025 -3l4 2730h495l-1 -965h-2v-1762l122 -1v1398h96v-1498l-418 1v2724z" />
    <glyph glyph-name="uniA999_uniA9BE_uniA9B9" horiz-adv-x="3705" 
d="M2166 562v274l-135 1l1 -275h134zM3606 -650h-122v-1149l122 -1v1150zM3284 -367h-90v-189h90v189zM3484 -22v-251h221l-1 -94h-220v-189h219l-1 -1344l-418 1v1249h-187v-1242h-1341l-1 530l756 2l-1 1818h-237v-1729h-1956v968l1200 -1l-2 1137h-307v-174h-105v174
h-318l-1 -732h266v-102l-637 1v838h-139v-838l-94 1v933h438l3 -841l58 4l1 835h1039l-1 -1335h-1189v-755l1638 -2l-1 1618l-338 4l3 471l442 2v-374h440l1 -2023h-747l-4 -322l1025 -3l4 2730h495l-1 -965h-2zM3284 840h-187v-1113h187v1113z" />
    <glyph glyph-name="uniA999_uniA9BE_uniA9BD" horiz-adv-x="3700" 
d="M2166 562v274l-135 1l1 -275h134zM3346 -1546v120l-106 1l1 -121h105zM3284 840h-187v-2732h-1341l-1 530l756 2l-1 1818h-237v-1729h-1956v968l1200 -1l-2 1137h-307v-174h-105v174h-318l-1 -732h266v-102l-637 1v838h-139v-838l-94 1v933h438l3 -841l58 4l1 835h1039
l-1 -1335h-1189v-755l1638 -2l-1 1618l-338 4l3 471l442 2v-374h440l1 -2023h-747l-4 -322l1025 -3l4 2730h495l-1 -953h1v-930l504 -1v-710l-489 1l-3 -139l242 -1l-2 -88l-393 -1v229h-198l1 315l353 -1v-211l292 4v488h-510v1895z" />
    <glyph glyph-name="uniA999_uniA9AE" horiz-adv-x="2885" 
d="M2166 562v274l-135 1l1 -275h134zM2511 -1089l-1 1547h-237v-1659h-1956v898l1200 -1l-2 1137h-307v-174h-105v174h-318l-1 -732h266v-102l-637 1v838h-139v-838l-94 1v933h438l3 -841l58 4l1 835h1039l-1 -1335h-1189v-685l1638 -2l-1 1548l-338 4l3 471l442 2v-374h440
l1 -1650v-293h-686l4 -368l615 -1l-2 270h95l1 -397h-906l2 608l673 2v179h1z" />
    <glyph glyph-name="uniA999.conj" horiz-adv-x="995" 
d="M266 562v274l-135 1l1 -275h134zM-182 23v-586h-1189v-1205l1638 -2l-1 2228l-338 4l3 471l442 2v-374h440l1 -436h-204v333h-237v-2339h-1956v1418l1200 -1l-1 487h202z" />
    <glyph glyph-name="uniA999_uniA9B8.conj" horiz-adv-x="1035" 
d="M266 562v274l-135 1l1 -275h134zM-182 8v-571h-1189v-1205l1638 -2l-1 2228l-338 4l3 471l442 2v-374h440l1 -2350l122 -1v1398h96v-1498l-418 1l1 2347h-242v-2339h-1956v1418l1200 -1l-1 472h202z" />
    <glyph glyph-name="uniA999_uniA9B9.conj" horiz-adv-x="1035" 
d="M266 562v274l-135 1l1 -275h134zM614 -367h-90v-189h90v189zM936 -650h-122v-1149l122 -1v1150zM-182 18v-581h-1189v-1205l1638 -2l-1 2228l-338 4l3 471l442 2v-374h440l1 -834h221l-1 -94h-220v-189h219l4 -1344l-423 1v1249h-189v377h189l1 731h-242v-2339h-1956
v1418l1200 -1l-1 482h202z" />
    <glyph glyph-name="uniA999_uniA9BD.conj" horiz-adv-x="1020" 
d="M266 562v274l-135 1l1 -275h134zM676 -1541v120l-106 1l1 -121h105zM-182 18v-581h-1189v-1205l1638 -2l-1 2228l-338 4l3 471l442 2v-374h440l4 -1496l504 -1v-710l-489 1l-3 -139l242 -1l-2 -88l-393 -1v229h-198l1 315l353 -1v-211l292 4v488h-515l1 1508h-237v-2339
h-1956v1418l1200 -1l-1 482h202z" />
    <glyph glyph-name="uniA999.conj_full" horiz-adv-x="994" 
d="M266 562v274l-135 1l1 -275h134zM610 -1167v78h1l-1 1547h-237v-1659h-1956v898l1200 -1l-1 336h202v-435h-1189v-685l1638 -2l-1 1548l-338 4l3 471l442 2v-374h440l1 -1650v-78h-204z" />
    <glyph glyph-name="uniA999.conj_short" horiz-adv-x="994" 
d="M266 562v274l-135 1l1 -275h134zM610 177v281h-237v-1659h-1956v898l1200 -1l-1 336h202v-435h-1189v-685l1638 -2l-1 1548l-338 4l3 471l442 2v-374h440v-384h-203z" />
    <glyph glyph-name="uniA99A" unicode="&#xa99a;" horiz-adv-x="3001" 
d="M2052 829l-203 1v-831l-362 1l-2 833h-295v-174h-105v174h-300l-1 -732h266v-102l-637 1v838h-139v-838l-94 1v933h438l-2 -836l63 -1l1 835h1009l-2 -835l68 1v835h499v-835l68 1v835h499v-932h-200l-2 828l-203 1v-831l-362 1z" />
    <glyph glyph-name="uniA99A.conj_old" 
d="M-949 -284l-203 1v-831l-362 1l-2 833h-295v-174h-105v174h-300l-1 -732h266v-102l-637 1v838h-139v-838l-94 1v933h438l-2 -836l63 -1l1 835h1009l-2 -835l68 1v835h499v-835l68 1v835h499v-932h-200l-2 828l-203 1v-831l-362 1z" />
    <glyph glyph-name="uniA99A.conj_old_uniA9B8" 
d="M-380 -1095l-2 812l-203 1v-831l-362 1l-2 828l-203 1v-831l-362 1l-2 833h-295v-174h-105v174h-300l-1 -732h266v-102l-637 1v838h-139v-838l-94 1v933h438l-2 -836l63 -1l1 835h1009l-2 -835l68 1v835h499v-835l68 1v835h499v-932h-1v-692l122 -1v1141h96v-1241l-418 1
v808h1z" />
    <glyph glyph-name="uniA99A.conj_old_uniA9B9" 
d="M-381 -637l-1 354l-203 1v-831l-362 1l-2 828l-203 1v-831l-362 1l-2 833h-295v-174h-105v174h-300l-1 -732h266v-102l-637 1v838h-139v-838l-94 1v933h438l-2 -836l63 -1l1 835h1009l-2 -835l68 1v835h499v-835l68 1v835h499v-458h220l-1 -94h-219v-189h218l-1 -985
l-418 1v798h1v92h-163v377h162zM-180 -1014v-97h-1v-693l122 -1v791h-121zM-380 -920l-1 189h-63v-189h64z" />
    <glyph glyph-name="uniA99A.conj_old_uniA9BD" 
d="M-962 -1560v120l-106 1l1 -121h105zM-383 -1116l1 833l-203 1v-831l-362 1l-2 828l-203 1v-831l-362 1l-2 833h-295v-174h-105v174h-300l-1 -732h266v-102l-637 1v838h-139v-838l-94 1v933h438l-2 -836l63 -1l1 835h1009l-2 -835l68 1v835h499v-835l68 1v835h499v-820
l274 -1v-665l-900 1l2 -139l235 4l-2 -93l-391 -1v229h-198l1 315l353 -1v-211l703 -1v448z" />
    <glyph glyph-name="uniA99A_uniA9BF.conj" 
d="M-180 -1275v-1h-200l-2 998l-203 -4v-831l-367 -4l3 833l-203 1v-831l-362 1l-2 833h-295v-174h-105v174h-300l-1 -732h266v-102l-637 1v838h-139v-838l-94 -14v948h438l-2 -836l63 -1l1 835h1004l3 -835l68 1v835h499v-835l68 1v835h499v-996l313 1l4 -705l-3382 -2
v3178h118v-3056h3054v482z" />
    <glyph glyph-name="uniA99A.conj" horiz-adv-x="1167" 
d="M-1162 -411v-764l781 -2l1 767zM14 -409l-190 1l3 -868h-1103l2 965l896 3v315h200l-4 -310l398 -2l-2 -1152h-747l-4 -322l1025 -3l4 2750h495l-4 -2858h-199v2755h-187v-2752h-1341l-1 530l761 2z" />
    <glyph glyph-name="uniA99A_uniA9B8.conj" horiz-adv-x="1167" 
d="M-1162 -406v-774l781 -2l1 777zM14 -404l-190 1l3 -878h-1103l2 975l896 3v310h200l-4 -305l398 -2l-2 -1167h-747l-4 -322l1025 -3l4 2750h495l-3 -2752l122 -1v1373h96v-1473l-418 1v2749h-187v-2752h-1341l-1 530l761 2z" />
    <glyph glyph-name="uniA99A_uniA9B9.conj" horiz-adv-x="1167" 
d="M-1162 -411v-769l781 -2l1 772zM1105 -652h-122v-1149l122 -1v1150zM783 -369l-50 1v-189l50 -1v189zM14 -409l-190 1l3 -873h-1103l2 970l896 3v315h200l-4 -310l398 -2l-2 -1162h-747l-4 -322l1025 -3l4 2750h495l-1 -990h-2l-1 -243h221l-1 -94h-220v-189h219
l-1 -1344l-418 1v1249l-149 1v377l149 -1v273h1v857h-187v-2752h-1341l-1 530l761 2z" />
    <glyph glyph-name="uniA99A_uniA9BD.conj" horiz-adv-x="1167" 
d="M-1162 -411v-769l781 -2l1 772zM846 -1541v120l-106 1l1 -121h105zM14 -409l-190 1l3 -873h-1103l2 970l896 3v315h200l-4 -310l398 -2l-2 -1162h-747l-4 -322l1025 -3l4 2750h495v-1893l504 -1v-710l-489 1l-3 -139l242 -1l-2 -88l-393 -1v229h-198l1 315l353 -1v-211
l292 4v488h-510v1905h-187v-2752h-1341l-1 530l761 2z" />
    <glyph glyph-name="uniA99A.conj_full" horiz-adv-x="1167" 
d="M-1042 -186v-399l661 -2l1 402zM14 -184l-190 1l3 -503h-983l2 600l776 3v90h200l-4 -85l398 -2l-2 -782h-747l-4 -227l1025 -3l4 2060h495l-4 -2168h-199v2065h-187v-2062h-1341l-1 435l761 2z" />
    <glyph glyph-name="uniA99A.conj_short" horiz-adv-x="1167" 
d="M-1042 -186v-399l661 -2l1 402zM14 -184l-190 1l3 -503h-983l2 600l776 3v90h200l-4 -85l398 -2l-2 -782h-747l-4 -227l1025 -3l4 2060h495l-4 -2313h-199v2210h-187v-2062h-1341l-1 435l761 2z" />
    <glyph glyph-name="uniA99B" unicode="&#xa99b;" horiz-adv-x="1900" 
d="M768 659v273h951l1 -932h-205v833h-262v-174h-105v174h-275v-174h-105zM931 97h133l-1 106h-132v-106zM743 99l-1 192h428v-291h-239v-208h139v108l100 1v-203l-426 -1l-1 302l-330 1v838h-139v-838l-94 1v933h438l-2 -836z" />
    <glyph glyph-name="uniA99B.conj" 
d="M-252 -1393v1190h-89v-1089l-342 1v317h-432l-1 -323l-362 2v979h194v105h-383v-1182h1415zM-1020 -1291v184h160v-184h-160z" />
    <glyph glyph-name="uniA99B_uniA9B8.conj" 
d="M-1265 -1291v184h160v-184h-160zM-426 -309v-1084l418 -1v1186h-96v-1086l-122 1l2 1088l-487 2v-1089l-217 1v317h-432l-1 -318l-242 2v974h194v105h-383v-1182h1170v1085z" />
    <glyph glyph-name="uniA99B_uniA9B9.conj" 
d="M-479 -660v189h53v-189h-53zM-1270 -1291v184h160v-184h-160zM-225 -754h131v-546l-132 1zM-224 -205l-507 2v-1089l-202 1v317h-432l-1 -318l-237 2v974h194v105h-383v-1182h1150v1085l216 -1v-68h-152v-377h152v-645l433 -1l-4 740h-228l1 189h228l1 94h-229v172z" />
    <glyph glyph-name="uniA99B_uniA9BD.conj" 
d="M-1119 -1603l-1 66l106 4v-70h-105zM-1270 -1286v184h160v-184h-160zM-224 -205l-502 2v-1084l-207 1v317h-432l-1 -318l-237 2v969h194v105h-383v-1177h1155v1080l211 -1l-1 -858h272v-438l-703 1v161l-353 -4l-1 -260h198v-149l386 1l-3 88l-230 1l3 59l900 4v655
l-265 -2z" />
    <glyph glyph-name="uniA99B.conj_full" 
d="M-1227 -1113v184h160v-184h-160zM-180 -1172l-1 967l-507 2v-911l-202 1v317h-437l4 -318l-237 -3v801h194v105h-383v-1004h1150v907l216 -1l-1 -863h204z" />
    <glyph glyph-name="uniA99B.conj_short" 
d="M-1227 -1031v184h160v-184h-160zM-180 -1281l-1 1081l-507 2v-834l-202 1v317l-437 -5l4 -313l-237 2v719h194v105h-383v-927h1150v830l216 -1l-1 -977h204z" />
    <glyph glyph-name="uniA99C" unicode="&#xa99c;" horiz-adv-x="1900" 
d="M768 659v273h951l1 -932h-205v833h-262v-174h-105v174h-275v-174h-105zM931 97h133l-1 106h-132v-106zM743 99l-1 192h428v-291h-757v838h-139v-838l-94 1v933h438l-2 -836z" />
    <glyph glyph-name="uniA99C.conj" 
d="M-1597 -167l-1 -1329h1421v1338l-473 -1v-439h386v-771l-1146 -1v1203h-187zM-466 -501v242h200l-1 -241z" />
    <glyph glyph-name="uniA99C_uniA9B8.conj" 
d="M-891 -411v152h200l-1 -151zM-416 -514v-1004l418 -1v1111h-96v-1011l-122 1l2 1008l-388 2v250l-473 -1v-349h386v-876l-916 -1v1218h-192l4 -1344h1191v998z" />
    <glyph glyph-name="uniA99C_uniA9B9.conj" 
d="M-931 -406v147h200l-1 -146zM-479 -805v119h63v-119h-63zM-215 -1017v118h121v-511l-122 1v392h1zM-214 -405l-428 2v245l-473 -1v-344h386v-871l-876 -1v1208h-192l4 -1334h1151v993l226 -1v-83h-162v-307h162v-610l423 -1l-4 705h-218l1 119h218l1 94h-219v187z" />
    <glyph glyph-name="uniA99C_uniA9BD.conj" 
d="M-1004 -1621v70l-106 -4l1 -66h105zM-687 -415l1 141h-200v-142zM-411 -612v93l-186 1v-883h-1181l-4 1219h192v-1093l906 1v761h-386v339l473 1v-240l388 -2v-197l1 -451l265 -3v-655l-900 1l-3 -59l230 -1l3 -88l-386 -1v149h-198l1 260l353 -1v-156l703 4v433h-272z
" />
    <glyph glyph-name="uniA99C.conj_full" 
d="M-857 -406v147h195l4 -146zM-180 -1222v817l-388 2v245l-473 -1v-344h386v-581l-931 -1v918h-192l-1 -1044h1211v703l186 -1v-713h202z" />
    <glyph glyph-name="uniA99C.conj_short" 
d="M-857 -406v147h195l4 -146zM-180 -1222v817l-388 2v245l-473 -1v-344h386v-511l-931 -1v848h-192l-1 -974h1211v633l186 -1v-713h202z" />
    <glyph glyph-name="uniA99D" unicode="&#xa99d;" horiz-adv-x="1907" 
d="M956 95h238l1 844l532 2v-942l-198 2v838h-243l-1 -838h-872v843l-139 2v-845h-94v935l440 -2l-1 -840h243v217h94v-216z" />
    <glyph glyph-name="uniA99D.conj" 
d="M-860 -1393h608v1190h-89v-1089l-342 1v287h-432l-1 -293l-362 2v979h194v105h-383v-1182h647v286h160v-286z" />
    <glyph glyph-name="uniA99D_uniA9B8.conj" 
d="M-1260 -1393v291h160v-291h478v1085l196 -1v-1084l418 -1v1186h-96v-1086l-122 1l2 1088l-487 2v-1084l-212 1v287h-432l-1 -293l-247 2v974h194v105h-383v-1182h532z" />
    <glyph glyph-name="uniA99D_uniA9B9.conj" 
d="M-479 -660v189h53v-189h-53zM-225 -754h131v-546l-132 1zM-426 -332v-45h-152v-377h152v-645l433 -1l-4 740h-228l1 189h228l1 94h-229v45h-202zM-224 -362v157l-487 2v-1084l-212 1v287h-432l-1 -293l-247 2v974h194v105h-383v-1182h532v291h160v-291h478v1085l196 -1
v-53h202z" />
    <glyph glyph-name="uniA99D_uniA9BD.conj" 
d="M-1119 -1603l-1 66l106 4v-70h-105zM-224 -205l-487 2v-1084l-212 1v287h-432l-1 -293l-247 2v974h194v105h-383v-1182h532v291h160v-291h478v1085l196 -1v-88l-1 -770h272v-438l-703 1v161l-353 -4l-1 -260h198v-149l386 1l-3 88l-230 1l3 59l900 4v655l-265 -2l-1 651
v194z" />
    <glyph glyph-name="uniA99D.conj_full" 
d="M-180 -1237v1032l-487 2v-894l-212 1v287h-432l-1 -293l-247 2v784h194v105h-383v-992h532v291h160v-291h478v895l196 -1v-928h202z" />
    <glyph glyph-name="uniA99D.conj_short" 
d="M-180 -1297v1092l-487 2v-799l-212 1v287h-432l-1 -293l-247 2v689h194v105h-383v-897h532v291h160v-291h478v800l196 -1v-988h202z" />
    <glyph glyph-name="uniA99E" unicode="&#xa99e;" horiz-adv-x="1908" 
d="M1727 939l1 -938h-1315v843l-139 2v-845h-94v935l440 -2l-1 -840h478v217h94v-216h446l1 750h-407l-2 94h498z" />
    <glyph glyph-name="uniA99E.conj" 
d="M-180 -173l1 -938h-1315v843l-139 2v-845h-94v935l440 -2l-1 -840h478v217h94v-216h446l1 750h-407l-2 94h498z" />
    <glyph glyph-name="uniA99E.conj_full" 
d="M-180 -173l1 -938h-1315v843l-139 2v-845h-94v935l440 -2l-1 -840h478v217h94v-216h446l1 750h-407l-2 94h498z" />
    <glyph glyph-name="uniA99E_uniA9B8.conj" 
d="M-381 -1111h-1113v843l-139 2v-845h-94v935l440 -2l-1 -840h478v217h94v-216h446l1 750h-407l-2 94h498l1 -938h-2v-692l122 -1v1141h96v-1241l-418 1v792z" />
    <glyph glyph-name="uniA99E_uniA9B9.conj" 
d="M-269 -592v325h-407l-2 94h498v-419h215l-1 -94h-213v-189h212l-1 -985l-418 1v748h-1108v843l-139 2v-845h-94v935l440 -2l-1 -840h478v217h94v-216h446v48h-278v377h279zM-179 -969v-142h-7v-648l122 -1v791h-115zM-270 -875v189h-179v-189h179z" />
    <glyph glyph-name="uniA99E_uniA9BD.conj" 
d="M-961 -1563v125l-106 -4l1 -121h105zM-1494 -1111v843l-139 2v-845h-94v935l440 -2l-1 -840h478v217h94v-216h446l1 750h-407l-2 94h498l1 -819l274 4v-675l-900 -4l2 -139l235 -1l-2 -88l-391 -1v229h-198l1 315l353 4v-216l703 -1v453z" />
    <glyph glyph-name="uniA99E.alt" horiz-adv-x="1908" 
d="M1727 939l1 -938h-1315v843l-139 2v-845h-94v935l440 -2l-1 -840h478v217h94v-216h446l1 750h-407l-2 94h498z" />
    <glyph glyph-name="uniA99F" unicode="&#xa99f;" horiz-adv-x="2967" 
d="M1889 829l-349 1v-831l-357 1v833h-347l-2 -834l-368 1l-2 763h-114l-1 -196l-199 1l1 291h518v-761l62 -1v835h653l1 -835l61 1v835h645l-1 -836l63 1v835h634v-932h-203l1 828l-338 1v-831l-357 1z" />
    <glyph glyph-name="uniA99F.conj" horiz-adv-x="1" 
d="M-1077 -283l-349 1v-831l-357 1v833h-347l-2 -834l-368 1l-2 763h-114l-1 -196l-199 1l1 291h518v-761l60 -1l2 835h653l1 -835l61 1v835h645l-1 -836l63 1v835h634v-932h-203l1 828l-338 1v-831l-357 1z" />
    <glyph glyph-name="uniA99F_uniA9B8.conj" horiz-adv-x="1" 
d="M-381 -283l-338 1v-831l-360 1l2 829l-349 1v-831l-357 1v833h-347v-834l-370 1l-2 763h-114l1 -196l-201 1l1 291h518v-761l62 -1v835h653l1 -835l61 1v835h645l-1 -836l63 1v835h634l-2 -1619l122 -1v1136h96v-1236l-418 1v1615z" />
    <glyph glyph-name="uniA99F_uniA9B9.conj" horiz-adv-x="1" 
d="M-381 -637v354l-338 1v-831l-357 1l-1 829l-349 1v-831l-357 1v833h-347l-2 -834l-368 1l-2 763h-114l-1 -196l-199 1l1 291h518v-761l60 -1l2 835h653l1 -835l61 1v835h645l-1 -836l63 1v835h634v-458h219l-1 -94h-218v-189h217l-1 -985l-418 1v793h-1v97h-161v377h162z
M-179 -1014v-97h-2v-693l122 -1v791h-120zM-382 -920v189h-62v-189h62z" />
    <glyph glyph-name="uniA99F_uniA9BD.conj" horiz-adv-x="1" 
d="M-964 -1563v120l-106 1l1 -121h105zM-179 -1107v-4h-203l1 828l-338 1v-831l-357 1l-1 829l-349 1v-831l-357 1v833h-347l-2 -834l-368 1l-2 763h-114l-1 -196l-199 1l1 291h518v-761l60 -1l2 835h653l1 -835l61 1v835h645l-1 -836l63 1v835h634v-813l271 -1v-675l-900 1
l2 -139l235 4l-2 -93l-391 -1v229h-198l1 315l353 -1v-211l703 -1v458h-74z" />
    <glyph glyph-name="uniA99F_uniA9BF.conj" horiz-adv-x="1" 
d="M-179 -1275v-1h-203l1 993l-338 1v-831l-357 1l-1 829l-349 1v-831l-357 1v833h-347l-2 -834l-368 1l-2 763h-114l-1 -196l-199 1l1 291h518v-761l60 -1l2 835h653l1 -835l61 1v835h645l-1 -836l63 1v835h634v-996l312 1l4 -705l-3382 -2v3178h118v-3056h3054v482z" />
    <glyph glyph-name="uniA9A0" unicode="&#xa9a0;" horiz-adv-x="2434" 
d="M616 98l470 -1v307l-195 1l-1 527h799l-2 -835l68 1v835h499v-932h-200l-2 828l-203 1v-831l-362 1l-2 833h-490l1 -335h195v-499l-778 1v838h-139v-838l-94 1v933h438z" />
    <glyph glyph-name="uniA9A0.conj" horiz-adv-x="1" 
d="M-388 -289h-490l-4 -340h200v-489l-778 -4v838h-139v-838l-94 1v933h438l-2 -836l470 -1v307l-200 -4l4 532h799v-833l546 -4v-225h-144v132h-607z" />
    <glyph glyph-name="uniA9A0.conj_full" horiz-adv-x="1" 
d="M-1817 -1014l470 -1v307l-200 -4l4 532h799l-2 -835l68 1v835h499v-932h-200l-2 833l-203 -4v-826l-367 -4l3 833h-490l-4 -340h200v-489l-778 -4v838h-139v-838l-94 1v933h438z" />
    <glyph glyph-name="uniA9A0_uniA9B8.conj" horiz-adv-x="1" 
d="M-379 -1095l-2 812l-203 1v-831l-362 1l-2 833h-490l1 -335h195v-499l-778 1v838h-139v-838l-94 1v933h438l-2 -836l470 -1v307l-195 1l-1 527h799l-2 -835l68 1v835h499v-932h-2v-687l122 -1v1136h96v-1236l-418 1v803h2z" />
    <glyph glyph-name="uniA9A0_uniA9B9.conj" horiz-adv-x="1" 
d="M-380 -637l-1 354l-203 1v-831l-362 1l-2 833h-490l1 -335h195v-499l-778 1v838h-139v-838l-94 1v933h438l-2 -836l470 -1v307l-195 1l-1 527h799l-2 -835l68 1v835h499v-458h219l-1 -94h-218v-189h217l-1 -985l-418 1v798h2v92h-164v377h163zM-179 -1014v-97h-2v-693
l122 -1v791h-120zM-379 -920l-1 189h-64v-189h65z" />
    <glyph glyph-name="uniA9A0_uniA9BD.conj" horiz-adv-x="1" 
d="M-966 -1568v120l-106 1l1 -121h105zM-179 -1107v-4h-200l-2 828l-203 1v-831l-362 1l-2 833h-490l1 -335h195v-499l-778 1v838h-139v-838l-94 1v933h438l-2 -836l470 -1v307l-195 1l-1 527h799l-2 -835l68 1v835h499v-813l269 -1v-680l-900 1l2 -139l235 4l-2 -93
l-391 -1v229h-198l1 315l353 -1v-211l703 -1v463h-72z" />
    <glyph glyph-name="uniA9A0_uniA9BF.conj" horiz-adv-x="1" 
d="M-379 -1276l-2 998l-203 -4v-831l-367 -4l3 838h-490l-4 -335h200v-499l-778 -4v843h-139v-838l-94 1v933h438l-2 -836l470 -1v307l-200 -4l4 532h799l-2 -835l68 1v835h499v-996l312 1l4 -710l-2749 -2v3178h118v-3056h2421v487z" />
    <glyph glyph-name="uniA9A1" unicode="&#xa9a1;" horiz-adv-x="1907" 
d="M885 94v149l-172 1l-1 104l280 1v-254h202l1 750h-230l1 94l761 2v-942l-198 2v838h-243l-1 -838h-294v-247h162l1 -99l-269 1v345h-472v843l-139 2v-845h-94v935l440 -2l-1 -840h266z" />
    <glyph glyph-name="uniA9A1.conj" 
d="M177 -976v-212l99 -1v308h-396v302l-92 -1l2 -301h-510l4 183l-112 3l1 -281h617l2 -394l-1078 1l1 1086h1105v293h-200v-179l-1097 -2l3 -1326h1353l1 521h297z" />
    <glyph glyph-name="uniA9A1_uniA9B8.conj" 
d="M-872 -920l4 183l-112 3l1 -281h295l1 -365l-608 1l1 1096h1110v293h-200v-179l-1102 -2l3 -1336h883v492h215v-483l418 -1v484h93v-212l99 -1v308h-192v507h-96v-507h-121l1 510l-507 2l2 -512h-188zM-597 -920v407l216 -1v-406h-216zM-59 -1015v-384l-122 1l1 383h121z
" />
    <glyph glyph-name="uniA9A1_uniA9B9.conj" 
d="M-181 -1037v-347l122 -1v501h-121v-153h-1zM-381 -790v124h-63v-124h63zM-381 -884h-162v312h162v58l-216 1l1 -969h-883l-3 1311l1102 2v179h200v-293h-1110l-1 -1071l608 -1l-3 947l507 -2v-162h219l-1 -94h-218l-1 -124h218l4 -695l-423 1v600zM-979 -1150l-1 281
l112 -3l-4 -183h1101v-308l-99 1v212h-1109z" />
    <glyph glyph-name="uniA9A1_uniA9BD.conj" 
d="M-1074 -1578l-1 66l106 4v-70h-105zM-382 -845v-297h272v-438l-703 1v161l-353 -4l-1 -260h198v-149l386 1l-3 88l-230 1l3 59l900 4v655l-265 -2v180h-2l1 435l-507 2l3 -842l-608 1l1 966h1110v293h-200v-179l-1102 -2l3 -1206h883l-1 864l216 -1v-331h-1zM-15 -755
v-212l99 -1v308h-1101l4 183l-112 3l1 -281h1109z" />
    <glyph glyph-name="uniA9A1.conj_full" 
d="M-180 -1127l1 717l-507 2l3 -652l-608 1l1 776h1110v293h-200v-179l-1102 -2l3 -1016h883l-1 674l216 -1v-613h201z" />
    <glyph glyph-name="uniA9A1.conj_short" 
d="M-180 -1227l1 817l-507 2l3 -592l-608 1l1 716h1110v293h-200v-179l-1102 -2l3 -956h883l-1 614l216 -1v-713h201z" />
    <glyph glyph-name="uniA9A2" unicode="&#xa9a2;" horiz-adv-x="1906" 
d="M1265 245l-121 1v-148l121 -1v148zM1144 345l276 1v-349l-380 1v248h-149l-1 -246h-477v838h-139v-838l-94 1v933h438v-836h167l-1 246l256 1l1 587h685v-932h-205l-1 833h-376v-488z" />
    <glyph glyph-name="uniA9A2.conj" 
d="M-136 -1039l-784 3v-649h-400v1503h984v-93l-790 -1v-1287h110v631l880 2v-109z" />
    <glyph glyph-name="uniA9A2_uniA9B8.conj" 
d="M-224 -955l-2 -843l122 -1v761h96v-861l-418 1v839h-538v-649h-400v1503h899v-93l-705 -1v-1287h110v631h836z" />
    <glyph glyph-name="uniA9A2_uniA9B9.conj" 
d="M-401 -1350v189h-63v-189h63zM-201 -1799l122 -1v356h-121zM-964 -949v-759h-400v1503h899v-93l-705 -1v-1287h110v741h861v-222h219l-1 -94h-218l-1 -189h218l4 -550l-423 1v455h-162v377h162v118h-563z" />
    <glyph glyph-name="uniA9A2_uniA9BD.conj" 
d="M-681 -1543v130l-104 -4l-1 -126h105zM-964 -1059v-649h-400v1503h899v-93l-705 -1v-1287h110v631l1050 2v-690l-515 -4l-1 -139l238 -1l-2 -88l-391 -1v229h-198l-2 320l356 4v-221l318 -1v483z" />
    <glyph glyph-name="uniA9A2.conj_full" 
d="M-377 -1207v195l-842 3v-649h-400v1503h984v-93l-790 -1v-1287h110v631l1135 2v-304h-197z" />
    <glyph glyph-name="uniA9A2.conj_short" 
d="M-835 -642v3l655 1v-594h-197v485l-158 1v-1l-385 1v-434h-400v998h984v-93l-790 -1v-782h110v416h181z" />
    <glyph glyph-name="uniA9A3" unicode="&#xa9a3;" horiz-adv-x="1907" 
d="M862 94v217h94v-216h238l1 750h-230l1 94l761 2v-942l-198 2v838h-243l-1 -838h-872v843l-139 2v-845h-94v935l440 -2l-1 -840h243z" />
    <glyph glyph-name="uniA9A3.conj" 
d="M-1042 -1018v217h94v-216h238l1 745h-230l1 99l761 -3v-932l-198 -3v838h-243l-1 -838h-872v838l-139 -3v-835h-94v930l440 3l-1 -840h243z" />
    <glyph glyph-name="uniA9A3_uniA9B8.conj" 
d="M-375 -1100v827h-243l-1 -838h-872v843l-139 2v-845h-94v935l440 -2l-1 -840h243v217h94v-216h238l1 750h-230l1 94l761 2v-929h1v-688l122 -1v1121h96v-1221l-418 1v788h1z" />
    <glyph glyph-name="uniA9A3_uniA9B9.conj" 
d="M-375 -637v364h-243l-1 -838h-872v843l-139 2v-845h-94v935l440 -2l-1 -840h243v217h94v-216h238l1 750h-230l1 94l761 2v-466h222l-1 -94h-221v-189h220l-1 -985l-418 1v798h1v92h-163v377h163zM-177 -1014v-92h1v-698l122 -1v791h-123zM-375 -920v189h-64v-189h64z" />
    <glyph glyph-name="uniA9A3_uniA9BD.conj" 
d="M-961 -1563v125l-106 -4l1 -121h105zM-375 -1111v843h-243l-1 -843h-872v843l-139 -3v-840h-94v930l440 3l-1 -840h243v217h94v-216h238l1 750h-230l1 94l761 -3v-821l272 4v-670l-900 -4l2 -139l235 -1l-2 -88l-391 -1v229h-198l1 315l353 4v-216l703 -1v453z" />
    <glyph glyph-name="uniA9A3.conj_full" 
d="M-1042 -1018v217h94v-216h238l1 745h-230l1 99l761 -3v-932l-198 -3v838h-243l-1 -838h-872v838l-139 -3v-835h-94v930l440 3l-1 -840h243z" />
    <glyph glyph-name="uniA9A3.conj_short" 
d="M-1042 -1018v217h94v-216h238l1 745h-230l1 99l761 -3v-932l-198 -3v838h-243l-1 -838h-872v838l-139 -3v-835h-94v930l440 3l-1 -840h243z" />
    <glyph glyph-name="uniA9A4" unicode="&#xa9a4;" horiz-adv-x="1906" 
d="M1030 405l-1 -307l121 -1v307zM1726 932v-932h-205l1 833h-493l1 -335h305v-501l-410 1v407l-308 1l-1 -406h-203v838h-139v-838l-94 1v933h438l-1 -436h309v434h800z" />
    <glyph glyph-name="uniA9A4.conj" 
d="M-1372 -406v-986l991 3l1 984zM-178 7l-4 -308l228 -1v-100h-222l3 -1091h-1313l2 1187l1106 3v310h200z" />
    <glyph glyph-name="uniA9A4_uniA9B8.conj" horiz-adv-x="335" 
d="M-1372 -406v-986l991 3l1 984zM-176 -403l3 -1090h-1313l2 1187l1106 3v310h200l-4 -305l398 -2l-2 -1093l122 -1v1096h96v-1196l-418 1v1089z" />
    <glyph glyph-name="uniA9A4_uniA9B9.conj" horiz-adv-x="340" 
d="M-1372 -411v-981l991 3l1 979zM14 -680v124h-63v-124h63zM215 -680h218l4 -815l-423 1v720h-162v312h162v53l-190 1l3 -1085h-1313l2 1182l1106 3v315h200l-4 -310l398 -2v-157h219l-1 -94h-218zM214 -892v-502l122 -1v621h-121v-118h-1z" />
    <glyph glyph-name="uniA9A4_uniA9BD.conj" horiz-adv-x="365" 
d="M-1252 -401v-954l871 -2l1 957zM-574 -1646v65l-106 1l1 -66h105zM14 -399l-190 1l3 -1058h-1193l2 1155l986 3v305h200l-4 -300l398 -2l1 -798l265 -3v-655l-900 1l-3 -59l230 -1l3 -88l-386 -1v149h-198l1 260l353 -1v-156l703 4v433h-272z" />
    <glyph glyph-name="uniA9A4.conj_full" horiz-adv-x="402" 
d="M-1236 -401v-814l856 -2l1 817zM14 -1117l1 718l-185 1l-2 -918h-1178l2 1015l971 3v305h200l1 -300l398 -2l-4 -822h-204z" />
    <glyph glyph-name="uniA9A4.conj_short" horiz-adv-x="398" 
d="M-1196 -401v-669l816 -2l1 672zM14 -1302l1 903l-185 1l-2 -773h-1138l2 870l931 3v305h200l1 -300l398 -2l-4 -1007h-204z" />
    <glyph glyph-name="uniA9A5" unicode="&#xa9a5;" horiz-adv-x="1907" 
d="M413 1v843l-139 2v-845h-94v935l440 -2l-1 -840l575 1l1 844l532 2v-942l-198 2v838h-243l-1 -838h-872z" />
    <glyph glyph-name="uniA9A5.conj" horiz-adv-x="1870" 
d="M1489 839h-246l-1 -838h-1092v93l999 1l1 844l540 2v-942l-201 2v838z" />
    <glyph glyph-name="uniA9A6" unicode="&#xa9a6;" horiz-adv-x="1907" 
d="M1195 715h95v130h-95v-130zM1290 613l-248 1v327h338l1 -226l346 -1v-715l-198 2v611l-148 1l-1 -612h-967v843l-139 2v-845h-94v935l440 -2l-1 -840h301v217h94v-216h275z" />
    <glyph glyph-name="uniA9A6.conj" horiz-adv-x="1884" 
d="M1172 715h95v130h-95v-130zM180 94h562v217h94v-216h430l1 518l-248 1v327h338l-4 -226l351 -1v-715l-198 2v616l-153 -4l4 -612h-1177v93z" />
    <glyph glyph-name="uniA9A7" unicode="&#xa9a7;" horiz-adv-x="2434" 
d="M1689 932l3 -830l63 -4v835h499v-932h-205l3 828l-203 1v-831l-362 1l-2 833h-295v-174h-105v174h-300l-1 -732h266v-102l-637 1v838h-139v-838l-94 1v933h438l3 -836l58 4l1 830h1009z" />
    <glyph glyph-name="uniA9A7.conj_old" horiz-adv-x="3" 
d="M-747 -181l3 -835l68 1v835h499v-932h-200l3 828l-208 1v-831l-362 1l-2 833h-295v-174h-105v174h-300l-1 -732h266v-102l-637 1v838h-139v-838l-94 1v933h438l-2 -836l63 -1l1 835h1004z" />
    <glyph glyph-name="uniA9A7.conj_old_uniA9B8" horiz-adv-x="3" 
d="M-379 -284l-203 -1v-827l-362 -1l-2 833h-295v-174h-105v174h-300l2 -732h263v-100l-637 -1v838h-139v-838l-94 1v933h438l1 -836l63 -1l-2 835h1007v-835l68 1v835h499l-1 -1615l124 1v1131h96v-1231l-421 -1v1611z" />
    <glyph glyph-name="uniA9A7.conj_old_uniA9B9" horiz-adv-x="3" 
d="M-378 -637l-1 353l-203 1v-831l-362 -2l-2 836h-295v-174h-105v174h-300l1 -737h264v-94h-640l3 836h-139v-838l-94 1v933h438v-836l63 -1l-1 835h1009v-835l66 1v835h499v-457h217l-1 -94h-216v-189h215l4 -966l-415 1l-4 871h-166v377h165zM-177 -1014l4 -771l119 -1
l-5 772h-118zM-377 -920l-1 189h-66v-189h67z" />
    <glyph glyph-name="uniA9A7.conj_old_uniA9BD" horiz-adv-x="3" 
d="M-964 -1553v120l-106 1l1 -121h105zM-377 -1112l-2 828l-203 1v-831l-362 1l-2 833h-295v-174h-105v174h-300l-1 -732h266v-102l-637 1v838h-139v-838l-94 1v933h438l-2 -836l63 -1l1 835h1009l-2 -835l68 1v835h499v-819l269 -1v-660l-900 1l2 -139l235 4l-2 -93
l-391 -1v229h-198l1 315l353 -1v-211l703 -1v443z" />
    <glyph glyph-name="uniA9A7_uniA9BF.conj" horiz-adv-x="3" 
d="M-377 -1277l3 993l-208 1v-831l-362 1l-2 833h-295v-174h-105v174h-300l-1 -732h266v-102l-637 1v838h-139v-838l-94 -4v938h438l-2 -836l63 -1l1 835h1004l3 -835l68 1v835h499v-995l310 1l4 -710l-2749 -2v3178h118v-3056h2421v487h-304z" />
    <glyph glyph-name="uniA9A8" unicode="&#xa9a8;" horiz-adv-x="1770" 
d="M742 315v-213l211 -4v217h-211zM1373 315h-323v-315l-496 -1l2 316h-333l4 284l102 2l1 -190l226 -1l-1 423h-348l-4 -128l-103 1l1 226l637 -4l4 -518l211 -1v525l691 2v-236l-160 2l1 137h-436l1 -430h526v-414l-203 -2v322z" />
    <glyph glyph-name="uniA9A8_uniA9B8" horiz-adv-x="1770" 
d="M742 315v-213l211 -4v217h-211zM1373 315h-323v-315l-496 -1l2 316h-333l4 284l102 2l1 -190l226 -1l-1 423h-348l-4 -128l-103 1l1 226l637 -4l4 -518l211 -1v525l691 2v-236l-160 2l1 137h-436l1 -430h526l-2 -2203l122 -1v1398h96v-1498l-418 1z" />
    <glyph glyph-name="uniA9A8_uniA9B9" horiz-adv-x="1770" 
d="M742 315v-213l211 -4v217h-211zM1699 -658h-122v-1149l122 -1v1150zM1377 -375h-90v-189h90v189zM1377 -7h-4v322h-323v-315l-496 -1l2 316h-333l4 284l102 2l1 -190l226 -1l-1 423h-348l-4 -128l-103 1l1 226l637 -4l4 -518l211 -1v525l691 2v-236l-160 2l1 137h-436
l1 -430h526v-403h1v-287h221l-1 -94h-220v-189h219l-1 -1344l-418 1v1249h-189v377h189v274z" />
    <glyph glyph-name="uniA9A8_uniA9BD" horiz-adv-x="1770" 
d="M742 315v-213l211 -4v217h-211zM497 -956v125l-109 1l1 -126h108zM1373 -202v517h-323v-315l-496 -1l2 316h-333l4 284l102 2l1 -190l226 -1l-1 423h-348l-4 -128l-103 1l1 226l637 -4l4 -518l211 -1v525l691 2v-236l-160 2l1 137h-436l1 -430h526v-511l308 1l1 -976
l-1227 2l2 -139l243 -1l-2 -88l-404 -1v229h-204l1 335l364 -1v-216h1017v757z" />
    <glyph glyph-name="uniA9A7.conj" 
d="M-702 -1212v494l-316 -1l-1 492h635v-980l204 4v1064l-943 1v-580l-207 -1v-366h-405v852l380 -4v98h-574v-1068h695v394h111v-396zM-885 -817v-268l-133 -1v273z" />
    <glyph glyph-name="uniA9A7_uniA9B8.conj" 
d="M-888 -817v-268l-133 -1v273zM-386 -1888l418 -1v1241h-96v-1141l-122 1v585h3v1064l-943 1v-580l-207 -1v-366h-405v852l380 -4v98h-574v-1068h695v394h111v-396l421 -3v494l-316 -1l-1 492h635v-980h1v-681z" />
    <glyph glyph-name="uniA9A7_uniA9B9.conj" 
d="M-888 -817v-268l-133 -1v273zM-543 -637v-377h156l1 -890l428 -1l-4 985h-221v189h222l1 94h-223v498l-943 1v-580l-207 -1v-366h-405v852l380 -4v98h-574v-1068h695v394h111v-396l421 -3v494l-316 -1l-1 492h635v-410h-156zM-444 -920v189h57v-189h-57zM-59 -1014v-791
l-127 1l3 790h124z" />
    <glyph glyph-name="uniA9A7_uniA9BD.conj" 
d="M-888 -817v-268l-133 -1v273zM-1086 -1568l-1 121l106 4v-125h-105zM-289 -1207h167v-363l-703 1v216l-353 -4l-1 -315h198v-229l391 1l2 88l-235 1l-2 139l900 4v580l-258 -4v953l-943 1v-580l-207 -1v-366h-405v852l380 -4v98h-574v-1068h695v394h111v-396l421 -3v494
l-316 -1l-1 492h635v-980l98 2v-2z" />
    <glyph glyph-name="uniA9A9" unicode="&#xa9a9;" horiz-adv-x="1907" 
d="M948 935v-95h-328v-323l275 -4v-90h-276v-329l575 1l1 844l532 2v-942l-198 2v838h-243l-1 -838h-872v843l-139 2v-845h-94v935z" />
    <glyph glyph-name="uniA9A9.conj" 
d="M-1417 -497v236l236 1l-1 -233zM-273 -1385l-1140 1v777h327v451h-530l-1 -1337h1435l2 1340h-94z" />
    <glyph glyph-name="uniA9A9_uniA9B8.conj" 
d="M-1584 -497v236l236 1l-1 -233zM-715 -1385l-865 1v777h327v451h-530l-1 -1337h1160l-3 1235l216 -1v-1234l418 -1v1331h-96v-1231l-122 1l2 1238l-507 2z" />
    <glyph glyph-name="uniA9A9_uniA9B9.conj" 
d="M-1584 -497v236l236 1l-1 -233zM-474 -615v189h63v-189h-63zM-211 -1072h1v363h121v-681l-122 1v317zM-411 -1489l423 -1l-4 875h-218l1 189h218l1 94h-219v177l-507 2l1 -1232l-865 1v777h327v451h-530l-1 -1337h1160l-3 1235l216 -1v-73h-162v-377h162v-780z" />
    <glyph glyph-name="uniA9A9_uniA9BD.conj" 
d="M-1599 -492v236l236 1l-1 -233zM-1119 -1648l-1 66l106 4v-70h-105zM-427 -1212h272v-438l-703 1v161l-353 -4l-1 -260h198v-149l386 1l-3 88l-230 1l3 59l900 4v655l-265 -2l-1 945l-507 2l1 -1137l-865 1v682h327v451h-530l-1 -1242h1160l-3 1140l216 -1z" />
    <glyph glyph-name="uniA9A9.conj_full" 
d="M-1555 -482v236l236 1l-1 -233zM-181 -1187l1 1047l-507 2l1 -942l-865 1v487h327v451h-530l-1 -1047h1160l2 945l211 -1v-943h201z" />
    <glyph glyph-name="uniA9A9.conj_short" 
d="M-1555 -482v236l236 1l-1 -233zM-181 -1187l1 1047l-507 2l1 -861l-865 1v406h327v451h-530l-1 -966h1160l2 864l211 -1v-943h201z" />
    <glyph glyph-name="uniA9AA" unicode="&#xa9aa;" horiz-adv-x="2434" 
d="M621 98l320 4l-1 830h509l3 -830l303 -4v835h499v-932h-205l3 828l-203 1v-831l-602 1l-2 833h-200l1 -834l-633 1v838h-139v-838l-94 1v933h438z" />
    <glyph glyph-name="uniA9AA.conj" 
d="M-1818 -1018l325 -1l-1 835h509l-2 -835l308 1v835h499v-932h-200l-2 828l-203 1v-831l-602 1l-2 833h-200l1 -834l-633 1v838h-139v-838l-94 1v933h438z" />
    <glyph glyph-name="uniA9AA_uniA9B8.conj" 
d="M-380 -284l-205 -2v-831l-605 -1l1 835h-200l1 -834l-633 1v838h-139v-838l-94 1v933h438v-839h320l2 837h509v-833l306 -1v835h499l-1 -1605l122 -1v1126h96v-1226l-418 1z" />
    <glyph glyph-name="uniA9AA_uniA9B9.conj" 
d="M-381 -637l-1 350l-203 1v-831l-602 1l-2 833h-200l1 -834l-633 1v838h-139v-838l-94 1v933h438l-2 -836l325 -1l-1 835h509l-2 -835l308 1v835h499v-454h220l-1 -94h-219v-189h218l-1 -985l-418 1v798h1v92h-163v377h162zM-180 -1014v-101h-1v-689l122 -1v791h-121z
M-380 -920l-1 189h-63v-189h64z" />
    <glyph glyph-name="uniA9AA_uniA9BD.conj" 
d="M-966 -1558v120l-106 1l1 -121h105zM-180 -997l270 -1v-665l-900 1l2 -139l235 4l-2 -93l-391 -1v229h-198l1 315l353 -1v-211l703 -1v448h-73v-3h-200l-2 828l-203 1v-831l-602 1l-2 833h-200l1 -834l-633 1v838h-139v-838l-94 1v933h438l-2 -836l325 -1l-1 835h509
l-2 -835l308 1v835h499v-814z" />
    <glyph glyph-name="uniA9AA_uniA9BF.conj" 
d="M-186 -1275h-194l-2 988l-203 1v-831l-602 1l-2 833h-200l1 -834l-633 1v838h-139v-838l-94 1v933h438l-2 -836l325 -1l-1 835h509l-2 -835l308 1v835h499v-992l313 1l4 -710l-2749 -2v3178h118v-3056h2421v487z" />
    <glyph glyph-name="uniA9AB" unicode="&#xa9ab;" horiz-adv-x="1873" 
d="M1488 -1v834h-496l1 -834l-371 1l-2 763h-270l-1 -196l-199 1l1 291h674v-761l63 -1l-1 835h805l1 -933h-205z" />
    <glyph glyph-name="uniA9AB.conj" 
d="M-385 -1114v834h-496l1 -834l-371 1l-2 763h-270l-1 -196l-199 1l1 291h674v-761l63 -1l-1 835h805l1 -933h-205z" />
    <glyph glyph-name="uniA9AB_uniA9B8.conj" 
d="M-380 -280h-501l1 -834l-374 -2l1 766h-270l1 -196l-201 1l1 291h674v-761l63 -1l-1 835h805v-1614l122 -1v1126h96v-1226l-418 1z" />
    <glyph glyph-name="uniA9AB_uniA9B9.conj" 
d="M-381 -1114h-4v100h-158v377h158v357h-496l1 -834l-371 1l-2 763h-270l-1 -196l-199 1l1 291h674v-761l63 -1l-1 835h805v-456h221l-1 -94h-219v-189h218l-1 -985l-418 1v790zM-385 -920v189h-59v-189h59zM-180 -1014v-100h-1v-690l122 -1v791h-121z" />
    <glyph glyph-name="uniA9AB_uniA9BD.conj" 
d="M-966 -1563v120l-106 1l1 -121h105zM-180 -1112v-2h-205v834h-496l1 -834l-371 1l-2 763h-270l-1 -196l-199 1l1 291h674v-761l63 -1l-1 835h805l1 -816l270 -1v-670l-900 1l2 -139l235 4l-2 -93l-391 -1v229h-198l1 315l353 -1v-211l703 -1v453h-73z" />
    <glyph glyph-name="uniA9AB_uniA9BF.conj" 
d="M-242 -1274h-143v994h-496l1 -834l-371 1l-2 763h-270l-1 -196l-199 1l1 291h674v-761l63 -1l-1 835h805l1 -994l313 1l4 -710l-2242 -2v3178h118v-3056h1914v487z" />
    <glyph glyph-name="uniA9AC" unicode="&#xa9ac;" horiz-adv-x="3238" 
d="M2767 97l184 1v977l-223 1l-1 96l331 -1v-1170h-494l1 828l-338 1v-831l-357 1l-1 829l-349 1v-831l-357 1v833h-347l-2 -834l-368 1l-2 763h-114l-1 -196l-199 1l1 291h518v-761l60 -1l2 835h653l1 -835l61 1v835h645l-1 -836l63 1v835h634v-836z" />
    <glyph glyph-name="uniA9AC.conj" horiz-adv-x="1" 
d="M-470 -1014l184 1v977l-223 1l-1 96l331 -1v-1170h-494l1 828l-338 1v-831l-357 1l-1 829l-349 1v-831l-357 1v833h-347l-2 -834l-368 1l-2 763h-114l-1 -196l-199 1l1 291h518v-761l60 -1l2 835h653l1 -835l61 1v835h645l-1 -836l63 1v835h634v-836z" />
    <glyph glyph-name="uniA9AC_uniA9B8.conj" horiz-adv-x="1" 
d="M-381 -1110h-292l1 828l-338 1v-831l-357 1l-1 829l-349 1v-831l-357 1v833h-347l-2 -834l-368 1l-2 763h-114l-1 -196l-199 1l1 291h518v-761l60 -1l2 835h653l1 -835l61 1v835h645l-1 -836l63 1v835h634v-836l184 1v977l-223 1l-1 96l331 -1v-1170h-2v-683l122 -1v1131
h96v-1231l-418 1v783z" />
    <glyph glyph-name="uniA9AC_uniA9B9.conj" horiz-adv-x="1" 
d="M-381 -1110h-292l1 828l-338 1v-831l-357 1l-1 829l-349 1v-831l-357 1v833h-347l-2 -834l-368 1l-2 763h-114l-1 -196l-199 1l1 291h518v-761l60 -1l2 835h653l1 -835l61 1v835h645l-1 -836l63 -2v838h634v-836l184 1v48h-151v312h151v617l-223 1l-1 96l331 -1v-713h219
l-1 -94h-218v-124h217l-1 -1022l-418 1v782zM-286 -871v124h-52v-124h52zM-179 -965v-145h-2v-682l122 -1v828h-120z" />
    </font>
</defs>
</svg>
