<?xml version="1.0" standalone="no"?>
<!DOCTYPE svg PUBLIC "-//W3C//DTD SVG 1.1//EN" "http://www.w3.org/Graphics/SVG/1.1/DTD/svg11.dtd" >
<svg xmlns="http://www.w3.org/2000/svg" xmlns:xlink="http://www.w3.org/1999/xlink" version="1.1">
<metadata>
Created by FontForge 20160407 at Mon Oct 31 17:40:18 2016
 By Jimmy Warting
Copyright (c) 2011-2013 R.S. Wihananto.
</metadata>
<defs>
<font id="TUNJUNGBIRU" horiz-adv-x="0" >
  <font-face 
    font-family="TUNJUNG BIRU"
    font-weight="400"
    font-stretch="normal"
    units-per-em="2048"
    panose-1="2 0 0 0 0 0 0 0 0 0"
    ascent="1638"
    descent="-410"
    x-height="1037"
    cap-height="1465"
    bbox="-2899 -2080.05 4506 2130"
    underline-thickness="80"
    underline-position="-2100"
    unicode-range="U+000D-A9DF"
  />
<missing-glyph horiz-adv-x="1300" 
d="M1120 1390v-1390h-940v1390h940zM270 90h760v1210h-760v-1210z" />
    <glyph glyph-name=".notdef" horiz-adv-x="1300" 
d="M1120 1390v-1390h-940v1390h940zM270 90h760v1210h-760v-1210z" />
    <glyph glyph-name="NULL" 
 />
    <glyph glyph-name="NULL" 
 />
    <glyph glyph-name="nonmarkingreturn" unicode="&#xd;" horiz-adv-x="682" 
 />
    <glyph glyph-name="space" unicode=" " horiz-adv-x="700" 
 />
    <glyph glyph-name="exclam" unicode="!" horiz-adv-x="487" 
d="M331 1516v-1113q0 -89 -89 -89t-89 89q0 41 -2.5 122.5t-2.5 121.5q0 145 2.5 434.5t2.5 434.5q0 89 89 89t89 -89zM332 23q0 -36 -28.5 -62.5t-64.5 -26.5q-40 0 -80 52q-39 49 -39 90q0 36 28.5 62t65.5 26q39 0 80 -52q38 -49 38 -89z" />
    <glyph glyph-name="quotedbl" unicode="&#x22;" horiz-adv-x="869" 
d="M294 1116q0 -17 5 -49.5t5 -48.5q0 -37 -27 -61.5t-65 -24.5q-96 0 -96 171q0 66 3 198t3 198q0 39 25 64t64 25t64 -25t25 -64q0 -64 -3 -191.5t-3 -191.5zM687 1495q0 -16 -3 -45t-3 -42l-9 -390q-2 -90 -89 -90q-38 0 -64 25t-25 63l9 397q2 79 13 111q21 60 82 60
q39 0 64 -25.5t25 -63.5z" />
    <glyph glyph-name="numbersign" unicode="#" horiz-adv-x="1726" 
d="M552 577h500l113 415h-488zM365 577l122 415h-267q-95 0 -95 100q0 76 148 76h264q26 116 79 316q29 92 117 92q33 0 54.5 -26.5t21.5 -58.5q0 -40 -26 -132q-44 -159 -51 -191h485q34 121 93 323q26 85 98 85q84 0 84 -78q0 -68 -83 -330h195q102 0 102 -75
q0 -105 -113 -105q-15 0 -46.5 2t-46.5 2h-146l-106 -415h204q73 0 103 -11q52 -20 52 -80q0 -92 -87 -92h-322l-90 -325q-27 -97 -112 -97q-82 0 -82 79q0 59 33 172q46 157 49 171h-500q-30 -117 -105 -344q-29 -71 -98 -71q-80 0 -80 79q0 39 23 113q35 112 70 223h-191
q-83 0 -83 99q0 39 34 63q29 21 70 21h229z" />
    <glyph glyph-name="dollar" unicode="$" horiz-adv-x="1420" 
d="M588 887v359q-199 -75 -199 -232q0 -97 199 -127zM766 676v-520q106 36 177 106q79 80 79 173q0 174 -256 241zM766 1636v-169h4q96 0 219 -33q161 -43 161 -110q0 -88 -89 -88q-40 0 -140.5 21.5t-154.5 20.5v-407q221 -20 346 -145q114 -116 114 -280q0 -201 -139 -333
q-123 -116 -321 -153v-266q0 -39 -25.5 -64.5t-64.5 -25.5q-88 0 -88 88v255q-488 7 -488 253q0 90 83 90q47 0 90 -37q64 -55 97 -72q80 -40 218 -46v567h-8q-155 6 -268 76q-140 86 -140 239q0 137 128 258q118 112 288 163v192q0 39 26.5 65t65.5 26q86 0 86 -85z" />
    <glyph glyph-name="percent" unicode="%" horiz-adv-x="1680" 
d="M443 1041q-140 0 -221 97q-75 91 -75 232q0 98 102 187q98 85 197 85q145 0 231 -96q82 -93 82 -239q0 -122 -102 -197q-91 -69 -214 -69zM1234 1468q-37 -60 -79 -159l-71 -162l-198 -425l-224 -472q-31 -77 -101 -227q-28 -53 -75 -53q-33 0 -59.5 23.5t-26.5 58.5
q0 15 6 33q49 135 158 353q129 257 168 349l270 600q54 133 99 182q31 34 64 34q34 0 60.5 -25.5t26.5 -59.5q0 -22 -18 -50zM1260 -19q-136 0 -226 81q-94 85 -94 221q0 148 84 245q88 104 234 104q136 0 238 -76q113 -85 113 -218q0 -153 -98 -255t-251 -102zM443 1474
q-46 0 -86 -30q-43 -33 -43 -74q0 -80 32.5 -120.5t96.5 -40.5q54 0 98 24q50 28 50 74q0 84 -37 125.5t-111 41.5zM1258 464q-72 0 -113 -54q-37 -50 -37 -127q0 -67 43.5 -101t130.5 -34q80 0 119.5 47.5t39.5 142.5q0 58 -62 95q-54 31 -121 31z" />
    <glyph glyph-name="ampersand" unicode="&#x26;" horiz-adv-x="1340" 
d="M684 1084q128 106 128 210q0 46 -15.5 68.5t-46.5 22.5q-18 0 -54.5 -63.5t-36.5 -84.5q0 -67 25 -153zM608 811q-172 -115 -234 -177q-121 -121 -121 -255q0 -109 87 -178q81 -63 193 -63q202 0 349 171q-76 113 -274 502zM481 1237q0 100 83 210q89 117 186 117
q114 0 179 -80q61 -73 61 -190q0 -203 -241 -384q77 -169 237 -425q20 55 30 114q16 102 23 127q26 82 80 82q42 0 66 -45q20 -37 20 -83q0 -203 -104 -376q167 -262 167 -311q0 -36 -28.5 -61.5t-64.5 -25.5q-45 0 -77 51l-115 199q-201 -196 -450 -196q-187 0 -319 115
q-139 120 -139 304q0 194 147 353q85 92 310 242q-51 135 -51 263z" />
    <glyph glyph-name="quotesingle" unicode="'" horiz-adv-x="795" 
d="M462 1446q0 -30 5 -89t5 -89q0 -128 -90 -128q-62 0 -79 44q-8 23 -8 95q0 28 -5.5 83.5t-5.5 83.5q0 100 8 135q20 79 88 79q38 0 64 -24.5t26 -62.5q0 -21 -4 -63.5t-4 -63.5z" />
    <glyph glyph-name="parenleft" unicode="(" horiz-adv-x="625" 
d="M226 99q36 262 98.5 491t142 423t172.5 352.5t191 280.5t196.5 205.5t189.5 128.5l-11 -79q-130 -107 -250 -274.5t-221.5 -396.5t-181 -518t-128.5 -641q-50 -351 -53 -651t32 -548t104.5 -442t165.5 -332l-12 -80q-75 68 -146.5 175.5t-132.5 251.5t-106.5 322
t-69 386.5t-20.5 445.5t40 500z" />
    <glyph glyph-name="parenright" unicode=")" horiz-adv-x="450" 
d="M332 -62q-58 -258 -138.5 -481.5t-175.5 -410.5t-200 -337.5t-212.5 -264t-212.5 -189.5t-199 -112l17 78q139 96 271.5 253.5t252.5 377t222 501.5t179 629q78 346 105 645t12 548.5t-68.5 448.5t-138.5 345l18 78q69 -74 132 -187t112 -261t80.5 -329t38 -390.5
t-15.5 -446t-79 -495.5z" />
    <glyph glyph-name="asterisk" unicode="*" horiz-adv-x="487" 
d="M331 1516v-1113q0 -89 -89 -89t-89 89q0 41 -2.5 122.5t-2.5 121.5q0 145 2.5 434.5t2.5 434.5q0 89 89 89t89 -89zM332 23q0 -36 -28.5 -62.5t-64.5 -26.5q-40 0 -80 52q-39 49 -39 90q0 36 28.5 62t65.5 26q39 0 80 -52q38 -49 38 -89z" />
    <glyph glyph-name="plus" unicode="+" horiz-adv-x="984" 
d="M913 643q0 -37 -24.5 -64.5t-61.5 -27.5q-12 0 -36 4t-37 4l-100 -2q-61 -2 -100 0v-235q0 -90 -89 -90q-44 0 -66.5 22.5t-22.5 67.5l-1 115l-1 116q-121 -7 -171 -7q-155 0 -155 92q0 65 55 81q19 5 100 5q50 0 171 7l-1 117q0 91 9 126q10 36 31 54t54 18
q38 0 64.5 -24.5t26.5 -62.5q0 -17 -3.5 -54t-3.5 -56l1 -114l75 -3q20 0 61 2.5t61 2.5q164 0 164 -94z" />
    <glyph glyph-name="comma" unicode="," horiz-adv-x="567" 
d="M285 -344q-35 0 -61 27t-26 62q0 29 62 172q54 124 83 177q26 48 69 48q36 0 61.5 -27.5t25.5 -62.5q0 -24 -142 -342q-23 -54 -72 -54z" />
    <glyph glyph-name="hyphen" unicode="-" horiz-adv-x="853" 
d="M679 475q-136 -14 -484 -14q-84 0 -84 78t84 78q79 0 237 7t237 7q89 0 89 -78q0 -69 -79 -78z" />
    <glyph glyph-name="period" unicode="." horiz-adv-x="510" 
d="M267 -93q-52 0 -88 36t-36 88q0 51 36 87.5t88 36.5q51 0 87.5 -36.5t36.5 -87.5q0 -52 -36.5 -88t-87.5 -36z" />
    <glyph glyph-name="slash" unicode="/" horiz-adv-x="1048" 
d="M177 -90q-37 0 -65 25t-28 62q0 16 7 34q78 215 294 619.5t295 620.5q131 358 198 355q37 -1 65 -26.5t28 -61.5q0 -23 -11 -55l-112 -272q-67 -185 -191 -427l-218 -414l-181 -401q-27 -59 -81 -59z" />
    <glyph glyph-name="zero" unicode="0" horiz-adv-x="1250" 
d="M611 -39q-304 0 -444 278q-106 214 -106 557q0 290 138 506q163 253 443 253q263 0 410 -224q127 -194 127 -473q0 -448 -142 -672.5t-426 -224.5zM641 1362q-186 0 -295 -189q-91 -158 -91 -361q0 -329 89 -494t267 -165q212 0 304 242q64 168 64 426q0 271 -84.5 406
t-253.5 135z" />
    <glyph glyph-name="one" unicode="1" horiz-adv-x="922" 
d="M704 -1h-199l-198 1q-70 0 -98 9q-51 18 -51 76q0 101 157 101l48 -1l41 -2q0 48 -8.5 142t-8.5 141q0 127 23 386q22 255 21 387q-134 -104 -171 -104q-40 0 -69.5 30t-29.5 69q0 47 86 114q54 38 153 122q88 89 168 89q67 0 67 -77q0 -23 -6 -68.5t-6 -68.5
q0 -33 3.5 -100t3.5 -100q0 -114 -24 -340t-24 -339q0 -58 8 -141t9 -136l105 2q42 0 69.5 -27.5t27.5 -68.5q0 -42 -27.5 -69t-69.5 -27z" />
    <glyph glyph-name="two" unicode="2" horiz-adv-x="1250" 
d="M1008 -2q-25 0 -70.5 15.5t-69.5 15.5q-51 0 -153 -6t-154 -6q-39 0 -115.5 -10t-115.5 -10q-11 0 -32 4t-32 4q-69 0 -90 67q-12 35 -12 120q0 233 127 375q58 65 313 240q143 98 191 153q86 96 86 225q0 64 -83 114q-73 45 -143 45q-92 0 -175 -53l-143 -112
q-43 -34 -69 -34q-103 0 -103 82q0 47 38 81q117 110 203 159q121 69 249 69q162 0 289 -88q142 -99 142 -254q0 -102 -29 -188t-88 -157q-75 -90 -254 -201q-188 -118 -247 -179q-111 -115 -109 -279l206 19q212 12 303 12q76 0 144 -26q90 -35 90 -97q0 -39 -27 -69.5
t-67 -30.5z" />
    <glyph glyph-name="three" unicode="3" horiz-adv-x="1250" 
d="M605 -46q-151 0 -271 63q-135 73 -182 205q-6 18 -6 35q0 40 30.5 66.5t70.5 26.5t69 -37l46 -69q36 -49 97 -73.5t146 -24.5q109 0 191 68q87 72 87 176q0 151 -111 241q-98 78 -260 95q-111 11 -111 90q0 59 87 90l239 59q69 25 104 67.5t36 103.5q2 88 -68 142
q-73 56 -205 56q-68 0 -132 -33l-113 -71q-33 -21 -53 -21q-40 0 -68.5 30.5t-28.5 69.5q0 79 153 152q133 65 219 65q215 0 341 -95q135 -102 135 -291q0 -235 -190 -310q-17 -7 -39 -14q133 -49 199 -146.5t66 -243.5q0 -197 -139 -334.5t-339 -137.5z" />
    <glyph glyph-name="four" unicode="4" horiz-adv-x="1250" 
d="M964 437v-370q0 -93 -91 -93q-106 0 -106 145q0 18 2 51t2 45l-1 227l-441 11q-137 0 -190 9q-91 15 -91 71q0 45 55 114l86 102l492 718q67 93 170 93q113 0 113 -98v-831q17 1 41 1q184 0 184 -99q0 -72 -76 -91q-34 -9 -149 -5zM770 1283q-267 -426 -417 -638l417 -10
v648z" />
    <glyph glyph-name="five" unicode="5" horiz-adv-x="1250" 
d="M562 -63q-284 0 -418 210q-18 29 -18 56q0 39 31 67.5t70 28.5q41 0 78 -44q53 -64 80 -82q65 -44 177 -44q173 0 287 132q109 126 109 303q0 146 -48 237q-62 115 -191 115q-107 0 -175 -29q-54 -23 -109 -79l-109 -119q-44 -45 -90 -45q-40 0 -68 28.5t-28 68.5
q0 20 16 178q34 315 34 414q0 35 -17.5 76.5t-17.5 61.5q0 61 105 61q20 0 60.5 -3.5t60.5 -3.5q58 0 174 4t174 4q27 0 82 -2t82 -2q19 0 55 7.5t54 7.5q39 0 69 -29t30 -67q0 -112 -237 -112q-31 0 -78 2t-57 2l-169 -3l-169 -5q0 -45 -37 -333q137 109 365 109
q220 0 336 -172q98 -146 98 -372q0 -270 -158 -445q-164 -182 -433 -182z" />
    <glyph glyph-name="six" unicode="6" horiz-adv-x="1250" 
d="M597 -72q-261 0 -384 191q-102 157 -102 419q0 494 401 857l94 95q69 66 104 66q40 0 70 -28.5t31 -67.5q2 -36 -102 -139l-204 -199q-81 -82 -139 -248q87 40 152 59.5t107 19.5q234 0 359 -125t125 -353q0 -239 -135 -390q-141 -157 -377 -157zM597 749q-86 0 -154 -30
q-26 -12 -131 -77q-6 -53 -6 -104q0 -179 60 -292q76 -144 237 -144q151 0 234 108q77 100 77 265q0 137 -79 205.5t-238 68.5z" />
    <glyph glyph-name="seven" unicode="7" horiz-adv-x="1250" 
d="M1154 1306l-91 -106q-130 -152 -239 -368l-182 -399q-19 -44 -84 -231q-52 -148 -97 -221q-28 -47 -80 -47q-40 0 -70.5 28t-30.5 67q0 38 64 195l225 551q149 327 306 504l19 21l-502 10l-225 6q-97 9 -97 96q0 42 28 69t70 27q126 0 378.5 -8t378.5 -8h183
q106 0 106 -63q0 -47 -60 -123z" />
    <glyph glyph-name="eight" unicode="8" horiz-adv-x="1250" 
d="M614 -54q-211 0 -341 92q-148 104 -151 305q-4 323 227 440q-178 108 -178 307q0 189 137 314q131 120 318 122q420 4 420 -415q0 -120 -48 -185q-39 -54 -151 -111q149 -75 209 -162q70 -102 70 -281q0 -204 -151 -320q-140 -106 -361 -106zM623 1347q-129 0 -197 -73
q-61 -68 -60 -184q1 -140 230 -199q120 35 172 70q83 56 83 150q0 136 -61 191q-52 45 -167 45zM605 714q-159 -74 -212 -128q-83 -83 -78 -234q4 -125 115 -187q81 -44 184 -44q176 0 246 83q56 66 56 200q0 131 -102 211q-68 55 -209 99z" />
    <glyph glyph-name="nine" unicode="9" horiz-adv-x="1250" 
d="M784 121q-73 -54 -234 -130q-179 -86 -249 -86q-41 0 -67.5 30t-26.5 70q0 59 68 89l167 57q155 63 245 145t164 233l43 86q-56 -32 -144 -59t-143 -27q-189 0 -327 105q-168 128 -168 364q0 279 172 419q147 119 386 119q184 0 330 -150q154 -159 155 -384
q1 -254 -94 -493q-102 -258 -277 -388zM642 1365q-168 0 -252.5 -87t-85.5 -262q0 -147 103 -228q91 -71 229 -71q80 0 167 48q40 22 144 99q13 87 13 138q-1 125 -105.5 244t-212.5 119z" />
    <glyph glyph-name="colon" unicode=":" horiz-adv-x="612" 
d="M414 226q0 -45 -29 -74t-74 -29t-73 29q-29 29 -29 74q0 19 -6.5 55.5t-6.5 54.5q0 42 31.5 70t74.5 28q112 0 112 -208zM397 956q0 -45 -28.5 -74t-73.5 -29t-74 29t-29 74q0 12 -4.5 36.5t-4.5 37.5q0 43 30 71t74 28q110 0 110 -173z" />
    <glyph glyph-name="semicolon" unicode=";" horiz-adv-x="612" 
d="M411 950q0 -44 -29 -73t-73 -29t-73 29t-29 73q0 13 -5 37.5t-5 36.5q0 43 30.5 71.5t73.5 28.5q110 0 110 -174zM171 -194q-90 0 -90 94q0 65 86 192q89 132 147 132q36 0 64 -27t28 -63t-70 -118q-72 -86 -77 -125q-10 -85 -88 -85z" />
    <glyph glyph-name="less" unicode="&#x3c;" horiz-adv-x="781" 
d="M298 614q56 -41 138 -127q97 -101 133 -132t36 -68t-27 -65t-63 -28q-28 0 -56 21q-40 29 -171 166q-100 105 -193 141q-76 28 -76 83q0 50 69 83q93 45 204 162q155 162 184.5 186.5t59.5 24.5q36 0 63.5 -27.5t27.5 -64.5q0 -34 -30 -64q-96 -102 -299 -291z" />
    <glyph glyph-name="equal" unicode="=" horiz-adv-x="1045" 
d="M324 999l467 -1q89 0 89 -89t-89 -89l-468 1q-23 0 -68.5 -2.5t-67.5 -2.5q-39 0 -63.5 26t-24.5 64q0 72 84 88q22 5 141 5zM381 462q66 0 198 -3t198 -3q89 0 89 -89t-89 -89q-66 0 -198 3t-198 3q-30 0 -90 -4t-89 -4q-92 0 -92 89q0 82 86 89q111 8 185 8z" />
    <glyph glyph-name="greater" unicode="&#x3e;" horiz-adv-x="781" 
d="M736 663q0 -36 -37 -71q-238 -221 -499 -388q-28 -18 -53 -18q-36 0 -62.5 28.5t-26.5 64.5q0 40 39 70l388 296q-89 59 -220 181q-160 151 -160 209q0 36 28 63t64 27q37 0 67 -34q228 -255 413 -351q59 -30 59 -77z" />
    <glyph glyph-name="question" unicode="?" horiz-adv-x="1073" 
d="M371 308q-41 0 -72 31.5t-31 71.5q0 69 128 170l239 180q129 111 129 203q0 116 -109 214q-105 95 -223 95q-63 0 -160 -64.5t-120 -64.5q-41 0 -70.5 33t-29.5 74q0 79 153 157q137 70 227 70q201 0 365 -157t164 -357q0 -146 -94 -259q-56 -68 -208 -176
q-153 -111 -213 -180q-35 -41 -75 -41zM316 -72q-44 0 -79.5 29.5t-35.5 71.5q0 62 33 112q37 56 95 56q96 0 96 -118q0 -55 -26 -99q-32 -52 -83 -52z" />
    <glyph glyph-name="at" unicode="@" horiz-adv-x="1907" 
d="M1306 412q-106 0 -183 31t-124 92q-54 -53 -105.5 -80t-100.5 -27q-111 0 -209.5 90.5t-98.5 198.5q0 185 145.5 338t330.5 153q42 0 70 -31t28 -75q0 -60 -100 -89q-133 -38 -188 -87q-81 -71 -81 -209q0 -29 27 -56q31 -30 77 -28q87 4 161 162q67 138 119 138
q42 0 68 -31t26 -76q0 -20 -6.5 -60t-6.5 -60q0 -65 56 -82q22 -7 95 -7q137 0 192 67q50 60 50 199q0 245 -197 400q-180 142 -430 142q-291 0 -456 -220q-149 -196 -149 -493q0 -274 175 -462q182 -196 468 -196q81 0 183 31l175 65q44 16 57 16q41 0 71 -32.5t30 -75.5
q0 -95 -213 -154q-161 -44 -301 -44q-141 0 -288.5 54.5t-252.5 145.5q-310 268 -310 652t212 642q225 276 599 276q338 0 579 -203q253 -215 253 -544q0 -225 -110 -346q-115 -125 -337 -125z" />
    <glyph glyph-name="A" unicode="A" horiz-adv-x="1498" 
d="M1250 -30q-92 0 -160 236q-26 90 -65 315q-102 -14 -267 -50l-266 -55q-50 -131 -171 -383q-32 -56 -87 -56q-40 0 -71.5 29t-31.5 72q0 48 151 365q-17 26 -17 60q0 81 98 104q114 214 288 492q237 379 295 379q79 0 108 -110l63 -336l149 -695l57 -158q29 -81 29 -108
q0 -43 -31 -72t-71 -29zM897 1113l-286 -461q121 31 367 75z" />
    <glyph glyph-name="B" unicode="B" horiz-adv-x="1291" 
d="M886 35q-225 -83 -575 -83q-43 0 -81.5 38t-38.5 79v273q0 135 18 384q20 269 22 389q-1 86 11 257q7 47 33 63q136 39 309 39q176 0 338 -113q187 -130 187 -320q0 -242 -200 -381q150 -60 224.5 -133.5t74.5 -159.5q0 -114 -131 -220q-91 -76 -191 -112zM584 1367
q-109 0 -153 -7l-2 -175l-20 -387q142 -12 152 -11q151 12 247 94q103 89 103 229q0 95 -105 176t-222 81zM696 566l-106 17q-13 0 -39.5 -1.5t-40.5 -1.5q-54 0 -115 9q-6 -126 -6 -225v-207q262 9 427 74q70 27 134 84q61 52 61 78q0 47 -128 106q-96 45 -187 67z" />
    <glyph glyph-name="C" unicode="C" horiz-adv-x="1234" 
d="M1104 1122q-64 0 -96 75q-28 64 -52 78q-21 11 -104 11q-145 0 -322 -222q-240 -298 -240 -565q0 -129 83 -222q85 -96 205 -96q103 0 207 53q58 30 178 118q57 42 86 42q43 0 72 -32.5t29 -72.5q0 -45 -38 -79q-264 -234 -534 -234q-207 0 -350 159q-138 154 -138 364
q0 339 284 695q237 297 478 297q49 0 88 -4.5t69 -14.5q35 51 91 51q69 0 87 -91q16 -81 16 -199q0 -41 -22 -72q-27 -39 -77 -39z" />
    <glyph glyph-name="D" unicode="D" horiz-adv-x="1478" 
d="M1076 7q-155 -106 -445 -106q-73 0 -167 23q-113 27 -170 70h-10q-43 0 -72 30t-29 73q0 105 9.5 314.5t9.5 314.5q0 117 -4.5 349.5t-4.5 349.5q0 41 42 86t84 45q24 0 160 -67q154 -75 178 -83q284 -97 484 -298q235 -237 235 -521q0 -171 -80.5 -328t-219.5 -252z
M866 1065q-102 67 -471 230l5 -288l3 -287l-16 -546q7 -3 21 -13q88 -59 222 -59q228 0 332 70q97 66 154.5 177.5t57.5 232.5q0 282 -308 483z" />
    <glyph glyph-name="E" unicode="E" horiz-adv-x="1279" 
d="M1115 1229q-14 0 -31 5q-169 44 -326 44q-82 0 -179 -14t-209 -42q9 -60 9 -96q0 -128 -17 -351l438 39q193 18 237 18t74 -26t30 -69q0 -83 -92 -93l-238 -20l-462 -38q-4 -66 -6.5 -124t-2.5 -109q0 -203 32 -239q24 -26 157 -26q62 0 186.5 3.5t187.5 3.5q20 0 59 6
t58 6q106 0 106 -96q0 -77 -85 -93q-94 -17 -407 -17q-310 0 -398 75q-96 82 -96 377q0 59 3 129t8 151q-11 21 -11 45q0 31 19 56q20 265 20 392q0 34 -10 99.5t-10 99.5q0 110 100 110q42 0 72 -27q120 30 226.5 44.5t200.5 14.5q243 0 388 -53q67 -25 67 -89
q0 -36 -26 -65q-29 -31 -72 -31z" />
    <glyph glyph-name="F" unicode="F" horiz-adv-x="1195" 
d="M1043 1240q-17 0 -35 8q-116 40 -306 40q-62 0 -144.5 -8.5t-184.5 -26.5l-2 -376q180 43 270 43q144 0 298 -14q87 -10 87 -90q0 -39 -27 -64.5t-67 -25.5q-48 0 -145 7t-146 7q-63 0 -274 -50l-8 -600q0 -39 -26.5 -64.5t-66.5 -25.5t-66.5 25.5t-26.5 64.5
q0 171 7 515.5t7 517.5q0 38 -1.5 115.5t-1.5 115.5t25.5 65t67.5 27q30 0 55 -16q115 18 207.5 27.5t162.5 9.5q107 0 245 -29q188 -40 188 -104q0 -36 -25 -63q-27 -31 -67 -31z" />
    <glyph glyph-name="G" unicode="G" horiz-adv-x="1392" 
d="M1300 572q-62 -292 -260.5 -466.5t-468.5 -174.5q-246 0 -369 130.5t-123 392.5q0 246 122.5 507t314.5 422q128 107 271 107q91 0 240 -57q182 -68 182 -151q0 -39 -30 -69.5t-72 -30.5q-22 0 -62 24q-153 88 -258 88q-75 0 -157 -74q-41 -37 -118 -135
q-231 -291 -231 -631q0 -179 58 -250q63 -78 232 -78q179 0 311 107q139 114 194 326q-277 -13 -475 -101q-23 -11 -45 -11q-44 0 -73 33q-27 29 -27 68q0 52 53 84q216 125 745 125q43 0 72 -27.5t29 -69.5q0 -62 -55 -88z" />
    <glyph glyph-name="H" unicode="H" horiz-adv-x="1573" 
d="M1456 1409q-15 -42 -15 -123q0 -30 2 -89t2 -89q0 -100 -17.5 -298t-17.5 -298q0 -76 11 -228t11 -229q0 -41 -27.5 -69t-68.5 -28q-40 0 -68 28t-28 69q0 77 -11 229t-11 228q0 73 5 148q-171 -3 -423 -51l-420 -82q0 -90 -18 -255.5t-18 -256.5q0 -41 -27.5 -69.5
t-68.5 -28.5t-68.5 28.5t-27.5 69.5q0 106 17.5 316.5t17.5 316.5q0 55 -4 166t-4 167q0 79 10 237.5t10 237.5q0 42 27.5 70t68.5 28t68.5 -28t27.5 -70q0 -80 -10.5 -239.5t-10.5 -239.5l6 -253l429 81q257 48 433 50q11 143 11 431q0 76 25 154q33 107 93 107
q38 0 68 -27.5t30 -69.5q0 -15 -9 -41z" />
    <glyph glyph-name="I" unicode="I" horiz-adv-x="1119" 
d="M957 1229q-64 0 -161 13l-161 19q-23 -276 -23 -528q0 -67 4 -165t4 -164q0 -90 -7 -163l315 4q42 0 70.5 -28t28.5 -69q0 -42 -28.5 -70t-70.5 -28q-56 0 -168 -2.5t-168 -2.5q-66 0 -197.5 -17.5t-198.5 -17.5q-42 0 -70.5 28t-28.5 69t28.5 69.5t70.5 28.5
q65 0 215 20q10 77 10 176q0 65 -6.5 160t-6.5 159q0 220 28 549l-130 -4l-130 -3q-43 0 -72 28t-29 70q0 89 94 97q81 8 303 8q199 0 499 -41q89 -12 89 -102q0 -44 -34 -71q-30 -22 -69 -22z" />
    <glyph glyph-name="J" unicode="J" horiz-adv-x="1362" 
d="M1197 1294q-18 0 -61.5 7.5t-67.5 7.5q-49 0 -115 -3l5 -119q0 -744 -99 -1083q-66 -224 -231 -224q-174 0 -345 126q-189 140 -189 321q0 123 101 123t101 -121q0 -83 118 -165q113 -78 214 -78q82 0 114 503q15 238 15 598q0 28 -5 108l-61 -1q-39 0 -117.5 2.5
t-118.5 2.5q-44 0 -74 28t-30 76q0 103 139 103q34 0 101 -3t100 -3q63 0 188.5 7.5t188.5 7.5q228 0 228 -116q0 -40 -27 -71q-29 -34 -72 -34z" />
    <glyph glyph-name="K" unicode="K" horiz-adv-x="1251" 
d="M1153 -41q-152 0 -433 267l-299 301v-14l-1 -524q0 -99 -87 -99q-57 0 -91 50q-28 41 -28 89q0 234 14 700t14 699q0 43 28.5 73t70.5 30q43 0 71.5 -30t28.5 -73q0 -97 -12 -302q-12 -198 -11 -303q134 127 303 319l287 333q34 39 76 39q40 0 71 -30t31 -73
q0 -66 -258 -352q-178 -195 -368 -382q120 -126 376 -362l105 -88q57 -44 123 -66q79 -26 79 -99q0 -34 -21 -65q-26 -38 -69 -38z" />
    <glyph glyph-name="L" unicode="L" horiz-adv-x="1128" 
d="M1025 41q-113 -53 -355 -95q-223 -39 -364 -39q-101 0 -145 31q-60 42 -60 154l20 331q26 458 26 1016q0 43 28.5 73t70.5 30q43 0 71.5 -30t28.5 -73q0 -565 -27 -1028l-13 -152q-8 -83 -6 -147q261 -3 660 123q17 5 32 5q43 0 72 -34q25 -31 25 -71q0 -64 -64 -94z" />
    <glyph glyph-name="M" unicode="M" horiz-adv-x="1808" 
d="M1625 -83q-54 0 -89 56q-30 48 -54 160l-36 172q-41 160 -130 706l-200 -603l-59 -190q-36 -113 -75 -185q-42 -76 -113 -76q-59 0 -93 64q-22 42 -40 107l-29 111q-101 353 -178 756l-36 -179l-129 -528q-8 -93 -50 -275q-30 -78 -99 -78q-49 0 -78 35q-25 30 -25 74
q0 167 69 410l110 403l58 315q44 221 93 289q40 58 99 58q65 0 97 -74q39 -89 84 -363q53 -329 165 -712q148 385 256 802l30 146q18 88 47 142q39 74 107 74q86 0 131 -166q16 -57 39 -236q59 -452 147 -772l49 -172q38 -138 38 -170q0 -43 -32.5 -72t-73.5 -29z" />
    <glyph glyph-name="N" unicode="N" horiz-adv-x="1632" 
d="M1541 222q0 -48 -16 -160q-16 -101 -107 -101q-55 0 -131 72q-407 385 -934 1111l-5 -227l-3 -228q0 -83 3.5 -249t3.5 -250q0 -269 -104 -269q-55 0 -87 35q-29 31 -29 74q0 42 6.5 127t6.5 127q0 62 4 185.5t4 185.5q0 66 -3 199.5t-3 199.5q0 63 -12 187.5t-12 187.5
q0 46 39.5 84t89.5 38q53 0 131 -116q249 -373 448 -620q237 -293 520 -560q3 43 0 127l-3 126q0 439 -34 699q-4 26 -27 105q-20 68 -20 106q0 116 106 116q174 0 174 -649q0 -111 -3 -331.5t-3 -331.5z" />
    <glyph glyph-name="O" unicode="O" horiz-adv-x="1635" 
d="M802 -61q-282 0 -478 164q-208 174 -208 450q0 335 205 610q229 304 571 304q329 0 489 -143q167 -150 167 -472q0 -335 -188 -605q-216 -308 -558 -308zM892 1310q-245 0 -415 -244q-157 -224 -157 -494q0 -193 143 -314q137 -114 339 -114q243 0 401 245
q141 219 141 492q0 239 -107 336q-102 93 -345 93z" />
    <glyph glyph-name="P" unicode="P" horiz-adv-x="1066" 
d="M413 602q-28 0 -122 12q-8 -144 -8 -504q0 -39 -26 -65t-65 -26q-40 0 -66 26t-26 65v280q0 140 18 395q20 275 22 395v131q0 95 12 137q23 84 98 73q32 9 91 14t145 5q183 0 343 -119q176 -132 176 -317q0 -236 -188 -376q-168 -126 -404 -126zM463 1381q-44 0 -78.5 -2
t-58.5 -6l-2 -184l-21 -398l110 -13q168 0 283 85q126 93 126 251q0 112 -120 193q-111 74 -239 74z" />
    <glyph glyph-name="Q" unicode="Q" horiz-adv-x="1795" 
d="M1646 -438q-44 0 -237 171l-239 219q-169 -68 -335 -68q-301 0 -529.5 240t-228.5 543q0 357 266 606q260 242 615 242q374 0 567 -280q164 -240 164 -621q0 -331 -324 -557l218 -201l129 -110q38 -36 38 -78q0 -41 -30.5 -73.5t-73.5 -32.5zM958 1308q-274 0 -472 -183
q-204 -188 -204 -458q0 -219 169 -396q170 -180 384 -180q69 0 142 17q-193 168 -193 265q0 44 32.5 73t72.5 29q48 0 85 -48q99 -129 224 -231q285 166 285 418q0 297 -121 482q-138 212 -404 212z" />
    <glyph glyph-name="R" unicode="R" horiz-adv-x="1287" 
d="M1126 -11q-38 0 -71 32q-331 327 -736 440l8 -196l5 -197q0 -44 -28.5 -73.5t-71.5 -29.5t-71.5 29.5t-28.5 73.5q0 79 -7.5 235.5t-7.5 235.5q0 92 20 274t20 273q0 51 -9.5 151t-9.5 151q0 57 32 100q38 53 105 48l241 -19q137 -17 231 -67q405 -215 405 -525
q0 -152 -138 -269q-111 -94 -277 -143q311 -167 465 -352q26 -32 26 -68q0 -42 -30.5 -73t-71.5 -31zM489 1311l-148 12l10 -121q7 -74 7 -121q0 -80 -13 -199l-21 -199q14 0 43.5 -1t44.5 -1q255 0 382 68q56 31 104 81q53 56 53 95q0 139 -158 259q-145 110 -304 127z" />
    <glyph glyph-name="S" unicode="S" horiz-adv-x="1420" 
d="M134 249q-1 42 28.5 68.5t72.5 26.5q49 0 86 -56q51 -76 91 -103q85 -56 247 -56q155 0 288 67q170 86 170 239q0 126 -143 199q-121 63 -299 68q-158 6 -269 69q-142 81 -142 232q0 178 202 325q193 139 399 139q97 0 219 -33q162 -43 162 -110q0 -88 -90 -88
q-40 0 -140 21.5t-155 20.5q-156 -2 -265 -77q-112 -77 -112 -187q0 -83 148 -117q55 -13 213 -24q229 -17 358 -144q118 -116 118 -283q0 -238 -220 -380q-191 -123 -443 -123q-183 0 -335 70q-186 86 -189 236z" />
    <glyph glyph-name="T" unicode="T" horiz-adv-x="1392" 
d="M1362 1263q-74 0 -228 12q-150 11 -228 10h-71q3 -138 27 -448q22 -289 22 -449q0 -35 7 -106t7 -107q0 -68 -22 -117q-28 -66 -87 -66q-40 0 -72 28t-32 72q0 15 5 45t5 45q0 49 -6.5 147t-6.5 148q0 143 -23 402q-24 280 -27 402l-91 -1q-219 0 -344 32q-81 21 -81 99
q0 41 26 72q30 35 77 32q35 -2 160 -18q100 -12 162 -12q60 0 182 2.5t182 2.5q77 0 228.5 -11t228.5 -11q43 0 72 -29.5t29 -73.5q0 -43 -29 -72.5t-72 -29.5z" />
    <glyph glyph-name="U" unicode="U" horiz-adv-x="1509" 
d="M790 -40q-311 0 -464 179q-124 144 -156 426q-15 127 -15 507q0 140 6 226q6 91 18 127q25 73 90 73q92 0 92 -169v-587q0 -606 424 -606q399 0 399 1020v98q-1 60 -1 80q0 62 22 109q28 60 83 60q100 0 100 -137q0 -41 1 -124v-124q0 -1158 -599 -1158z" />
    <glyph glyph-name="V" unicode="V" horiz-adv-x="1331" 
d="M1306 1371q-62 -93 -101 -195l-76 -219l-269 -727q-47 -128 -110 -250q-32 -60 -90 -60q-77 0 -108 78q-121 304 -269 875l-79 275q-59 208 -59 272q0 45 32 74q29 27 70 27q76 0 98 -82l37 -174l96 -340q96 -372 187 -641l6 16l268 726l85 245q57 148 121 224
q33 40 78 40q40 0 71.5 -30.5t31.5 -73.5q0 -30 -20 -60z" />
    <glyph glyph-name="W" unicode="W" horiz-adv-x="2129" 
d="M1423 -96q-46 0 -81 26q-40 30 -40 74q-46 121 -58 197t-79 431q-51 269 -68 432q-89 -330 -191 -559q-118 -265 -153 -415q12 -23 12 -45q0 -45 -40 -74q-36 -27 -82 -27q-135 0 -135 121l-31 127l-109 490q-65 248 -222 711q-7 22 -7 40q0 93 105 93q65 0 100 -71
q18 -36 73 -207q59 -181 118 -436l97 -442q107 248 213 604q65 217 99 301q90 221 175 221q70 0 99 -71q36 -86 73 -410q20 -164 68 -394l86 -393q134 322 335 871q11 30 50 189q29 117 71 182q36 55 94 55q101 0 101 -100q0 -17 -32 -100l-40 -108l-55 -178l-297 -722
q-41 -119 -141 -346q-36 -67 -108 -67z" />
    <glyph glyph-name="X" unicode="X" horiz-adv-x="1482" 
d="M1379 1349q-134 -162 -206 -267l-125 -184q-73 -104 -137 -175l220 -322q131 -191 233 -312q27 -33 27 -69q0 -42 -30.5 -73t-72.5 -31q-38 0 -71 31q-74 70 -154 190l-134 206l-157 225l-344 -398l-184 -206q-33 -33 -73 -33q-41 0 -72 31t-31 73q0 36 26 68l180 201
l375 435q-110 147 -234 295l-116 157q-70 94 -130 144q-42 35 -42 81q0 41 29 73t72 32q85 0 217 -181q41 -61 125 -173q114 -136 217 -273l228 318q222 309 288 309q41 0 72 -31t31 -73q0 -35 -27 -68z" />
    <glyph glyph-name="Y" unicode="Y" horiz-adv-x="1301" 
d="M1172 1292q-24 -36 -64 -111l-172 -403q-100 -227 -188 -396l-125 -212l-53 -102q-33 -55 -89 -55q-39 0 -71 27.5t-32 68.5q0 32 94 202l123 213q-179 219 -232 345q-45 107 -150 257q-144 204 -169 247q-15 26 -15 51q0 41 31.5 69t71.5 28q49 0 82 -45l80 -117
q106 -149 140 -203q75 -116 117 -216q33 -79 141 -215l229 529q39 65 108 202q28 64 93 64q40 0 71.5 -26.5t31.5 -68.5q0 -43 -53 -133z" />
    <glyph glyph-name="Z" unicode="Z" horiz-adv-x="1420" 
d="M1266 1251l-135 -92q-182 -141 -412 -451l-351 -511q-25 -38 -49 -70l389 15q255 12 390 12q132 0 195 -12q81 -16 84 -82q2 -49 -32 -78q-30 -25 -75 -25q-29 0 -87 3.5t-87 3.5q-152 0 -456.5 -7.5t-456.5 -7.5q-115 0 -115 101q0 66 62 166l107 149l361 502
q223 295 415 458l-350 -20h-404q-11 0 -32.5 -1.5t-31.5 -1.5q-106 0 -106 103q0 68 54 90q33 14 109 14q69 0 205.5 -14.5t205.5 -14.5q77 0 230.5 10t231.5 10q257 0 257 -97q0 -66 -116 -152z" />
    <glyph glyph-name="bracketleft" unicode="[" horiz-adv-x="771" 
d="M440 -412q-22 0 -67 -2.5t-68 -2.5q-129 0 -129 117q0 183 14.5 703.5t14.5 703.5l-16 303l-1 14q-2 38 23.5 67t65.5 29q30 0 90.5 -2.5t90.5 -2.5q19 0 56.5 2.5t56.5 2.5q92 0 92 -97q0 -89 -84 -97t-203 -3q6 -90 6 -203l-13 -671l-16 -670l87 3q29 0 87.5 -2.5
t87.5 -2.5q40 0 63.5 -28.5t23.5 -68.5t-23.5 -68.5t-63.5 -28.5q-29 0 -87.5 2.5t-87.5 2.5z" />
    <glyph glyph-name="backslash" unicode="\" horiz-adv-x="1126" 
d="M920 -141q-50 0 -80 51q-38 63 -117 250l-291 745q-64 151 -239 469q-16 29 -16 53q0 39 29.5 68t67.5 29q45 0 76 -46q114 -171 247 -488l205 -515q107 -272 201 -473q12 -25 12 -47q0 -39 -28.5 -67.5t-66.5 -28.5z" />
    <glyph glyph-name="bracketright" unicode="]" horiz-adv-x="771" 
d="M438 -412q23 0 68 -2.5t67 -2.5q129 0 129 117q0 183 -14.5 703.5t-14.5 703.5l16 303l1 14q2 38 -23.5 67t-64.5 29q-31 0 -91.5 -2.5t-90.5 -2.5q-19 0 -56.5 2.5t-56.5 2.5q-92 0 -92 -97q0 -89 84 -97t204 -3q-7 -90 -7 -203l13 -671l16 -670l-87 3q-29 0 -87.5 -2.5
t-87.5 -2.5q-39 0 -63 -28.5t-24 -68.5t24 -68.5t63 -28.5q29 0 87.5 2.5t87.5 2.5z" />
    <glyph glyph-name="asciicircum" unicode="^" horiz-adv-x="6" 
d="M-1187 -1553q79 -21 6 -69q-345 -222 -78 -306q284 308 459 308q153 0 153 -108l-51 -136q-40 -99 381 61q761 119 738 -183q-18 -50 -94 -62q-318 370 -854 47q-430 -55 -254 210l24 80q-174 127 -358 -286q-332 -39 -343 129q0 113 97 201q104 79 -38 60
q-328 -109 -214 -320q-92 -60 -122 21q-27 220 367 354q83 20 181 -1z" />
    <glyph glyph-name="underscore" unicode="_" horiz-adv-x="1284" 
d="M973 -345q-71 0 -213 5t-213 5h-445q-23 0 -69 -5t-68 -5v185q100 0 300 1.5t300 1.5q71 0 211.5 -5.5t211.5 -5.5l335 8v-185h-350z" />
    <glyph glyph-name="grave" unicode="`" horiz-adv-x="1139" 
d="M559 1323q9 -31 -8.5 -61t-48.5 -39q-37 -11 -72 17l-124 102q-64 49 -139 78q-42 15 -52 51q-9 30 6 61.5t46 40.5q53 16 216 -90q159 -105 176 -160z" />
    <glyph glyph-name="a" unicode="a" horiz-adv-x="1048" 
d="M920 -66q-19 0 -69 44q-45 41 -67 73q-96 -52 -169 -78.5t-122 -26.5q-234 0 -341 132q-101 124 -101 380q0 242 166.5 414t397.5 172q87 0 195 -45q136 -56 136 -135q0 -27 -20 -48q-10 -38 -15.5 -125t-6.5 -223q-1 -124 17 -196q10 -44 63 -176q7 -18 23 -53l6 -17
q0 -40 -28 -66t-65 -26zM712 629q0 43 5.5 93.5t16.5 107.5q-37 19 -63.5 28t-42.5 9q-155 0 -267.5 -126.5t-112.5 -291.5q0 -164 58 -246t174 -82q96 0 163 35q36 19 101 76q-32 265 -32 397z" />
    <glyph glyph-name="b" unicode="b" horiz-adv-x="1215" 
d="M606 -42q-153 0 -278 60q-32 -48 -78 -48q-38 0 -64.5 26.5t-26.5 66.5q0 26 2.5 77t2.5 77q0 106 -5.5 317.5t-5.5 317.5q0 73 1 276.5t1 277.5q0 60 25 108q33 61 91 61q75 0 75 -87q0 -14 -5 -41t-5 -41l-3 -219l-2 -255q87 59 165.5 88.5t147.5 29.5q215 0 349 -165
q126 -155 126 -381q0 -228 -147 -387t-366 -159zM644 861q-82 0 -168 -46q-42 -23 -144 -99l-2 -173l1 -156l1 -164q48 -22 135 -56q62 -19 139 -19q145 0 238 102t93 254q0 149 -75 249q-81 108 -218 108z" />
    <glyph glyph-name="c" unicode="c" horiz-adv-x="1052" 
d="M591 -63q-205 0 -342 124q-144 130 -144 343q0 203 135 419q150 240 338 240q98 0 219 -46q153 -59 153 -144q0 -38 -25 -67.5t-62 -29.5q-29 0 -50.5 17.5t-41.5 34.5q-59 47 -193 47q-102 0 -202 -182q-91 -167 -91 -289q0 -132 90 -208q84 -71 216 -71q60 0 128 32
l116 62q30 16 43 16q37 0 64 -29.5t27 -67.5q0 -73 -154 -141q-135 -60 -224 -60z" />
    <glyph glyph-name="d" unicode="d" horiz-adv-x="1203" 
d="M1060 883q-12 -147 -12 -294q0 -333 31 -503q2 -14 2 -23q0 -40 -28 -66t-65 -26q-62 0 -91 90q-72 -53 -149.5 -80t-161.5 -27q-207 0 -343 138q-140 141 -140 362q0 267 141.5 428t367.5 161q116 0 179 -36l94 -69q14 421 33 567q13 89 91 89q91 0 91 -97
q0 -139 -40 -614zM616 857q-168 0 -252 -99.5t-84 -299.5q0 -129 91.5 -222t214.5 -93q84 0 142 31q34 18 111 83q15 13 29 31l-3 173l1 116l2 118q-38 81 -101 121.5t-151 40.5z" />
    <glyph glyph-name="e" unicode="e" horiz-adv-x="1122" 
d="M606 -46q-226 0 -366 113q-153 125 -153 350q0 260 126 436q137 192 366 192q166 0 271 -56q129 -69 129 -212q0 -100 -113 -182q-50 -36 -212 -112l-382 -181q56 -83 139.5 -125t194.5 -42q69 0 162 26q118 33 152 86.5t73 53.5q35 0 62.5 -26.5t27.5 -61.5
q0 -111 -179 -191q-153 -68 -298 -68zM579 865q-122 0 -203 -94.5t-121 -284.5l307 146q181 88 258 153q-86 80 -241 80z" />
    <glyph glyph-name="f" unicode="f" horiz-adv-x="1041" 
d="M811 1406q-242 0 -271 -336l-3 -62q170 12 220 12q159 0 159 -100q0 -73 -78 -87q-34 -6 -79.5 -4.5t-230.5 -13.5l-8 -228q0 -62 4 -186t4 -185q0 -190 -22 -296q-17 -80 -93 -80q-41 0 -70 26.5t-29 66.5q0 8 2 20q21 130 21 283l-3 273v290q-125 -10 -158 -10
q-101 0 -101 97q0 99 175 104l96 3q3 56 15 152q26 222 112 327q104 127 325 127q143 0 143 -97q0 -96 -130 -96z" />
    <glyph glyph-name="g" unicode="g" horiz-adv-x="1087" 
d="M962 499l-23 -314q-6 -187 -41 -306q-45 -152 -144 -224q-120 -87 -347 -87q-133 0 -223 17q-126 23 -126 97q0 83 87 83q36 0 120 -16t186 -14q192 2 265 174q48 114 51 351q-54 -94 -128.5 -141t-170.5 -47q-181 0 -294.5 116t-113.5 300q0 253 155 407
q160 159 436 159q93 0 156 -22.5t96 -67.5q107 -3 107 -111q0 -67 -21 -178q-23 -129 -27 -176zM641 876q-190 0 -294 -122q-93 -111 -93 -281q0 -136 55 -204t165 -68q101 0 196 106q86 99 98 195q21 101 45 317q-40 29 -83 43t-89 14z" />
    <glyph glyph-name="h" unicode="h" horiz-adv-x="1183" 
d="M976 -62q-71 0 -93 76q-23 82 -42 233q-18 145 -18 238q0 26 2.5 79t2.5 79q0 188 -94 188q-127 0 -227 -115q-51 -59 -140 -225q0 -381 -32 -451q-28 -62 -87 -62q-41 0 -72 28t-31 68q0 14 9 44q8 25 11 146l3 148l3 735q7 124 7 167q0 51 -9.5 96.5t-9.5 94.5
q0 42 29 69.5t71 27.5q82 0 96 -88q16 -97 16 -175q0 -105 -7 -219q-6 -109 -5 -219l1 -88q82 110 175.5 164.5t198.5 54.5q166 0 228 -108q44 -76 50 -256l8 -191l20 -208q14 -117 34 -206q4 -17 4 -29q0 -41 -30 -68.5t-72 -27.5z" />
    <glyph glyph-name="i" unicode="i" horiz-adv-x="574" 
d="M292 1166q-48 0 -83 34t-35 82t35 82t83 34t82.5 -34t34.5 -82t-34.5 -82t-82.5 -34zM375 454q0 -60 3.5 -179.5t3.5 -179.5q0 -44 -27 -72t-71 -28q-43 0 -70.5 28t-27.5 72q0 60 -3.5 179.5t-3.5 179.5q0 94 10 234.5t10 234.5q0 45 27.5 73t70.5 28t70.5 -28t27.5 -73
q0 -94 -10 -234.5t-10 -234.5z" />
    <glyph glyph-name="j" unicode="j" horiz-adv-x="826" 
d="M490 1214q-48 0 -82.5 31.5t-34.5 74.5q0 44 34.5 75.5t82.5 31.5t83 -31.5t35 -75.5q0 -43 -35 -74.5t-83 -31.5zM459 -102q1 108 -34 552l-34 508q0 46 28.5 82t72.5 36q34 0 68 -23t36 -47l33 -531l27 -567q0 -129 -83 -233q-90 -113 -219 -113q-215 0 -360 305
q-12 25 -12 44q0 37 31.5 64t71.5 27q59 0 123 -120q16 -32 56 -91q39 -46 90 -46q44 0 75 61q24 46 30 92z" />
    <glyph glyph-name="k" unicode="k" horiz-adv-x="1106" 
d="M972 -41q-55 0 -85 58q-52 101 -157 239l-177 241q-58 -46 -180 -129q-11 -155 -11 -302q0 -45 -27.5 -73t-70.5 -28q-101 0 -101 136q0 83 11.5 248.5t11.5 248.5q0 152 4.5 347.5t4.5 345.5q0 45 -4.5 106t-4.5 106t27.5 73t70.5 28t70.5 -28t27.5 -73q0 -46 5 -108.5
t5 -108.5l-7 -322q-5 -174 -3 -348q136 104 262 228l220 227q33 34 71 34q39 0 70.5 -31t31.5 -72q0 -34 -29 -67q-123 -144 -303 -309l218 -297q153 -209 153 -272q0 -40 -31.5 -69t-72.5 -29z" />
    <glyph glyph-name="l" unicode="l" horiz-adv-x="561" 
d="M393 786l-15 -497q0 -79 -8 -232q-10 -100 -98 -100q-98 0 -98 102q0 121 11 363.5t11 363.5q0 158 5 361.5t5 361.5q0 100 98 100q99 0 99 -100q0 -158 -5 -361.5t-5 -361.5z" />
    <glyph glyph-name="m" unicode="m" horiz-adv-x="1591" 
d="M1409 -83q-82 0 -96 87q-18 110 -36 310l-34 310q-10 69 -34 135q-34 90 -74 90q-37 0 -138 -63q-96 -58 -126 -93q-1 -94 5 -188l30 -267q19 -158 19 -261q0 -44 -27.5 -72.5t-70.5 -28.5t-70.5 28.5t-27.5 72.5q0 121 -24.5 357.5t-24.5 357.5q0 106 -30 165
q-70 -32 -142 -104l-118 -132q-16 -24 -51 -63q0 -60 -11 -177t-11 -173q0 -30 9.5 -84t9.5 -78q0 -41 -30.5 -69t-71.5 -28q-113 0 -113 257q0 60 11 179t11 179q0 53 -9.5 159t-9.5 160q0 227 102 227q39 0 71.5 -34t32.5 -74q0 -19 -5 -59t-5 -61l2 -105
q52 107 153 193.5t172 86.5q157 0 216 -156q55 73 131 109.5t174 36.5q167 0 228 -180q12 -36 41 -281q28 -172 72 -573q3 -40 -27 -68t-73 -28z" />
    <glyph glyph-name="n" unicode="n" horiz-adv-x="1072" 
d="M906 -71q-86 0 -97 94l-28 219q-14 117 -14 219q0 28 3.5 95t3.5 95q0 216 -80 216q-112 0 -214 -133q-92 -121 -144 -306q-2 -39 -9 -98q-6 -50 -6 -97q0 -30 6 -90t6 -90q0 -45 -27.5 -73t-70.5 -28q-44 0 -71 28t-27 73q0 30 -6.5 90t-6.5 90q0 103 14.5 285.5
t14.5 285.5q0 32 -3.5 95t-3.5 95q0 43 28.5 70.5t70.5 27.5q92 0 101 -130l3 -117q168 224 345 224q160 0 223 -141q43 -94 47 -278v-101l-1 -93q0 -83 21.5 -214.5t21.5 -213.5q0 -44 -28.5 -71.5t-71.5 -27.5z" />
    <glyph glyph-name="o" unicode="o" horiz-adv-x="1077" 
d="M514 -59q-168 0 -289 124q-135 138 -142 371q-6 226 114 398q140 203 390 203q200 0 303 -183q82 -148 79 -356q-3 -222 -116 -379q-128 -178 -339 -178zM574 834q-147 1 -229 -140q-65 -113 -65 -258t79 -226q66 -67 155 -67q104 0 179 76q85 84 90 227q14 387 -209 388
z" />
    <glyph glyph-name="p" unicode="p" horiz-adv-x="1095" 
d="M564 85q-100 0 -220 30l-2 -452q0 -42 -27.5 -68.5t-70.5 -26.5t-70.5 26.5t-27.5 68.5l3 379v377q-3 208 -15 378l-15 192q0 68 26 114q30 56 87 56q39 0 65.5 -26t26.5 -64q0 -8 -3 -31q-5 -30 -7 -54q86 56 166 84t153 28q205 0 300 -173q75 -136 75 -361
q0 -204 -116 -337q-123 -140 -328 -140zM633 906q-92 0 -166 -39q-53 -27 -134 -100q13 -215 13 -452q109 -40 218 -40q125 0 191 89q57 76 57 198q0 173 -44.5 258.5t-134.5 85.5z" />
    <glyph glyph-name="q" unicode="q" horiz-adv-x="1065" 
d="M909 376l-46 -353q-25 -197 -25 -356q0 -41 -27 -66.5t-71 -25.5q-92 0 -98 93q-3 40 5 102l13 102l19 203q-86 -21 -121 -21q-218 0 -353 104q-145 111 -145 308q0 269 165 432q169 167 460 165q55 0 83 -40q43 35 76 35q40 0 69.5 -29t29.5 -67q0 -271 -34 -586z
M614 904q-184 -30 -278 -172q-76 -115 -76 -270q0 -109 72 -177q79 -75 219 -71q95 3 139 94q48 103 51 351l14 245q-20 -6 -70 -3q-55 6 -71 3z" />
    <glyph glyph-name="r" unicode="r" horiz-adv-x="984" 
d="M917 739q-7 -125 -100 -125q-86 0 -86 99q0 19 -3 70l-3 84q-158 -19 -253 -89q-89 -65 -148 -196l2 -548q0 -101 -99 -101q-88 0 -88 101v702q0 33 2.5 99t2.5 99q0 101 88 101q98 0 99 -166q192 185 426 185q81 0 121 -61t40 -184q0 -52 -1 -70z" />
    <glyph glyph-name="s" unicode="s" horiz-adv-x="997" 
d="M814 770q-55 0 -77 37q-15 26 -26 108q-75 -19 -231 -70q-161 -64 -162 -158q30 -11 59 -16q230 -41 342 -113q163 -105 163 -304q0 -163 -141 -246q-117 -68 -296 -68q-131 0 -250 44q-154 56 -154 156q0 40 31.5 70t71.5 30q31 0 80 -48q24 -23 108 -38q67 -12 113 -12
q84 0 148 20q93 29 93 92q0 136 -190 184l-104 23q-133 29 -189 68q-81 56 -81 169q0 209 197 298q60 27 192 64.5t189 63.5q41 18 89 18q43 0 70.5 -28t27.5 -73q0 -29 12.5 -85t12.5 -85q0 -45 -27.5 -73t-70.5 -28z" />
    <glyph glyph-name="t" unicode="t" horiz-adv-x="965" 
d="M808 852q-21 0 -49.5 2t-49.5 2q-23 0 -136 -15l19 -591l1 -44l1 -51q4 -219 -105 -219q-40 0 -69.5 26t-29.5 65q0 38 3 114t3 114l-20 584q-73 3 -222 17q-89 12 -89 99q0 44 27 73t69 29l210 -17q0 51 -4.5 136.5t-4.5 123.5q0 42 29 69.5t71 27.5q90 0 105 -147
q3 -37 3 -89l-2 -58l-1 -62q124 16 142 16q104 0 136 -10q61 -20 61 -94q0 -44 -27.5 -72.5t-70.5 -28.5z" />
    <glyph glyph-name="u" unicode="u" horiz-adv-x="1065" 
d="M955 584q0 -72 1 -216t1 -216q0 -22 3.5 -67t3.5 -67q0 -43 -29 -70.5t-71 -27.5q-77 0 -98 95q-125 -65 -288 -65q-131 0 -217 58q-95 64 -113 187q-39 265 -39 472q0 137 30 312q14 87 95 87q43 0 72 -27.5t29 -70.5q0 -46 -14.5 -147t-14.5 -154q0 -167 11 -286
t33 -191q33 -18 65 -27.5t63 -9.5q134 0 283 43l-1 203l-2 194q0 216 19 375q11 92 97 92q43 0 72 -28t27 -70z" />
    <glyph glyph-name="v" unicode="v" horiz-adv-x="996" 
d="M600 52q-3 -92 -91 -92q-73 0 -106 86l-153 406l-178 459q-10 26 -10 46q0 41 31 70t72 29q60 0 86 -61l254 -699q75 160 189 464q27 80 85 226q31 64 88 64q41 0 72 -29t31 -69q0 -38 -165 -428z" />
    <glyph glyph-name="w" unicode="w" horiz-adv-x="1401" 
d="M1336 895q-78 -326 -204 -737q-28 -91 -93 -187q-35 -53 -95 -52q-109 2 -170 271q-20 86 -41 234l-33 223l-82 -191l-152 -413q-13 -38 -38 -58q-30 -58 -96 -60q-76 -3 -147 298q-36 155 -72 420l-24 150q-13 90 -13 151q0 42 29.5 69.5t71.5 27.5q76 0 94 -83
q13 -59 21 -146l15 -147l59 -449q111 308 230 710q33 111 115 111q79 0 107 -124q26 -117 65 -360q40 -252 71 -393l73 272l129 545q15 61 86 61q42 0 73 -28.5t31 -68.5q0 -5 -10 -46z" />
    <glyph glyph-name="x" unicode="x" horiz-adv-x="1209" 
d="M1058 858l-146 -137l-178 -177l326 -426q25 -32 25 -63q0 -39 -30 -69t-68 -30t-69 37q-92 107 -324 412l-195 -201q-59 -53 -172 -165q-32 -36 -69 -36q-38 0 -67.5 30t-29.5 69q0 31 25 63q28 37 87 89q69 61 91 84l213 223l-131 189q-79 113 -138 165q-38 34 -38 74
t28.5 71t65.5 31q59 0 178 -154l173 -239l196 180q122 115 165 180q32 47 76 47q39 0 69 -29t30 -67q0 -55 -93 -151z" />
    <glyph glyph-name="y" unicode="y" horiz-adv-x="1066" 
d="M1011 906l-346 -677q-128 -247 -196 -413l-66 -176q-26 -65 -90 -65q-42 0 -72.5 25t-30.5 62q0 90 216 524l-358 623l-45 66q-27 42 -27 70q0 37 31.5 65t70.5 28q46 0 71 -31q170 -214 365 -609l148 313q80 162 154 278q32 51 84 51q41 0 72.5 -26t31.5 -63
q0 -20 -13 -45z" />
    <glyph glyph-name="z" unicode="z" horiz-adv-x="1102" 
d="M964 809q-89 -107 -228 -310q-161 -236 -236 -334q105 5 183 5q39 0 116 -15t116 -15q44 0 71.5 -28.5t27.5 -72.5q0 -45 -27.5 -73t-71.5 -28q-39 0 -116 15t-116 15q-225 0 -427 -41q-21 -4 -37 -4q-97 0 -97 85q0 50 50 96q261 236 568 735q-133 -8 -193 -8
q-148 0 -304 23q-89 13 -89 99q0 44 27 73.5t68 29.5q49 0 148 -11.5t150 -11.5q68 0 204 9.5t204 9.5q85 0 85 -70q0 -81 -76 -173z" />
    <glyph glyph-name="braceleft" unicode="{" horiz-adv-x="601" 
d="M218 111q56 -7 101.5 1t79.5 33.5t55.5 69t29.5 107.5q2 22 8 87.5t13.5 158.5t17 204.5t18.5 226.5t18 224.5t16 197.5t12 146t6 71q10 87 48 156.5t99.5 116.5t141.5 67.5t174 9.5l-9 -79q-58 6 -107 -6.5t-87 -42t-62.5 -75t-31.5 -105.5q-2 -20 -8 -84t-13.5 -156
t-16.5 -204t-18 -227t-18 -225t-16 -199t-12.5 -148t-7.5 -73q-13 -121 -68.5 -202t-157.5 -115q91 -55 127 -147t22 -212q-1 -14 -9.5 -73t-21.5 -147t-29 -197.5t-33 -223.5t-33 -225t-29.5 -202.5t-22 -155t-11.5 -83.5q-7 -61 6.5 -110.5t44 -87t76 -60.5t102.5 -30
l-9 -79q-94 11 -167.5 49t-122.5 97t-70.5 135.5t-11.5 163.5q2 13 10 71t21 145t29 196t33 222.5t33 224.5t29.5 203t22.5 157.5t11 87.5q8 64 -3.5 111t-39 79.5t-70 50.5t-98.5 24z" />
    <glyph glyph-name="bar" unicode="|" horiz-adv-x="530" 
d="M305 1393v-1866h-98v1866h98z" />
    <glyph glyph-name="braceright" unicode="}" horiz-adv-x="589" 
d="M585 3l-11 -79q-56 8 -101.5 1t-80.5 -31.5t-57.5 -67.5t-30.5 -107q-3 -22 -10.5 -87.5t-17 -158t-21.5 -204t-23.5 -226t-22.5 -224t-20 -197t-15.5 -146t-8.5 -71.5q-12 -86 -51.5 -154.5t-101.5 -114.5t-142.5 -64.5t-174.5 -5.5l11 79q57 -8 106.5 3.5t88.5 40
t64 73.5t34 105q2 20 9.5 83.5t17 156t21 203.5t23 226t23 225t20.5 199t15.5 148t8.5 73q16 120 73.5 200t159.5 111q-90 58 -124 150.5t-17 212.5q2 13 11.5 72t24.5 146.5t33 197t38 223t38.5 224t34 202t25.5 154.5t13 83q8 60 -4.5 110.5t-42 88t-74 62t-102.5 32.5
l11 79q94 -13 166.5 -52.5t120 -100t67.5 -137.5t8 -163q-2 -13 -11 -70.5t-24 -144.5t-33.5 -195.5t-38 -222t-38 -224t-34 -202t-26 -157t-13.5 -87.5q-9 -64 1.5 -111.5t37.5 -80t69 -51.5t98 -27z" />
    <glyph glyph-name="asciitilde" unicode="~" horiz-adv-x="6" 
d="M-127 -1098h-6q-44 -77 -143 -117q-133 -40 -329 -75l-136 -32l-142 -15l-128 -26l-131 -33l-127 -52q-84 -35 -107 -134l-6 -35l15 -81l18 -35l50 -43l36 -27l35 -25l59 -19l69 -28l103 -23l84 -8l79 -1h110q103 5 196 30q324 95 372 323q27 188 21 256l99 3l-27 -230
q24 -403 -653 -484l-277 10q-605 107 -562 407l20 52q54 89 178 150l110 46l162 44l140 36l128 27q142 24 286 68q147 47 195 100l219 6z" />
    <glyph glyph-name="uni00A0" unicode="&#xa0;" horiz-adv-x="700" 
 />
    <glyph glyph-name="currency" unicode="&#xa4;" horiz-adv-x="1085" 
d="M158 698q0 -77 30 -144t82.5 -117.5t122.5 -79.5t150 -29t150 29t122.5 79.5t82.5 117.5t30 144t-30 144.5t-82.5 118t-122.5 79.5t-150 29t-150 -29t-122.5 -79.5t-82.5 -118t-30 -144.5zM82 197l-62 59l160 154q-54 55 -83 130t-29 158q0 84 29 156.5t83 132.5
l-160 154l62 59l160 -153q58 52 136 79t165 27q88 0 164.5 -27t136.5 -79l160 153l61 -59l-160 -154q54 -57 83.5 -131t29.5 -158q0 -83 -29.5 -157t-83.5 -131l160 -154l-61 -59l-160 153q-60 -52 -136.5 -79t-164.5 -27q-87 0 -165 27t-136 79z" />
    <glyph glyph-name="section" unicode="&#xa7;" horiz-adv-x="1300" 
d="M1005 517q93 -104 93 -238q0 -179 -140 -274q-122 -82 -313 -82q-230 0 -368 94q-160 109 -160 321q0 90 89 90q59 0 83 -55l31 -105q61 -186 326 -186q111 0 184 42q90 52 90 155q0 136 -187 198l-348 112q-94 49 -141 129t-47 191q0 67 28.5 124.5t85.5 106.5
q-48 78 -48 181q0 154 134 243q116 77 278 77q233 0 383 -160q34 -37 34 -74q0 -35 -24 -62.5t-59 -27.5q-26 0 -133.5 79t-197.5 79q-78 0 -146 -36q-84 -43 -84 -117q0 -118 182 -209l292 -131q178 -107 178 -309q0 -48 -29 -97.5t-66 -58.5zM375 909q0 -108 103 -169
q64 -38 224.5 -79t213.5 -72q1 7 6.5 33t5.5 42q0 108 -196 211l-291 139q-22 -9 -44 -44.5t-22 -60.5z" />
    <glyph glyph-name="logicalnot" unicode="&#xac;" horiz-adv-x="1239" 
d="M1198 940v-422h-90v332h-1067v90h1157z" />
    <glyph glyph-name="degree" unicode="&#xb0;" horiz-adv-x="819" 
d="M737 1112q0 -65 -25 -123t-69 -101.5t-103.5 -69t-127.5 -25.5q-70 0 -131.5 25t-107 68.5t-71.5 102t-26 125.5q0 64 26.5 121t71.5 99t105 66.5t127 24.5t127 -24.5t105.5 -67t72 -99.5t26.5 -122zM643 1112q0 48 -19 89.5t-51 72.5t-75.5 49t-91.5 18q-47 0 -89.5 -18
t-75 -48.5t-52 -72t-19.5 -88.5q0 -49 18.5 -92t51.5 -75.5t77 -51t95 -18.5t93 19t73 51.5t48 75t17 89.5z" />
    <glyph glyph-name="paragraph" unicode="&#xb6;" horiz-adv-x="1104" 
d="M905 -397h-78v1765h-200v-1765h-78v1042q-108 0 -197.5 20t-154 65.5t-100.5 119t-36 180.5q0 93 28 166.5t84.5 124t142 77.5t200.5 27h533v-57h-144v-1765z" />
    <glyph glyph-name="periodcentered" unicode="&#xb7;" horiz-adv-x="496" 
d="M248 791q24 0 44.5 -9t36 -24t24.5 -35t9 -43t-9 -43.5t-24.5 -35.5t-36 -23.5t-44.5 -8.5t-45 8.5t-36.5 23.5t-24.5 35.5t-9 43.5t9 43t24.5 35t36.5 24t45 9z" />
    <glyph glyph-name="uni0308" unicode="&#x308;" 
d="M-720 1260q0 42 29 71t71 29t71 -29t29 -71t-29 -71t-71 -29t-71 29t-29 71zM-1060 1260q0 42 29 71t71 29t71 -29t29 -71t-29 -71t-71 -29t-71 29t-29 71z" />
    <glyph glyph-name="uni035C" unicode="&#x35c;" 
d="M-782 -223l42 50q63 -51 140.5 -88.5t166 -62.5t187 -37t204.5 -12t204.5 12t187 37t166 62.5t140.5 88.5l42 -50q-59 -70 -136.5 -124t-171.5 -91t-202.5 -56t-229.5 -19t-230 19t-202.5 56t-171 91t-136.5 124z" />
    <glyph glyph-name="uni200B" unicode="&#x200b;" 
 />
    <glyph glyph-name="uni200C" unicode="&#x200c;" 
 />
    <glyph glyph-name="uni200D" unicode="&#x200d;" 
 />
    <glyph glyph-name="bullet" unicode="&#x2022;" horiz-adv-x="717" 
d="M86 614q0 54 21 101.5t58 82.5t86 55.5t105 20.5t105 -20.5t85.5 -55.5t57.5 -82.5t21 -101.5t-21 -101t-57.5 -82t-85.5 -55t-105 -20t-105 20t-86 55t-58 82t-21 101z" />
    <glyph glyph-name="Euro" unicode="&#x20ac;" horiz-adv-x="1500" 
d="M1043 508h-599q20 -110 66 -195.5t113 -144.5t151.5 -90t182.5 -31q67 0 129 24t117.5 65t104 95t87.5 115l35 -20q-39 -70 -95 -135t-125.5 -114.5t-151.5 -79.5t-173 -30q-134 0 -248 41t-202.5 113.5t-148.5 171.5t-86 215h-138v78h124q-2 23 -3.5 46.5t-1.5 47.5
q0 23 1.5 45t3.5 45h-124v78h136q26 124 87.5 229.5t152 183t205.5 121t248 43.5q93 0 152 -14.5t97 -32.5t62.5 -32.5t47.5 -14.5q11 0 23 7.5t22 20.5t18 30t12 36h35l35 -473h-49q-10 84 -48 157.5t-95 128.5t-128.5 86.5t-148.5 31.5q-97 0 -177.5 -37t-142.5 -104
t-103.5 -160.5t-59.5 -206.5h600v-78h-609q-2 -24 -3 -48.5t-1 -49.5q0 -46 3 -86h610v-78zM2835 -579q41 219 -41 350q-104 167 -457 331q-484 170 -224 -247q-285 -120 -309 151q-26 386 466 210q524 -242 635 -463q78 -156 54 -332h-124z" />
    <glyph glyph-name="uni2219" unicode="&#x2219;" horiz-adv-x="496" 
d="M248 791q24 0 44.5 -9t36 -24t24.5 -35t9 -43t-9 -43.5t-24.5 -35.5t-36 -23.5t-44.5 -8.5t-45 8.5t-36.5 23.5t-24.5 35.5t-9 43.5t9 43t24.5 35t36.5 24t45 9z" />
    <glyph glyph-name="uni25CC" unicode="&#x25cc;" horiz-adv-x="1920" 
d="M1130 856q-41 7 -83 10.5t-87 3.5v90q54 0 105 -4.5t102 -12.5zM1524 124l-104 63q31 19 56.5 39.5t47.5 43.5l128 -45q-26 -28 -58.5 -53t-69.5 -48zM1732 343l-142 24q11 25 17 50.5t6 52.5h147q0 -65 -28 -127zM1421 752q-61 37 -134 64l73 78q45 -16 86 -35.5
t78 -42.5zM1590 573q-11 26 -28 49.5t-38 46.5l128 46q26 -28 46 -57t34 -61zM1167 -3l-39 87q43 7 83 17t77 23l72 -78q-45 -16 -93 -28.5t-100 -20.5zM960 -20q-54 0 -106 4.5t-102 12.5l39 87q41 -7 82.5 -10.5t86.5 -3.5v-90zM395 124l103 64q61 -37 137 -64l-75 -78
q-45 17 -86.5 36t-78.5 42zM188 343l142 23q11 -26 28 -49.5t37 -46.5l-126 -46q-26 28 -46.5 57.5t-34.5 61.5zM633 816l-72 78q45 16 92.5 28.5t98.5 20.5l38 -87q-42 -7 -81 -17t-76 -23zM395 670l-127 43q27 29 59 54.5t70 48.5l103 -63q-31 -19 -56.5 -39.5
t-48.5 -43.5zM307 470h-147q0 65 28 127l142 -23q-23 -51 -23 -104zM1221 608q-8 58 -109 122q-10 45 56 23q269 -64 281.5 -170t-86.5 -343l-47 1q113 293 11 380l-77 50q53 -73 20.5 -140t-89 -116t-192 -111.5t-262.5 -32.5q-139 21 -55 178t104.5 194t-34.5 25
q-229 -108 -149 -318q-64 -60 -85 21q-19 218 256 351q198 50 48.5 -130.5t-83 -251.5t233.5 21t215 155t43 92z" />
    <glyph glyph-name="uni25CC.err" horiz-adv-x="1920" 
d="M1130 856q-41 7 -83 10.5t-87 3.5v90q54 0 105 -4.5t102 -12.5zM1524 124l-104 63q31 19 56.5 39.5t47.5 43.5l128 -45q-26 -28 -58.5 -53t-69.5 -48zM1732 343l-142 24q11 25 17 50.5t6 52.5h147q0 -65 -28 -127zM1421 752q-61 37 -134 64l73 78q45 -16 86 -35.5
t78 -42.5zM1590 573q-11 26 -28 49.5t-38 46.5l128 46q26 -28 46 -57t34 -61zM1167 -3l-39 87q43 7 83 17t77 23l72 -78q-45 -16 -93 -28.5t-100 -20.5zM960 -20q-54 0 -106 4.5t-102 12.5l39 87q41 -7 82.5 -10.5t86.5 -3.5v-90zM395 124l103 64q61 -37 137 -64l-75 -78
q-45 17 -86.5 36t-78.5 42zM188 343l142 23q11 -26 28 -49.5t37 -46.5l-126 -46q-26 28 -46.5 57.5t-34.5 61.5zM633 816l-72 78q45 16 92.5 28.5t98.5 20.5l38 -87q-42 -7 -81 -17t-76 -23zM395 670l-127 43q27 29 59 54.5t70 48.5l103 -63q-31 -19 -56.5 -39.5
t-48.5 -43.5zM307 470h-147q0 65 28 127l142 -23q-23 -51 -23 -104zM1221 608q-8 58 -109 122q-10 45 56 23q269 -64 281.5 -170t-86.5 -343l-47 1q113 293 11 380l-77 50q53 -73 20.5 -140t-89 -116t-192 -111.5t-262.5 -32.5q-139 21 -55 178t104.5 194t-34.5 25
q-229 -108 -149 -318q-64 -60 -85 21q-19 218 256 351q198 50 48.5 -130.5t-83 -251.5t233.5 21t215 155t43 92z" />
    <glyph glyph-name="uniA980" unicode="&#xa980;" 
d="M-994 1318q58 -1 106 -5q194 79 -20 93q-142 -10 -86 -88zM-968 1257q-196 -26 -5 -136q4 -3 10 -5l-14 -3h-5l-21 -3l-93 30h6l-116 58q-95 89 172 103l-43 33q-64 95 135 105q10 -1 20 -1q12 17 27 33l21 2q43 4 84 -10q-12 -17 -24 -32q120 -22 145 -106
q-14 -38 -75 -43q140 -28 170 -93q-37 -66 -304 -33q362 91 -15 107q-20 -1 -37 -3q2 -1 4 -3q3 -3 7 -6l-10 -2h-2l-15 -3z" />
    <glyph glyph-name="uniA981" unicode="&#xa981;" 
d="M-780 1159l-60 27q-249 58 -84 172q300 -3 264 -317l-70 87z" />
    <glyph glyph-name="uniA982" unicode="&#xa982;" 
d="M-191 2081l47 21q96 31 90 -90q-590 -632 -831 -991q-100 -42 -63 60q439 652 757 1000z" />
    <glyph glyph-name="uniA983" unicode="&#xa983;" horiz-adv-x="886" 
d="M569 -1592q227 424 246.5 780t-4 455.5t-73.5 242t-108 206.5q-39 43 -78 71v-14l-55 42h-3v1l-10 8q4 11 7 23q154 512 -62 560q-269 -63 -8 -424q-189 -132 -218 131q33 437 300 453q221 -36 152 -411l-81 -232q20 -6 42 -10q144 -59 221 -201q216 -292 143 -707
q-38 -289 -140 -536.5t-147 -350t-167 -302.5t-245 -214q-291 -17 -396 286q-57 205 72 235q86 -204 189 -252q158 -70 216.5 -50t206.5 210z" />
    <glyph glyph-name="uniA9D4" unicode="&#xa9d4;" horiz-adv-x="1000" 
d="M1497 2117q407 -34 475 -387q11 8 -7 -95.5t-159 -289.5l-82 -82q-109 -48 -96 43q125 256 132 386q27 -13 -48 148t-286 145l-142 -36q-332 -160 -658 -707q-286 -470 -308 -665l-3 -161q22 -174 201 -266q289 -41 305 143q8 106 -124 77l-11 71q56 52 135 199l18 57
q-5 78 -86 47t-94 -216l-76 21q-4 229 104 314.5t215 73.5q123 -32 105 -182q18 -59 -189 -270q196 -72 180 -164q-45 -166 -372 -324l-138 1q-207 29 -291 210l-20 100q0 338 183 677q152 299 341 540q273 470 796 592z" />
    <glyph glyph-name="_cmpakara" horiz-adv-x="2600" 
d="M2226 678q27 101 54 224q258 140 308 -184q57 -136 -127 -710l-165 -16q353 840 45 800q-19 -92 -39 -173q55 -46 113 -103q31 -24 6 -69q-31 -40 -68 -12q-40 47 -78 86q-150 -534 -344 -444q-545 394 -731.5 287.5t-137.5 18.5q45 96 201 162q266 146 643 -304
q149 -140 296 352q-323 292 -407 -75q-287 -31 -163 149q222 279 594 11z" />
    <glyph glyph-name="uniA984" unicode="&#xa984;" horiz-adv-x="2600" 
d="M1500 2117q407 -34 475 -387q11 8 -7 -95.5t-159 -289.5l-82 -82q-109 -48 -96 43q125 256 132 386q27 -13 -48 148t-286 145l-142 -36q-332 -160 -658 -707q-286 -470 -308 -665l-3 -161q22 -174 201 -266q289 -41 305 143q8 106 -124 77l-11 71q56 52 135 199l18 57
q-5 78 -86 47t-94 -216l-76 21q-4 229 104 314.5t215 73.5q123 -32 105 -182q18 -59 -189 -270q196 -72 180 -164q-45 -166 -372 -324l-138 1q-207 29 -291 210l-20 100q0 338 183 677q152 299 341 540q273 470 796 592zM2240 667q27 101 54 224q258 140 308 -184
q57 -136 -127 -710l-165 -16q353 840 45 800q-19 -92 -39 -173q55 -46 113 -103q31 -24 6 -69q-31 -40 -68 -12q-40 47 -78 86q-150 -534 -344 -444q-545 394 -731.5 287.5t-137.5 18.5q45 96 201 162q266 146 643 -304q149 -140 296 352q-323 292 -407 -75
q-287 -31 -163 149q222 279 594 11z" />
    <glyph glyph-name="_cmpnga1" horiz-adv-x="1920" 
d="M771 234q119 57 268.5 39t80.5 -273q-120 180 -488 94l-140 -51q-258 -126 -23 300q212 498 29 418q-305 -135 -110 -548q-181 -148 -236 41q6 429 350 657q104 38 157.5 29t65.5 -82t-147.5 -425t193.5 -199z" />
    <glyph glyph-name="_cmpnga2" horiz-adv-x="1920" 
d="M1432 930q15 -233 109 -215q140 121 271 102t105.5 -224.5t-181.5 -594.5l-215 6q438 757 149 644l-143 -94q-147 -36 -158 262q-197 -51 -64 -285q-197 -144 -274 41q-43 262 401 358z" />
    <glyph glyph-name="_cerek1" 
d="M985 -1059q-68 6 -46 58q525 751 -133 584q-170 257 132 245q598 -61 139 -841q-19 -44 -92 -46z" />
    <glyph glyph-name="_cmpba" horiz-adv-x="2440" 
d="M2317 570q36 246 -252 172q-149 -60 -261 -240.5t-180 -493.5l-193 -8q421 782 109 655l-143 -94q-147 -36 -158 262q-246 -19 -85 -311q-176 -118 -229 34q-18 304 377 391q15 -233 109 -215q140 121 271 102q62 -9 107 -123q597 477 654 -16q-12 -285 -134 -686l-190 3
q156 306 198 568z" />
    <glyph glyph-name="uniA985" unicode="&#xa985;" horiz-adv-x="1920" 
d="M799 234q119 57 268.5 39t80.5 -273q-120 180 -488 94l-140 -51q-258 -126 -23 300q212 498 29 418q-305 -135 -110 -548q-181 -148 -236 41q6 429 350 657q104 38 157.5 29t65.5 -82t-147.5 -425t193.5 -199zM1460 930q15 -233 109 -215q140 121 271 102t105.5 -224.5
t-181.5 -594.5l-215 6q438 757 149 644l-143 -94q-147 -36 -158 262q-197 -51 -64 -285q-197 -144 -274 41q-43 262 401 358zM1133 -1059q-68 6 -46 58q525 751 -133 584q-170 257 132 245q598 -61 139 -841q-19 -44 -92 -46z" />
    <glyph glyph-name="uniA986" unicode="&#xa986;" horiz-adv-x="2440" 
d="M799 234q119 57 268.5 39t80.5 -273q-120 180 -488 94l-140 -51q-258 -126 -23 300q212 498 29 418q-305 -135 -110 -548q-181 -148 -236 41q6 429 350 657q104 38 157.5 29t65.5 -82t-147.5 -425t193.5 -199zM2318 561q36 246 -252 172q-149 -60 -261 -240.5
t-180 -493.5l-193 -8q421 782 109 655l-143 -94q-147 -36 -158 262q-246 -19 -85 -311q-176 -118 -229 34q-18 304 377 391q15 -233 109 -215q140 121 271 102q62 -9 107 -123q597 477 654 -16q-12 -285 -134 -686l-190 3q156 306 198 568zM1333 -1059q-68 6 -46 58
q525 751 -133 584q-170 257 132 245q598 -61 139 -841q-19 -44 -92 -46z" />
    <glyph glyph-name="_cerek2" 
d="M1056 -934q-404 780 122 841q266 12 116 -245q-579 167 -117 -584q19 -52 -40 -58q-65 2 -81 46z" />
    <glyph glyph-name="_cmpukara" horiz-adv-x="1920" 
d="M1432 930q15 -233 109 -215q140 121 271 102t105.5 -224.5t-181.5 -594.5l-215 6q438 757 149 644l-143 -94q-147 -36 -158 262q-197 -51 -64 -285q-197 -144 -274 41q-43 262 401 358zM1429 -728q77 84 29 160q-104 167 -457 331q-484 170 -224 -247q-285 -120 -309 151
q-26 386 516 194q390 -121 558.5 -271t74.5 -259.5t-296 -298.5q-146 -125 -261 -293q-231 -509 982 233q476 282 491 -241q0 -354 -333 -746q-163 -25 25 234q142 232 119 489t-301 139q-355 -191 -895 -450q-291 -113 -316 113q-20 148 265 426q179 177 332 336z" />
    <glyph glyph-name="uniA987" unicode="&#xa987;" horiz-adv-x="2440" 
d="M799 234q119 57 268.5 39t80.5 -273q-120 180 -488 94l-140 -51q-258 -126 -23 300q212 498 29 418q-305 -135 -110 -548q-181 -148 -236 41q6 429 350 657q104 38 157.5 29t65.5 -82t-147.5 -425t193.5 -199zM2345 570q36 246 -252 172q-149 -60 -261 -240.5
t-180 -493.5l-193 -8q421 782 109 655l-143 -94q-147 -36 -158 262q-246 -19 -85 -311q-176 -118 -229 34q-18 304 377 391q15 -233 109 -215q140 121 271 102q62 -9 107 -123q597 477 654 -16q-12 -285 -134 -686l-190 3q156 306 198 568zM1084 -934q-404 780 122 841
q266 12 116 -245q-579 167 -117 -584q19 -52 -40 -58q-65 2 -81 46z" />
    <glyph glyph-name="uniA988" unicode="&#xa988;" horiz-adv-x="1912" 
d="M626 234q119 57 268.5 39t80.5 -273q-120 180 -488 94l-140 -51q-258 -126 -23 300q212 498 29 418q-305 -135 -110 -548q-181 -148 -236 41q6 429 350 657q104 38 157.5 29t65.5 -82t-147.5 -425t193.5 -199zM1288 930q15 -233 109 -215q140 121 271 102t105.5 -224.5
t-181.5 -594.5l-215 6q438 757 149 644l-143 -94q-147 -36 -158 262q-197 -51 -64 -285q-197 -144 -274 41q-43 262 401 358zM1285 -728q77 84 29 160q-104 167 -457 331q-484 170 -224 -247q-285 -120 -309 151q-26 386 516 194q390 -121 558.5 -271t74.5 -259.5
t-296 -298.5q-146 -125 -261 -293q-231 -509 982 233q476 282 491 -241q0 -354 -333 -746q-163 -25 25 234q142 232 119 489t-301 139q-355 -191 -895 -450q-291 -113 -316 113q-20 148 265 426q179 177 332 336z" />
    <glyph glyph-name="uniA9A5" unicode="&#xa9a5;" horiz-adv-x="1920" 
d="M1052 99.5q528 -122.5 439.5 379.5t158.5 456q185 -19 240 -264t-154 -666l-164 -5q308 600 147 769t-131.5 -349.5t-582 -395.5t-483 398t67.5 328t-197 -59q-220 -254 44 -474q-170 -234 -249 37q-34 388 322 650q451 141 232.5 -270.5t309.5 -534z" />
    <glyph glyph-name="_cmpngalelet" horiz-adv-x="1920" 
d="M349 -1798l35 -48q220 -254 824 850q-269 214 -628 -19q-359 -380 -231 -783zM1402 -847l91 -48q303 -213 989 -252l15 -35q-589 -190 -1005 46l-182 97q-554 -978 -882 -1004q-100 -27 -204 133q-236 547 368 1097q401 205 707 33q53 120 -52 259q-104 161 -457 319
q-484 164 -224 -238q-285 -115 -309 146q-26 372 466 202q524 -233 696 -479q51 -147 -17 -276zM1432 930q15 -233 109 -215q140 121 271 102t105.5 -224.5t-181.5 -594.5l-215 6q438 757 149 644l-143 -94q-147 -36 -158 262q-197 -51 -64 -285q-197 -144 -274 41
q-43 262 401 358z" />
    <glyph glyph-name="uniA989" unicode="&#xa989;" horiz-adv-x="1920" 
d="M1078 99.5q528 -122.5 439.5 379.5t158.5 456q185 -19 240 -264t-154 -666l-164 -5q308 600 147 769t-131.5 -349.5t-582 -395.5t-483 398t67.5 328t-197 -59q-220 -254 44 -474q-170 -234 -249 37q-34 388 322 650q451 141 232.5 -270.5t309.5 -534zM1011 -1059
q-68 6 -46 58q525 751 -133 584q-170 257 132 245q598 -61 139 -841q-19 -44 -92 -46z" />
    <glyph glyph-name="uniA98A" unicode="&#xa98a;" horiz-adv-x="1931" 
d="M826 234q119 57 268.5 39t80.5 -273q-120 180 -488 94l-140 -51q-258 -126 -23 300q212 498 29 418q-305 -135 -110 -548q-181 -148 -236 41q6 429 350 657q104 38 157.5 29t65.5 -82t-147.5 -425t193.5 -199zM371 -1803l35 -48q220 -254 824 850q-269 214 -628 -19
q-359 -380 -231 -783zM1424 -852l91 -48q303 -213 989 -252l15 -35q-589 -190 -1005 46l-182 97q-554 -978 -882 -1004q-100 -27 -204 133q-236 547 368 1097q401 205 707 33q53 120 -52 259q-104 161 -457 319q-484 164 -224 -238q-285 -115 -309 146q-26 372 466 202
q524 -233 696 -479q51 -147 -17 -276zM1454 925q15 -233 109 -215q140 121 271 102t105.5 -224.5t-181.5 -594.5l-215 6q438 757 149 644l-143 -94q-147 -36 -158 262q-197 -51 -64 -285q-197 -144 -274 41q-43 262 401 358z" />
    <glyph glyph-name="_cmpngaleletr" horiz-adv-x="1902" 
d="M349 -1798l35 -48q220 -254 824 850q-269 214 -628 -19q-359 -380 -231 -783zM1821 -1054q174 17 276 -58.5t56.5 -214.5t-241.5 -216q-69 -87 148 -243q-302 -367 -588 -165q-118 148 47 230q242 -312 397 -63q-284 190 -167 325l179 109q139 177 -28 198
q-267 -107 -518 59l-75 49q-552 -973 -879 -999q-100 -27 -204 133q-236 547 368 1097q401 205 707 33q53 120 -52 259q-104 161 -457 319q-484 164 -224 -238q-285 -115 -309 146q-26 372 466 202q524 -233 696 -479q51 -147 -17 -276l46 -28q228 -193 373 -179zM1432 930
q15 -233 109 -215q140 121 271 102t105.5 -224.5t-181.5 -594.5l-215 6q438 757 149 644l-143 -94q-147 -36 -158 262q-197 -51 -64 -285q-197 -144 -274 41q-43 262 401 358z" />
    <glyph glyph-name="uniA98C" unicode="&#xa98c;" horiz-adv-x="1680" 
d="M1168 933q195 -15 161.5 -162.5t-259.5 -297.5q-276 -167 -207 36q455 185 248 305.5t-540.5 -267.5t-8.5 -393l306 20q632 79 761 -155l26 -100q8 -282 -356 -374l-8 50q240 197 154 364q-157 207 -932 79h-150q-263 5 -159 288q459 607 964 607z" />
    <glyph glyph-name="uniA98B" unicode="&#xa98b;" horiz-adv-x="1946" 
d="M836 226q119 57 268.5 39t80.5 -273q-120 180 -488 94l-140 -51q-258 -126 -23 300q212 498 29 418q-305 -135 -110 -548q-181 -148 -236 41q6 429 350 657q104 38 157.5 29t65.5 -82t-147.5 -425t193.5 -199zM407 -1798l35 -48q220 -254 824 850q-269 214 -628 -19
q-359 -380 -231 -783zM1879 -1054q174 17 276 -58.5t56.5 -214.5t-241.5 -216q-69 -87 148 -243q-302 -367 -588 -165q-118 148 47 230q242 -312 397 -63q-284 190 -167 325l179 109q139 177 -28 198q-267 -107 -518 59l-75 49q-552 -973 -879 -999q-100 -27 -204 133
q-236 547 368 1097q401 205 707 33q53 120 -52 259q-104 161 -457 319q-484 164 -224 -238q-285 -115 -309 146q-26 372 466 202q524 -233 696 -479q51 -147 -17 -276l46 -28q228 -193 373 -179zM1490 930q15 -233 109 -215q140 121 271 102t105.5 -224.5t-181.5 -594.5
l-215 6q438 757 149 644l-143 -94q-147 -36 -158 262q-197 -51 -64 -285q-197 -144 -274 41q-43 262 401 358z" />
    <glyph glyph-name="_cerek3" 
d="M774 1171q-404 780 122 841q266 12 116 -245q-579 167 -117 -584q19 -52 -40 -58q-65 2 -81 46z" />
    <glyph glyph-name="uniA98E" unicode="&#xa98e;" horiz-adv-x="1920" 
d="M1429 -728q77 84 29 160q-104 167 -457 331q-484 170 -224 -247q-285 -120 -309 151q-26 386 516 194q390 -121 558.5 -271t74.5 -259.5t-296 -298.5q-146 -125 -261 -293q-231 -509 982 233q476 282 491 -241q0 -354 -333 -746q-163 -25 25 234q142 232 119 489
t-301 139q-355 -191 -895 -450q-291 -113 -316 113q-20 148 265 426q179 177 332 336zM1495 668q-16 105 -338 196q6 81 110 58q625 -107 647.5 -301t-158.5 -627l-187 2q385 591 104 745l-152 54q164 -113 81.5 -269.5t-198 -256.5t-351.5 -187t-470 -32
q-250 43 -111.5 297.5t147.5 325.5t-109 33q-321 -127 -112 -473q-180 -148 -219 1q-34 399 472 642q366 91 135 -205.5t-153 -460.5t402 -25.5t413 284.5t47 199z" />
    <glyph glyph-name="uniA98D" unicode="&#xa98d;" horiz-adv-x="1680" 
d="M1228 933q195 -15 161.5 -162.5t-259.5 -297.5q-276 -167 -207 36q455 185 248 305.5t-540.5 -267.5t-8.5 -393l306 20q632 79 761 -155l26 -100q8 -282 -356 -374l-8 50q240 197 154 364q-157 207 -932 79h-150q-263 5 -159 288q459 607 964 607zM834 1171
q-404 780 122 841q266 12 116 -245q-579 167 -117 -584q19 -52 -40 -58q-65 2 -81 46z" />
    <glyph glyph-name="uniA98F" unicode="&#xa98f;" horiz-adv-x="2440" 
d="M1137 405l-42 -102l-10 -71q36 -96 120 -26.5t-68 199.5zM1718 515.5q-74 -181.5 -121 -496.5l-228 -17q226 376 198.5 536.5t-106.5 164.5t-138.5 -48t-128.5 -158q137 -104 98 -291.5t-211 -161.5q-100 56 -91 153.5t81 240.5q-132 79 -259 48q-73 -226 -326 -463
q-138 51 -80 156q276 317 270.5 453.5t-98.5 111.5q-367 -206 -239 -605q-103 -113 -137 41q-30 414 410 666q133 72 195 -21q37 -61 25 -185q214 -48 298 -101q74 131 161 215t212 71.5t155 -196.5q169 307 460 316q299 -27 309 -350q-10 -210 -141 -588l-220 -11
q273 424 222 586t-164 213t-222.5 -23.5t-183.5 -256z" />
    <glyph glyph-name="uniA991" unicode="&#xa991;" horiz-adv-x="2200" 
d="M989 367l-37 -86l-9 -60q48 -154 115 -59t-69 205zM605 727q-25 33 -108 8q-328 -206 -214 -606q-92 -113 -122 41q-27 415 367 667q111 81 184 19q80 -36 29 -233q175 -40 250 -93q256 406 520 406q376 -18 376 -341q-23 -202 -176 -509q80 -248 138 -7q72 546 272 674
q259 71 225 -170q-372 -38 -413 -506.5t-278 -190.5q-143 175 -103 288q98 226 136.5 407.5t-133.5 231.5q-314 6 -507 -325q132 -100 116.5 -283.5t-172.5 -188.5q-131 19 -131 198q24 139 60 207q-101 87 -227 64q-127 -357 -258 -464q-145 43 -93 148q325 473 262 558z
" />
    <glyph glyph-name="uniA990" unicode="&#xa990;" horiz-adv-x="2440" 
d="M1145 405l-42 -102l-10 -71q36 -96 120 -26.5t-68 199.5zM1726 515.5q-74 -181.5 -121 -496.5l-228 -17q226 376 198.5 536.5t-106.5 164.5t-138.5 -48t-128.5 -158q137 -104 98 -291.5t-211 -161.5q-100 56 -91 153.5t81 240.5q-132 79 -259 48q-73 -226 -326 -463
q-138 51 -80 156q276 317 270.5 453.5t-98.5 111.5q-367 -206 -239 -605q-103 -113 -137 41q-30 414 410 666q133 72 195 -21q37 -61 25 -185q214 -48 298 -101q74 131 161 215t212 71.5t155 -196.5q169 307 460 316q299 -27 309 -350q-10 -210 -141 -588l-220 -11
q273 424 222 586t-164 213t-222.5 -23.5t-183.5 -256zM1233 -1059q-68 6 -46 58q525 751 -133 584q-170 257 132 245q598 -61 139 -841q-19 -44 -92 -46z" />
    <glyph glyph-name="uniA992" unicode="&#xa992;" horiz-adv-x="2440" 
d="M1421 -4l-210 8l186 324l47 89l43 59l22 83l5 11v62l-27 46q-144 217 -533 -122q-160 -186 -243 -493l-254 1q258 339 288 483.5t-48.5 215t-269.5 -60.5q-177 -162 37 -446q-256 -177 -289 -24q-29 412 398 662q146 67 236 -20q83 -44 107 -248q807 596 726 -2
q224 347 627 313q198 -38 165 -339t-184 -595l-245 -5q351 455 284.5 661t-305.5 121q-157 -38 -274 -179q-97 -133 -152 -254t-137 -351z" />
    <glyph glyph-name="uniA993" unicode="&#xa993;" horiz-adv-x="2440" 
d="M2050 463q-21 238 -162 352l-57 56q2 80 79 48q539 -163 529 -444q-44 -324 -134 -476l-151 1q358 700 -156 805q148 -186 140 -364q-54 -432 -264 -418l-62 4l-55 45l-55 40l-43 47l-26 42l-18 37q-233 -293 -394 -222q-120 44 54 394q248 451 -87 366l-153 -89
q-301 -176 -301 -646l-180 31q35 225 111 349l51 162q29 285 -202 234q-389 -124 -88 -559q-126 -236 -229 -34l-20 110q-12 579 463 585q218 -39 197 -287q268 241 505 259q209 11 214 -111t-190 -451l-52 -114l4 -46q48 -70 224 164q130 190 268 -85l34 -40
q114 -106 206 255z" />
    <glyph glyph-name="uniA994" unicode="&#xa994;" horiz-adv-x="1920" 
d="M799 234q119 57 268.5 39t80.5 -273q-120 180 -488 94l-140 -51q-258 -126 -23 300q212 498 29 418q-305 -135 -110 -548q-181 -148 -236 41q6 429 350 657q104 38 157.5 29t65.5 -82t-147.5 -425t193.5 -199zM1460 930q15 -233 109 -215q140 121 271 102t105.5 -224.5
t-181.5 -594.5l-215 6q438 757 149 644l-143 -94q-147 -36 -158 262q-197 -51 -64 -285q-197 -144 -274 41q-43 262 401 358z" />
    <glyph glyph-name="uniA995" unicode="&#xa995;" horiz-adv-x="1920" 
d="M663 378l-44 15l-32 -2l-33 -17q-100 -109 -58.5 -165.5t167.5 169.5zM1566 425q-376 -761 -830 -108l-154 -214q-198 -226 -215 46q11 165 130.5 254t216.5 61q148 278 -9 322.5t-269 -51.5q-242 -133 -141 -533q-80 -113 -107 41q-23 415 213 570t433.5 85.5
t-48.5 -488.5q444 -453 704 57q53 135 7 197q-15 103 -235 207q11 91 134 52q507 -115 525 -355t-157 -563l-173 1q422 552 43 754l-111 33q136 -103 43 -368z" />
    <glyph glyph-name="uniA996" unicode="&#xa996;" horiz-adv-x="2440" 
d="M1181 378l-44 15l-31 -2l-33 -17q-98 -109 -57.5 -165.5t165.5 169.5zM1324 393q415 -436 671 124q46 130 -28.5 206.5t-239.5 136.5q-23 91 93 63q560 -88 605 -349.5t-138 -574.5l-164 8q325 507 75 730l-186 79q139 -131 58 -346q-370 -806 -807 -158l-130 -192
q-227 -243 -244 29q11 165 128.5 254t213.5 61q45 75 78 171q68 164 -160 163q-373 -105 -548 -791q-263 -18 -115.5 185.5t173.5 278t14 157t-80 123.5t-209 -48q-224 -261 -11 -451q-185 -179 -216 -25q29 433 200.5 560.5t282.5 78.5t144 -196q264 261 519.5 249.5
t196 -173t-175.5 -353.5z" />
    <glyph glyph-name="uniA997" unicode="&#xa997;" horiz-adv-x="1920" 
d="M766 909.5q161 -98.5 -224 -679.5l47 21l58 -3l55 -7l39 -16l56 -14q-11 587 571 713q86 24 151 13h70q208 -19 208 -89q0 -210 -339 -329l-43 -24q346 -81 422 -375q-5 -125 -75 -125h-35q-68 0 -130 191t-189.5 207t-270.5 -74q-69 0 -86 58q750 416 385 449l-104 -24
q-484 -257 -451 -599q55 -90 244 12q161 -347 -292 -147l-146 59l-99 10l-72 -22l-118 -52l-64 51q376 491 318 630.5t-241 2.5t-31 -487q-126 -163 -206 -54q17 459 224 630.5t368 73z" />
    <glyph glyph-name="_cmpjha" horiz-adv-x="2836" 
d="M2284 1065q24 156 -70 163t-97.5 -66t167.5 -97zM1652 0q228 745 18 648l-143 -94q-147 -36 -158 262q-246 -19 -129 -334q-132 -95 -185 57q-18 304 377 391q15 -233 109 -215q140 121 271 102t87 -202t-155 -609h-3l-2 -6h-87zM2254 944q-184 65 -221 108.5t-54.5 107
t-6.5 106.5q17 73 63 94.5t134 24.5q45 -11 69.5 -22.5t73 -51.5t71.5 -157l-15 -82q547 37 454 -430q-65 -252 -207 -19q252 433 -265 334q-131 -407 -300 -986t-498 -1678q-159 -468 -325 -167q-503 951 -99 896q233 -32 332 73q91 180 -19 389q-104 167 -457 331
q-484 170 -224 -247q-285 -120 -309 151q-26 386 466 210q524 -242 635 -463q72 -144 63 -250l-15 -110q-131 -238 -378 -298q-252 -61 -35.5 -385t394.5 245q234 824 380.5 1321t292.5 955z" />
    <glyph glyph-name="uniA998" unicode="&#xa998;" horiz-adv-x="1920" 
d="M772 909.5q161 -98.5 -224 -679.5l47 21l58 -3l55 -7l39 -16l56 -14q-11 587 571 713q86 24 151 13h70q208 -19 208 -89q0 -210 -339 -329l-43 -24q346 -81 422 -375q-5 -125 -75 -125h-35q-68 0 -130 191t-189.5 207t-270.5 -74q-69 0 -86 58q750 416 385 449l-104 -24
q-484 -257 -451 -599q55 -90 244 12q161 -347 -292 -147l-146 59l-99 10l-72 -22l-118 -52l-64 51q376 491 318 630.5t-241 2.5t-31 -487q-126 -163 -206 -54q17 459 224 630.5t368 73zM991 -1059q-68 6 -46 58q525 751 -133 584q-170 257 132 245q598 -61 139 -841
q-19 -44 -92 -46z" />
    <glyph glyph-name="uniA999" unicode="&#xa999;" horiz-adv-x="2852" 
d="M799 234q119 57 268.5 39t80.5 -273q-120 180 -488 94l-140 -51q-258 -126 -23 300q212 498 29 418q-305 -135 -110 -548q-181 -148 -236 41q6 429 350 657q104 38 157.5 29t65.5 -82t-147.5 -425t193.5 -199zM2312 1065q24 156 -70 163t-97.5 -66t167.5 -97zM1680 0
q228 745 18 648l-143 -94q-147 -36 -158 262q-246 -19 -129 -334q-132 -95 -185 57q-18 304 377 391q15 -233 109 -215q140 121 271 102t87 -202t-155 -609h-3l-2 -6h-87zM2282 944q-184 65 -221 108.5t-54.5 107t-6.5 106.5q17 73 63 94.5t134 24.5q45 -11 69.5 -22.5
t73 -51.5t71.5 -157l-15 -82q547 37 454 -430q-65 -252 -207 -19q252 433 -265 334q-131 -407 -300 -986t-498 -1678q-159 -468 -325 -167q-503 951 -99 896q233 -32 332 73q91 180 -19 389q-104 167 -457 331q-484 170 -224 -247q-285 -120 -309 151q-26 386 466 210
q524 -242 635 -463q72 -144 63 -250l-15 -110q-131 -238 -378 -298q-252 -61 -35.5 -385t394.5 245q234 824 380.5 1321t292.5 955z" />
    <glyph glyph-name="_cmpnya" horiz-adv-x="3040" 
d="M2236 0l-185 1q242 376 238.5 598t-213.5 210q-172 -49 -295 -249.5t-132 -465.5l-178 -2q314 701 2 570l-143 -93q-147 -36 -158 259q-246 -19 -129 -331q-132 -94 -185 57q-18 301 377 387q15 -231 109 -213q140 120 271 101q101 -9 140 -150q569 509 649 26
q618 472 634 -38q-10 -273 -182 -662l-175 2q189 319 236.5 565.5t-191.5 228.5q-130 -22 -232.5 -178.5t-257.5 -622.5z" />
    <glyph glyph-name="uniA99A" unicode="&#xa99a;" horiz-adv-x="3040" 
d="M799 234q119 57 268.5 39t80.5 -273q-120 180 -488 94l-140 -51q-258 -126 -23 300q212 498 29 418q-305 -135 -110 -548q-181 -148 -236 41q6 429 350 657q104 38 157.5 29t65.5 -82t-147.5 -425t193.5 -199zM2264 0l-185 1q242 376 238.5 598t-213.5 210
q-172 -49 -295 -249.5t-132 -465.5l-178 -2q314 701 2 570l-143 -93q-147 -36 -158 259q-246 -19 -129 -331q-132 -94 -185 57q-18 301 377 387q15 -231 109 -213q140 120 271 101q101 -9 140 -150q569 509 649 26q618 472 634 -38q-10 -273 -182 -662l-175 2
q189 319 236.5 565.5t-191.5 228.5q-130 -22 -232.5 -178.5t-257.5 -622.5z" />
    <glyph glyph-name="_cmptta" horiz-adv-x="1922" 
d="M980 335l-43 2l-39 -10l-39 -35l-29 -36l-28 -118q274 60 178 197zM718 130q46 222 136 280q50 30 88 52q96 31 142.5 -1t47.5 -140q-32 -101 -55.5 -134t-60.5 -60.5t-225 -88.5q1 -84 27 -161q38 -184 232 -143q-227 -364 -340 147l6 141l-100 -7q-385 -76 -151 378
q218 448 -26 340q-244 -107 -130 -512q-92 -115 -122 41q-27 421 317 649q104 38 157.5 29t65.5 -82t-147 -425q-150 -331 138 -303z" />
    <glyph glyph-name="_cmpttha" horiz-adv-x="1920" 
d="M1023 323l-54 19l-39 -10l-39 -35l-20 -46l22 -36q154 -29 130 108zM844 176q-96 140 8 234q50 30 116.5 30t109 -68t25.5 -135.5t-62 -86.5t-82 -32t-200 -42.5t-272 -55.5q-253 -103 -18 323q212 498 29 418q-305 -135 -191 -540q-92 -115 -122 41q-27 421 317 649
q104 38 157.5 29t65.5 -82t-147 -425q-150 -331 266 -257z" />
    <glyph glyph-name="uniA99B" unicode="&#xa99b;" horiz-adv-x="1920" 
d="M1000 335l-43 2l-39 -10l-39 -35l-29 -36l-28 -118q274 60 178 197zM738 130q46 222 136 280q50 30 88 52q96 31 142.5 -1t47.5 -140q-32 -101 -55.5 -134t-60.5 -60.5t-225 -88.5q1 -84 27 -161q38 -184 232 -143q-227 -364 -340 147l6 141l-100 -7q-385 -76 -151 378
q218 448 -26 340q-244 -107 -130 -512q-92 -115 -122 41q-27 421 317 649q104 38 157.5 29t65.5 -82t-147 -425q-150 -331 138 -303zM1427 929q15 -233 109 -215q140 121 271 102t105.5 -224.5t-181.5 -594.5l-215 6q438 757 149 644l-143 -94q-147 -36 -158 262
q-197 -51 -64 -285q-197 -144 -274 41q-43 262 401 358z" />
    <glyph glyph-name="uniA99C" unicode="&#xa99c;" horiz-adv-x="1920" 
d="M1045 323l-54 19l-39 -10l-39 -35l-20 -46l22 -36q154 -29 130 108zM866 176q-96 140 8 234q50 30 116.5 30t109 -68t25.5 -135.5t-62 -86.5t-82 -32t-200 -42.5t-272 -55.5q-253 -103 -18 323q212 498 29 418q-305 -135 -191 -540q-92 -115 -122 41q-27 421 317 649
q104 38 157.5 29t65.5 -82t-147 -425q-150 -331 266 -257zM1431 930q15 -233 109 -215q140 121 271 102t105.5 -224.5t-181.5 -594.5l-215 6q438 757 149 644l-143 -94q-147 -36 -158 262q-197 -51 -64 -285q-197 -144 -274 41q-43 262 401 358z" />
    <glyph glyph-name="uniA99D" unicode="&#xa99d;" horiz-adv-x="1920" 
d="M1522 340q-43 -468 -412 -296l-68 47l-61 56l-46 42q-68 -258 -288 -156q-163 86 -76 432q101 263 0 279q-357 -206 -153 -489q-180 -230 -213 -76q-40 487 399 700q362 77 145 -302t3 -408q115 251 245 188l34 -25l83 -89l66 -77q60 -52 113.5 -50.5t90.5 59t27 201.5
q2 314 127 471q59 111 227 79.5t150 -470.5l-105 -454l-180 -2q149 310 170 524q-2 235 -89 246t-147 -71q-67 -184 -42 -359z" />
    <glyph glyph-name="uniA99E" unicode="&#xa99e;" horiz-adv-x="1920" 
d="M1854.5 495.5q-54.5 -148.5 -214 -362t-394.5 -74.5l-80 47l-71 56l-53 42q-172 -258 -339 -156q-191 86 -90 432q119 263 0 279q-418 -206 -273 -606q-117 -113 -156 41q-34 415 468 667q325 72 120 -288t54 -389q136 251 288 188l40 -25l97 -89l77 -77
q72 -52 121.5 -48t139 73.5t146.5 204t15.5 246t-288.5 51.5q2 260 147 220q104 -21 177 -117q123 -167 68.5 -315.5z" />
    <glyph glyph-name="uniA99F" unicode="&#xa99f;" horiz-adv-x="3046" 
d="M1556 498q-26 -43 -48 -86q-16 -31 -29 -62q-52 -120 -130 -348l-198 -3l176 332l44 88l40 91l15 61l9 47l-14 20l-9 40q-136 216 -505 -121q-151 -184 -230 -489l-240 2q244 336 272.5 479t-46 213t-255.5 -60q-167 -161 35 -442q-242 -175 -273 -24q-28 409 377 657
q138 66 223 -20q79 -44 101 -246q764 591 688 -2q212 344 593 310q163 -32 161 -262q208 300 565 268q188 -37 156.5 -336t-174.5 -601l-221 1q321 456 258.5 660t-289.5 121q-148 -38 -215 -141q-70 -75 -115 -215.5t-144 -420.5l-232 -5q332 451 269.5 655t-289.5 121
q-139 -36 -245 -162q-7 -8 -14 -17q-37 -52 -67 -103z" />
    <glyph glyph-name="uniA9A0" unicode="&#xa9a0;" horiz-adv-x="2440" 
d="M1747 553q6 304 -472 203q-471 -86 -260 -289q333 -139 189 -359q-134 -145 -576 -82q-278 42 -169.5 436t-104.5 287q-226 -179 38 -567q-132 -219 -212 19q-63 470 180 663q319 168 267 -153q-251 -508 -22 -564l228 -26q514 74 78 356l-26 45q-38 385 569 414
q263 -10 367 -217l112 107q271 208 439.5 10t-116.5 -829l-175 -7q503 963 -120 755l-75 -67l-33 -41l12 -120q-32 -244 -133 -509h-190q101 134 150 282.5t55 252.5z" />
    <glyph glyph-name="uniA9A1" unicode="&#xa9a1;" horiz-adv-x="1920" 
d="M836 124q84 11 199 61q324 138 413 284t47 199q-16 105 -338 196q6 81 110 58q625 -107 647.5 -301t-158.5 -627l-187 2q385 591 104 745l-152 54q164 -113 81.5 -269.5t-198 -256.5t-351.5 -187q-92 -34 -184 -46q57 -135 174 -320q21 -55 -44 -62q-68 3 -86 49
q-96 181 -143 326q-94 -1 -187 21q-250 43 -111.5 297.5t147.5 325.5t-109 33q-321 -127 -112 -473q-180 -148 -219 1q-34 399 472 642q366 91 135 -205.5t-153 -460.5q33 -69 110 -85q-96 418 301 463q286 13 88 -220q-400 93 -296 -244z" />
    <glyph glyph-name="uniA9A2" unicode="&#xa9a2;" horiz-adv-x="1920" 
d="M1181 413l-37 -102l-9 -71q27 -182 104.5 -86t-58.5 259zM838 105q-242 -177 -341.5 -68t-60 273.5t130 337.5t-75.5 129q-442 -327 -109 -695q-149 -167 -219 36q-27 516 321 782q433 122 187 -384q-208 -430 74 -326q72 250 201.5 325t222.5 22q262 417 470 396
q254 8 265 -397q-19 -167 -160 -536h-191q270 433 211 615.5t-187 182.5q-152 39 -345 -292q154 -150 119 -339t-214 -155q-92 41 -92 220q24 139 72 209q-202 44 -279 -336z" />
    <glyph glyph-name="uniA9A3" unicode="&#xa9a3;" horiz-adv-x="1920" 
d="M1079 56l-66 47l-59 56l-44 42q-142 -258 -313 -178q-186 81 -41 454q65 274 -84 185q-262 -112 -58 -540q-181 -85 -213 69q-28 415 387 667q269 72 99.5 -288t44.5 -389q112 251 238 188l33 -25l80 -89l64 -77q59 -52 100 -48t98 69t121 204t30 250.5t-343 190.5
q-49 99 87 92q533 -24 641.5 -270.5t-144.5 -661.5l-159 2q363 567 28 755l-143 48q180 -101 138 -299.5t-185 -395.5t-337 -58z" />
    <glyph glyph-name="uniA9A4" unicode="&#xa9a4;" horiz-adv-x="1920" 
d="M1026 412l-39 -125l-9 -76q44 -115 97.5 5.5t-49.5 195.5zM636 622q-31 210 -195 101q-301 -227 -76 -571q-174 -136 -204 18q-28 415 391 739q119 51 191 -19q49 -96 8 -275q180 -32 245 -79q273 400 542 400q384 -18 373 -374q-14 -178 -148 -564h-182
q223 394 200 579.5t-198 235.5q-292 50 -517 -325q134 -100 118.5 -283.5t-176.5 -188.5q-133 19 -133 198q24 139 72 231q-114 40 -231 38q-34 -140 -160 -454l-175 56q280 385 255 537z" />
    <glyph glyph-name="uniA9A6" unicode="&#xa9a6;" horiz-adv-x="1920" 
d="M1483 454l74 -26l93 214q65 210 -105.5 94.5t-61.5 -282.5zM745 169q118 251 252 188l35 -25l84 -89l67 -77q132 -109 313 162q-224 118 -196 312q55 311 396 302q181 -82 14 -406l-76 -157l167 -98q253 -235 -100 -464l-54 62q213 179 -78 412q-203 -396 -457 -247
l-71 47l-62 56l-45 42q-151 -258 -297 -156q-165 86 -78 432q45 258 -140 146q-225 -156 7 -434q-208 -152 -241 2q-30 415 409 667q341 139 133.5 -254.5t17.5 -422.5z" />
    <glyph glyph-name="uniA9A8" unicode="&#xa9a8;" horiz-adv-x="1922" 
d="M856 451q-97 -100 -245 -224q106 11 208 -60q17 0 76 -21q65 0 172 201q27 51 56 101q-116 9 -267 3zM779 538q43 58 72 115q69 140 -142 162q-379 -33 -166 -177q-211 -108 -214 27v42q7 106 157 167.5t265 61.5q230 6 283 -144q17 -120 -104 -254q130 -3 240 -15
q38 82 93 182q131 251 401 240l40 -6q136 1 210 -135q-16 -180 -130 -170q-75 16 -75 59q36 28 36 62v28q-25 41 -73 69q-103 33 -255 -124q-75 -116 -137 -219q468 -78 460 -356q-1 -274 -210 -79q122 300 -300 363q-14 -20 -28 -42q-163 -297 -220 -352q-48 -21 -116 -43
l-90 16q-114 95 -226 79q-98 -16 -163 -59q-146 -110 -192 128q179 10 425 203q42 38 78 76q-111 -9 -236 -23q-53 0 -53 52q8 52 53 52q170 12 317 14z" />
    <glyph glyph-name="uniA9A7" unicode="&#xa9a7;" horiz-adv-x="2440" 
d="M799 234q119 57 268.5 39t80.5 -273q-120 180 -488 94l-140 -51q-258 -126 -23 300q212 498 29 418q-305 -135 -110 -548q-181 -148 -236 41q6 429 350 657q104 38 157.5 29t65.5 -82t-147.5 -425t193.5 -199zM2317 570q36 246 -252 172q-149 -60 -261 -240.5
t-180 -493.5l-193 -8q421 782 109 655l-143 -94q-147 -36 -158 262q-246 -19 -85 -311q-176 -118 -229 34q-18 304 377 391q15 -233 109 -215q140 121 271 102q62 -9 107 -123q597 477 654 -16q-12 -285 -134 -686l-190 3q156 306 198 568z" />
    <glyph glyph-name="uniA9A9" unicode="&#xa9a9;" horiz-adv-x="1920" 
d="M1654 617q-548 -592 -957 -498q-317 116 37 253t48 290q-95 58 -245 19q-328 -206 -136 -606q-170 -113 -200 41q-27 415 367 667q4 1 7 1q213 138 502 163q188 15 109 -189q-291 134 -343 40q-30 -156 258 -196q118 -178 -320 -287q66 -373 918 469q179 99 219 -93
q27 -186 -187 -667l8 1q-5 -14 -9 -27l-169 -3q364 703 93 622z" />
    <glyph glyph-name="uniA9AA" unicode="&#xa9aa;" horiz-adv-x="2440" 
d="M652 651q-469 -583 130 -481q303 100 624 719q400 159 288 -196q-303 -541 -58.5 -595t435.5 492t343 220q74 -206 -162 -811l-164 1q270 536 223.5 662.5t-119.5 4.5q-176 -631 -495 -665q-451 -31 -293 281q348 549 31 501q-370 -640 -644 -768q-427 -83 -410 261
q35 208 108 312q98 200 -100 84q-204 -156 -52 -502q-153 -142 -182 13q-25 417 347 670q140 75 219.5 31t-69.5 -234z" />
    <glyph glyph-name="uniA9AB" unicode="&#xa9ab;" horiz-adv-x="1920" 
d="M935 726q959 435 981 -46q-26 -327 -180 -672l-187 -9q200 430 215 654t-395.5 150.5t-689.5 -768.5l-190 37q296 387 297 522t-71 175l-7 -3q-25 48 -152 19q-438 -206 -225 -556q-184 -163 -224 -9q-36 415 463 667q197 87 297 -1q52 -46 68 -160z" />
    <glyph glyph-name="uniA9AC" unicode="&#xa9ac;" horiz-adv-x="3608" 
d="M3064 1055q22 156 -64.5 163t-89.5 -66t154 -97zM2585 567q88 254 -172 207q-170 -31 -361 -317q-102 -152 -210 -411l-188 15q308 386 295 590q-2 19 -5 37q-38 206 -256 49t-441 -662l-150 11l185 342l58 124l8 64l-11 52l-29 62q-373 194 -669 -665l-144 58
q131 282 156 430q10 54 4 90q-10 64 -43 132l-5 -3q-17 48 -104 19q-301 -206 -113 -583q-168 -136 -195 18q-25 415 336 667q111 48 178 -12q86 -58 91 -239q585 585 651 18q193 284 375 275q225 41 254 -170l14 -79q625 486 664 43q-21 -109 -60 -217l-29 -100
q-65 -141 -18.5 -228t215.5 228l170 522q-168 65 -202 108.5t-50 107t-6 106.5q15 73 57.5 94.5t122.5 24.5q42 -11 64.5 -22.5t66.5 -51.5t66 -157l-14 -82q501 37 416 -430q-60 -252 -190 -19q231 433 -243 334q-180 -639 -304 -818t-223.5 -130t-115 150.5t19 189.5
t84.5 228z" />
    <glyph glyph-name="uniA9AD" unicode="&#xa9ad;" horiz-adv-x="2440" 
d="M914 606q282 337 593 334.5t27 -463.5q-169 -379 101 -370.5t383 312.5l101 369q63 211 210.5 111.5t74.5 -491.5l-146 -401l-186 -5l182 393q104 286 23 307t-136 -165q-68 -504 -507 -533.5t-358.5 208.5t166.5 416.5t-35 182.5q-369 -1 -772 -816
q-287 11 -104.5 208.5t209.5 317.5t-14.5 182.5t-86 81t-151.5 -21.5q-321 -160 -96 -510q-201 -163 -233 -9q30 433 209 560.5t336.5 78.5t209.5 -277z" />
    <glyph glyph-name="uniA9AE" unicode="&#xa9ae;" horiz-adv-x="1920" 
d="M1495 668q-16 105 -338 196q6 81 110 58q625 -107 647.5 -301t-158.5 -627l-187 2q385 591 104 745l-152 54q164 -113 81.5 -269.5t-198 -256.5t-351.5 -187t-470 -32q-250 43 -111.5 297.5t147.5 325.5t-109 33q-321 -127 -112 -473q-180 -148 -219 1q-34 399 472 642
q366 91 135 -205.5t-153 -460.5t402 -25.5t413 284.5t47 199z" />
    <glyph glyph-name="uniA9AF" unicode="&#xa9af;" horiz-adv-x="2600" 
d="M1518 253q-43 -104 -97 -257l-210 8l186 324l47 89l48 92l22 61v62l-27 46q-144 217 -533 -122q-160 -186 -243 -493l-254 1q258 339 288 483.5t-48.5 215t-269.5 -60.5q-177 -162 37 -446q-256 -177 -289 -24q-29 412 398 662q146 67 236 -20q83 -44 107 -248
q807 596 726 -2q224 347 627 313q198 -38 165 -339q-18 -161 -69 -319q193 -94 197 -293q-1 -262 -232 -84q71 173 -4 267q-34 -83 -76 -166l-245 -5q107 139 175 255q-201 55 -624 -11q-25 0 -38 11zM1558 346q420 40 664 -18q107 209 68 331q-67 206 -306 121
q-157 -38 -274 -179q-97 -133 -152 -254v-1z" />
    <glyph glyph-name="uniA9B0" unicode="&#xa9b0;" horiz-adv-x="2080" 
d="M1589 375q74 -8 137 -21q100 303 -7 415q-161 169 -131 -349q1 -24 1 -45zM1584 294q-47 -377 -578 -270q-612 123 -483.5 398t67.5 328t-197 -59q-220 -254 44 -474q-170 -234 -249 37q-34 388 322 650q451 141 232.5 -270.5t309.5 -533.5q419 -98 450 199
q-172 3 -421 -36q-53 0 -53 52q8 52 53 52q240 23 422 14q-2 46 -11 98q-89 502 158 456q185 -19 240 -264q33 -147 -29 -358q222 -92 226 -306q-1 -262 -232 -84q80 197 -28 291q-36 -99 -91 -209l-164 -5q78 152 126 276q-50 13 -114 18z" />
    <glyph glyph-name="uniA9B1" unicode="&#xa9b1;" horiz-adv-x="1920" 
d="M650 373l-43 15l-31 -2l-33 -17q-96 -109 -55.5 -165.5t162.5 169.5zM770 405q518 -544 789 386q102 187 264.5 135t31.5 -595l-109 -331l-184 -3q155 273 234 526q71 203 -49.5 221.5t-217.5 -247.5q-366 -838 -809 -185l-149 -214q-193 -226 -209 46q10 165 126.5 254
t210.5 61q101 295 -30.5 331t-239.5 -60q-234 -133 -71 -466q-145 -180 -203 -26q10 415 239.5 570t422 85.5t-46.5 -488.5z" />
    <glyph glyph-name="uniA9B2" unicode="&#xa9b2;" horiz-adv-x="2455" 
d="M2006 811q43 95 214 120q262 38 226 -286q-49 -287 -178 -640l-156 -10q200 439 212 602t-91.5 218t-180.5 -112t-199 -701l-177 -1q289 625 113.5 754t-180 -365t-569.5 -363.5t-463.5 328.5t112 322t-218.5 6q-199 -182 -43 -422q-168 -190 -205 -37q-33 410 447 660
q442 111 166.5 -278.5t233.5 -495t454.5 370.5t300.5 451q112 -34 134 -185z" />
    <glyph glyph-name="uniA9B3" unicode="&#xa9b3;" 
d="M-581 1159l-60 27q-249 58 -84 172q300 -3 264 -317l-70 87zM-1081 1159l-60 27q-249 58 -84 172q300 -3 264 -317l-70 87zM-801 1539l-60 27q-249 58 -84 172q300 -3 264 -317l-70 87z" />
    <glyph glyph-name="uniA9B4" unicode="&#xa9b4;" horiz-adv-x="497" 
d="M340 936q157 0 157 -233q-31 -224 -222 -409q-110 -139 -39 -453q-18 -13 -42 -13h-10q-21 0 -21 26l-27 88q-79 280 115 460q108 121 99 244v37q-37 141 -108 1q-12 -104 -28 -104q-63 27 -63 86q42 264 189 270z" />
    <glyph glyph-name="uniA9B5" unicode="&#xa9b5;" horiz-adv-x="760" 
d="M199 940q118 -115 210 -237q39 -52 77 -111t68 -121t48 -126t18 -125q0 -54 -16.5 -98t-48.5 -75.5t-78.5 -49t-106.5 -17.5q-54 0 -97 14.5t-72.5 41t-45 63.5t-15.5 81q0 33 7.5 61t20 50t28 38t32.5 26l40 -68q-24 -14 -36 -34.5t-12 -52.5q0 -20 7 -38.5t22 -32
t37.5 -21.5t53.5 -8q75 0 107.5 38t32.5 112q0 56 -14.5 114t-38 114t-53.5 108.5t-61 99.5q-74 109 -167 210z" />
    <glyph glyph-name="uniA9B6" unicode="&#xa9b6;" 
d="M-765 2083q522 0 522 -308q0 -157 -574 -621q0 -148 -120 -111q-511 254 -389.5 647t561.5 393zM-1166 1419q61 -210 224 -221q515 297 480 616q-48 208 -412 172q-347 -180 -292 -567z" />
    <glyph glyph-name="uniA9B7" unicode="&#xa9b7;" horiz-adv-x="9" 
d="M-748 2090q522 0 522 -308q0 -157 -574 -621q0 -148 -120 -111q-511 254 -389.5 647t561.5 393zM-1149 1426q61 -210 224 -221q515 297 480 616q-48 208 -412 172q-347 -180 -292 -567zM-773 1595l-60 27q-249 58 -84 172q300 -3 264 -317l-70 87z" />
    <glyph glyph-name="uniA9B8" unicode="&#xa9b8;" 
d="M-619 -1509q125 307 830 2439l72 1q-482 -1689 -755 -2429q-64 -164 -135 -281q-69 -147 -182 -212q-178 -135 -217 146l311 854q86 268 -18 435t-457 331q-484 170 -224 -247q-285 -120 -309 151q-26 386 466 210q524 -242 635 -463.5t15 -485.5l-204 -581l-24 -77
q22 -142 196 209z" />
    <glyph glyph-name="uniA9B9" unicode="&#xa9b9;" 
d="M-465 -1153q21 82 12 117t-45 47l-231 -645l-24 -81q1 -219 288 562zM-482 -887l17 -5l-1 -3q57 -35 93 -96t1 -199q2 -4 -113 -293q-114 -326 -267 -495t-186 146l334 887q-53 33 -185 -39.5t-221 -4.5t-8 287q34 112 113 199l72 -51q88 -29 133 -46q44 -4 83 -8
q-13 34 -31 63q-104 166 -457 330q-484 169 -224 -246q-285 -120 -309 150q-26 385 466 209q524 -241 635 -461q14 -28 25 -57q10 -1 19 -2l75 7l86 -5q415 0 412 150q-19 80 -76 88.5t-127 -124.5q-188 130 22 254q173 25 235 -52q99 -81 41 -198q-132 -201 -592 -259
l-62 -3q5 -60 -3 -123zM-586 -754q-68 12 -99 22q-46 13 -98 32.5t-95 54.5q-40 -77 -30 -143.5t107 -70.5q17 3 34 4q108 13 180 -3q4 55 1 104z" />
    <glyph glyph-name="uniA9BA" unicode="&#xa9ba;" horiz-adv-x="1023" 
d="M357 -1448q307 901 401 1339q120 566 40 784q-85 228 -263 -464l-108 58q132 442 -35.5 495.5t-24.5 -552.5q-18 -126 -102 -40.5t-106 342.5q35 515 380 257q66 173 223 163.5t157 -420.5q0 -270 -104 -745q-80 -366 -340 -1221h2q-46 -149 -82 -267
q-14 -49 -20.5 -83.5t-5.5 -58t7 -39t14 -26.5l-39 -67q-70 58 -85 139.5t18 192.5l67 213h6z" />
    <glyph glyph-name="uniA9BB" unicode="&#xa9bb;" horiz-adv-x="1320" 
d="M378 -1448q307 901 401 1339q120 566 40 784q-85 228 -263 -464l-108 58q132 442 -35.5 495.5t-24.5 -552.5q-18 -126 -102 -40.5t-106 342.5q35 515 380 257q66 173 223 163.5t157 -420.5q0 -270 -104 -745q-80 -366 -340 -1221h2q-46 -149 -82 -267
q-14 -49 -20.5 -83.5t-5.5 -58t7 -39t14 -26.5l-39 -67q-70 58 -85 139.5t18 192.5l67 213h6zM615 1131q-404 780 122 841q266 12 116 -245q-579 167 -117 -584q19 -52 -40 -58q-65 2 -81 46z" />
    <glyph glyph-name="uniA9BC" unicode="&#xa9bc;" 
d="M-668 2094q572 -50 582 -641q-56 -366 -234 -390h-36q-72 0 -72 45q251 211 69 612.5t-831 196.5q-366 -182 -446 -388.5t791 -433.5l201 -55q0 -45 -72 -45q-1062 178 -1117 450l-9 26q60 275 655 527q299 109 519 96z" />
    <glyph glyph-name="uniA9BD" unicode="&#xa9bd;" 
d="M-1406 -1757l11 -43q14 -62 200 -64q197 -2 503 174q311 192 597 554l-145 1q-417 12 -794 -248t-372 -374zM-360 -802l25 8q433 293 495 6q-3 -115 -120 -290q339 -68 385 -131l-54 -45q-248 107 -379 97q-371 -457 -735 -681q-233 -136 -457 -172l-81 5
q-219 36 -273 198q-40 270 294 532q260 140 478 165l162 28q194 30 565 25q110 200 27 216q-78 61 -199.5 -0.5t-218.5 -140.5l-63 33q12 31 25 61q31 200 -46 322q-104 167 -457 331q-484 170 -224 -247q-285 -120 -309 151q-26 386 466 210q524 -242 635 -463
q52 -104 59 -218z" />
    <glyph glyph-name="uniA9BE" unicode="&#xa9be;" horiz-adv-x="405" 
d="M-445 -792l-15 -110q-131 -238 -378 -298q-252 -61 -35.5 -385t394.5 245q615 2171 675 2258q268 105 196 -306q-417 -1846 -579 -2422q-11 -43 -16 -73.5t-4.5 -51t5.5 -34t11 -22.5l-31 -59q-55 51 -67 122t14 168l536 2228q77 298 -6 260t-763 -2443
q-159 -468 -325 -167q-503 951 -99 896q233 -32 332 73q91 180 -19 389q-104 167 -457 331q-484 170 -224 -247q-285 -120 -309 151q-26 386 466 210q524 -242 635 -463q72 -144 63 -250z" />
    <glyph glyph-name="uniA9BF" unicode="&#xa9bf;" horiz-adv-x="267" 
d="M722 1175q55 -80 107 -40.5t-24 120.5q-72 65 -155 73q32 -97 72 -153zM584 1673q4 -95 17 -186q98 -1 160 -31t127 -117q92 -131 76 -254q-13 -122 -110 -124q1 1 -36.5 18t-99.5 91q-87 105 -139 255q-94 -19 -163 -127q-77 -123 -112.5 -251.5t-64.5 -321.5
q-39 -388 0 -738q18 -167 59 -387l22 -100q33 -191 139 -415q130 -188 275 -187l85 16q121 41 153 248q162 -91 87 -283q-129 -248 -356 -183q-199 97 -343 462q-69 194 -100 329l-24 111q-79 396 -86 770q6 318 36 542q54 353 213 568q53 63 137 98q-20 115 -28 230
q-17 408 173 387q103 -36 146 -235l-36 -28q-42 90 -104.5 96.5t-102.5 -253.5z" />
    <glyph glyph-name="uniA9C0" unicode="&#xa9c0;" horiz-adv-x="741" 
d="M451 915q247 99 279 -173q-510 -1848 -617 -2507q-11 -49 -1 -104t51 -112l-86 -13q-72 68 -102.5 122.5t-40.5 118.5l628 2393q-6 206 -123.5 73t-329.5 -926q-123 -506 -254 -979q-117 -404 -711 -391.5t-452.5 248.5t304.5 77q-224 -211 477 -188q200 9 296.5 346
t267.5 1004q227 994 414 1011z" />
    <glyph glyph-name="uniA9C1" unicode="&#xa9c1;" horiz-adv-x="1206" 
d="M438 -1616q-87 -36 -64 -113q77 -43 108 30l9 96zM153 -447q-148 577 85 1100q153 231 305 269q184 22 297 -45q250 6 346 -180q74 -204 -44 -187q-69 111 -160 165q28 -128 -66 -115q-76 122 -178 174q-160 -73 -219 -169t-68 -152q-100 -248 -44 -711q97 -379 160 -476
l357 -651l-6 -71q-280 116 -339 -49q244 -14 428 -118.5t137 -237.5q-37 -69 -167 -93.5t-237.5 -11.5t-194 29.5t-145.5 36.5t-122 38.5t-194 93.5t-150 186q-19 109 122 123q156 -3 60 -92q-29 -117 68.5 -198t212.5 -103.5t203.5 -31t136.5 -2.5t104.5 19t123.5 68.5
t-43 141.5q-176 93 -350 104l-8 -46q-13 -231 -269 -112q-84 77 3.5 146t194.5 58q37 135 112 177q-371 615 -452 923zM611 792l-97 -7q-162 -74 -221 -170t-68 -152q-100 -248 -44 -711q97 -379 160 -476l344 -627q51 -1 113 -30q-338 576 -419 884q-148 577 85 1100
q78 118 155 185z" />
    <glyph glyph-name="uniA9C2" unicode="&#xa9c2;" horiz-adv-x="1194" 
d="M799 -1598l9 -96q31 -73 108 -30q23 77 -64 113zM685 -1365q75 -42 112 -177q107 11 194.5 -58t3.5 -146q-256 -119 -269 112l-8 46q-174 -11 -350 -104q-110 -86 -43 -141.5t123.5 -68.5t104.5 -19t136.5 2.5t203.5 31t212.5 103.5t68.5 198q-96 89 60 92
q141 -14 122 -123q-19 -111 -150 -186t-194 -93.5t-122 -38.5t-145.5 -36.5t-194 -29.5t-237.5 11.5t-167 93.5q-47 133 137 237.5t428 118.5q-59 165 -339 49l-6 71l357 651q63 97 160 476q56 463 -44 711q-9 56 -68 152t-219 169q-102 -52 -178 -174q-94 -13 -66 115
q-91 -54 -160 -165q-118 -17 -44 187q96 186 346 180q113 67 297 45q152 -38 305 -269q233 -523 85 -1100q-81 -308 -452 -923zM671 793q77 -67 155 -185q233 -523 85 -1100q-81 -308 -419 -884q62 29 113 30l344 627q63 97 160 476q56 463 -44 711q-9 56 -68 152t-221 170
l-97 7z" />
    <glyph glyph-name="_cmpandap" horiz-adv-x="4448" 
d="M1255 -705q-34 118 -137 100q-67 -93 22 -144l124 -27zM3615 -847q154 -43 303 -111q159 671 298 1303q129 476 -107 354q-104 -119 -494 -1546zM2695 -797q141 583 263 1136q128 476 -65 362q-216 -329 -569 -1590q212 67 371 92zM2790 -888q-60 -252 -130 -542
q258 -25 285 -382l47 -31q209 -35 490 947q-221 37 -511 35q-97 -13 -181 -27zM3595 -918q-87 -322 -189 -708q-116 -300 -336.5 -383.5t-305.5 142.5q-66 173 -178 132q-34 -140 -70 -288l-130 9q149 566 282 1106q-250 -45 -339 -89l-39 -16q-73 -265 -152 -569
q-107 -350 -353.5 -416t-661.5 194q-146 48 -376 -198q-308 -46 -465 295q-316 414 463 1665q188 -20 66 -170q-649 -523 -219 -1453q101 -201 168 -191q210 397 606 232l294 -209l74 -16q188 0 434 786l-738 -301l-91 18q192 346 -13 448q-55 -315 -218 -538.5t-328 -142.5
q-84 59 -96.5 231t20 310t67 247.5t69 183t68.5 153t150.5 238.5t263.5 167q144 8 142 -177q-27 -202 -129 -64q-147 54 -267 -60t-166 -260t-70.5 -260t-23.5 -177t9.5 -138t70 -170.5t189.5 34.5q147 215 188 439l-59 17q-298 51 -105 366q112 98 188.5 -26t46.5 -261
q344 -137 170 -421q400 177 703 280q64 217 132 484q355 1406 592 1364q198 48 205 -162q6 -152 -323 -1542q358 36 689 -37q46 168 95 362q355 1427 592 1385q198 48 206 -162q5 -164 -378 -1771q57 -30 113 -63q277 -233 303 -436q1 -405 -289 -515q-275 -65 -236 85
q196 93 277 246l69 115l6 127q-72 222 -188 313q-39 30 -73 53q-101 -421 -227 -936l-113 9q125 499 240 979q-7 3 -14 5q-122 66 -292 106z" />
    <glyph glyph-name="_cmpmadya" horiz-adv-x="4340" 
d="M1255 -705q-34 118 -137 100q-67 -93 22 -144l124 -27zM3549 -830q166 -40 325 -108q158 664 295 1290q129 476 -65 362q-212 -323 -555 -1544zM2648 -806q139 591 263 1152q128 476 -65 362q-218 -332 -576 -1614q215 70 378 100zM2739 -896q-58 -246 -126 -527
q258 -25 285 -382l47 -31q206 0 483 948q-202 29 -457 27q-127 -17 -232 -35zM3528 -904q-85 -306 -178 -665q-107 -350 -327.5 -433.5t-305.5 142.5q-66 173 -178 132q-34 -140 -70 -288l-113 9q139 557 266 1090q-213 -40 -293 -80l-94 -38q-70 -253 -144 -540
q-107 -350 -353.5 -416t-661.5 194q-146 48 -376 -198q-308 -46 -451 438q-167 1157 684 2501q188 -20 66 -170q-735 -845 -454 -2432q101 -201 168 -191q210 397 606 232l294 -209l74 -16q184 0 424 756l-681 -278l-91 18q192 346 -13 448q-55 -315 -218 -538.5
t-328 -142.5q-84 59 -96.5 231t20 310t67 247.5t69 183t68.5 153t150.5 238.5t263.5 167q144 8 142 -177q-27 -202 -129 -64q-147 54 -267 -60t-166 -260t-70.5 -260t-23.5 -177t9.5 -138t70 -170.5t189.5 34.5q147 215 188 439l-59 17q-298 51 -105 366q112 98 188.5 -26
t46.5 -261q344 -137 170 -421q365 161 648 261q68 227 140 510q355 1406 592 1364q198 48 205 -162q6 -152 -326 -1554q356 42 685 -21q50 175 102 379q355 1406 592 1364q198 48 206 -162q5 -163 -375 -1756q80 -39 157 -85q277 -233 303 -436q1 -405 -289 -515
q-275 -65 -236 85q196 93 277 246l69 115l6 127q-72 222 -188 313q-65 50 -116 78q-102 -427 -231 -954l-113 9q127 506 243 992q-137 68 -329 105z" />
    <glyph glyph-name="uniA9C3" unicode="&#xa9c3;" horiz-adv-x="4271" 
d="M1164 232q119 57 268.5 39t80.5 -273q-120 180 -488 94l-140 -51q-258 -126 -23 300q212 498 29 418q-305 -135 -110 -548q-181 -148 -236 41q6 429 350 657q104 38 157.5 29t65.5 -82t-147.5 -425t193.5 -199zM1825 928q15 -233 109 -215q140 121 271 102t105.5 -224.5
t-181.5 -594.5l-215 6q438 757 149 644l-143 -94q-147 -36 -158 262q-197 -51 -64 -285q-197 -144 -274 41q-43 262 401 358zM1088 -705q-34 118 -137 100q-67 -93 22 -144l124 -27zM3448 -847q154 -43 303 -111q159 671 298 1303q129 476 -107 354q-104 -119 -494 -1546z
M2528 -797q141 583 263 1136q128 476 -65 362q-216 -329 -569 -1590q212 67 371 92zM2623 -888q-60 -252 -130 -542q258 -25 285 -382l47 -31q209 -35 490 947q-221 37 -511 35q-97 -13 -181 -27zM3428 -918q-87 -322 -189 -708q-116 -300 -336.5 -383.5t-305.5 142.5
q-66 173 -178 132q-34 -140 -70 -288l-130 9q149 566 282 1106q-250 -45 -339 -89l-39 -16q-73 -265 -152 -569q-107 -350 -353.5 -416t-661.5 194q-146 48 -376 -198q-308 -46 -465 295q-316 414 463 1665q188 -20 66 -170q-649 -523 -219 -1453q101 -201 168 -191
q210 397 606 232l294 -209l74 -16q188 0 434 786l-738 -301l-91 18q192 346 -13 448q-55 -315 -218 -538.5t-328 -142.5q-84 59 -96.5 231t20 310t67 247.5t69 183t68.5 153t150.5 238.5t263.5 167q144 8 142 -177q-27 -202 -129 -64q-147 54 -267 -60t-166 -260t-70.5 -260
t-23.5 -177t9.5 -138t70 -170.5t189.5 34.5q147 215 188 439l-59 17q-298 51 -105 366q112 98 188.5 -26t46.5 -261q344 -137 170 -421q400 177 703 280q64 217 132 484q355 1406 592 1364q198 48 205 -162q6 -152 -323 -1542q358 36 689 -37q46 168 95 362
q355 1427 592 1385q198 48 206 -162q5 -164 -378 -1771q57 -30 113 -63q277 -233 303 -436q1 -405 -289 -515q-275 -65 -236 85q196 93 277 246l69 115l6 127q-72 222 -188 313q-39 30 -73 53q-101 -421 -227 -936l-113 9q125 499 240 979q-7 3 -14 5q-122 66 -292 106z" />
    <glyph glyph-name="uniA9C4" unicode="&#xa9c4;" horiz-adv-x="4349" 
d="M1499 227q119 57 268.5 39t80.5 -273q-120 180 -488 94l-140 -51q-258 -126 -23 300q212 498 29 418q-305 -135 -110 -548q-181 -148 -236 41q6 429 350 657q104 38 157.5 29t65.5 -82t-147.5 -425t193.5 -199zM1988 930q15 -233 109 -215q140 121 271 102t105.5 -224.5
t-181.5 -594.5l-215 6q438 757 149 644l-143 -94q-147 -36 -158 262q-197 -51 -64 -285q-197 -144 -274 41q-43 262 401 358zM1251 -705q-34 118 -137 100q-67 -93 22 -144l124 -27zM3545 -830q166 -40 325 -108q158 664 295 1290q129 476 -65 362q-212 -323 -555 -1544z
M2644 -806q139 591 263 1152q128 476 -65 362q-218 -332 -576 -1614q215 70 378 100zM2735 -896q-58 -246 -126 -527q258 -25 285 -382l47 -31q206 0 483 948q-202 29 -457 27q-127 -17 -232 -35zM3524 -904q-85 -306 -178 -665q-107 -350 -327.5 -433.5t-305.5 142.5
q-66 173 -178 132q-34 -140 -70 -288l-113 9q139 557 266 1090q-213 -40 -293 -80l-94 -38q-70 -253 -144 -540q-107 -350 -353.5 -416t-661.5 194q-146 48 -376 -198q-308 -46 -451 438q-167 1157 684 2501q188 -20 66 -170q-735 -845 -454 -2432q101 -201 168 -191
q210 397 606 232l294 -209l74 -16q184 0 424 756l-681 -278l-91 18q192 346 -13 448q-55 -315 -218 -538.5t-328 -142.5q-84 59 -96.5 231t20 310t67 247.5t69 183t68.5 153t150.5 238.5t263.5 167q144 8 142 -177q-27 -202 -129 -64q-147 54 -267 -60t-166 -260t-70.5 -260
t-23.5 -177t9.5 -138t70 -170.5t189.5 34.5q147 215 188 439l-59 17q-298 51 -105 366q112 98 188.5 -26t46.5 -261q344 -137 170 -421q365 161 648 261q68 227 140 510q355 1406 592 1364q198 48 205 -162q6 -152 -326 -1554q356 42 685 -21q50 175 102 379
q355 1406 592 1364q198 48 206 -162q5 -163 -375 -1756q80 -39 157 -85q277 -233 303 -436q1 -405 -289 -515q-275 -65 -236 85q196 93 277 246l69 115l6 127q-72 222 -188 313q-65 50 -116 78q-102 -427 -231 -954l-113 9q127 506 243 992q-137 68 -329 105z" />
    <glyph glyph-name="_cmpluhur" horiz-adv-x="4340" 
d="M1255 -705q-34 118 -137 100q-67 -93 22 -144l124 -27zM3549 -830q166 -40 325 -108q158 664 295 1290q129 476 -65 362q-212 -323 -555 -1544zM2648 -806q139 591 263 1152q128 476 -65 362q-218 -332 -576 -1614q215 70 378 100zM2739 -896q-58 -246 -126 -527
q258 -25 285 -382l47 -31q206 0 483 948q-202 29 -457 27q-127 -17 -232 -35zM3528 -904q-85 -306 -178 -665q-107 -350 -327.5 -433.5t-305.5 142.5q-66 173 -178 132q-34 -140 -70 -288l-113 9q139 557 266 1090q-213 -40 -293 -80l-94 -38q-70 -253 -144 -540
q-107 -350 -353.5 -416t-661.5 194q-146 48 -376 -198q-308 -46 -451 438q-324 1844 1099 3431q209 -20 51 -156q-1163 -1138 -854 -3376q101 -201 168 -191q210 397 606 232l294 -209l74 -16q184 0 424 756l-681 -278l-91 18q192 346 -13 448q-55 -315 -218 -538.5
t-328 -142.5q-84 59 -96.5 231t20 310t67 247.5t69 183t68.5 153t150.5 238.5t263.5 167q144 8 142 -177q-27 -202 -129 -64q-147 54 -267 -60t-166 -260t-70.5 -260t-23.5 -177t9.5 -138t70 -170.5t189.5 34.5q147 215 188 439l-59 17q-298 51 -105 366q112 98 188.5 -26
t46.5 -261q344 -137 170 -421q365 161 648 261q68 227 140 510q355 1406 592 1364q198 48 205 -162q6 -152 -326 -1554q356 42 685 -21q50 175 102 379q355 1406 592 1364q198 48 206 -162q5 -163 -375 -1756q80 -39 157 -85q277 -233 303 -436q1 -405 -289 -515
q-275 -65 -236 85q196 93 277 246l69 115l6 127q-72 222 -188 313q-65 50 -116 78q-102 -427 -231 -954l-113 9q127 506 243 992q-137 68 -329 105z" />
    <glyph glyph-name="uniA9C6" unicode="&#xa9c6;" horiz-adv-x="999" 
d="M810 675q-30 83 -108 147.5t-178 -0.5l-61 -58q-59 -53 -114 -186q-3 -57 6 -98l18 -87q45 -118 144.5 -117t170.5 47q61 37 104 165t18 187zM258 597q97 214 255 313q241 92 383 -75q58 -75 78 -134.5t-10.5 -207.5t-127.5 -225t-193 -105q-222 -54 -360 158
q-47 123 -30 277z" />
    <glyph glyph-name="uniA9C5" unicode="&#xa9c5;" horiz-adv-x="4424" 
d="M1402 224q119 57 268.5 39t80.5 -273q-120 180 -488 94l-140 -51q-258 -126 -23 300q212 498 29 418q-305 -135 -110 -548q-181 -148 -236 41q6 429 350 657q104 38 157.5 29t65.5 -82t-147.5 -425t193.5 -199zM2063 920q15 -233 109 -215q140 121 271 102t105.5 -224.5
t-181.5 -594.5l-215 6q438 757 149 644l-143 -94q-147 -36 -158 262q-197 -51 -64 -285q-197 -144 -274 41q-43 262 401 358zM1326 -715q-34 118 -137 100q-67 -93 22 -144l124 -27zM3620 -840q166 -40 325 -108q158 664 295 1290q129 476 -65 362q-212 -323 -555 -1544z
M2719 -816q139 591 263 1152q128 476 -65 362q-218 -332 -576 -1614q215 70 378 100zM2810 -906q-58 -246 -126 -527q258 -25 285 -382l47 -31q206 0 483 948q-202 29 -457 27q-127 -17 -232 -35zM3599 -914q-85 -306 -178 -665q-107 -350 -327.5 -433.5t-305.5 142.5
q-66 173 -178 132q-34 -140 -70 -288l-113 9q139 557 266 1090q-213 -40 -293 -80l-94 -38q-70 -253 -144 -540q-107 -350 -353.5 -416t-661.5 194q-146 48 -376 -198q-308 -46 -451 438q-324 1844 1099 3431q209 -20 51 -156q-1163 -1138 -854 -3376q101 -201 168 -191
q210 397 606 232l294 -209l74 -16q184 0 424 756l-681 -278l-91 18q192 346 -13 448q-55 -315 -218 -538.5t-328 -142.5q-84 59 -96.5 231t20 310t67 247.5t69 183t68.5 153t150.5 238.5t263.5 167q144 8 142 -177q-27 -202 -129 -64q-147 54 -267 -60t-166 -260t-70.5 -260
t-23.5 -177t9.5 -138t70 -170.5t189.5 34.5q147 215 188 439l-59 17q-298 51 -105 366q112 98 188.5 -26t46.5 -261q344 -137 170 -421q365 161 648 261q68 227 140 510q355 1406 592 1364q198 48 205 -162q6 -152 -326 -1554q356 42 685 -21q50 175 102 379
q355 1406 592 1364q198 48 206 -162q5 -163 -375 -1756q80 -39 157 -85q277 -233 303 -436q1 -405 -289 -515q-275 -65 -236 85q196 93 277 246l69 115l6 127q-72 222 -188 313q-65 50 -116 78q-102 -427 -231 -954l-113 9q127 506 243 992q-137 68 -329 105z" />
    <glyph glyph-name="uniA9C7" unicode="&#xa9c7;" horiz-adv-x="680" 
d="M469 108l-60 27q-249 58 -84 172q300 -3 264 -317l-70 87zM469 719l-60 27q-249 58 -84 172q300 -3 264 -317l-70 87z" />
    <glyph glyph-name="uniA9C8" unicode="&#xa9c8;" horiz-adv-x="995" 
d="M320 238l135 -65q238 -40 -310 745l77 35q324 -370 400.5 -619t-1 -313.5t-222.5 33.5q-65 -9 14 -260l-89 107q-113 334 -4 337z" />
    <glyph glyph-name="uniA9C9" unicode="&#xa9c9;" horiz-adv-x="1453" 
d="M686 69q-10 -31 -31 -48q-78 -65 -224 33q-65 -9 14 -260l-90 107q-112 334 -3 337l135 -65q240 -40 -311 745l78 35q324 -370 401 -619q22 -68 31 -123q13 26 43 27l136 -65q239 -40 -312 745l78 35q325 -370 401.5 -619t-1 -313.5t-222.5 33.5q-66 -9 14 -260l-91 107
q-33 99 -46 168z" />
    <glyph glyph-name="uniA9CA" unicode="&#xa9ca;" horiz-adv-x="625" 
d="M633 396q-5 -208 -109 -672q-80 -357 -340 -1190h2q-46 -146 -82 -261q-14 -48 -20.5 -81.5t-5.5 -56.5t7 -38t14 -26l-39 -65q-70 57 -85 136.5t18 187.5l67 208h6q307 878 401 1305q86 552 36 718q-26 278 -159 250q-144 -136 34 -259q-60 -198 -197.5 -115.5
t-18.5 352t356 35.5q127 -129 115 -428z" />
    <glyph glyph-name="_cmppiseleh" 
d="M91 1077q115 693 425 469q149 -124 -42 -212q-241 394 -312 -309q-12 -43 -47 -17q-34 34 -24 69zM917 1988l67 39q58 34 79 -70q-359 -529 -503 -818q-49 -10 -57 32q247 521 414 817z" />
    <glyph glyph-name="uniA9CB" unicode="&#xa9cb;" horiz-adv-x="1167" 
d="M636 396q-5 -208 -109 -672q-80 -357 -340 -1190h2q-46 -146 -82 -261q-14 -48 -20.5 -81.5t-5.5 -56.5t7 -38t14 -26l-39 -65q-70 57 -85 136.5t18 187.5l67 208h6q307 878 401 1305q86 552 36 718q-26 278 -159 250q-144 -136 34 -259q-60 -198 -197.5 -115.5
t-18.5 352t356 35.5q127 -129 115 -428zM1160 396q-5 -208 -109 -672q-80 -357 -340 -1190h2q-46 -146 -82 -261q-14 -48 -20.5 -81.5t-5.5 -56.5t7 -38t14 -26l-39 -65q-70 57 -85 136.5t18 187.5l67 208h6q307 878 401 1305q86 552 36 718q-26 278 -159 250
q-144 -136 34 -259q-60 -198 -197.5 -115.5t-18.5 352t356 35.5q127 -129 115 -428z" />
    <glyph glyph-name="uniA9CC" unicode="&#xa9cc;" horiz-adv-x="628" 
d="M636 396q-5 -208 -109 -672q-80 -357 -340 -1190h2q-46 -146 -82 -261q-14 -48 -20.5 -81.5t-5.5 -56.5t7 -38t14 -26l-39 -65q-70 57 -85 136.5t18 187.5l67 208h6q307 878 401 1305q86 552 36 718q-26 278 -159 250q-144 -136 34 -259q-60 -198 -197.5 -115.5
t-18.5 352t356 35.5q127 -129 115 -428zM84 1036q115 693 425 469q149 -124 -42 -212q-241 394 -312 -309q-12 -43 -47 -17q-34 34 -24 69zM910 1947l67 39q58 34 79 -70q-359 -529 -503 -818q-49 -10 -57 32q247 521 414 817z" />
    <glyph glyph-name="uniA9CF" unicode="&#xa9cf;" horiz-adv-x="960" 
d="M860 940q0 -164 -68 -242t-202 -78q-34 0 -67 3q27 -55 45.5 -118t30 -139t16.5 -166.5t5 -199.5h-80q0 128 -29 242t-81.5 214.5t-126.5 188t-165 163.5l113 135q53 -42 102.5 -73t97 -51t94.5 -29.5t95 -9.5q74 0 107 43t33 117h80z" />
    <glyph glyph-name="uniA9D0" unicode="&#xa9d0;" horiz-adv-x="1141" 
d="M932 617q-37 101 -132 179.5t-217 -1.5l-74 -70q-71 -64 -139 -226q-3 -70 8 -120l21 -105q56 -144 177 -143t208 58q74 44 126.5 200t21.5 228zM260 522q118 260 311 381q293 112 466 -91q70 -92 94.5 -164t-13 -252.5t-155 -274t-234.5 -127.5q-271 -66 -438 192
q-58 149 -38 337z" />
    <glyph glyph-name="uniA9CD" unicode="&#xa9cd;" horiz-adv-x="595" 
d="M101 -263q5 208 109 672q80 357 340 1190h-2q46 146 82 261q14 48 20.5 81.5t5.5 56.5t-7 38t-14 26l39 65q70 -57 85 -136.5t-18 -187.5l-67 -208h-6q-307 -878 -401 -1305q-86 -552 -36 -718q26 -278 159 -250q144 136 -34 259q60 198 197.5 115.5t18.5 -352
t-356 -35.5q-127 129 -115 428zM655 -899q-115 -693 -425 -469q-149 124 42 212q241 -394 312 309q12 43 47 17q34 -34 24 -69zM-171 -1810l-67 -39q-58 -34 -79 70q359 529 503 818q49 10 57 -32q-247 -521 -414 -817z" />
    <glyph glyph-name="uniA9D1" unicode="&#xa9d1;" horiz-adv-x="2454" 
d="M1435 -4l-210 8l186 324l47 89l43 59l22 83l5 11v62l-27 46q-144 217 -533 -122q-160 -186 -243 -493l-254 1q258 339 288 483.5t-48.5 215t-269.5 -60.5q-177 -162 37 -446q-256 -177 -289 -24q-29 412 398 662q146 67 236 -20q83 -44 107 -248q807 596 726 -2
q224 347 627 313q198 -38 165 -339t-184 -595l-245 -5q351 455 284.5 661t-305.5 121q-157 -38 -274 -179q-97 -133 -152 -254t-137 -351z" />
    <glyph glyph-name="_cmploro" horiz-adv-x="1920" 
d="M833 -888l40 -35q244 -182 646 644q-288 141 -608 -97q-253 -197 -78 -512zM1657 621l-156 -105q-160 -40 -172 292q-268 -21 -140 -373q-144 -106 -202 64q-19 339 411 436q16 -260 118 -240q153 135 295.5 114t88.5 -245q-21 -87 -59 -241q-54 -131 -169 -468
q401 -141 1062 -59l20 -24q-529 -254 -967 -132l-190 49q-310 -730 -618 -806q-92 -39 -218 75q-320 407 112 795q361 244 711 119l173 471q113 363 -100 278z" />
    <glyph glyph-name="_cmptelu" horiz-adv-x="2325" 
d="M2051 487q-225 -702 -466 -1445q-126 -372 -345 -167q-487 858 -40 899q436 38 541.5 489.5t-71.5 384.5l-143 -94q-147 -36 -158 262q-246 -19 -129 -334q-132 -95 -185 57q-18 304 377 391q15 -233 109 -215q140 121 271 106.5t91.5 -237.5t-150.5 -528l-7 1l-34 -101
q-122 -222 -422 -316t-75 -428.5t361 116.5q170 509 295 883q69 207 134 404h2q87 274 108 308q268 120 196 -350q-81 -339 -153 -637h-5q-157 -653 -245 -1010q-11 -49 -16 -83.5t-4.5 -58t5.5 -39t11 -26.5l-31 -67q-55 58 -67 139.5t14 192.5l360 1424q77 341 -6 298
q-28 -15 -123 -219z" />
    <glyph glyph-name="uniA9D2" unicode="&#xa9d2;" horiz-adv-x="1920" 
d="M799 234q119 57 268.5 39t80.5 -273q-120 180 -488 94l-140 -51q-258 -126 -23 300q212 498 29 418q-305 -135 -110 -548q-181 -148 -236 41q6 429 350 657q104 38 157.5 29t65.5 -82t-147.5 -425t193.5 -199zM861 -888l40 -35q244 -182 646 644q-288 141 -608 -97
q-253 -197 -78 -512zM1685 621l-156 -105q-160 -40 -172 292q-268 -21 -140 -373q-144 -106 -202 64q-19 339 411 436q16 -260 118 -240q153 135 295.5 114t88.5 -245q-21 -87 -59 -241q-54 -131 -169 -468q401 -141 1062 -59l20 -24q-529 -254 -967 -132l-190 49
q-310 -730 -618 -806q-92 -39 -218 75q-320 407 112 795q361 244 711 119l173 471q113 363 -100 278z" />
    <glyph glyph-name="uniA9D3" unicode="&#xa9d3;" horiz-adv-x="2351" 
d="M799 234q119 57 268.5 39t80.5 -273q-120 180 -488 94l-140 -51q-258 -126 -23 300q212 498 29 418q-305 -135 -110 -548q-181 -148 -236 41q6 429 350 657q104 38 157.5 29t65.5 -82t-147.5 -425t193.5 -199zM2079 487q-225 -702 -466 -1445q-126 -372 -345 -167
q-487 858 -40 899q436 38 541.5 489.5t-71.5 384.5l-143 -94q-147 -36 -158 262q-246 -19 -129 -334q-132 -95 -185 57q-18 304 377 391q15 -233 109 -215q140 121 271 106.5t91.5 -237.5t-150.5 -528l-7 1l-34 -101q-122 -222 -422 -316t-75 -428.5t361 116.5
q170 509 295 883q69 207 134 404h2q87 274 108 308q268 120 196 -350q-81 -339 -153 -637h-5q-157 -653 -245 -1010q-11 -49 -16 -83.5t-4.5 -58t5.5 -39t11 -26.5l-31 -67q-55 58 -67 139.5t14 192.5l360 1424q77 341 -6 298q-28 -15 -123 -219z" />
    <glyph glyph-name="uniA9D5" unicode="&#xa9d5;" horiz-adv-x="1320" 
d="M635 1098l-117 -95q-111 -134 -167 -282.5t-43 -324.5q22 -172 201 -263q289 -40 305 141q8 105 -124 76l-11 70q56 52 135 197l18 56q-5 77 -86 46.5t-94 -213.5l-76 21q-4 226 104 310.5t215 72.5q123 -32 105 -180q18 -58 -189 -266q196 -71 180 -162
q-45 -164 -372 -320l-138 1q-207 29 -291 207l-20 99q0 170 50 327h2q136 413 396 605q70 32 149 53t214 -6q144 -48 221 -164q124 -215 107 -501q-23 -282 -202 -625q-316 -589 -912 -847q-305 -77 -461 6q-286 203 -217 459q93 224 180 122q-34 -183 33 -315l69 -122
l92 -73q164 -40 287 -4.5t173 75.5q274 130 597 559q206 361 218.5 547.5t-0.5 311.5t-63 241t-108.5 169t-116.5 76t-243 -85z" />
    <glyph glyph-name="uniA9D6" unicode="&#xa9d6;" horiz-adv-x="1680" 
d="M1228 933q195 -15 161.5 -162.5t-259.5 -297.5q-276 -167 -207 36q455 185 248 305.5t-540.5 -267.5t-8.5 -393l306 20q632 79 761 -155l26 -100q8 -282 -356 -374l-8 50q240 197 154 364q-157 207 -932 79h-150q-263 5 -159 288q459 607 964 607z" />
    <glyph glyph-name="uniA9D7" unicode="&#xa9d7;" horiz-adv-x="2440" 
d="M935 606q282 337 593 334.5t27 -463.5q-169 -379 101 -370.5t383 312.5l101 369q63 211 210.5 111.5t74.5 -491.5l-146 -401l-186 -5l182 393q104 286 23 307t-136 -165q-68 -504 -507 -533.5t-358.5 208.5t166.5 416.5t-35 182.5q-369 -1 -772 -816
q-287 11 -104.5 208.5t209.5 317.5t-14.5 182.5t-86 81t-151.5 -21.5q-321 -160 -96 -510q-201 -163 -233 -9q30 433 209 560.5t336.5 78.5t209.5 -277z" />
    <glyph glyph-name="uniA9D8" unicode="&#xa9d8;" horiz-adv-x="1920" 
d="M1508 454l74 -26l93 214q65 210 -105.5 94.5t-61.5 -282.5zM770 169q118 251 252 188l35 -25l84 -89l67 -77q132 -109 313 162q-224 118 -196 312q55 311 396 302q181 -82 14 -406l-76 -157l167 -98q253 -235 -100 -464l-54 62q213 179 -78 412q-203 -396 -457 -247
l-71 47l-62 56l-45 42q-151 -258 -297 -156q-165 86 -78 432q45 258 -140 146q-225 -156 7 -434q-208 -152 -241 2q-30 415 409 667q341 139 133.5 -254.5t17.5 -422.5z" />
    <glyph glyph-name="uniA9DE" unicode="&#xa9de;" horiz-adv-x="1080" 
d="M590 900q15 0 47 -17.5t70.5 -49.5t80 -78t75 -104t55.5 -126.5t22 -144.5q0 -79 -25 -138.5t-72.5 -100t-116 -61t-156.5 -20.5q-96 0 -172 20t-129 60.5t-81 100t-28 139.5q0 77 27.5 145t70.5 126t94.5 104t99 78.5t85.5 49.5t53 17zM610 800q-9 0 -32.5 -14.5
t-53.5 -41.5t-62.5 -65t-59.5 -84.5t-44.5 -101t-17.5 -113.5q0 -62 20.5 -107t56.5 -74.5t85.5 -44t107.5 -14.5q53 0 98.5 16t79.5 46.5t53 75t19 102.5t-16.5 111.5t-42 100t-56 85t-58.5 66t-49 42.5t-28 15z" />
    <glyph glyph-name="uniA9DF" unicode="&#xa9df;" horiz-adv-x="1680" 
d="M309 62q-48 28 -77 59.5t-45 71.5t-21.5 90.5t-5.5 116.5v200q0 69 17.5 121.5t47.5 88t70 53t85 17.5h180q62 0 104.5 -21t68 -54.5t36.5 -76.5t11 -88v-420q0 -32 10 -46t40 -14q29 0 39.5 16.5t10.5 43.5v440q0 112 46.5 166t153.5 54h200q62 0 104.5 -21t68 -54.5
t36.5 -76.5t11 -88v-560h-180v560q0 78 -37.5 119t-102.5 41h-100q-67 0 -93.5 -32t-26.5 -108v-440q0 -42 -11.5 -69.5t-29.5 -43t-41.5 -21.5t-47.5 -6h-100q-62 0 -96 34t-34 106v420q0 78 -37.5 119t-102.5 41h-80q-27 0 -52.5 -10.5t-45 -34.5t-31 -62t-11.5 -93v-200
q0 -55 3.5 -96.5t15 -73.5t33 -56t57.5 -45z" />
    <glyph glyph-name="uniA9D9" unicode="&#xa9d9;" horiz-adv-x="2440" 
d="M702 651q-469 -583 130 -481q303 100 624 719q400 159 288 -196q-303 -541 -58.5 -595t435.5 492t343 220q74 -206 -162 -811l-164 1q270 536 223.5 662.5t-119.5 4.5q-176 -631 -495 -665q-451 -31 -293 281q348 549 31 501q-370 -640 -644 -768q-427 -83 -410 261
q35 208 108 312q98 200 -100 84q-204 -156 -52 -502q-153 -142 -182 13q-25 417 347 670q140 75 219.5 31t-69.5 -234z" />
    <glyph glyph-name="_cmpcecak" 
d="M-1637 1590l-39 18q-161 37 -54 111q194 -2 170 -205l-45 56z" />
    <glyph glyph-name="_cmpjhashort" horiz-adv-x="2677" 
d="M2136 1049q24 156 -70 163t-97.5 -66t167.5 -97zM2125 703q-74 -227 -162 -497q-137 -421 -378 -1164q-126 -372 -345 -167q-487 858 -40 899q436 38 541.5 489.5t-71.5 384.5l-143 -94q-147 -36 -158 262q-246 -19 -129 -334q-132 -95 -185 57q-18 304 377 391
q15 -233 109 -215q140 121 271 106.5t91.5 -237.5t-150.5 -528l-7 1l-34 -101q-122 -222 -422 -316t-75 -428.5t361 116.5q170 509 295 883q101 301 192 583h1q21 69 42 134q-184 65 -221 108.5t-54.5 107t-6.5 106.5q17 73 63 94.5t134 24.5q45 -11 69.5 -22.5t73 -51.5
t71.5 -157l-15 -82q547 37 454 -430q-65 -252 -207 -19q252 433 -265 334q-37 -116 -76 -238h-1z" />
    <glyph glyph-name="uniA999.short" horiz-adv-x="2721" 
d="M799 234q119 57 268.5 39t80.5 -273q-120 180 -488 94l-140 -51q-258 -126 -23 300q212 498 29 418q-305 -135 -110 -548q-181 -148 -236 41q6 429 350 657q104 38 157.5 29t65.5 -82t-147.5 -425t193.5 -199zM2164 1049q24 156 -70 163t-97.5 -66t167.5 -97zM2153 703
q-74 -227 -162 -497q-137 -421 -378 -1164q-126 -372 -345 -167q-487 858 -40 899q436 38 541.5 489.5t-71.5 384.5l-143 -94q-147 -36 -158 262q-246 -19 -129 -334q-132 -95 -185 57q-18 304 377 391q15 -233 109 -215q140 121 271 106.5t91.5 -237.5t-150.5 -528l-7 1
l-34 -101q-122 -222 -422 -316t-75 -428.5t361 116.5q170 509 295 883q101 301 192 583h1q21 69 42 134q-184 65 -221 108.5t-54.5 107t-6.5 106.5q17 73 63 94.5t134 24.5q45 -11 69.5 -22.5t73 -51.5t71.5 -157l-15 -82q547 37 454 -430q-65 -252 -207 -19
q252 433 -265 334q-37 -116 -76 -238h-1z" />
    <glyph glyph-name="uniA98D_uniA980" horiz-adv-x="1680" 
d="M1228 933q195 -15 161.5 -162.5t-259.5 -297.5q-276 -167 -207 36q455 185 248 305.5t-540.5 -267.5t-8.5 -393l306 20q632 79 761 -155l26 -100q8 -282 -356 -374l-8 50q240 197 154 364q-157 207 -932 79h-150q-263 5 -159 288q459 607 964 607zM739 1003
q-404 780 122 841q266 12 116 -245q-579 167 -117 -584q19 -52 -40 -58q-65 2 -81 46zM1136 1318q58 -1 106 -5q194 79 -20 93q-142 -10 -86 -88zM1162 1257q-196 -26 -5 -136q4 -3 10 -5l-14 -3h-5l-21 -3l-93 30h6l-116 58q-95 89 172 103l-43 33q-64 95 135 105
q10 -1 20 -1q12 17 27 33l21 2q43 4 84 -10q-12 -17 -24 -32q120 -22 145 -106q-14 -38 -75 -43q140 -28 170 -93q-37 -66 -304 -33q362 91 -15 107q-20 -1 -37 -3q2 -1 4 -3q3 -3 7 -6l-10 -2h-2l-15 -3z" />
    <glyph glyph-name="uniA98D_uniA981" horiz-adv-x="1680" 
d="M1228 933q195 -15 161.5 -162.5t-259.5 -297.5q-276 -167 -207 36q455 185 248 305.5t-540.5 -267.5t-8.5 -393l306 20q632 79 761 -155l26 -100q8 -282 -356 -374l-8 50q240 197 154 364q-157 207 -932 79h-150q-263 5 -159 288q459 607 964 607zM884 1003
q-404 780 122 841q266 12 116 -245q-579 167 -117 -584q19 -52 -40 -58q-65 2 -81 46zM1254 1171l-60 27q-249 58 -84 172q300 -3 264 -317l-70 87z" />
    <glyph glyph-name="uniA98D_uniA982" horiz-adv-x="1680" 
d="M1228 933q195 -15 161.5 -162.5t-259.5 -297.5q-276 -167 -207 36q455 185 248 305.5t-540.5 -267.5t-8.5 -393l306 20q632 79 761 -155l26 -100q8 -282 -356 -374l-8 50q240 197 154 364q-157 207 -932 79h-150q-263 5 -159 288q459 607 964 607zM922 1083
q-404 780 122 841q266 12 116 -245q-579 167 -117 -584q19 -52 -40 -58q-65 2 -81 46zM1912 2064l47 21q96 31 90 -90q-590 -632 -831 -991q-100 -42 -63 60q439 652 757 1000z" />
    <glyph glyph-name="uniA98D_uniA9B3" horiz-adv-x="1680" 
d="M1228 933q195 -15 161.5 -162.5t-259.5 -297.5q-276 -167 -207 36q455 185 248 305.5t-540.5 -267.5t-8.5 -393l306 20q632 79 761 -155l26 -100q8 -282 -356 -374l-8 50q240 197 154 364q-157 207 -932 79h-150q-263 5 -159 288q459 607 964 607zM1169 1013
q-404 780 122 841q266 12 116 -245q-579 167 -117 -584q19 -52 -40 -58q-65 2 -81 46zM646 1091l-39 18q-161 37 -54 111q194 -2 170 -205l-45 56zM966 1091l-39 18q-161 37 -54 111q194 -2 170 -205l-45 56zM786 1311l-39 18q-161 37 -54 111q194 -2 170 -205l-45 56z" />
    <glyph glyph-name="uniA98D_uniA9B3_uniA980" horiz-adv-x="1680" 
d="M1235 933q195 -15 161.5 -162.5t-259.5 -297.5q-276 -167 -207 36q455 185 248 305.5t-540.5 -267.5t-8.5 -393l306 20q632 79 761 -155l26 -100q8 -282 -356 -374l-8 50q240 197 154 364q-157 207 -932 79h-150q-263 5 -159 288q459 607 964 607zM931 1030
q-404 780 122 841q266 12 116 -245q-579 167 -117 -584q19 -52 -40 -58q-65 2 -81 46zM425 1109l-39 18q-161 37 -54 111q194 -2 170 -205l-45 56zM745 1109l-39 18q-161 37 -54 111q194 -2 170 -205l-45 56zM565 1329l-39 18q-161 37 -54 111q194 -2 170 -205l-45 56z
M1249 1301q58 -1 106 -5q194 79 -20 93q-142 -10 -86 -88zM1275 1240q-196 -26 -5 -136q4 -3 10 -5l-14 -3h-5l-21 -3l-93 30h6l-116 58q-95 89 172 103l-43 33q-64 95 135 105q10 -1 20 -1q12 17 27 33l21 2q43 4 84 -10q-12 -17 -24 -32q120 -22 145 -106q-14 -38 -75 -43
q140 -28 170 -93q-37 -66 -304 -33q362 91 -15 107q-20 -1 -37 -3q2 -1 4 -3q3 -3 7 -6l-10 -2h-2l-15 -3z" />
    <glyph glyph-name="uniA98D_uniA9B3_uniA981" horiz-adv-x="1680" 
d="M1235 933q195 -15 161.5 -162.5t-259.5 -297.5q-276 -167 -207 36q455 185 248 305.5t-540.5 -267.5t-8.5 -393l306 20q632 79 761 -155l26 -100q8 -282 -356 -374l-8 50q240 197 154 364q-157 207 -932 79h-150q-263 5 -159 288q459 607 964 607zM1040 1039
q-404 780 122 841q266 12 116 -245q-579 167 -117 -584q19 -52 -40 -58q-65 2 -81 46zM553 1100l-39 18q-161 37 -54 111q194 -2 170 -205l-45 56zM873 1100l-39 18q-161 37 -54 111q194 -2 170 -205l-45 56zM693 1320l-39 18q-161 37 -54 111q194 -2 170 -205l-45 56z
M1367 1159l-60 27q-249 58 -84 172q300 -3 264 -317l-70 87z" />
    <glyph glyph-name="uniA98D_uniA9B3_uniA982" horiz-adv-x="1680" 
d="M1235 933q195 -15 161.5 -162.5t-259.5 -297.5q-276 -167 -207 36q455 185 248 305.5t-540.5 -267.5t-8.5 -393l306 20q632 79 761 -155l26 -100q8 -282 -356 -374l-8 50q240 197 154 364q-157 207 -932 79h-150q-263 5 -159 288q459 607 964 607zM930 1119
q-404 780 122 841q266 12 116 -245q-579 167 -117 -584q19 -52 -40 -58q-65 2 -81 46zM451 1099l-39 18q-161 37 -54 111q194 -2 170 -205l-45 56zM771 1099l-39 18q-161 37 -54 111q194 -2 170 -205l-45 56zM591 1319l-39 18q-161 37 -54 111q194 -2 170 -205l-45 56z
M1893 2039l47 21q96 31 90 -90q-590 -632 -831 -991q-100 -42 -63 60q439 652 757 1000z" />
    <glyph glyph-name="uniA9B6_uniA980" 
d="M-856 2074q522 0 522 -308q0 -157 -574 -621q0 -148 -120 -111q-511 254 -389.5 647t561.5 393zM-1257 1410q61 -210 224 -221q515 297 480 616q-48 208 -412 172q-347 -180 -292 -567zM-435 1344q58 -1 106 -5q194 79 -20 93q-142 -10 -86 -88zM-409 1283
q-196 -26 -5 -136q4 -3 10 -5l-14 -3h-5l-21 -3l-93 30h6l-116 58q-95 89 172 103l-43 33q-64 95 135 105q10 -1 20 -1q12 17 27 33l21 2q43 4 84 -10q-12 -17 -24 -32q120 -22 145 -106q-14 -38 -75 -43q140 -28 170 -93q-37 -66 -304 -33q362 91 -15 107q-20 -1 -37 -3
q2 -1 4 -3q3 -3 7 -6l-10 -2h-2l-15 -3z" />
    <glyph glyph-name="uniA9B6_uniA981" 
d="M-752 2078q522 0 522 -308q0 -157 -574 -621q0 -148 -120 -111q-511 254 -389.5 647t561.5 393zM-1153 1414q61 -210 224 -221q515 297 480 616q-48 208 -412 172q-347 -180 -292 -567zM-252 1147l-60 27q-249 58 -84 172q300 -3 264 -317l-70 87z" />
    <glyph glyph-name="uniA9B6_uniA982" 
d="M-758 2089q522 0 522 -308q0 -157 -574 -621q0 -148 -120 -111q-511 254 -389.5 647t561.5 393zM-1159 1425q61 -210 224 -221q515 297 480 616q-48 208 -412 172q-347 -180 -292 -567zM196 2081l47 21q96 31 90 -90q-590 -632 -831 -991q-100 -42 -63 60
q439 652 757 1000z" />
    <glyph glyph-name="uniA9B7_uniA980" 
d="M-764 2074q522 0 522 -308q0 -157 -574 -621q0 -148 -120 -111q-511 254 -389.5 647t561.5 393zM-1165 1410q61 -210 224 -221q515 297 480 616q-48 208 -412 172q-347 -180 -292 -567zM-483 1190q58 -1 106 -5q194 79 -20 93q-142 -10 -86 -88zM-457 1129
q-196 -26 -5 -136q4 -3 10 -5l-14 -3h-5l-21 -3l-93 30h6l-116 58q-95 89 172 103l-43 33q-64 95 135 105q10 -1 20 -1q12 17 27 33l21 2q43 4 84 -10q-12 -17 -24 -32q120 -22 145 -106q-14 -38 -75 -43q140 -28 170 -93q-37 -66 -304 -33q362 91 -15 107q-20 -1 -37 -3
q2 -1 4 -3q3 -3 7 -6l-10 -2h-2l-15 -3zM-862 1550l-60 27q-249 58 -84 172q300 -3 264 -317l-70 87z" />
    <glyph glyph-name="uniA9B7_uniA981" 
d="M-672 2071q522 0 522 -308q0 -157 -574 -621q0 -148 -120 -111q-511 254 -389.5 647t561.5 393zM-1073 1407q61 -210 224 -221q515 297 480 616q-48 208 -412 172q-347 -180 -292 -567zM-243 1120l-60 27q-249 58 -84 172q300 -3 264 -317l-70 87zM-742 1522l-60 27
q-249 58 -84 172q300 -3 264 -317l-70 87z" />
    <glyph glyph-name="uniA9B7_uniA982" 
d="M-719 2059q522 0 522 -308q0 -157 -574 -621q0 -148 -120 -111q-511 254 -389.5 647t561.5 393zM-1120 1395q61 -210 224 -221q515 297 480 616q-48 208 -412 172q-347 -180 -292 -567zM249 2059l47 21q96 31 90 -90q-590 -632 -831 -991q-100 -42 -63 60
q439 652 757 1000zM-812 1554l-60 27q-249 58 -84 172q300 -3 264 -317l-70 87z" />
    <glyph glyph-name="uniA9BC.short" 
d="M-533 2072q484 -48 492 -613q-48 -350 -198 -373h-30q-97 -31 -77 69q191 260 55.5 602t-682.5 146q-309 -174 -376.5 -371.5t668.5 -414.5l169 -53q0 -43 -62 -43q-897 170 -943 431l-7 24q51 263 553 504q252 104 438 92z" />
    <glyph glyph-name="uniA9BC_uniA980" 
d="M-595 2081q572 -50 582 -641q-56 -366 -234 -390h-36q-72 0 -72 45q251 211 69 612.5t-831 196.5q-366 -182 -446 -388.5t791 -433.5l201 -55q0 -45 -72 -45q-1062 178 -1117 450l-9 26q60 275 655 527q299 109 519 96zM-958 1589q58 -1 106 -5q194 79 -20 93
q-142 -10 -86 -88zM-932 1528q-196 -26 -5 -136q4 -3 10 -5l-14 -3h-5l-21 -3l-93 30h6l-116 58q-95 89 172 103l-43 33q-64 95 135 105q10 -1 20 -1q12 17 27 33l21 2q43 4 84 -10q-12 -17 -24 -32q120 -22 145 -106q-14 -38 -75 -43q140 -28 170 -93q-37 -66 -304 -33
q362 91 -15 107q-20 -1 -37 -3q2 -1 4 -3q3 -3 7 -6l-10 -2h-2l-15 -3z" />
    <glyph glyph-name="uniA9BC_uniA981" 
d="M-605 2084q572 -50 582 -641q-56 -366 -234 -390h-36q-72 0 -72 45q251 211 69 612.5t-831 196.5q-366 -182 -446 -388.5t791 -433.5l201 -55q0 -45 -72 -45q-1062 178 -1117 450l-9 26q60 275 655 527q299 109 519 96zM-757 1418l-60 27q-249 58 -84 172
q300 -3 264 -317l-70 87z" />
    <glyph glyph-name="uniA9BC_uniA982" 
d="M-697 2084q484 -48 492 -613q-48 -350 -198 -373h-30q-97 -31 -77 69q191 260 55.5 602t-682.5 146q-309 -174 -376.5 -371.5t668.5 -414.5l169 -53q0 -43 -62 -43q-897 170 -943 431l-7 24q51 263 553 504q252 104 438 92zM435 2046l47 21q96 31 90 -90
q-590 -632 -831 -991q-100 -42 -63 60q439 652 757 1000z" />
    <glyph glyph-name="uniA9B3_uniA980" 
d="M-939 1150l-60 27q-249 58 -84 172q300 -3 264 -317l-70 87zM-1360 1150l-60 27q-249 58 -84 172q300 -3 264 -317l-70 87zM-1159 1530l-60 27q-249 58 -84 172q300 -3 264 -317l-70 87zM-575 1318q58 -1 106 -5q194 79 -20 93q-142 -10 -86 -88zM-549 1257
q-196 -26 -5 -136q4 -3 10 -5l-14 -3h-5l-21 -3l-93 30h6l-116 58q-95 89 172 103l-43 33q-64 95 135 105q10 -1 20 -1q12 17 27 33l21 2q43 4 84 -10q-12 -17 -24 -32q120 -22 145 -106q-14 -38 -75 -43q140 -28 170 -93q-37 -66 -304 -33q362 91 -15 107q-20 -1 -37 -3
q2 -1 4 -3q3 -3 7 -6l-10 -2h-2l-15 -3z" />
    <glyph glyph-name="uniA9B3_uniA981" 
d="M-918 1610l-60 27q-249 58 -84 172q300 -3 264 -317l-70 87zM-1198 1230l-60 27q-249 58 -84 172q300 -3 264 -317l-70 87zM-698 1230l-60 27q-249 58 -84 172q300 -3 264 -317l-70 87zM-311 1382l-60 27q-249 58 -84 172q300 -3 264 -317l-70 87z" />
    <glyph glyph-name="uniA9B3_uniA982" 
d="M-519 1157l-60 27q-249 58 -84 172q300 -3 264 -317l-70 87zM-1019 1157l-60 27q-249 58 -84 172q300 -3 264 -317l-70 87zM-739 1537l-60 27q-249 58 -84 172q300 -3 264 -317l-70 87zM416 2045l47 21q96 31 90 -90q-590 -632 -831 -991q-100 -42 -63 60
q439 652 757 1000z" />
    <glyph glyph-name="uniA9B3_uniA9B6" 
d="M-543 2060q522 0 522 -308q0 -157 -574 -621q0 -148 -120 -111q-511 254 -389.5 647t561.5 393zM-944 1396q61 -210 224 -221q515 297 480 616q-48 208 -412 172q-347 -180 -292 -567zM-1414 1409l-39 18q-161 37 -54 111q194 -2 170 -205l-45 56zM-1530 1189l-39 18
q-161 37 -54 111q194 -2 170 -205l-45 56zM-1234 1201l-39 18q-161 37 -54 111q194 -2 170 -205l-45 56z" />
    <glyph glyph-name="uniA9B3_uniA9B6_uniA980" 
d="M-690 2071q522 0 522 -308q0 -157 -574 -621q0 -148 -120 -111q-511 254 -389.5 647t561.5 393zM-1091 1407q61 -210 224 -221q515 297 480 616q-48 208 -412 172q-347 -180 -292 -567zM-1518 1434l-39 18q-161 37 -54 111q194 -2 170 -205l-45 56zM-1659 1213l-39 18
q-161 37 -54 111q194 -2 170 -205l-45 56zM-1374 1214l-39 18q-161 37 -54 111q194 -2 170 -205l-45 56zM-283 1274q58 -1 106 -5q194 79 -20 93q-142 -10 -86 -88zM-257 1213q-196 -26 -5 -136q4 -3 10 -5l-14 -3h-5l-21 -3l-93 30h6l-116 58q-95 89 172 103l-43 33
q-64 95 135 105q10 -1 20 -1q12 17 27 33l21 2q43 4 84 -10q-12 -17 -24 -32q120 -22 145 -106q-14 -38 -75 -43q140 -28 170 -93q-37 -66 -304 -33q362 91 -15 107q-20 -1 -37 -3q2 -1 4 -3q3 -3 7 -6l-10 -2h-2l-15 -3z" />
    <glyph glyph-name="uniA9B3_uniA9B6_uniA981" 
d="M-583 2063q522 0 522 -308q0 -157 -574 -621q0 -148 -120 -111q-511 254 -389.5 647t561.5 393zM-984 1399q61 -210 224 -221q515 297 480 616q-48 208 -412 172q-347 -180 -292 -567zM-1348 1471l-39 18q-161 37 -54 111q194 -2 170 -205l-45 56zM-1501 1229l-39 18
q-161 37 -54 111q194 -2 170 -205l-45 56zM-1217 1239l-39 18q-161 37 -54 111q194 -2 170 -205l-45 56zM-175 1096l-60 27q-249 58 -84 172q300 -3 264 -317l-70 87z" />
    <glyph glyph-name="uniA9B3_uniA9B6_uniA982" 
d="M-613 2059q522 0 522 -308q0 -157 -574 -621q0 -148 -120 -111q-511 254 -389.5 647t561.5 393zM-1014 1395q61 -210 224 -221q515 297 480 616q-48 208 -412 172q-347 -180 -292 -567zM-1440 1492l-39 18q-161 37 -54 111q194 -2 170 -205l-45 56zM-1568 1260l-39 18
q-161 37 -54 111q194 -2 170 -205l-45 56zM-1282 1272l-39 18q-161 37 -54 111q194 -2 170 -205l-45 56zM361 2058l47 21q96 31 90 -90q-590 -632 -831 -991q-100 -42 -63 60q439 652 757 1000z" />
    <glyph glyph-name="uniA9B3_uniA9B7" 
d="M-558 2095q522 0 522 -308q0 -157 -574 -621q0 -148 -120 -111q-511 254 -389.5 647t561.5 393zM-959 1431q61 -210 224 -221q515 297 480 616q-48 208 -412 172q-347 -180 -292 -567zM-1373 1456l-39 18q-161 37 -54 111q194 -2 170 -205l-45 56zM-1476 1237l-39 18
q-161 37 -54 111q194 -2 170 -205l-45 56zM-1214 1249l-39 18q-161 37 -54 111q194 -2 170 -205l-45 56zM-588 1576l-60 27q-249 58 -84 172q300 -3 264 -317l-70 87z" />
    <glyph glyph-name="uniA9B3_uniA9B7_uniA980" 
d="M-598 2083q522 0 522 -308q0 -157 -574 -621q0 -148 -120 -111q-511 254 -389.5 647t561.5 393zM-999 1419q61 -210 224 -221q515 297 480 616q-48 208 -412 172q-347 -180 -292 -567zM-1381 1432l-39 18q-161 37 -54 111q194 -2 170 -205l-45 56zM-1520 1212l-39 18
q-161 37 -54 111q194 -2 170 -205l-45 56zM-1236 1199l-39 18q-161 37 -54 111q194 -2 170 -205l-45 56zM-227 1330q58 -1 106 -5q194 79 -20 93q-142 -10 -86 -88zM-201 1269q-196 -26 -5 -136q4 -3 10 -5l-14 -3h-5l-21 -3l-93 30h6l-116 58q-95 89 172 103l-43 33
q-64 95 135 105q10 -1 20 -1q12 17 27 33l21 2q43 4 84 -10q-12 -17 -24 -32q120 -22 145 -106q-14 -38 -75 -43q140 -28 170 -93q-37 -66 -304 -33q362 91 -15 107q-20 -1 -37 -3q2 -1 4 -3q3 -3 7 -6l-10 -2h-2l-15 -3zM-651 1541l-60 27q-249 58 -84 172q300 -3 264 -317
l-70 87z" />
    <glyph glyph-name="uniA9B3_uniA9B7_uniA981" 
d="M-591 2036q522 0 522 -308q0 -157 -574 -621q0 -148 -120 -111q-511 254 -389.5 647t561.5 393zM-992 1372q61 -210 224 -221q515 297 480 616q-48 208 -412 172q-347 -180 -292 -567zM-1420 1500l-39 18q-161 37 -54 111q194 -2 170 -205l-45 56zM-1560 1293l-39 18
q-161 37 -54 111q194 -2 170 -205l-45 56zM-1275 1268l-39 18q-161 37 -54 111q194 -2 170 -205l-45 56zM-176 1113l-60 27q-249 58 -84 172q300 -3 264 -317l-70 87zM-639 1499l-60 27q-249 58 -84 172q300 -3 264 -317l-70 87z" />
    <glyph glyph-name="uniA9B3_uniA9B7_uniA982" 
d="M-648 2071q522 0 522 -308q0 -157 -574 -621q0 -148 -120 -111q-511 254 -389.5 647t561.5 393zM-1049 1407q61 -210 224 -221q515 297 480 616q-48 208 -412 172q-347 -180 -292 -567zM-1446 1516l-39 18q-161 37 -54 111q194 -2 170 -205l-45 56zM-1586 1284l-39 18
q-161 37 -54 111q194 -2 170 -205l-45 56zM-1302 1284l-39 18q-161 37 -54 111q194 -2 170 -205l-45 56zM290 2069l47 21q96 31 90 -90q-590 -632 -831 -991q-100 -42 -63 60q439 652 757 1000zM-737 1542l-60 27q-249 58 -84 172q300 -3 264 -317l-70 87z" />
    <glyph glyph-name="uniA9B3_uniA9BC" 
d="M-887 1679l-39 18q-161 37 -54 111q194 -2 170 -205l-45 56zM-1039 1436l-39 18q-161 37 -54 111q194 -2 170 -205l-45 56zM-719 1447l-39 18q-161 37 -54 111q194 -2 170 -205l-45 56zM-591 2084q572 -50 582 -641q-56 -366 -234 -390h-36q-72 0 -72 45
q251 211 69 612.5t-831 196.5q-366 -182 -446 -388.5t791 -433.5l201 -55q0 -45 -72 -45q-1062 178 -1117 450l-9 26q60 275 655 527q299 109 519 96z" />
    <glyph glyph-name="uniA9B3_uniA9BC_uniA980" 
d="M-1171 1606l-39 18q-161 37 -54 111q194 -2 170 -205l-45 56zM-1299 1409l-39 18q-161 37 -54 111q194 -2 170 -205l-45 56zM-990 1421l-39 18q-161 37 -54 111q194 -2 170 -205l-45 56zM-595 2082q572 -50 582 -641q-56 -366 -234 -390h-36q-72 0 -72 45
q251 211 69 612.5t-831 196.5q-366 -182 -446 -388.5t791 -433.5l201 -55q0 -45 -72 -45q-1062 178 -1117 450l-9 26q60 275 655 527q299 109 519 96zM-654 1564q58 -1 106 -5q194 79 -20 93q-142 -10 -86 -88zM-628 1503q-196 -26 -5 -136q4 -3 10 -5l-14 -3h-5l-21 -3
l-93 30h6l-116 58q-95 89 172 103l-43 33q-64 95 135 105q10 -1 20 -1q12 17 27 33l21 2q43 4 84 -10q-12 -17 -24 -32q120 -22 145 -106q-14 -38 -75 -43q140 -28 170 -93q-37 -66 -304 -33q362 91 -15 107q-20 -1 -37 -3q2 -1 4 -3q3 -3 7 -6l-10 -2h-2l-15 -3z" />
    <glyph glyph-name="uniA9B3_uniA9BC_uniA981" 
d="M-1060 1586l-39 18q-161 37 -54 111q194 -2 170 -205l-45 56zM-1212 1389l-39 18q-161 37 -54 111q194 -2 170 -205l-45 56zM-868 1365l-39 18q-161 37 -54 111q194 -2 170 -205l-45 56zM-592 2084q572 -50 582 -641q-56 -366 -234 -390h-36q-72 0 -72 45
q251 211 69 612.5t-831 196.5q-366 -182 -446 -388.5t791 -433.5l201 -55q0 -45 -72 -45q-1062 178 -1117 450l-9 26q60 275 655 527q299 109 519 96zM-462 1437l-60 27q-249 58 -84 172q300 -3 264 -317l-70 87z" />
    <glyph glyph-name="uniA9B3_uniA9BC_uniA982" 
d="M-670 2083q484 -48 492 -613q-48 -350 -198 -373h-30q-97 -31 -77 69q191 260 55.5 602t-682.5 146q-309 -174 -376.5 -371.5t668.5 -414.5l169 -53q0 -43 -62 -43q-897 170 -943 431l-7 24q51 263 553 504q252 104 438 92zM452 2057l47 21q96 31 90 -90
q-590 -632 -831 -991q-100 -42 -63 60q439 652 757 1000zM-1029 1480l-39 18q-161 37 -54 111q194 -2 170 -205l-45 56zM-889 1700l-39 18q-161 37 -54 111q194 -2 170 -205l-45 56zM-709 1480l-39 18q-161 37 -54 111q194 -2 170 -205l-45 56z" />
    <glyph glyph-name="uniA9AB.reph" 
d="M0 2022l47 21q96 31 90 -90q-590 -632 -831 -991q-100 -42 -63 60q439 652 757 1000z" />
    <glyph glyph-name="uniA9AB_uniA980.reph" 
d="M-354 1318q58 -1 106 -5q194 79 -20 93q-142 -10 -86 -88zM-328 1257q-196 -26 -5 -136q4 -3 10 -5l-14 -3h-5l-21 -3l-93 30h6l-116 58q-95 89 172 103l-43 33q-64 95 135 105q10 -1 20 -1q12 17 27 33l21 2q43 4 84 -10q-12 -17 -24 -32q120 -22 145 -106
q-14 -38 -75 -43q140 -28 170 -93q-37 -66 -304 -33q362 91 -15 107q-20 -1 -37 -3q2 -1 4 -3q3 -3 7 -6l-10 -2h-2l-15 -3zM-271 2081l47 21q96 31 90 -90q-590 -632 -831 -991q-100 -42 -63 60q439 652 757 1000z" />
    <glyph glyph-name="uniA9AB_uniA981.reph" 
d="M-175 1139l-60 27q-249 58 -84 172q300 -3 264 -317l-70 87zM-123 2073l47 21q96 31 90 -90q-590 -632 -831 -991q-100 -42 -63 60q439 652 757 1000z" />
    <glyph glyph-name="uniA9AB_uniA9B6_uniA980.reph" 
d="M-969 2118q522 0 522 -308q0 -157 -574 -621q0 -148 -120 -111q-511 254 -389.5 647t561.5 393zM-1370 1454q61 -210 224 -221q515 297 480 616q-48 208 -412 172q-347 -180 -292 -567zM-142 2058l47 21q96 31 90 -90q-590 -632 -831 -991q-100 -42 -63 60
q439 652 757 1000zM-353 1272q58 -1 106 -5q194 79 -20 93q-142 -10 -86 -88zM-327 1211q-196 -26 -5 -136q4 -3 10 -5l-14 -3h-5l-21 -3l-93 30h6l-116 58q-95 89 172 103l-43 33q-64 95 135 105q10 -1 20 -1q12 17 27 33l21 2q43 4 84 -10q-12 -17 -24 -32
q120 -22 145 -106q-14 -38 -75 -43q140 -28 170 -93q-37 -66 -304 -33q362 91 -15 107q-20 -1 -37 -3q2 -1 4 -3q3 -3 7 -6l-10 -2h-2l-15 -3z" />
    <glyph glyph-name="uniA9AB_uniA9B6_uniA981.reph" 
d="M-816 2059q522 0 522 -308q0 -157 -574 -621q0 -148 -120 -111q-511 254 -389.5 647t561.5 393zM-1217 1395q61 -210 224 -221q515 297 480 616q-48 208 -412 172q-347 -180 -292 -567zM98 2034l47 21q96 31 90 -90q-590 -632 -831 -991q-100 -42 -63 60
q439 652 757 1000zM-83 1123l-60 27q-249 58 -84 172q300 -3 264 -317l-70 87z" />
    <glyph glyph-name="uniA9AB_uniA9B7_uniA980.reph" 
d="M-317 1248q58 -1 106 -5q194 79 -20 93q-142 -10 -86 -88zM-291 1187q-196 -26 -5 -136q4 -3 10 -5l-14 -3h-5l-21 -3l-93 30h6l-116 58q-95 89 172 103l-43 33q-64 95 135 105q10 -1 20 -1q12 17 27 33l21 2q43 4 84 -10q-12 -17 -24 -32q120 -22 145 -106
q-14 -38 -75 -43q140 -28 170 -93q-37 -66 -304 -33q362 91 -15 107q-20 -1 -37 -3q2 -1 4 -3q3 -3 7 -6l-10 -2h-2l-15 -3zM-1034 1589l-60 27q-249 58 -84 172q300 -3 264 -317l-70 87zM-107 2034l47 21q96 31 90 -90q-590 -632 -831 -991q-100 -42 -63 60
q439 652 757 1000zM-1015 2095q522 0 522 -308q0 -157 -574 -621q0 -148 -120 -111q-511 254 -389.5 647t561.5 393zM-1416 1431q61 -210 224 -221q515 297 480 616q-48 208 -412 172q-347 -180 -292 -567z" />
    <glyph glyph-name="uniA9AB_uniA9B7_uniA981.reph" 
d="M-105 1123l-60 27q-249 58 -84 172q300 -3 264 -317l-70 87zM-941 1600l-60 27q-249 58 -84 172q300 -3 264 -317l-70 87zM52 2057l47 21q96 31 90 -90q-590 -632 -831 -991q-100 -42 -63 60q439 652 757 1000zM-899 2083q522 0 522 -308q0 -157 -574 -621
q0 -148 -120 -111q-511 254 -389.5 647t561.5 393zM-1300 1419q61 -210 224 -221q515 297 480 616q-48 208 -412 172q-347 -180 -292 -567z" />
    <glyph glyph-name="uniA9AB_uniA9BC_uniA980.reph" 
d="M-1027 1585q58 -1 106 -5q194 79 -20 93q-142 -10 -86 -88zM-1001 1524q-196 -26 -5 -136q4 -3 10 -5l-14 -3h-5l-21 -3l-93 30h6l-116 58q-95 89 172 103l-43 33q-64 95 135 105q10 -1 20 -1q12 17 27 33l21 2q43 4 84 -10q-12 -17 -24 -32q120 -22 145 -106
q-14 -38 -75 -43q140 -28 170 -93q-37 -66 -304 -33q362 91 -15 107q-20 -1 -37 -3q2 -1 4 -3q3 -3 7 -6l-10 -2h-2l-15 -3zM-678 2072q484 -48 492 -613q-48 -350 -198 -373h-30q-97 -31 -77 69q191 260 55.5 602t-682.5 146q-309 -174 -376.5 -371.5t668.5 -414.5l169 -53
q0 -43 -62 -43q-897 170 -943 431l-7 24q51 263 553 504q252 104 438 92zM486 2069l47 21q96 31 90 -90q-590 -632 -831 -991q-100 -42 -63 60q439 652 757 1000z" />
    <glyph glyph-name="uniA9AB_uniA9BC_uniA981.reph" 
d="M-963 1486l-60 27q-249 58 -84 172q300 -3 264 -317l-70 87zM-697 2061q484 -48 492 -613q-48 -350 -198 -373h-30q-97 -31 -77 69q191 260 55.5 602t-682.5 146q-309 -174 -376.5 -371.5t668.5 -414.5l169 -53q0 -43 -62 -43q-897 170 -943 431l-7 24q51 263 553 504
q252 104 438 92zM460 2058l47 21q96 31 90 -90q-590 -632 -831 -991q-100 -42 -63 60q439 652 757 1000z" />
    <glyph glyph-name="uniA9AB_uniA9B3.reph" 
d="M239 2069l47 21q96 31 90 -90q-590 -632 -831 -991q-100 -42 -63 60q439 652 757 1000zM-961 1562l-60 27q-249 58 -84 172q300 -3 264 -317l-70 87zM-658 1229l-60 27q-249 58 -84 172q300 -3 264 -317l-70 87zM-1076 1182l-60 27q-249 58 -84 172q300 -3 264 -317
l-70 87z" />
    <glyph glyph-name="uniA9AB_uniA9B3_uniA980.reph" 
d="M-403 1259q58 -1 106 -5q194 79 -20 93q-142 -10 -86 -88zM-377 1198q-196 -26 -5 -136q4 -3 10 -5l-14 -3h-5l-21 -3l-93 30h6l-116 58q-95 89 172 103l-43 33q-64 95 135 105q10 -1 20 -1q12 17 27 33l21 2q43 4 84 -10q-12 -17 -24 -32q120 -22 145 -106
q-14 -38 -75 -43q140 -28 170 -93q-37 -66 -304 -33q362 91 -15 107q-20 -1 -37 -3q2 -1 4 -3q3 -3 7 -6l-10 -2h-2l-15 -3zM-1264 1225l-39 18q-161 37 -54 111q194 -2 170 -205l-45 56zM-943 1224l-39 18q-161 37 -54 111q194 -2 170 -205l-45 56zM-1123 1468l-39 18
q-161 37 -54 111q194 -2 170 -205l-45 56zM-117 2058l47 21q96 31 90 -90q-590 -632 -831 -991q-100 -42 -63 60q439 652 757 1000z" />
    <glyph glyph-name="uniA9AB_uniA9B3_uniA981.reph" 
d="M-1205 1223l-39 18q-161 37 -54 111q194 -2 170 -205l-45 56zM-862 1235l-39 18q-161 37 -54 111q194 -2 170 -205l-45 56zM-1066 1455l-39 18q-161 37 -54 111q194 -2 170 -205l-45 56zM-138 1147l-60 27q-249 58 -84 172q300 -3 264 -317l-70 87zM43 2081l47 21
q96 31 90 -90q-590 -632 -831 -991q-100 -42 -63 60q439 652 757 1000z" />
    <glyph glyph-name="uniA9ABA9B3A9B6A980.reph" 
d="M-773 2071q522 0 522 -308q0 -157 -574 -621q0 -148 -120 -111q-511 254 -389.5 647t561.5 393zM-1174 1407q61 -210 224 -221q515 297 480 616q-48 208 -412 172q-347 -180 -292 -567zM67 2010l47 21q96 31 90 -90q-590 -632 -831 -991q-100 -42 -63 60
q439 652 757 1000zM-1568 1491l-39 18q-161 37 -54 111q194 -2 170 -205l-45 56zM-1412 1236l-39 18q-161 37 -54 111q194 -2 170 -205l-45 56zM-1697 1260l-39 18q-161 37 -54 111q194 -2 170 -205l-45 56zM-216 1212q58 -1 106 -5q194 79 -20 93q-142 -10 -86 -88z
M-190 1151q-196 -26 -5 -136q4 -3 10 -5l-14 -3h-5l-21 -3l-93 30h6l-116 58q-95 89 172 103l-43 33q-64 95 135 105q10 -1 20 -1q12 17 27 33l21 2q43 4 84 -10q-12 -17 -24 -32q120 -22 145 -106q-14 -38 -75 -43q140 -28 170 -93q-37 -66 -304 -33q362 91 -15 107
q-20 -1 -37 -3q2 -1 4 -3q3 -3 7 -6l-10 -2h-2l-15 -3z" />
    <glyph glyph-name="uniA9ABA9B3A9B6A981.reph" 
d="M-860 2083q522 0 522 -308q0 -157 -574 -621q0 -148 -120 -111q-511 254 -389.5 647t561.5 393zM-1261 1419q61 -210 224 -221q515 297 480 616q-48 208 -412 172q-347 -180 -292 -567zM60 2057l47 21q96 31 90 -90q-590 -632 -831 -991q-100 -42 -63 60
q439 652 757 1000zM-139 1159l-60 27q-249 58 -84 172q300 -3 264 -317l-70 87zM-1608 1492l-39 18q-161 37 -54 111q194 -2 170 -205l-45 56zM-1452 1272l-39 18q-161 37 -54 111q194 -2 170 -205l-45 56zM-1725 1248l-39 18q-161 37 -54 111q194 -2 170 -205l-45 56z" />
    <glyph glyph-name="uniA9ABA9B3A9B7A980.reph" 
d="M-193 1224q58 -1 106 -5q194 79 -20 93q-142 -10 -86 -88zM-167 1163q-196 -26 -5 -136q4 -3 10 -5l-14 -3h-5l-21 -3l-93 30h6l-116 58q-95 89 172 103l-43 33q-64 95 135 105q10 -1 20 -1q12 17 27 33l21 2q43 4 84 -10q-12 -17 -24 -32q120 -22 145 -106
q-14 -38 -75 -43q140 -28 170 -93q-37 -66 -304 -33q362 91 -15 107q-20 -1 -37 -3q2 -1 4 -3q3 -3 7 -6l-10 -2h-2l-15 -3zM-1838 1272l-39 18q-161 37 -54 111q194 -2 170 -205l-45 56zM-1565 1260l-39 18q-161 37 -54 111q194 -2 170 -205l-45 56zM-1687 1504l-39 18
q-161 37 -54 111q194 -2 170 -205l-45 56zM-922 1601l-60 27q-249 58 -84 172q300 -3 264 -317l-70 87zM31 2057l47 21q96 31 90 -90q-590 -632 -831 -991q-100 -42 -63 60q439 652 757 1000zM-868 2130q522 0 522 -308q0 -157 -574 -621q0 -148 -120 -111
q-511 254 -389.5 647t561.5 393zM-1269 1466q61 -210 224 -221q515 297 480 616q-48 208 -412 172q-347 -180 -292 -567z" />
    <glyph glyph-name="uniA9ABA9B3A9B7A981.reph" 
d="M-1571 1296l-39 18q-161 37 -54 111q194 -2 170 -205l-45 56zM-1262 1284l-39 18q-161 37 -54 111q194 -2 170 -205l-45 56zM-1408 1492l-39 18q-161 37 -54 111q194 -2 170 -205l-45 56zM14 1099l-60 27q-249 58 -84 172q300 -3 264 -317l-70 87zM-713 1577l-60 27
q-249 58 -84 172q300 -3 264 -317l-70 87zM214 2046l47 21q96 31 90 -90q-590 -632 -831 -991q-100 -42 -63 60q439 652 757 1000zM-672 2130q522 0 522 -308q0 -157 -574 -621q0 -148 -120 -111q-511 254 -389.5 647t561.5 393zM-1073 1466q61 -210 224 -221
q515 297 480 616q-48 208 -412 172q-347 -180 -292 -567z" />
    <glyph glyph-name="uniA9ABA9B3A9BCA980.reph" 
d="M485 2058l47 21q96 31 90 -90q-590 -632 -831 -991q-100 -42 -63 60q439 652 757 1000zM-1145 1567l-39 18q-161 37 -54 111q194 -2 170 -205l-45 56zM-1225 1335l-39 18q-161 37 -54 111q194 -2 170 -205l-45 56zM-988 1359l-39 18q-161 37 -54 111q194 -2 170 -205
l-45 56zM-669 2061q484 -48 492 -613q-48 -350 -198 -373h-30q-97 -31 -77 69q191 260 55.5 602t-682.5 146q-309 -174 -376.5 -371.5t668.5 -414.5l169 -53q0 -43 -62 -43q-897 170 -943 431l-7 24q51 263 553 504q252 104 438 92zM-807 1723q58 -1 106 -5q194 79 -20 93
q-142 -10 -86 -88zM-781 1662q-196 -26 -5 -136q4 -3 10 -5l-14 -3h-5l-21 -3l-93 30h6l-116 58q-95 89 172 103l-43 33q-64 95 135 105q10 -1 20 -1q12 17 27 33l21 2q43 4 84 -10q-12 -17 -24 -32q120 -22 145 -106q-14 -38 -75 -43q140 -28 170 -93q-37 -66 -304 -33
q362 91 -15 107q-20 -1 -37 -3q2 -1 4 -3q3 -3 7 -6l-10 -2h-2l-15 -3z" />
    <glyph glyph-name="uniA9ABA9B3A9BCA981.reph" 
d="M457 2057l47 21q96 31 90 -90q-590 -632 -831 -991q-100 -42 -63 60q439 652 757 1000zM-1084 1675l-39 18q-161 37 -54 111q194 -2 170 -205l-45 56zM-1224 1455l-39 18q-161 37 -54 111q194 -2 170 -205l-45 56zM-904 1455l-39 18q-161 37 -54 111q194 -2 170 -205
l-45 56zM-684 2058q484 -48 492 -613q-48 -350 -198 -373h-30q-97 -31 -77 69q191 260 55.5 602t-682.5 146q-309 -174 -376.5 -371.5t668.5 -414.5l169 -53q0 -43 -62 -43q-897 170 -943 431l-7 24q51 263 553 504q252 104 438 92zM-608 1437l-60 27q-249 58 -84 172
q300 -3 264 -317l-70 87z" />
    <glyph glyph-name="_cmpakarasuku" horiz-adv-x="2836" 
d="M2143 686q27 101 54 224q258 140 291 -173q35 -91 -110 -721l-121 -11q309 835 1 795q-19 -92 -39 -173q55 -46 113 -103q31 -24 6 -69q-31 -40 -68 -12q-40 47 -78 86q-150 -534 -344 -444q-545 394 -731.5 287.5t-137.5 18.5q45 96 201 162q266 146 643 -304
q149 -140 296 352q-323 292 -407 -75q-287 -31 -163 149q222 279 594 11zM1921 -1509q125 307 830 2439l72 1q-482 -1689 -755 -2429q-64 -164 -135 -281q-69 -147 -182 -212q-178 -135 -217 146l311 854q86 268 -18 435t-457 331q-484 170 -224 -247q-285 -120 -309 151
q-26 386 466 210q524 -242 635 -463.5t15 -485.5l-204 -581l-24 -77q22 -142 196 209z" />
    <glyph glyph-name="uniA98F_uniA9B8" horiz-adv-x="2728" 
d="M1137 405l-42 -102l-10 -71q36 -96 120 -26.5t-68 199.5zM1718 515.5q-74 -181.5 -121 -496.5l-228 -17q226 376 198.5 536.5t-106.5 164.5t-138.5 -48t-128.5 -158q137 -104 98 -291.5t-211 -161.5q-100 56 -91 153.5t81 240.5q-132 79 -259 48q-73 -226 -326 -463
q-138 51 -80 156q276 317 270.5 453.5t-98.5 111.5q-367 -206 -239 -605q-103 -113 -137 41q-30 414 410 666q133 72 195 -21q37 -61 25 -185q214 -48 298 -101q74 131 161 215t212 71.5t155 -196.5q169 307 460 316q299 -27 309 -350q-10 -210 -141 -588l-220 -11
q273 424 222 586t-164 213t-222.5 -23.5t-183.5 -256zM1829 -1500q125 307 830 2439l72 1q-482 -1689 -755 -2429q-64 -164 -135 -281q-69 -147 -182 -212q-178 -135 -217 146l311 854q86 268 -18 435t-457 331q-484 170 -224 -247q-285 -120 -309 151q-26 386 466 210
q524 -242 635 -463.5t15 -485.5l-204 -581l-24 -77q22 -142 196 209z" />
    <glyph glyph-name="uniA984_uniA9B8" horiz-adv-x="2920" 
d="M1500 2117q407 -34 475 -387q11 8 -7 -95.5t-159 -289.5l-82 -82q-109 -48 -96 43q125 256 132 386q27 -13 -48 148t-286 145l-142 -36q-332 -160 -658 -707q-286 -470 -308 -665l-3 -161q22 -174 201 -266q289 -41 305 143q8 106 -124 77l-11 71q56 52 135 199l18 57
q-5 78 -86 47t-94 -216l-76 21q-4 229 104 314.5t215 73.5q123 -32 105 -182q18 -59 -189 -270q196 -72 180 -164q-45 -166 -372 -324l-138 1q-207 29 -291 210l-20 100q0 338 183 677q152 299 341 540q273 470 796 592zM2244 669q27 101 54 224q258 140 291 -173
q35 -91 -110 -721l-121 -11q309 835 1 795q-19 -92 -39 -173q55 -46 113 -103q31 -24 6 -69q-31 -40 -68 -12q-40 47 -78 86q-150 -534 -344 -444q-545 394 -731.5 287.5t-137.5 18.5q45 96 201 162q266 146 643 -304q149 -140 296 352q-323 292 -407 -75q-287 -31 -163 149
q222 279 594 11zM2022 -1526q125 307 830 2439l72 1q-482 -1689 -755 -2429q-64 -164 -135 -281q-69 -147 -182 -212q-178 -135 -217 146l311 854q86 268 -18 435t-457 331q-484 170 -224 -247q-285 -120 -309 151q-26 386 466 210q524 -242 635 -463.5t15 -485.5l-204 -581
l-24 -77q22 -142 196 209z" />
    <glyph glyph-name="uniA990_uniA9B8" horiz-adv-x="2736" 
d="M1145 405l-42 -102l-10 -71q36 -96 120 -26.5t-68 199.5zM1726 515.5q-74 -181.5 -121 -496.5l-228 -17q226 376 198.5 536.5t-106.5 164.5t-138.5 -48t-128.5 -158q137 -104 98 -291.5t-211 -161.5q-100 56 -91 153.5t81 240.5q-132 79 -259 48q-73 -226 -326 -463
q-138 51 -80 156q276 317 270.5 453.5t-98.5 111.5q-367 -206 -239 -605q-103 -113 -137 41q-30 414 410 666q133 72 195 -21q37 -61 25 -185q214 -48 298 -101q74 131 161 215t212 71.5t155 -196.5q169 307 460 316q299 -27 309 -350q-10 -210 -141 -588l-220 -11
q273 424 222 586t-164 213t-222.5 -23.5t-183.5 -256zM1837 -1500q125 307 830 2439l72 1q-482 -1689 -755 -2429q-64 -164 -135 -281q-69 -147 -182 -212q-178 -135 -217 146l311 854q86 268 -18 435t-457 331q-484 170 -224 -247q-285 -120 -309 151q-26 386 466 210
q524 -242 635 -463.5t15 -485.5l-204 -581l-24 -77q22 -142 196 209zM1333 -1217q-68 6 -46 58q525 751 -133 584q-170 257 132 245q598 -61 139 -841q-19 -44 -92 -46z" />
    <glyph glyph-name="uniA991_uniA9B8" horiz-adv-x="2571" 
d="M989 367l-37 -86l-9 -60q48 -154 115 -59t-69 205zM605 727q-25 33 -108 8q-328 -206 -214 -606q-92 -113 -122 41q-27 415 367 667q111 81 184 19q80 -36 29 -233q175 -40 250 -93q256 406 520 406q376 -18 376 -341q-23 -202 -176 -509q80 -248 138 -7q72 546 272 674
q259 71 225 -170q-372 -38 -413 -506.5t-278 -190.5q-143 175 -103 288q98 226 136.5 407.5t-133.5 231.5q-314 6 -507 -325q132 -100 116.5 -283.5t-172.5 -188.5q-131 19 -131 198q24 139 60 207q-101 87 -227 64q-127 -357 -258 -464q-145 43 -93 148q325 473 262 558z
M1663 -1500q125 307 830 2439l72 1q-482 -1689 -755 -2429q-64 -164 -135 -281q-69 -147 -182 -212q-178 -135 -217 146l311 854q86 268 -18 435t-457 331q-484 170 -224 -247q-285 -120 -309 151q-26 386 466 210q524 -242 635 -463.5t15 -485.5l-204 -581l-24 -77
q22 -142 196 209z" />
    <glyph glyph-name="uniA992_uniA9B8" horiz-adv-x="2804" 
d="M1421 -4l-210 8l186 326l47 90l43 60l22 83l5 11v63l-27 46q-144 219 -533 -123q-160 -187 -243 -497l-254 2q258 341 288 486.5t-48.5 216.5t-269.5 -61q-177 -163 37 -449q-256 -178 -289 -24q-29 415 398 667q146 67 236 -20q83 -45 107 -250q807 600 726 -2
q224 349 627 315q198 -38 165 -341.5t-184 -599.5l-245 -5q351 458 284.5 665.5t-305.5 122.5q-157 -38 -274 -181q-97 -133 -152 -255t-137 -354zM1904 -1508q125 307 830 2439l72 1q-482 -1689 -755 -2429q-64 -164 -135 -281q-69 -147 -182 -212q-178 -135 -217 146
l311 854q86 268 -18 435t-457 331q-484 170 -224 -247q-285 -120 -309 151q-26 386 466 210q524 -242 635 -463.5t15 -485.5l-204 -581l-24 -77q22 -142 196 209z" />
    <glyph glyph-name="uniA993_uniA9B8" horiz-adv-x="2804" 
d="M2050 463q-21 238 -162 352l-57 56q2 80 79 48q539 -163 529 -444q-44 -324 -134 -476l-151 1q358 700 -156 805q148 -186 140 -364q-54 -432 -264 -418l-62 4l-55 45l-55 40l-43 47l-26 42l-18 37q-233 -293 -394 -222q-120 44 54 394q248 451 -87 366l-153 -89
q-301 -176 -301 -646l-180 31q35 225 111 349l51 162q29 285 -202 234q-389 -124 -88 -559q-126 -236 -229 -34l-20 110q-12 579 463 585q218 -39 197 -287q268 241 505 259q209 11 214 -111t-190 -451l-52 -114l4 -46q48 -70 224 164q130 190 268 -85l34 -40
q114 -106 206 255zM1904 -1508q125 307 830 2439l72 1q-482 -1689 -755 -2429q-64 -164 -135 -281q-69 -147 -182 -212q-178 -135 -217 146l311 854q86 268 -18 435t-457 331q-484 170 -224 -247q-285 -120 -309 151q-26 386 466 210q524 -242 635 -463.5t15 -485.5
l-204 -581l-24 -77q22 -142 196 209z" />
    <glyph glyph-name="_cmpngasuku" horiz-adv-x="2439" 
d="M1632 938q15 -233 109 -215q140 121 271 102t105.5 -224.5t-181.5 -594.5l-215 6q438 757 149 644l-143 -94q-147 -36 -158 262q-197 -51 -64 -285q-197 -144 -274 41q-43 262 401 358zM1548 -1492q125 307 830 2439l72 1q-482 -1689 -755 -2429q-64 -164 -135 -281
q-69 -147 -182 -212q-178 -135 -217 146l311 854q86 268 -18 435t-457 331q-484 170 -224 -247q-285 -120 -309 151q-26 386 466 210q524 -242 635 -463.5t15 -485.5l-204 -581l-24 -77q22 -142 196 209z" />
    <glyph glyph-name="uniA994_uniA9B8" horiz-adv-x="2217" 
d="M778 234q119 57 268.5 39t80.5 -273q-120 180 -488 94l-140 -51q-258 -126 -23 300q212 498 29 418q-305 -135 -110 -548q-181 -148 -236 41q6 429 350 657q104 38 157.5 29t65.5 -82t-147.5 -425t193.5 -199zM1382 929q15 -233 109 -215q140 121 271 102t105.5 -224.5
t-181.5 -594.5l-215 6q438 757 149 644l-143 -94q-147 -36 -158 262q-197 -51 -64 -285q-197 -144 -274 41q-43 262 401 358zM1298 -1501q125 307 830 2439l72 1q-482 -1689 -755 -2429q-64 -164 -135 -281q-69 -147 -182 -212q-178 -135 -217 146l311 854q86 268 -18 435
t-457 331q-484 170 -224 -247q-285 -120 -309 151q-26 386 466 210q524 -242 635 -463.5t15 -485.5l-204 -581l-24 -77q22 -142 196 209z" />
    <glyph glyph-name="uniA995_uniA9B8" horiz-adv-x="2289" 
d="M663 378l-44 15l-32 -2l-33 -17q-100 -109 -58.5 -165.5t167.5 169.5zM1566 425q-376 -761 -830 -108l-154 -214q-198 -226 -215 46q11 165 130.5 254t216.5 61q148 278 -9 322.5t-269 -51.5q-242 -133 -141 -533q-80 -113 -107 41q-23 415 213 570t433.5 85.5
t-48.5 -488.5q444 -453 704 57q53 135 7 197q-15 103 -235 207q11 91 134 52q507 -115 525 -355t-157 -563l-173 1q422 552 43 754l-111 33q136 -103 43 -368zM1391 -1500q125 307 830 2439l72 1q-482 -1689 -755 -2429q-64 -164 -135 -281q-69 -147 -182 -212
q-178 -135 -217 146l311 854q86 268 -18 435t-457 331q-484 170 -224 -247q-285 -120 -309 151q-26 386 466 210q524 -242 635 -463.5t15 -485.5l-204 -581l-24 -77q22 -142 196 209z" />
    <glyph glyph-name="uniA996_uniA9B8" horiz-adv-x="2804" 
d="M1181 378l-44 15l-31 -2l-33 -17q-98 -109 -57.5 -165.5t165.5 169.5zM1324 393q415 -436 671 124q46 130 -28.5 206.5t-239.5 136.5q-23 91 93 63q560 -88 605 -349.5t-138 -574.5l-164 8q325 507 75 730l-186 79q139 -131 58 -346q-370 -806 -807 -158l-130 -192
q-227 -243 -244 29q11 165 128.5 254t213.5 61q45 75 78 171q68 164 -160 163q-373 -105 -548 -791q-263 -18 -115.5 185.5t173.5 278t14 157t-80 123.5t-209 -48q-224 -261 -11 -451q-185 -179 -216 -25q29 433 200.5 560.5t282.5 78.5t144 -196q264 261 519.5 249.5
t196 -173t-175.5 -353.5zM1914 -1500q125 307 830 2439l72 1q-482 -1689 -755 -2429q-64 -164 -135 -281q-69 -147 -182 -212q-178 -135 -217 146l311 854q86 268 -18 435t-457 331q-484 170 -224 -247q-285 -120 -309 151q-26 386 466 210q524 -242 635 -463.5t15 -485.5
l-204 -581l-24 -77q22 -142 196 209z" />
    <glyph glyph-name="uniA997_uniA9B8" horiz-adv-x="2283" 
d="M766 909.5q161 -98.5 -224 -679.5l47 21l58 -3l55 -7l39 -16l56 -14q-11 587 571 713q86 24 151 13h70q208 -19 208 -89q0 -210 -339 -329l-43 -24q346 -81 422 -375q-5 -125 -75 -125h-35q-68 0 -130 191t-189.5 207t-270.5 -74q-69 0 -86 58q750 416 385 449l-104 -24
q-484 -257 -451 -599q55 -90 244 12q161 -347 -292 -147l-146 59l-99 10l-72 -22l-118 -52l-64 51q376 491 318 630.5t-241 2.5t-31 -487q-126 -163 -206 -54q17 459 224 630.5t368 73zM1380 -1495q125 307 830 2439l72 1q-537 -1706 -744 -2352q-75 -241 -146 -358
q-69 -147 -182 -212q-178 -135 -217 146l311 854q86 268 -18 435t-457 331q-484 170 -224 -247q-285 -120 -309 151q-26 386 466 210q524 -242 635 -463.5t15 -485.5l-204 -581l-24 -77q22 -142 196 209z" />
    <glyph glyph-name="_cmpjhasuku" horiz-adv-x="2906" 
d="M2284 1065q24 156 -70 163t-97.5 -66t167.5 -97zM2377 1056q404 100 174 -497l-731 -2236l-24 -77q1 -335 1048 2700l56 -12q-562 -1819 -836 -2468q-114 -308 -267 -468t-147 110l805 2476q127 350 -112 352q-128 -401 -293 -965q-169 -579 -498 -1678
q-159 -468 -325 -167q-503 951 -99 896q233 -32 332 73q91 180 -19 389q-104 167 -457 331q-484 170 -224 -247q-285 -120 -309 151q-26 386 466 210q524 -242 635 -463q72 -144 63 -250l-15 -110q-131 -238 -378 -298q-252 -61 -35.5 -385t394.5 245q234 824 380.5 1321
t292.5 955q-184 65 -221 108.5t-54.5 107t-6.5 106.5q17 73 63 94.5t134 24.5q45 -11 69.5 -22.5t73 -51.5t71.5 -157zM1652 0q228 745 18 648l-143 -94q-147 -36 -158 262q-246 -19 -129 -334q-132 -95 -185 57q-18 304 377 391q15 -233 109 -215q140 121 271 102t87 -202
t-155 -609h-3l-2 -6h-87z" />
    <glyph glyph-name="uniA998_uniA9B8" horiz-adv-x="2289" 
d="M772 892.5q161 -98.5 -224 -679.5l47 21l58 -3l55 -7l39 -16l56 -14q-11 587 571 713q86 24 151 13h70q208 -19 208 -89q0 -210 -339 -329l-43 -24q346 -81 422 -375q-5 -125 -75 -125h-35q-68 0 -130 191t-189.5 207t-270.5 -74q-69 0 -86 58q750 416 385 449l-104 -24
q-484 -257 -451 -599q55 -90 244 12q161 -347 -292 -147l-146 59l-99 10l-72 -22l-118 -52l-64 51q376 491 318 630.5t-241 2.5t-31 -487q-126 -163 -206 -54q17 459 224 630.5t368 73zM1386 -1512q125 307 830 2439l72 1q-537 -1706 -744 -2352q-75 -241 -146 -358
q-69 -147 -182 -212q-178 -135 -217 146l311 854q86 268 -18 435t-457 331q-484 170 -224 -247q-285 -120 -309 151q-26 386 466 210q524 -242 635 -463.5t15 -485.5l-204 -581l-24 -77q22 -142 196 209zM903 -1231q-68 6 -46 58q525 751 -133 584q-170 257 132 245
q598 -61 139 -841q-19 -44 -92 -46z" />
    <glyph glyph-name="uniA999_uniA9B8" horiz-adv-x="2800" 
d="M799 234q119 57 268.5 39t80.5 -273q-120 180 -488 94l-140 -51q-258 -126 -23 300q212 498 29 418q-305 -135 -110 -548q-181 -148 -236 41q6 429 350 657q104 38 157.5 29t65.5 -82t-147.5 -425t193.5 -199zM2312 1065q24 156 -70 163t-97.5 -66t167.5 -97zM2405 1056
q404 100 174 -497l-731 -2236l-24 -77q1 -335 1048 2700l56 -12q-562 -1819 -836 -2468q-114 -308 -267 -468t-147 110l805 2476q127 350 -112 352q-128 -401 -293 -965q-169 -579 -498 -1678q-159 -468 -325 -167q-503 951 -99 896q233 -32 332 73q91 180 -19 389
q-104 167 -457 331q-484 170 -224 -247q-285 -120 -309 151q-26 386 466 210q524 -242 635 -463q72 -144 63 -250l-15 -110q-131 -238 -378 -298q-252 -61 -35.5 -385t394.5 245q234 824 380.5 1321t292.5 955q-184 65 -221 108.5t-54.5 107t-6.5 106.5q17 73 63 94.5
t134 24.5q45 -11 69.5 -22.5t73 -51.5t71.5 -157zM1680 0q228 745 18 648l-143 -94q-147 -36 -158 262q-246 -19 -129 -334q-132 -95 -185 57q-18 304 377 391q15 -233 109 -215q140 121 271 102t87 -202t-155 -609h-3l-2 -6h-87z" />
    <glyph glyph-name="_cmpnyasuku" horiz-adv-x="3356" 
d="M2236 0l-185 1q242 376 238.5 598t-213.5 210q-172 -49 -295 -249.5t-132 -465.5l-178 -2q314 701 2 570l-143 -93q-147 -36 -158 259q-246 -19 -129 -331q-132 -94 -185 57q-18 301 377 387q15 -231 109 -213q140 120 271 101q101 -9 140 -150q569 509 649 26
q618 472 634 -38q-10 -273 -182 -662l-175 2q189 319 236.5 565.5t-191.5 228.5q-130 -22 -232.5 -178.5t-257.5 -622.5zM2452 -1501q125 307 830 2439l72 1q-537 -1706 -744 -2352q-75 -241 -146 -358q-69 -147 -182 -212q-178 -135 -217 146l311 854q86 268 -18 435
t-457 331q-484 170 -224 -247q-285 -120 -309 151q-26 386 466 210q524 -242 635 -463.5t15 -485.5l-204 -581l-24 -77q22 -142 196 209z" />
    <glyph glyph-name="uniA99A_uniA9B8" horiz-adv-x="3356" 
d="M2237 -6l-185 1q242 376 238.5 598t-213.5 210q-172 -49 -295 -249.5t-132 -465.5l-178 -2q314 701 2 570l-143 -93q-147 -36 -158 259q-246 -19 -129 -331q-132 -94 -185 57q-18 301 377 387q15 -231 109 -213q140 120 271 101q101 -9 140 -150q569 509 649 26
q618 472 634 -38q-10 -273 -182 -662l-175 2q189 319 236.5 565.5t-191.5 228.5q-130 -22 -232.5 -178.5t-257.5 -622.5zM2453 -1507q125 307 830 2439l72 1q-537 -1706 -744 -2352q-75 -241 -146 -358q-69 -147 -182 -212q-178 -135 -217 146l311 854q86 268 -18 435
t-457 331q-484 170 -224 -247q-285 -120 -309 151q-26 386 466 210q524 -242 635 -463.5t15 -485.5l-204 -581l-24 -77q22 -142 196 209zM799 234q119 57 268.5 39t80.5 -273q-120 180 -488 94l-140 -51q-258 -126 -23 300q212 498 29 418q-305 -135 -110 -548
q-181 -148 -236 41q6 429 350 657q104 38 157.5 29t65.5 -82t-147.5 -425t193.5 -199z" />
    <glyph glyph-name="uniA99B_uniA9B8" horiz-adv-x="2206" 
d="M979 335l-43 2l-39 -10l-39 -35l-29 -36l-28 -118q274 60 178 197zM717 130q46 222 136 280q50 30 88 52q96 31 142.5 -1t47.5 -140q-32 -101 -55.5 -134t-60.5 -60.5t-225 -88.5q1 -84 27 -161q38 -184 232 -143q-227 -364 -340 147l6 141l-100 -7q-385 -76 -151 378
q218 448 -26 340q-244 -107 -130 -512q-92 -115 -122 41q-27 421 317 649q104 38 157.5 29t65.5 -82t-147 -425q-150 -331 138 -303zM1394 921q15 -233 109 -215q140 121 271 102t105.5 -224.5t-181.5 -594.5l-215 6q438 757 149 644l-143 -94q-147 -36 -158 262
q-197 -51 -64 -285q-197 -144 -274 41q-43 262 401 358zM1310 -1509q125 307 830 2439l72 1q-482 -1689 -755 -2429q-64 -164 -135 -281q-69 -147 -182 -212q-178 -135 -217 146l311 854q86 268 -18 435t-457 331q-484 170 -224 -247q-285 -120 -309 151q-26 386 466 210
q524 -242 635 -463.5t15 -485.5l-204 -581l-24 -77q22 -142 196 209z" />
    <glyph glyph-name="uniA99C_uniA9B8" horiz-adv-x="2214" 
d="M1024 323l-54 19l-39 -10l-39 -35l-20 -46l22 -36q154 -29 130 108zM845 176q-96 140 8 234q50 30 116.5 30t109 -68t25.5 -135.5t-62 -86.5t-82 -32t-200 -42.5t-272 -55.5q-253 -103 -18 323q212 498 29 418q-305 -135 -191 -540q-92 -115 -122 41q-27 421 317 649
q104 38 157.5 29t65.5 -82t-147 -425q-150 -331 266 -257zM1399 927q15 -233 109 -215q140 121 271 102t105.5 -224.5t-181.5 -594.5l-215 6q438 757 149 644l-143 -94q-147 -36 -158 262q-197 -51 -64 -285q-197 -144 -274 41q-43 262 401 358zM1315 -1503
q125 307 830 2439l72 1q-482 -1689 -755 -2429q-64 -164 -135 -281q-69 -147 -182 -212q-178 -135 -217 146l311 854q86 268 -18 435t-457 331q-484 170 -224 -247q-285 -120 -309 151q-26 386 466 210q524 -242 635 -463.5t15 -485.5l-204 -581l-24 -77q22 -142 196 209z
" />
    <glyph glyph-name="uniA99D_uniA9B8" horiz-adv-x="2278" 
d="M1522 340q-43 -468 -412 -296l-68 47l-61 56l-46 42q-68 -258 -288 -156q-163 86 -76 432q101 263 0 279q-357 -206 -153 -489q-180 -230 -213 -76q-40 487 399 700q362 77 145 -302t3 -408q115 251 245 188l34 -25l83 -89l66 -77q60 -52 113.5 -50.5t90.5 59t27 201.5
q2 314 127 471q59 111 227 79.5t150 -470.5l-105 -454l-180 -2q149 310 170 524q-2 235 -89 246t-147 -71q-67 -184 -42 -359zM1374 -1507q125 307 830 2439l72 1q-537 -1706 -744 -2352q-75 -241 -146 -358q-69 -147 -182 -212q-178 -135 -217 146l311 854q86 268 -18 435
t-457 331q-484 170 -224 -247q-285 -120 -309 151q-26 386 466 210q524 -242 635 -463.5t15 -485.5l-204 -581l-24 -77q22 -142 196 209z" />
    <glyph glyph-name="uniA99E_uniA9B8" horiz-adv-x="2178" 
d="M1274 -1507q125 307 830 2439l72 1q-537 -1706 -744 -2352q-75 -241 -146 -358q-69 -147 -182 -212q-178 -135 -217 146l311 854q86 268 -18 435t-457 331q-484 170 -224 -247q-285 -120 -309 151q-26 386 466 210q524 -242 635 -463.5t15 -485.5l-204 -581l-24 -77
q22 -142 196 209zM1854.5 495.5q-54.5 -148.5 -214 -362t-394.5 -74.5l-80 47l-71 56l-53 42q-172 -258 -339 -156q-191 86 -90 432q119 263 0 279q-418 -206 -273 -606q-117 -113 -156 41q-34 415 468 667q325 72 120 -288t54 -389q136 251 288 188l40 -25l97 -89l77 -77
q72 -52 121.5 -48t139 73.5t146.5 204t15.5 246t-288.5 51.5q2 260 147 220q104 -21 177 -117q123 -167 68.5 -315.5z" />
    <glyph glyph-name="uniA99F_uniA9B8" horiz-adv-x="3361" 
d="M1556 506q-26 -44 -48 -87q-16 -32 -29 -63q-52 -122 -130 -354l-198 -3l176 337l44 90l40 92l15 62l9 48l-14 20l-9 41q-136 219 -505 -123q-151 -187 -230 -497l-240 2q244 341 272.5 486.5t-46 216.5t-255.5 -61q-167 -163 35 -449q-242 -178 -273 -24
q-28 415 377 667q138 67 223 -20q79 -45 101 -250q764 600 688 -2q212 349 593 315q163 -33 161 -266q208 304 565 272q188 -38 156.5 -341.5t-174.5 -610.5l-221 1q321 463 258.5 670.5t-289.5 122.5q-148 -38 -215 -143q-70 -76 -115 -218.5t-144 -427.5l-232 -5
q332 458 269.5 665.5t-289.5 122.5q-139 -36 -245 -164q-7 -8 -14 -17q-37 -53 -67 -105zM2457 -1506q125 307 830 2439l72 1q-537 -1706 -744 -2352q-75 -241 -146 -358q-69 -147 -182 -212q-178 -135 -217 146l311 854q86 268 -18 435t-457 331q-484 170 -224 -247
q-285 -120 -309 151q-26 386 466 210q524 -242 635 -463.5t15 -485.5l-204 -581l-24 -77q22 -142 196 209z" />
    <glyph glyph-name="uniA9A0_uniA9B8" horiz-adv-x="2767" 
d="M1747 553q6 304 -472 203q-471 -86 -260 -289q333 -139 189 -359q-134 -145 -576 -82q-278 42 -169.5 436t-104.5 287q-226 -179 38 -567q-132 -219 -212 19q-63 470 180 663q319 168 267 -153q-251 -508 -22 -564l228 -26q514 74 78 356l-26 45q-38 385 569 414
q263 -10 367 -217l112 107q271 208 439.5 10t-116.5 -829l-175 -7q503 963 -120 755l-75 -67l-33 -41l12 -120q-32 -244 -133 -509h-190q101 134 150 282.5t55 252.5zM1862 -1506q125 307 830 2439l72 1q-537 -1706 -744 -2352q-75 -241 -146 -358q-69 -147 -182 -212
q-178 -135 -217 146l311 854q86 268 -18 435t-457 331q-484 170 -224 -247q-285 -120 -309 151q-26 386 466 210q524 -242 635 -463.5t15 -485.5l-204 -581l-24 -77q22 -142 196 209z" />
    <glyph glyph-name="uniA9A1_uniA9B8" horiz-adv-x="2289" 
d="M1003 171q16 6 32 14q324 138 413 284t47 199q-16 105 -338 196q6 81 110 58q625 -107 647.5 -301t-158.5 -627l-187 2q385 591 104 745l-152 54q164 -113 81.5 -269.5t-198 -256.5t-351.5 -187q-6 -2 -13 -5q57 -126 163 -294q21 -55 -44 -62q-68 3 -86 49
q-81 153 -127 280q-182 -42 -363 0q-250 43 -111.5 297.5t147.5 325.5t-109 33q-321 -127 -112 -473q-180 -148 -219 1q-34 399 472 642q366 91 135 -205.5t-153 -460.5q62 -131 283 -69q-133 466 288 514q286 13 88 -220q-411 96 -289 -264zM1379 -1506q125 307 830 2439
l72 1q-537 -1706 -744 -2352q-75 -241 -146 -358q-69 -147 -182 -212q-178 -135 -217 146l311 854q86 268 -18 435t-457 331q-484 170 -224 -247q-285 -120 -309 151q-26 386 466 210q524 -242 635 -463.5t15 -485.5l-204 -581l-24 -77q22 -142 196 209z" />
    <glyph glyph-name="uniA9A2_uniA9B8" horiz-adv-x="2256" 
d="M1351 -1506q125 307 830 2439l72 1q-537 -1706 -744 -2352q-75 -241 -146 -358q-69 -147 -182 -212q-178 -135 -217 146l311 854q86 268 -18 435t-457 331q-484 170 -224 -247q-285 -120 -309 151q-26 386 466 210q524 -242 635 -463.5t15 -485.5l-204 -581l-24 -77
q22 -142 196 209zM1181 413l-37 -102l-9 -71q27 -182 104.5 -86t-58.5 259zM838 105q-242 -177 -341.5 -68t-60 273.5t130 337.5t-75.5 129q-442 -327 -109 -695q-149 -167 -219 36q-27 516 321 782q433 122 187 -384q-208 -430 74 -326q72 250 201.5 325t222.5 22
q262 417 470 396q254 8 265 -397q-19 -167 -160 -536h-191q270 433 211 615.5t-187 182.5q-152 39 -345 -292q154 -150 119 -339t-214 -155q-92 41 -92 220q24 139 72 209q-202 44 -279 -336z" />
    <glyph glyph-name="uniA9A3_uniA9B8" horiz-adv-x="2261" 
d="M1351 -1506q125 307 830 2439l72 1q-537 -1706 -744 -2352q-75 -241 -146 -358q-69 -147 -182 -212q-178 -135 -217 146l311 854q86 268 -18 435t-457 331q-484 170 -224 -247q-285 -120 -309 151q-26 386 466 210q524 -242 635 -463.5t15 -485.5l-204 -581l-24 -77
q22 -142 196 209zM1079 56l-66 47l-59 56l-44 42q-142 -258 -313 -178q-186 81 -41 454q65 274 -84 185q-262 -112 -58 -540q-181 -85 -213 69q-28 415 387 667q269 72 99.5 -288t44.5 -389q112 251 238 188l33 -25l80 -89l64 -77q59 -52 100 -48t98 69t121 204t30 250.5
t-343 190.5q-49 99 87 92q533 -24 641.5 -270.5t-144.5 -661.5l-159 2q363 567 28 755l-143 48q180 -101 138 -299.5t-185 -395.5t-337 -58z" />
    <glyph glyph-name="uniA9A4_uniA9B8" horiz-adv-x="2256" 
d="M1026 412l-39 -125l-9 -76q44 -115 97.5 5.5t-49.5 195.5zM636 622q-31 210 -195 101q-301 -227 -76 -571q-174 -136 -204 18q-28 415 391 739q119 51 191 -19q49 -96 8 -275q180 -32 245 -79q273 400 542 400q384 -18 373 -374q-14 -178 -148 -564h-182
q223 394 200 579.5t-198 235.5q-292 50 -517 -325q134 -100 118.5 -283.5t-176.5 -188.5q-133 19 -133 198q24 139 72 231q-114 40 -231 38q-34 -140 -160 -454l-175 56q280 385 255 537zM1351 -1506q125 307 830 2439l72 1q-537 -1706 -744 -2352q-75 -241 -146 -358
q-69 -147 -182 -212q-178 -135 -217 146l311 854q86 268 -18 435t-457 331q-484 170 -224 -247q-285 -120 -309 151q-26 386 466 210q524 -242 635 -463.5t15 -485.5l-204 -581l-24 -77q22 -142 196 209z" />
    <glyph glyph-name="uniA9A5_uniA9B8" horiz-adv-x="2256" 
d="M1052 99.5q528 -122.5 439.5 379.5t158.5 456q185 -19 240 -264t-154 -666l-164 -5q308 600 147 769t-131.5 -349.5t-582 -395.5t-483 398t67.5 328t-197 -59q-220 -254 44 -474q-170 -234 -249 37q-34 388 322 650q451 141 232.5 -270.5t309.5 -534zM1357 -1500
q125 307 830 2439l72 1q-537 -1706 -744 -2352q-75 -241 -146 -358q-69 -147 -182 -212q-178 -135 -217 146l311 854q86 268 -18 435t-457 331q-484 170 -224 -247q-285 -120 -309 151q-26 386 466 210q524 -242 635 -463.5t15 -485.5l-204 -581l-24 -77q22 -142 196 209z
" />
    <glyph glyph-name="uniA9A6_uniA9B8" horiz-adv-x="2339" 
d="M1483 454l74 -26l93 214q65 210 -105.5 94.5t-61.5 -282.5zM745 169q118 251 252 188l35 -25l84 -89l67 -77q132 -109 313 162q-224 118 -196 312q55 311 396 302q181 -82 14 -406l-76 -157l167 -98q253 -235 -100 -464l-54 62q213 179 -78 412q-203 -396 -457 -247
l-71 47l-62 56l-45 42q-151 -258 -297 -156q-165 86 -78 432q45 258 -140 146q-225 -156 7 -434q-208 -152 -241 2q-30 415 409 667q341 139 133.5 -254.5t17.5 -422.5zM1435 -1511q125 307 830 2439l72 1q-537 -1706 -744 -2352q-75 -241 -146 -358q-69 -147 -182 -212
q-178 -135 -217 146l311 854q86 268 -18 435t-457 331q-484 170 -224 -247q-285 -120 -309 151q-26 386 466 210q524 -242 635 -463.5t15 -485.5l-204 -581l-24 -77q22 -142 196 209z" />
    <glyph glyph-name="_cmpbasuku" horiz-adv-x="2794" 
d="M2317 570q36 246 -252 172q-149 -60 -261 -240.5t-180 -493.5l-193 -8q421 782 109 655l-143 -94q-147 -36 -158 262q-246 -19 -85 -311q-176 -118 -229 34q-18 304 377 391q15 -233 109 -215q140 121 271 102q62 -9 107 -123q597 477 654 -16q-12 -285 -134 -686l-190 3
q156 306 198 568zM1890 -1499q125 307 830 2439l72 1q-537 -1706 -744 -2352q-75 -241 -146 -358q-69 -147 -182 -212q-178 -135 -217 146l311 854q86 268 -18 435t-457 331q-484 170 -224 -247q-285 -120 -309 151q-26 386 466 210q524 -242 635 -463.5t15 -485.5
l-204 -581l-24 -77q22 -142 196 209z" />
    <glyph glyph-name="uniA9A8_uniA9B8" horiz-adv-x="2164" 
d="M856 451q-97 -100 -245 -224q106 11 208 -60q17 0 76 -21q65 0 172 201q27 51 56 101q-116 9 -267 3zM779 538q43 58 72 115q69 140 -142 162q-379 -33 -166 -177q-211 -108 -214 27v42q7 106 157 167.5t265 61.5q230 6 283 -144q17 -120 -104 -254q130 -3 240 -15
q38 82 93 182q131 251 401 240l40 -6q136 1 210 -135q-16 -180 -130 -170q-75 16 -75 59q36 28 36 62v28q-25 41 -73 69q-103 33 -255 -124q-75 -116 -137 -219q468 -78 460 -356q-1 -274 -210 -79q122 300 -300 363q-14 -20 -28 -42q-163 -297 -220 -352q-48 -21 -116 -43
l-90 16q-114 95 -226 79q-98 -16 -163 -59q-146 -110 -192 128q179 10 425 203q42 38 78 76q-111 -9 -236 -23q-53 0 -53 52q8 52 53 52q170 12 317 14zM1267 -1504q125 307 830 2439l72 1q-537 -1706 -744 -2352q-75 -241 -146 -358q-69 -147 -182 -212q-178 -135 -217 146
l311 854q86 268 -18 435t-457 331q-484 170 -224 -247q-285 -120 -309 151q-26 386 466 210q524 -242 635 -463.5t15 -485.5l-204 -581l-24 -77q22 -142 196 209z" />
    <glyph glyph-name="uniA9A7_uniA9B8" horiz-adv-x="2753" 
d="M799 234q119 57 268.5 39t80.5 -273q-120 180 -488 94l-140 -51q-258 -126 -23 300q212 498 29 418q-305 -135 -110 -548q-181 -148 -236 41q6 429 350 657q104 38 157.5 29t65.5 -82t-147.5 -425t193.5 -199zM2295 570q36 246 -252 172q-149 -60 -261 -240.5
t-180 -493.5l-193 -8q421 782 109 655l-143 -94q-147 -36 -158 262q-246 -19 -85 -311q-176 -118 -229 34q-18 304 377 391q15 -233 109 -215q140 121 271 102q62 -9 107 -123q597 477 654 -16q-12 -285 -134 -686l-190 3q156 306 198 568zM1868 -1499q125 307 830 2439
l72 1q-537 -1706 -744 -2352q-75 -241 -146 -358q-69 -147 -182 -212q-178 -135 -217 146l311 854q86 268 -18 435t-457 331q-484 170 -224 -247q-285 -120 -309 151q-26 386 466 210q524 -242 635 -463.5t15 -485.5l-204 -581l-24 -77q22 -142 196 209z" />
    <glyph glyph-name="uniA9A9_uniA9B8" horiz-adv-x="2261" 
d="M1654 617q-548 -592 -957 -498q-317 116 37 253t48 290q-95 58 -245 19q-328 -206 -136 -606q-170 -113 -200 41q-27 415 367 667q4 1 7 1q213 138 502 163q188 15 109 -189q-291 134 -343 40q-30 -156 258 -196q118 -178 -320 -287q66 -373 918 469q179 99 219 -93
q27 -186 -187 -667l8 1q-5 -14 -9 -27l-169 -3q364 703 93 622zM1351 -1498q125 307 830 2439l72 1q-537 -1706 -744 -2352q-75 -241 -146 -358q-69 -147 -182 -212q-178 -135 -217 146l311 854q86 268 -18 435t-457 331q-484 170 -224 -247q-285 -120 -309 151
q-26 386 466 210q524 -242 635 -463.5t15 -485.5l-204 -581l-24 -77q22 -142 196 209z" />
    <glyph glyph-name="uniA9AA_uniA9B8" horiz-adv-x="2744" 
d="M652 651q-469 -583 130 -481q303 100 624 719q400 159 288 -196q-303 -541 -58.5 -595t435.5 492t343 220q74 -206 -162 -811l-164 1q270 536 223.5 662.5t-119.5 4.5q-176 -631 -495 -665q-451 -31 -293 281q348 549 31 501q-370 -640 -644 -768q-427 -83 -410 261
q35 208 108 312q98 200 -100 84q-204 -156 -52 -502q-153 -142 -182 13q-25 417 347 670q140 75 219.5 31t-69.5 -234zM1840 -1503q125 307 830 2439l72 1q-537 -1706 -744 -2352q-75 -241 -146 -358q-69 -147 -182 -212q-178 -135 -217 146l311 854q86 268 -18 435
t-457 331q-484 170 -224 -247q-285 -120 -309 151q-26 386 466 210q524 -242 635 -463.5t15 -485.5l-204 -581l-24 -77q22 -142 196 209z" />
    <glyph glyph-name="uniA9AB_uniA9B8" horiz-adv-x="2233" 
d="M935 726q959 435 981 -46q-26 -327 -180 -672l-187 -9q200 430 215 654t-395.5 150.5t-689.5 -768.5l-190 37q296 387 297 522t-71 175l-7 -3q-25 48 -152 19q-438 -206 -225 -556q-184 -163 -224 -9q-36 415 463 667q197 87 297 -1q52 -46 68 -160zM1328 -1498
q125 307 830 2439l72 1q-537 -1706 -744 -2352q-75 -241 -146 -358q-69 -147 -182 -212q-178 -135 -217 146l311 854q86 268 -18 435t-457 331q-484 170 -224 -247q-285 -120 -309 151q-26 386 466 210q524 -242 635 -463.5t15 -485.5l-204 -581l-24 -77q22 -142 196 209z
" />
    <glyph glyph-name="uniA9AC_uniA9B8" horiz-adv-x="3672" 
d="M2958 1055q22 156 -64.5 163t-89.5 -66t154 -97zM2479 567q88 254 -172 207q-170 -31 -361 -317q-102 -152 -210 -411l-188 15q308 386 295 590q-2 19 -5 37q-38 206 -256 49t-441 -662l-150 11l185 342l58 124l8 64l-11 52l-29 62q-373 194 -669 -665l-144 58
q131 282 156 430q10 54 4 90q-10 64 -43 132l-5 -3q-17 48 -104 19q-301 -206 -113 -583q-168 -136 -195 18q-25 415 336 667q111 48 178 -12q86 -58 91 -239q585 585 651 18q193 284 375 275q225 41 254 -170l14 -79q625 486 664 43q-21 -109 -60 -217l-29 -100
q-65 -141 -18.5 -228t215.5 228l170 522q-168 65 -202 108.5t-50 107t-6 106.5q15 73 57.5 94.5t122.5 24.5q42 -11 64.5 -22.5t66.5 -51.5t66 -157l-14 -82q501 37 416 -430q-60 -252 -190 -19q231 433 -243 334q-180 -639 -304 -818t-223.5 -130t-115 150.5t19 189.5
t84.5 228zM2773 -1509q125 307 830 2439l72 1q-537 -1706 -744 -2352q-75 -241 -146 -358q-69 -147 -182 -212q-178 -135 -217 146l311 854q86 268 -18 435t-457 331q-484 170 -224 -247q-285 -120 -309 151q-26 386 466 210q524 -242 635 -463.5t15 -485.5l-204 -581
l-24 -77q22 -142 196 209z" />
    <glyph glyph-name="uniA9AD_uniA9B8" horiz-adv-x="2756" 
d="M914 606q282 337 593 334.5t27 -463.5q-169 -379 101 -370.5t383 312.5l101 369q63 211 210.5 111.5t74.5 -491.5l-146 -401l-186 -5l182 393q104 286 23 307t-136 -165q-68 -504 -507 -533.5t-358.5 208.5t166.5 416.5t-35 182.5q-369 -1 -772 -816
q-287 11 -104.5 208.5t209.5 317.5t-14.5 182.5t-86 81t-151.5 -21.5q-321 -160 -96 -510q-201 -163 -233 -9q30 433 209 560.5t336.5 78.5t209.5 -277zM1851 -1493q125 307 830 2439l72 1q-537 -1706 -744 -2352q-75 -241 -146 -358q-69 -147 -182 -212q-178 -135 -217 146
l311 854q86 268 -18 435t-457 331q-484 170 -224 -247q-285 -120 -309 151q-26 386 466 210q524 -242 635 -463.5t15 -485.5l-204 -581l-24 -77q22 -142 196 209z" />
    <glyph glyph-name="uniA9AE_uniA9B8" horiz-adv-x="2250" 
d="M1495 668q-16 105 -338 196q6 81 110 58q625 -107 647.5 -301t-158.5 -627l-187 2q385 591 104 745l-152 54q164 -113 81.5 -269.5t-198 -256.5t-351.5 -187t-470 -32q-250 43 -111.5 297.5t147.5 325.5t-109 33q-321 -127 -112 -473q-180 -148 -219 1q-34 399 472 642
q366 91 135 -205.5t-153 -460.5t402 -25.5t413 284.5t47 199zM1356 -1504q125 307 830 2439l72 1q-537 -1706 -744 -2352q-75 -241 -146 -358q-69 -147 -182 -212q-178 -135 -217 146l311 854q86 268 -18 435t-457 331q-484 170 -224 -247q-285 -120 -309 151
q-26 386 466 210q524 -242 635 -463.5t15 -485.5l-204 -581l-24 -77q22 -142 196 209z" />
    <glyph glyph-name="uniA9AF_uniA9B8" horiz-adv-x="2725" 
d="M2099 127q-164 0 -392 -36q-53 0 -53 52q8 52 53 52q255 24 445 13q188 299 138 456q-67 207 -306 122q-157 -38 -274 -181q-97 -133 -152 -255t-137 -354l-210 8l186 326l47 90l43 60l22 83l5 11v63l-27 46q-144 219 -533 -123q-160 -187 -243 -497l-254 2
q258 341 288 486.5t-48.5 216.5t-269.5 -61q-177 -163 37 -449q-256 -178 -289 -24q-29 415 398 667q146 67 236 -20q83 -45 107 -250q807 600 726 -2q224 349 627 315q198 -38 165 -341q-23 -211 -102 -417q54 -10 101 -25q118 354 259 780l72 1q-139 -441 -255 -810
q200 -94 204 -297q-1 -262 -232 -84q72 177 -7 270q-308 -977 -454 -1431q-75 -241 -146 -358q-69 -147 -182 -212q-178 -135 -217 146l311 854q86 268 -18 435t-457 331q-484 170 -224 -247q-285 -120 -309 151q-26 386 466 210q524 -242 635 -463.5t15 -485.5l-204 -581
l-24 -77q22 -142 196 209q97 238 542 1572q-43 22 -104 35q-23 -53 -50 -106l-245 -5q51 67 94 129z" />
    <glyph glyph-name="uniA9B0_uniA9B8" horiz-adv-x="2208" 
d="M1698 275q-54 3 -117 1q-57 -356 -575 -252q-612 123 -483.5 398t67.5 328t-197 -59q-220 -254 44 -474q-170 -234 -249 37q-34 388 322 650q451 141 232.5 -270.5t309.5 -533.5q400 -93 446 172q-118 -9 -261 -31q-53 0 -53 52q8 52 53 52q144 14 267 16q-1 54 -12 118
q-89 502 158 456q185 -19 240 -264q31 -139 -23 -336q57 -11 106 -27q97 291 208 628l72 1q-111 -352 -207 -659q193 -93 197 -293q-1 -262 -232 -84q69 170 -1 263q-345 -1092 -501 -1579q-75 -241 -146 -358q-69 -147 -182 -212q-178 -135 -217 146l311 854
q86 268 -18 435t-457 331q-484 170 -224 -247q-285 -120 -309 151q-26 386 466 210q524 -242 635 -463.5t15 -485.5l-204 -581l-24 -77q22 -142 196 209q102 251 592 1723q-41 23 -100 36q-40 -116 -107 -251l-164 -5q78 151 126 275zM1589 361q72 -1 137 -7q100 303 -7 415
q-161 169 -131 -349q1 -31 1 -59z" />
    <glyph glyph-name="uniA9B1_uniA9B8" horiz-adv-x="2214" 
d="M650 373l-43 15l-31 -2l-33 -17q-96 -109 -55.5 -165.5t162.5 169.5zM770 405q518 -544 789 386q102 187 264.5 135t31.5 -595l-109 -331l-184 -3q155 273 234 526q71 203 -49.5 221.5t-217.5 -247.5q-366 -838 -809 -185l-149 -214q-193 -226 -209 46q10 165 126.5 254
t210.5 61q101 295 -30.5 331t-239.5 -60q-234 -133 -71 -466q-145 -180 -203 -26q10 415 239.5 570t422 85.5t-46.5 -488.5zM1351 -1503q125 307 830 2439l72 1q-537 -1706 -744 -2352q-75 -241 -146 -358q-69 -147 -182 -212q-178 -135 -217 146l311 854q86 268 -18 435
t-457 331q-484 170 -224 -247q-285 -120 -309 151q-26 386 466 210q524 -242 635 -463.5t15 -485.5l-204 -581l-24 -77q22 -142 196 209z" />
    <glyph glyph-name="uniA9B2_uniA9B8" horiz-adv-x="2750" 
d="M1845 -1503q125 307 830 2439l72 1q-537 -1706 -744 -2352q-75 -241 -146 -358q-69 -147 -182 -212q-178 -135 -217 146l311 854q86 268 -18 435t-457 331q-484 170 -224 -247q-285 -120 -309 151q-26 386 466 210q524 -242 635 -463.5t15 -485.5l-204 -581l-24 -77
q22 -142 196 209zM2006 811q43 95 214 120q262 38 226 -286q-49 -287 -178 -640l-156 -10q200 439 212 602t-91.5 218t-180.5 -112t-199 -701l-177 -1q289 625 113.5 754t-180 -365t-569.5 -363.5t-463.5 328.5t112 322t-218.5 6q-199 -182 -43 -422q-168 -190 -205 -37
q-33 410 447 660q442 111 166.5 -278.5t233.5 -495t454.5 370.5t300.5 451q112 -34 134 -185z" />
    <glyph glyph-name="_cmpakarasukud" horiz-adv-x="2641" 
d="M2226 678q27 101 54 224q258 140 308 -184q57 -136 -127 -710l-165 -16q353 840 45 800q-19 -92 -39 -173q55 -46 113 -103q31 -24 6 -69q-31 -40 -68 -12q-40 47 -78 86q-150 -534 -344 -444q-545 394 -731.5 287.5t-137.5 18.5q45 96 201 162q266 146 643 -304
q149 -140 296 352q-323 292 -407 -75q-287 -31 -163 149q222 279 594 11zM2124 -1127q21 80 12 114t-45 46l-231 -629l-24 -80q1 -214 288 549zM2107 -867l17 -5l-1 -3q57 -35 93 -94.5t1 -194.5q2 -4 -113 -286q-114 -317 -267 -482t-186 142l334 865q-53 33 -185 -38
t-221 -4.5t-8 279.5q34 110 113 195l72 -50q88 -28 133 -44q44 -4 83 -8q-13 33 -31 61q-104 162 -457 322q-484 165 -224 -240q-285 -117 -309 146q-26 376 466 205q524 -236 635 -450q14 -28 25 -56q10 -1 19 -2l75 7l86 -5q415 0 412 146q-19 79 -76 87t-127 -122
q-188 127 22 248q173 24 235 -51q99 -78 41 -193q-132 -197 -592 -253l-62 -3q5 -58 -3 -119zM2003 -738q-68 12 -99 21q-46 13 -98 32t-95 54q-40 -76 -30 -140.5t107 -68.5q17 3 34 4q108 12 180 -3q4 53 1 101z" />
    <glyph glyph-name="uniA98F_uniA9B9" horiz-adv-x="2440" 
d="M1921 -1121q21 80 12 113.5t-45 45.5l-231 -625l-24 -79q1 -213 288 545zM1904 -863l17 -5l-1 -3q57 -34 93 -93t1 -193q2 -4 -113 -284q-114 -316 -267 -479.5t-186 141.5l334 859q-53 33 -185 -37.5t-221 -5t-8 278.5q34 109 113 193l72 -49q88 -28 133 -45
q44 -4 83 -8q-13 33 -31 61q-104 162 -457 320q-484 164 -224 -239q-285 -115 -309 146q-26 373 466 203q524 -234 635 -447q14 -27 25 -55q10 -1 19 -2l75 7l86 -5q415 0 412 145q-19 78 -76 86t-127 -121q-188 126 22 246q173 24 235 -50q99 -78 41 -192
q-132 -195 -592 -251l-62 -3q5 -58 -3 -119zM1800 -734q-68 11 -99 21q-46 12 -98 31t-95 54q-40 -76 -30 -140t107 -68q17 3 34 4q108 13 180 -3q4 53 1 101zM1137 405l-42 -102l-10 -71q36 -96 120 -26.5t-68 199.5zM1718 515.5q-74 -181.5 -121 -496.5l-228 -17
q226 376 198.5 536.5t-106.5 164.5t-138.5 -48t-128.5 -158q137 -104 98 -291.5t-211 -161.5q-100 56 -91 153.5t81 240.5q-132 79 -259 48q-73 -226 -326 -463q-138 51 -80 156q276 317 270.5 453.5t-98.5 111.5q-367 -206 -239 -605q-103 -113 -137 41q-30 414 410 666
q133 72 195 -21q37 -61 25 -185q214 -48 298 -101q74 131 161 215t212 71.5t155 -196.5q169 307 460 316q299 -27 309 -350q-10 -210 -141 -588l-220 -11q273 424 222 586t-164 213t-222.5 -23.5t-183.5 -256z" />
    <glyph glyph-name="uniA984_uniA9B9" horiz-adv-x="2809" 
d="M1500 2117q407 -34 475 -387q11 8 -7 -95.5t-159 -289.5l-82 -82q-109 -48 -96 43q125 256 132 386q27 -13 -48 148t-286 145l-142 -36q-332 -160 -658 -707q-286 -470 -308 -665l-3 -161q22 -174 201 -266q289 -41 305 143q8 106 -124 77l-11 71q56 52 135 199l18 57
q-5 78 -86 47t-94 -216l-76 21q-4 229 104 314.5t215 73.5q123 -32 105 -182q18 -59 -189 -270q196 -72 180 -164q-45 -166 -372 -324l-138 1q-207 29 -291 210l-20 100q0 338 183 677q152 299 341 540q273 470 796 592zM2423 678q27 101 54 224q258 140 308 -184
q57 -136 -127 -710l-165 -16q353 840 45 800q-19 -92 -39 -173q55 -46 113 -103q31 -24 6 -69q-31 -40 -68 -12q-40 47 -78 86q-150 -534 -344 -444q-545 394 -731.5 287.5t-137.5 18.5q45 96 201 162q266 146 643 -304q149 -140 296 352q-323 292 -407 -75
q-287 -31 -163 149q222 279 594 11zM2321 -1127q21 80 12 114t-45 46l-231 -629l-24 -80q1 -214 288 549zM2304 -867l17 -5l-1 -3q57 -35 93 -94.5t1 -194.5q2 -4 -113 -286q-114 -317 -267 -482t-186 142l334 865q-53 33 -185 -38t-221 -4.5t-8 279.5q34 110 113 195
l72 -50q88 -28 133 -44q44 -4 83 -8q-13 33 -31 61q-104 162 -457 322q-484 165 -224 -240q-285 -117 -309 146q-26 376 466 205q524 -236 635 -450q14 -28 25 -56q10 -1 19 -2l75 7l86 -5q415 0 412 146q-19 79 -76 87t-127 -122q-188 127 22 248q173 24 235 -51
q99 -78 41 -193q-132 -197 -592 -253l-62 -3q5 -58 -3 -119zM2200 -738q-68 12 -99 21q-46 13 -98 32t-95 54q-40 -76 -30 -140.5t107 -68.5q17 3 34 4q108 12 180 -3q4 53 1 101z" />
    <glyph glyph-name="uniA990_uniA9B9" horiz-adv-x="2440" 
d="M1929 -1121q21 80 12 113.5t-45 45.5l-231 -625l-24 -79q1 -213 288 545zM1912 -863l17 -5l-1 -3q57 -34 93 -93t1 -193q2 -4 -113 -284q-114 -316 -267 -479.5t-186 141.5l334 859q-53 33 -185 -37.5t-221 -5t-8 278.5q34 109 113 193l72 -49q88 -28 133 -45
q44 -4 83 -8q-13 33 -31 61q-104 162 -457 320q-484 164 -224 -239q-285 -115 -309 146q-26 373 466 203q524 -234 635 -447q14 -27 25 -55q10 -1 19 -2l75 7l86 -5q415 0 412 145q-19 78 -76 86t-127 -121q-188 126 22 246q173 24 235 -50q99 -78 41 -192
q-132 -195 -592 -251l-62 -3q5 -58 -3 -119zM1808 -734q-68 11 -99 21q-46 12 -98 31t-95 54q-40 -76 -30 -140t107 -68q17 3 34 4q108 13 180 -3q4 53 1 101zM1145 405l-42 -102l-10 -71q36 -96 120 -26.5t-68 199.5zM1726 515.5q-74 -181.5 -121 -496.5l-228 -17
q226 376 198.5 536.5t-106.5 164.5t-138.5 -48t-128.5 -158q137 -104 98 -291.5t-211 -161.5q-100 56 -91 153.5t81 240.5q-132 79 -259 48q-73 -226 -326 -463q-138 51 -80 156q276 317 270.5 453.5t-98.5 111.5q-367 -206 -239 -605q-103 -113 -137 41q-30 414 410 666
q133 72 195 -21q37 -61 25 -185q214 -48 298 -101q74 131 161 215t212 71.5t155 -196.5q169 307 460 316q299 -27 309 -350q-10 -210 -141 -588l-220 -11q273 424 222 586t-164 213t-222.5 -23.5t-183.5 -256zM889 -1430q-68 6 -46 58q525 751 -133 584q-170 257 132 245
q598 -61 139 -841q-19 -44 -92 -46z" />
    <glyph glyph-name="uniA991_uniA9B9" horiz-adv-x="2395" 
d="M1921 -1121q21 80 12 113.5t-45 45.5l-231 -625l-24 -79q1 -213 288 545zM1904 -863l17 -5l-1 -3q57 -34 93 -93t1 -193q2 -4 -113 -284q-114 -316 -267 -479.5t-186 141.5l334 859q-53 33 -185 -37.5t-221 -5t-8 278.5q34 109 113 193l72 -49q88 -28 133 -45
q44 -4 83 -8q-13 33 -31 61q-104 162 -457 320q-484 164 -224 -239q-285 -115 -309 146q-26 373 466 203q524 -234 635 -447q14 -27 25 -55q10 -1 19 -2l75 7l86 -5q415 0 412 145q-19 78 -76 86t-127 -121q-188 126 22 246q173 24 235 -50q99 -78 41 -192
q-132 -195 -592 -251l-62 -3q5 -58 -3 -119zM1800 -734q-68 11 -99 21q-46 12 -98 31t-95 54q-40 -76 -30 -140t107 -68q17 3 34 4q108 13 180 -3q4 53 1 101zM989 367l-37 -86l-9 -60q48 -154 115 -59t-69 205zM605 727q-25 33 -108 8q-328 -206 -214 -606
q-92 -113 -122 41q-27 415 367 667q111 81 184 19q80 -36 29 -233q175 -40 250 -93q256 406 520 406q376 -18 376 -341q-23 -202 -176 -509q80 -248 138 -7q72 546 272 674q259 71 225 -170q-372 -38 -413 -506.5t-278 -190.5q-143 175 -103 288q98 226 136.5 407.5
t-133.5 231.5q-314 6 -507 -325q132 -100 116.5 -283.5t-172.5 -188.5q-131 19 -131 198q24 139 60 207q-101 87 -227 64q-127 -357 -258 -464q-145 43 -93 148q325 473 262 558z" />
    <glyph glyph-name="uniA992_uniA9B9" horiz-adv-x="2428" 
d="M1921 -1121q21 80 12 113.5t-45 45.5l-231 -625l-24 -79q1 -213 288 545zM1904 -863l17 -5l-1 -3q57 -34 93 -93t1 -193q2 -4 -113 -284q-114 -316 -267 -479.5t-186 141.5l334 859q-53 33 -185 -37.5t-221 -5t-8 278.5q34 109 113 193l72 -49q88 -28 133 -45
q44 -4 83 -8q-13 33 -31 61q-104 162 -457 320q-484 164 -224 -239q-285 -115 -309 146q-26 373 466 203q524 -234 635 -447q14 -27 25 -55q10 -1 19 -2l75 7l86 -5q415 0 412 145q-19 78 -76 86t-127 -121q-188 126 22 246q173 24 235 -50q99 -78 41 -192
q-132 -195 -592 -251l-62 -3q5 -58 -3 -119zM1800 -734q-68 11 -99 21q-46 12 -98 31t-95 54q-40 -76 -30 -140t107 -68q17 3 34 4q108 13 180 -3q4 53 1 101zM1421 -4l-210 8l186 324l47 89l43 59l22 83l5 11v62l-27 46q-144 217 -533 -122q-160 -186 -243 -493l-254 1
q258 339 288 483.5t-48.5 215t-269.5 -60.5q-177 -162 37 -446q-256 -177 -289 -24q-29 412 398 662q146 67 236 -20q83 -44 107 -248q807 596 726 -2q224 347 627 313q198 -38 165 -339t-184 -595l-245 -5q351 455 284.5 661t-305.5 121q-157 -38 -274 -179
q-97 -133 -152 -254t-137 -351z" />
    <glyph glyph-name="uniA993_uniA9B9" horiz-adv-x="2440" 
d="M1921 -1121q21 80 12 113.5t-45 45.5l-231 -625l-24 -79q1 -213 288 545zM1904 -863l17 -5l-1 -3q57 -34 93 -93t1 -193q2 -4 -113 -284q-114 -316 -267 -479.5t-186 141.5l334 859q-53 33 -185 -37.5t-221 -5t-8 278.5q34 109 113 193l72 -49q88 -28 133 -45
q44 -4 83 -8q-13 33 -31 61q-104 162 -457 320q-484 164 -224 -239q-285 -115 -309 146q-26 373 466 203q524 -234 635 -447q14 -27 25 -55q10 -1 19 -2l75 7l86 -5q415 0 412 145q-19 78 -76 86t-127 -121q-188 126 22 246q173 24 235 -50q99 -78 41 -192
q-132 -195 -592 -251l-62 -3q5 -58 -3 -119zM1800 -734q-68 11 -99 21q-46 12 -98 31t-95 54q-40 -76 -30 -140t107 -68q17 3 34 4q108 13 180 -3q4 53 1 101zM2050 463q-21 238 -162 352l-57 56q2 80 79 48q539 -163 529 -444q-44 -324 -134 -476l-151 1q358 700 -156 805
q148 -186 140 -364q-54 -432 -264 -418l-62 4l-55 45l-55 40l-43 47l-26 42l-18 37q-233 -293 -394 -222q-120 44 54 394q248 451 -87 366l-153 -89q-301 -176 -301 -646l-180 31q35 225 111 349l51 162q29 285 -202 234q-389 -124 -88 -559q-126 -236 -229 -34l-20 110
q-12 579 463 585q218 -39 197 -287q268 241 505 259q209 11 214 -111t-190 -451l-52 -114l4 -46q48 -70 224 164q130 190 268 -85l34 -40q114 -106 206 255z" />
    <glyph glyph-name="_cmpngasukud" horiz-adv-x="1939" 
d="M1420 -1121q21 80 12 113.5t-45 45.5l-231 -625l-24 -79q1 -213 288 545zM1403 -863l17 -5l-1 -3q57 -34 93 -93t1 -193q2 -4 -113 -284q-114 -316 -267 -479.5t-186 141.5l334 859q-53 33 -185 -37.5t-221 -5t-8 278.5q34 109 113 193l72 -49q88 -28 133 -45
q44 -4 83 -8q-13 33 -31 61q-104 162 -457 320q-484 164 -224 -239q-285 -115 -309 146q-26 373 466 203q524 -234 635 -447q14 -27 25 -55q10 -1 19 -2l75 7l86 -5q415 0 412 145q-19 78 -76 86t-127 -121q-188 126 22 246q173 24 235 -50q99 -78 41 -192
q-132 -195 -592 -251l-62 -3q5 -58 -3 -119zM1299 -734q-68 11 -99 21q-46 12 -98 31t-95 54q-40 -76 -30 -140t107 -68q17 3 34 4q108 13 180 -3q4 53 1 101zM1432 930q15 -233 109 -215q140 121 271 102t105.5 -224.5t-181.5 -594.5l-215 6q438 757 149 644l-143 -94
q-147 -36 -158 262q-197 -51 -64 -285q-197 -144 -274 41q-43 262 401 358z" />
    <glyph glyph-name="uniA994_uniA9B9" horiz-adv-x="1927" 
d="M1427 -1121q21 80 12 113.5t-45 45.5l-231 -625l-24 -79q1 -213 288 545zM1410 -863l17 -5l-1 -3q57 -34 93 -93t1 -193q2 -4 -113 -284q-114 -316 -267 -479.5t-186 141.5l334 859q-53 33 -185 -37.5t-221 -5t-8 278.5q34 109 113 193l72 -49q88 -28 133 -45
q44 -4 83 -8q-13 33 -31 61q-104 162 -457 320q-484 164 -224 -239q-285 -115 -309 146q-26 373 466 203q524 -234 635 -447q14 -27 25 -55q10 -1 19 -2l75 7l86 -5q415 0 412 145q-19 78 -76 86t-127 -121q-188 126 22 246q173 24 235 -50q99 -78 41 -192
q-132 -195 -592 -251l-62 -3q5 -58 -3 -119zM1306 -734q-68 11 -99 21q-46 12 -98 31t-95 54q-40 -76 -30 -140t107 -68q17 3 34 4q108 13 180 -3q4 53 1 101zM1439 930q15 -233 109 -215q140 121 271 102t105.5 -224.5t-181.5 -594.5l-215 6q438 757 149 644l-143 -94
q-147 -36 -158 262q-197 -51 -64 -285q-197 -144 -274 41q-43 262 401 358zM778 234q119 57 268.5 39t80.5 -273q-120 180 -488 94l-140 -51q-258 -126 -23 300q212 498 29 418q-305 -135 -110 -548q-181 -148 -236 41q6 429 350 657q104 38 157.5 29t65.5 -82t-147.5 -425
t193.5 -199z" />
    <glyph glyph-name="uniA995_uniA9B9" horiz-adv-x="1927" 
d="M1420 -1121q21 80 12 113.5t-45 45.5l-231 -625l-24 -79q1 -213 288 545zM1403 -863l17 -5l-1 -3q57 -34 93 -93t1 -193q2 -4 -113 -284q-114 -316 -267 -479.5t-186 141.5l334 859q-53 33 -185 -37.5t-221 -5t-8 278.5q34 109 113 193l72 -49q88 -28 133 -45
q44 -4 83 -8q-13 33 -31 61q-104 162 -457 320q-484 164 -224 -239q-285 -115 -309 146q-26 373 466 203q524 -234 635 -447q14 -27 25 -55q10 -1 19 -2l75 7l86 -5q415 0 412 145q-19 78 -76 86t-127 -121q-188 126 22 246q173 24 235 -50q99 -78 41 -192
q-132 -195 -592 -251l-62 -3q5 -58 -3 -119zM1299 -734q-68 11 -99 21q-46 12 -98 31t-95 54q-40 -76 -30 -140t107 -68q17 3 34 4q108 13 180 -3q4 53 1 101zM663 378l-44 15l-32 -2l-33 -17q-100 -109 -58.5 -165.5t167.5 169.5zM1566 425q-376 -761 -830 -108l-154 -214
q-198 -226 -215 46q11 165 130.5 254t216.5 61q148 278 -9 322.5t-269 -51.5q-242 -133 -141 -533q-80 -113 -107 41q-23 415 213 570t433.5 85.5t-48.5 -488.5q444 -453 704 57q53 135 7 197q-15 103 -235 207q11 91 134 52q507 -115 525 -355t-157 -563l-173 1
q422 552 43 754l-111 33q136 -103 43 -368z" />
    <glyph glyph-name="uniA996_uniA9B9" horiz-adv-x="2440" 
d="M1921 -1121q21 80 12 113.5t-45 45.5l-231 -625l-24 -79q1 -213 288 545zM1904 -863l17 -5l-1 -3q57 -34 93 -93t1 -193q2 -4 -113 -284q-114 -316 -267 -479.5t-186 141.5l334 859q-53 33 -185 -37.5t-221 -5t-8 278.5q34 109 113 193l72 -49q88 -28 133 -45
q44 -4 83 -8q-13 33 -31 61q-104 162 -457 320q-484 164 -224 -239q-285 -115 -309 146q-26 373 466 203q524 -234 635 -447q14 -27 25 -55q10 -1 19 -2l75 7l86 -5q415 0 412 145q-19 78 -76 86t-127 -121q-188 126 22 246q173 24 235 -50q99 -78 41 -192
q-132 -195 -592 -251l-62 -3q5 -58 -3 -119zM1800 -734q-68 11 -99 21q-46 12 -98 31t-95 54q-40 -76 -30 -140t107 -68q17 3 34 4q108 13 180 -3q4 53 1 101zM1181 378l-44 15l-31 -2l-33 -17q-98 -109 -57.5 -165.5t165.5 169.5zM1324 393q415 -436 671 124
q46 130 -28.5 206.5t-239.5 136.5q-23 91 93 63q560 -88 605 -349.5t-138 -574.5l-164 8q325 507 75 730l-186 79q139 -131 58 -346q-370 -806 -807 -158l-130 -192q-227 -243 -244 29q11 165 128.5 254t213.5 61q45 75 78 171q68 164 -160 163q-373 -105 -548 -791
q-263 -18 -115.5 185.5t173.5 278t14 157t-80 123.5t-209 -48q-224 -261 -11 -451q-185 -179 -216 -25q29 433 200.5 560.5t282.5 78.5t144 -196q264 261 519.5 249.5t196 -173t-175.5 -353.5z" />
    <glyph glyph-name="uniA997_uniA9B9" horiz-adv-x="1963" 
d="M1420 -1121q21 80 12 113.5t-45 45.5l-231 -625l-24 -79q1 -213 288 545zM1403 -863l17 -5l-1 -3q57 -34 93 -93t1 -193q2 -4 -113 -284q-114 -316 -267 -479.5t-186 141.5l334 859q-53 33 -185 -37.5t-221 -5t-8 278.5q34 109 113 193l72 -49q88 -28 133 -45
q44 -4 83 -8q-13 33 -31 61q-104 162 -457 320q-484 164 -224 -239q-285 -115 -309 146q-26 373 466 203q524 -234 635 -447q14 -27 25 -55q10 -1 19 -2l75 7l86 -5q415 0 412 145q-19 78 -76 86t-127 -121q-188 126 22 246q173 24 235 -50q99 -78 41 -192
q-132 -195 -592 -251l-62 -3q5 -58 -3 -119zM1299 -734q-68 11 -99 21q-46 12 -98 31t-95 54q-40 -76 -30 -140t107 -68q17 3 34 4q108 13 180 -3q4 53 1 101zM766 909.5q161 -98.5 -224 -679.5l47 21l58 -3l55 -7l39 -16l56 -14q-11 587 571 713q86 24 151 13h70
q208 -19 208 -89q0 -210 -339 -329l-43 -24q346 -81 422 -375q-5 -125 -75 -125h-35q-68 0 -130 191t-189.5 207t-270.5 -74q-69 0 -86 58q750 416 385 449l-104 -24q-484 -257 -451 -599q55 -90 244 12q161 -347 -292 -147l-146 59l-99 10l-72 -22l-118 -52l-64 51
q376 491 318 630.5t-241 2.5t-31 -487q-126 -163 -206 -54q17 459 224 630.5t368 73z" />
    <glyph glyph-name="_cmpjhasukud" horiz-adv-x="2905" 
d="M2375 -882q21 80 12 113.5t-45 45.5l-231 -625l-24 -79q1 -213 288 545zM2284 1065q24 156 -70 163t-97.5 -66t167.5 -97zM2254 -495q-68 11 -99 21q-46 12 -98 31t-95 54q-40 -76 -30 -140t107 -68q17 3 34 4q108 13 180 -3q4 53 1 101zM2021 -129q-21 -72 -45 -151
l31 -21q88 -28 133 -45q44 -4 83 -8q-13 33 -31 61q-53 83 -171 164zM1667 48q-396 113 -156 -260q-285 -115 -309 146q-26 373 466 203q11 -5 21 -10q172 609 -19 521l-143 -94q-147 -36 -158 262q-246 -19 -129 -334q-132 -95 -185 57q-18 304 377 391q15 -233 109 -215
q140 121 271 102t87 -202q-39 -164 -133 -523q108 -52 196 -103q146 497 292 955q-184 65 -221 108.5t-54.5 107t-6.5 106.5q17 73 63 94.5t134 24.5q45 -11 69.5 -22.5t73 -51.5t71.5 -157l-15 -82q547 37 454 -430q-65 -252 -207 -19q252 433 -265 334
q-131 -407 -300 -986q-4 -15 -9 -31q199 -128 262 -250q14 -27 25 -55q10 -1 19 -2l75 7l86 -5q415 0 412 145q-19 78 -76 86t-127 -121q-188 126 22 246q173 24 235 -50q99 -78 41 -192q-132 -195 -592 -251l-62 -3q5 -58 -3 -119l17 -5l-1 -3q57 -34 93 -93t1 -193
q2 -4 -113 -284q-114 -316 -267 -479.5t-186 141.5l334 859q-53 33 -185 -37q-123 -66 -208 -14q-125 -422 -291 -975q-159 -468 -325 -167q-503 951 -99 896q233 -32 332 73q91 180 -19 389q-104 167 -457 331q-484 170 -224 -247q-285 -120 -309 151q-26 386 466 210
q524 -242 635 -463q72 -144 63 -250l-15 -110q-131 -238 -378 -298q-252 -61 -35.5 -385t394.5 245q111 391 203 709q-3 70 38 178q15 49 40 94q42 146 80 273q-85 50 -194 99q-2 -7 -4 -15h-3l-2 -6h-87q8 25 15 48z" />
    <glyph glyph-name="uniA998_uniA9B9" horiz-adv-x="1957" 
d="M1411 -1121q21 80 12 113.5t-45 45.5l-231 -625l-24 -79q1 -213 288 545zM1394 -863l17 -5l-1 -3q57 -34 93 -93t1 -193q2 -4 -113 -284q-114 -316 -267 -479.5t-186 141.5l334 859q-53 33 -185 -37.5t-221 -5t-8 278.5q34 109 113 193l72 -49q88 -28 133 -45
q44 -4 83 -8q-13 33 -31 61q-104 162 -457 320q-484 164 -224 -239q-285 -115 -309 146q-26 373 466 203q524 -234 635 -447q14 -27 25 -55q10 -1 19 -2l75 7l86 -5q415 0 412 145q-19 78 -76 86t-127 -121q-188 126 22 246q173 24 235 -50q99 -78 41 -192
q-132 -195 -592 -251l-62 -3q5 -58 -3 -119zM1290 -734q-68 11 -99 21q-46 12 -98 31t-95 54q-40 -76 -30 -140t107 -68q17 3 34 4q108 13 180 -3q4 53 1 101zM757 909.5q161 -98.5 -224 -679.5l47 21l58 -3l55 -7l39 -16l56 -14q-11 587 571 713q86 24 151 13h70
q208 -19 208 -89q0 -210 -339 -329l-43 -24q346 -81 422 -375q-5 -125 -75 -125h-35q-68 0 -130 191t-189.5 207t-270.5 -74q-69 0 -86 58q750 416 385 449l-104 -24q-484 -257 -451 -599q55 -90 244 12q161 -347 -292 -147l-146 59l-99 10l-72 -22l-118 -52l-64 51
q376 491 318 630.5t-241 2.5t-31 -487q-126 -163 -206 -54q17 459 224 630.5t368 73zM480 -1446q-68 6 -46 58q525 751 -133 584q-170 257 132 245q598 -61 139 -841q-19 -44 -92 -46z" />
    <glyph glyph-name="uniA999_uniA9B9" horiz-adv-x="2607" 
d="M799 234q119 57 268.5 39t80.5 -273q-120 180 -488 94l-140 -51q-258 -126 -23 300q212 498 29 418q-305 -135 -110 -548q-181 -148 -236 41q6 429 350 657q104 38 157.5 29t65.5 -82t-147.5 -425t193.5 -199zM2403 -882q21 80 12 113.5t-45 45.5l-231 -625l-24 -79
q1 -213 288 545zM2312 1065q24 156 -70 163t-97.5 -66t167.5 -97zM2282 -495q-68 11 -99 21q-46 12 -98 31t-95 54q-40 -76 -30 -140t107 -68q17 3 34 4q108 13 180 -3q4 53 1 101zM2049 -129q-21 -72 -45 -151l31 -21q88 -28 133 -45q44 -4 83 -8q-13 33 -31 61
q-53 83 -171 164zM1695 48q-396 113 -156 -260q-285 -115 -309 146q-26 373 466 203q11 -5 21 -10q172 609 -19 521l-143 -94q-147 -36 -158 262q-246 -19 -129 -334q-132 -95 -185 57q-18 304 377 391q15 -233 109 -215q140 121 271 102t87 -202q-39 -164 -133 -523
q108 -52 196 -103q146 497 292 955q-184 65 -221 108.5t-54.5 107t-6.5 106.5q17 73 63 94.5t134 24.5q45 -11 69.5 -22.5t73 -51.5t71.5 -157l-15 -82q547 37 454 -430q-65 -252 -207 -19q252 433 -265 334q-131 -407 -300 -986q-4 -15 -9 -31q199 -128 262 -250
q14 -27 25 -55q10 -1 19 -2l75 7l86 -5q415 0 412 145q-19 78 -76 86t-127 -121q-188 126 22 246q173 24 235 -50q99 -78 41 -192q-132 -195 -592 -251l-62 -3q5 -58 -3 -119l17 -5l-1 -3q57 -34 93 -93t1 -193q2 -4 -113 -284q-114 -316 -267 -479.5t-186 141.5l334 859
q-53 33 -185 -37q-123 -66 -208 -14q-125 -422 -291 -975q-159 -468 -325 -167q-503 951 -99 896q233 -32 332 73q91 180 -19 389q-104 167 -457 331q-484 170 -224 -247q-285 -120 -309 151q-26 386 466 210q524 -242 635 -463q72 -144 63 -250l-15 -110
q-131 -238 -378 -298q-252 -61 -35.5 -385t394.5 245q111 391 203 709q-3 70 38 178q15 49 40 94q42 146 80 273q-85 50 -194 99q-2 -7 -4 -15h-3l-2 -6h-87q8 25 15 48z" />
    <glyph glyph-name="_cmpnyasukud" horiz-adv-x="3060" 
d="M2542 -1121q21 80 12 113.5t-45 45.5l-231 -625l-24 -79q1 -213 288 545zM2525 -863l17 -5l-1 -3q57 -34 93 -93t1 -193q2 -4 -113 -284q-114 -316 -267 -479.5t-186 141.5l334 859q-53 33 -185 -37.5t-221 -5t-8 278.5q34 109 113 193l72 -49q88 -28 133 -45
q44 -4 83 -8q-13 33 -31 61q-104 162 -457 320q-484 164 -224 -239q-285 -115 -309 146q-26 373 466 203q524 -234 635 -447q14 -27 25 -55q10 -1 19 -2l75 7l86 -5q415 0 412 145q-19 78 -76 86t-127 -121q-188 126 22 246q173 24 235 -50q99 -78 41 -192
q-132 -195 -592 -251l-62 -3q5 -58 -3 -119zM2421 -734q-68 11 -99 21q-46 12 -98 31t-95 54q-40 -76 -30 -140t107 -68q17 3 34 4q108 13 180 -3q4 53 1 101zM2236 0l-185 1q242 376 238.5 598t-213.5 210q-172 -49 -295 -249.5t-132 -465.5l-178 -2q314 701 2 570
l-143 -93q-147 -36 -158 259q-246 -19 -129 -331q-132 -94 -185 57q-18 301 377 387q15 -231 109 -213q140 120 271 101q101 -9 140 -150q569 509 649 26q618 472 634 -38q-10 -273 -182 -662l-175 2q189 319 236.5 565.5t-191.5 228.5q-130 -22 -232.5 -178.5
t-257.5 -622.5z" />
    <glyph glyph-name="uniA99A_uniA9B9" horiz-adv-x="3060" 
d="M2570 -1121q21 80 12 113.5t-45 45.5l-231 -625l-24 -79q1 -213 288 545zM2553 -863l17 -5l-1 -3q57 -34 93 -93t1 -193q2 -4 -113 -284q-114 -316 -267 -479.5t-186 141.5l334 859q-53 33 -185 -37.5t-221 -5t-8 278.5q34 109 113 193l72 -49q88 -28 133 -45
q44 -4 83 -8q-13 33 -31 61q-104 162 -457 320q-484 164 -224 -239q-285 -115 -309 146q-26 373 466 203q524 -234 635 -447q14 -27 25 -55q10 -1 19 -2l75 7l86 -5q415 0 412 145q-19 78 -76 86t-127 -121q-188 126 22 246q173 24 235 -50q99 -78 41 -192
q-132 -195 -592 -251l-62 -3q5 -58 -3 -119zM2449 -734q-68 11 -99 21q-46 12 -98 31t-95 54q-40 -76 -30 -140t107 -68q17 3 34 4q108 13 180 -3q4 53 1 101zM2264 0l-185 1q242 376 238.5 598t-213.5 210q-172 -49 -295 -249.5t-132 -465.5l-178 -2q314 701 2 570
l-143 -93q-147 -36 -158 259q-246 -19 -129 -331q-132 -94 -185 57q-18 301 377 387q15 -231 109 -213q140 120 271 101q101 -9 140 -150q569 509 649 26q618 472 634 -38q-10 -273 -182 -662l-175 2q189 319 236.5 565.5t-191.5 228.5q-130 -22 -232.5 -178.5
t-257.5 -622.5zM799 234q119 57 268.5 39t80.5 -273q-120 180 -488 94l-140 -51q-258 -126 -23 300q212 498 29 418q-305 -135 -110 -548q-181 -148 -236 41q6 429 350 657q104 38 157.5 29t65.5 -82t-147.5 -425t193.5 -199z" />
    <glyph glyph-name="uniA99B_uniA9B9" horiz-adv-x="1927" 
d="M979 335l-43 2l-39 -10l-39 -35l-29 -36l-28 -118q274 60 178 197zM717 130q46 222 136 280q50 30 88 52q96 31 142.5 -1t47.5 -140q-32 -101 -55.5 -134t-60.5 -60.5t-225 -88.5q1 -84 27 -161q38 -184 232 -143q-227 -364 -340 147l6 141l-100 -7q-385 -76 -151 378
q218 448 -26 340q-244 -107 -130 -512q-92 -115 -122 41q-27 421 317 649q104 38 157.5 29t65.5 -82t-147 -425q-150 -331 138 -303zM1421 -1121q21 80 12 113.5t-45 45.5l-231 -625l-24 -79q1 -213 288 545zM1404 -863l17 -5l-1 -3q57 -34 93 -93t1 -193q2 -4 -113 -284
q-114 -316 -267 -479.5t-186 141.5l334 859q-53 33 -185 -37.5t-221 -5t-8 278.5q34 109 113 193l72 -49q88 -28 133 -45q44 -4 83 -8q-13 33 -31 61q-104 162 -457 320q-484 164 -224 -239q-285 -115 -309 146q-26 373 466 203q524 -234 635 -447q14 -27 25 -55
q10 -1 19 -2l75 7l86 -5q415 0 412 145q-19 78 -76 86t-127 -121q-188 126 22 246q173 24 235 -50q99 -78 41 -192q-132 -195 -592 -251l-62 -3q5 -58 -3 -119zM1300 -734q-68 11 -99 21q-46 12 -98 31t-95 54q-40 -76 -30 -140t107 -68q17 3 34 4q108 13 180 -3q4 53 1 101
zM1433 930q15 -233 109 -215q140 121 271 102t105.5 -224.5t-181.5 -594.5l-215 6q438 757 149 644l-143 -94q-147 -36 -158 262q-197 -51 -64 -285q-197 -144 -274 41q-43 262 401 358z" />
    <glyph glyph-name="uniA99C_uniA9B9" horiz-adv-x="1915" 
d="M1024 323l-54 19l-39 -10l-39 -35l-20 -46l22 -36q154 -29 130 108zM845 176q-96 140 8 234q50 30 116.5 30t109 -68t25.5 -135.5t-62 -86.5t-82 -32t-200 -42.5t-272 -55.5q-253 -103 -18 323q212 498 29 418q-305 -135 -191 -540q-92 -115 -122 41q-27 421 317 649
q104 38 157.5 29t65.5 -82t-147 -425q-150 -331 266 -257zM1421 -1121q21 80 12 113.5t-45 45.5l-231 -625l-24 -79q1 -213 288 545zM1404 -863l17 -5l-1 -3q57 -34 93 -93t1 -193q2 -4 -113 -284q-114 -316 -267 -479.5t-186 141.5l334 859q-53 33 -185 -37.5t-221 -5
t-8 278.5q34 109 113 193l72 -49q88 -28 133 -45q44 -4 83 -8q-13 33 -31 61q-104 162 -457 320q-484 164 -224 -239q-285 -115 -309 146q-26 373 466 203q524 -234 635 -447q14 -27 25 -55q10 -1 19 -2l75 7l86 -5q415 0 412 145q-19 78 -76 86t-127 -121q-188 126 22 246
q173 24 235 -50q99 -78 41 -192q-132 -195 -592 -251l-62 -3q5 -58 -3 -119zM1300 -734q-68 11 -99 21q-46 12 -98 31t-95 54q-40 -76 -30 -140t107 -68q17 3 34 4q108 13 180 -3q4 53 1 101zM1433 930q15 -233 109 -215q140 121 271 102t105.5 -224.5t-181.5 -594.5l-215 6
q438 757 149 644l-143 -94q-147 -36 -158 262q-197 -51 -64 -285q-197 -144 -274 41q-43 262 401 358z" />
    <glyph glyph-name="uniA99D_uniA9B9" horiz-adv-x="1939" 
d="M1420 -1133q21 80 12 113.5t-45 45.5l-231 -625l-24 -79q1 -213 288 545zM1403 -875l17 -5l-1 -3q57 -34 93 -93t1 -193q2 -4 -113 -284q-114 -316 -267 -479.5t-186 141.5l334 859q-53 33 -185 -37.5t-221 -5t-8 278.5q34 109 113 193l72 -49q88 -28 133 -45
q44 -4 83 -8q-13 33 -31 61q-104 162 -457 320q-484 164 -224 -239q-285 -115 -309 146q-26 373 466 203q524 -234 635 -447q14 -27 25 -55q10 -1 19 -2l75 7l86 -5q415 0 412 145q-19 78 -76 86t-127 -121q-188 126 22 246q173 24 235 -50q99 -78 41 -192
q-132 -195 -592 -251l-62 -3q5 -58 -3 -119zM1299 -746q-68 11 -99 21q-46 12 -98 31t-95 54q-40 -76 -30 -140t107 -68q17 3 34 4q108 13 180 -3q4 53 1 101zM1522 340q-43 -468 -412 -296l-68 47l-61 56l-46 42q-68 -258 -288 -156q-163 86 -76 432q101 263 0 279
q-357 -206 -153 -489q-180 -230 -213 -76q-40 487 399 700q362 77 145 -302t3 -408q115 251 245 188l34 -25l83 -89l66 -77q60 -52 113.5 -50.5t90.5 59t27 201.5q2 314 127 471q59 111 227 79.5t150 -470.5l-105 -454l-180 -2q149 310 170 524q-2 235 -89 246t-147 -71
q-67 -184 -42 -359z" />
    <glyph glyph-name="uniA99E_uniA9B9" horiz-adv-x="1879" 
d="M1420 -1133q21 80 12 113.5t-45 45.5l-231 -625l-24 -79q1 -213 288 545zM1403 -875l17 -5l-1 -3q57 -34 93 -93t1 -193q2 -4 -113 -284q-114 -316 -267 -479.5t-186 141.5l334 859q-53 33 -185 -37.5t-221 -5t-8 278.5q34 109 113 193l72 -49q88 -28 133 -45
q44 -4 83 -8q-13 33 -31 61q-104 162 -457 320q-484 164 -224 -239q-285 -115 -309 146q-26 373 466 203q524 -234 635 -447q14 -27 25 -55q10 -1 19 -2l75 7l86 -5q415 0 412 145q-19 78 -76 86t-127 -121q-188 126 22 246q173 24 235 -50q99 -78 41 -192
q-132 -195 -592 -251l-62 -3q5 -58 -3 -119zM1299 -746q-68 11 -99 21q-46 12 -98 31t-95 54q-40 -76 -30 -140t107 -68q17 3 34 4q108 13 180 -3q4 53 1 101zM1854.5 495.5q-54.5 -148.5 -214 -362t-394.5 -74.5l-80 47l-71 56l-53 42q-172 -258 -339 -156q-191 86 -90 432
q119 263 0 279q-418 -206 -273 -606q-117 -113 -156 41q-34 415 468 667q325 72 120 -288t54 -389q136 251 288 188l40 -25l97 -89l77 -77q72 -52 121.5 -48t139 73.5t146.5 204t15.5 246t-288.5 51.5q2 260 147 220q104 -21 177 -117q123 -167 68.5 -315.5z" />
    <glyph glyph-name="uniA99F_uniA9B9" horiz-adv-x="3048" 
d="M2517 -1121q21 80 12 113.5t-45 45.5l-231 -625l-24 -79q1 -213 288 545zM2500 -863l17 -5l-1 -3q57 -34 93 -93t1 -193q2 -4 -113 -284q-114 -316 -267 -479.5t-186 141.5l334 859q-53 33 -185 -37.5t-221 -5t-8 278.5q34 109 113 193l72 -49q88 -28 133 -45
q44 -4 83 -8q-13 33 -31 61q-104 162 -457 320q-484 164 -224 -239q-285 -115 -309 146q-26 373 466 203q524 -234 635 -447q14 -27 25 -55q10 -1 19 -2l75 7l86 -5q415 0 412 145q-19 78 -76 86t-127 -121q-188 126 22 246q173 24 235 -50q99 -78 41 -192
q-132 -195 -592 -251l-62 -3q5 -58 -3 -119zM2396 -734q-68 11 -99 21q-46 12 -98 31t-95 54q-40 -76 -30 -140t107 -68q17 3 34 4q108 13 180 -3q4 53 1 101zM1556 498q-26 -43 -48 -86q-16 -31 -29 -62q-52 -120 -130 -348l-198 -3l176 332l44 88l40 91l15 61l9 47l-14 20
l-9 40q-136 216 -505 -121q-151 -184 -230 -489l-240 2q244 336 272.5 479t-46 213t-255.5 -60q-167 -161 35 -442q-242 -175 -273 -24q-28 409 377 657q138 66 223 -20q79 -44 101 -246q764 591 688 -2q212 344 593 310q163 -32 161 -262q208 300 565 268
q188 -37 156.5 -336t-174.5 -601l-221 1q321 456 258.5 660t-289.5 121q-148 -38 -215 -141q-70 -75 -115 -215.5t-144 -420.5l-232 -5q332 451 269.5 655t-289.5 121q-139 -36 -245 -162q-7 -8 -14 -17q-37 -52 -67 -103z" />
    <glyph glyph-name="uniA9A0_uniA9B9" horiz-adv-x="2416" 
d="M1897 -1157q21 80 12 113.5t-45 45.5l-231 -625l-24 -79q1 -213 288 545zM1880 -899l17 -5l-1 -3q57 -34 93 -93t1 -193q2 -4 -113 -284q-114 -316 -267 -479.5t-186 141.5l334 859q-53 33 -185 -37.5t-221 -5t-8 278.5q34 109 113 193l72 -49q88 -28 133 -45
q44 -4 83 -8q-13 33 -31 61q-104 162 -457 320q-484 164 -224 -239q-285 -115 -309 146q-26 373 466 203q524 -234 635 -447q14 -27 25 -55q10 -1 19 -2l75 7l86 -5q415 0 412 145q-19 78 -76 86t-127 -121q-188 126 22 246q173 24 235 -50q99 -78 41 -192
q-132 -195 -592 -251l-62 -3q5 -58 -3 -119zM1776 -770q-68 11 -99 21q-46 12 -98 31t-95 54q-40 -76 -30 -140t107 -68q17 3 34 4q108 13 180 -3q4 53 1 101zM1747 553q6 304 -472 203q-471 -86 -260 -289q333 -139 189 -359q-134 -145 -576 -82q-278 42 -169.5 436
t-104.5 287q-226 -179 38 -567q-132 -219 -212 19q-63 470 180 663q319 168 267 -153q-251 -508 -22 -564l228 -26q514 74 78 356l-26 45q-38 385 569 414q263 -10 367 -217l112 107q271 208 439.5 10t-116.5 -829l-175 -7q503 963 -120 755l-75 -67l-33 -41l12 -120
q-32 -244 -133 -509h-190q101 134 150 282.5t55 252.5z" />
    <glyph glyph-name="uniA9A1_uniA9B9" horiz-adv-x="1927" 
d="M1431 -1133q21 80 12 113.5t-45 45.5l-231 -625l-24 -79q1 -213 288 545zM1310 -746q-68 11 -99 21q-46 12 -98 31t-95 54q-40 -76 -30 -140t107 -68q17 3 34 4q108 13 180 -3q4 53 1 101zM1414 -875l17 -5l-1 -3q57 -34 93 -93t1 -193q2 -4 -113 -284
q-114 -316 -267 -479.5t-186 141.5l334 859q-53 33 -185 -37.5t-221 -5t-8 278.5q34 109 113 193l72 -49q88 -28 133 -45q44 -4 83 -8q-13 33 -31 61q-104 162 -457 320q-484 164 -224 -239q-285 -115 -309 146q-26 373 466 203q524 -234 635 -447q14 -27 25 -55
q10 -1 19 -2l75 7l86 -5q415 0 412 145q-19 78 -76 86t-127 -121q-188 126 22 246q173 24 235 -50q99 -78 41 -192q-132 -195 -592 -251l-62 -3q5 -58 -3 -119zM1025 180q5 2 10 5q324 138 413 284t47 199q-16 105 -338 196q6 81 110 58q625 -107 647.5 -301t-158.5 -627
l-187 2q385 591 104 745l-152 54q164 -113 81.5 -269.5t-197.5 -256.5q-114 -98 -342 -183q57 -123 159 -286q21 -55 -44 -62q-68 3 -86 49q-77 146 -123 268q-194 -50 -386 -5q-250 43 -111.5 297.5t147.5 325.5t-109 33q-321 -127 -112 -473q-180 -148 -219 1
q-34 399 472 642q366 91 135 -205.5t-153 -460.5q66 -138 305 -62q-141 476 285 524q286 13 88 -220q-416 97 -286 -272z" />
    <glyph glyph-name="uniA9A2_uniA9B9" horiz-adv-x="1927" 
d="M1431 -1133q21 80 12 113.5t-45 45.5l-231 -625l-24 -79q1 -213 288 545zM1414 -875l17 -5l-1 -3q57 -34 93 -93t1 -193q2 -4 -113 -284q-114 -316 -267 -479.5t-186 141.5l334 859q-53 33 -185 -37.5t-221 -5t-8 278.5q34 109 113 193l72 -49q88 -28 133 -45
q44 -4 83 -8q-13 33 -31 61q-104 162 -457 320q-484 164 -224 -239q-285 -115 -309 146q-26 373 466 203q524 -234 635 -447q14 -27 25 -55q10 -1 19 -2l75 7l86 -5q415 0 412 145q-19 78 -76 86t-127 -121q-188 126 22 246q173 24 235 -50q99 -78 41 -192
q-132 -195 -592 -251l-62 -3q5 -58 -3 -119zM1310 -746q-68 11 -99 21q-46 12 -98 31t-95 54q-40 -76 -30 -140t107 -68q17 3 34 4q108 13 180 -3q4 53 1 101zM1181 413l-37 -102l-9 -71q27 -182 104.5 -86t-58.5 259zM838 105q-242 -177 -341.5 -68t-60 273.5t130 337.5
t-75.5 129q-442 -327 -109 -695q-149 -167 -219 36q-27 516 321 782q433 122 187 -384q-208 -430 74 -326q72 250 201.5 325t222.5 22q262 417 470 396q254 8 265 -397q-19 -167 -160 -536h-191q270 433 211 615.5t-187 182.5q-152 39 -345 -292q154 -150 119 -339
t-214 -155q-92 41 -92 220q24 139 72 209q-202 44 -279 -336z" />
    <glyph glyph-name="uniA9A3_uniA9B9" horiz-adv-x="1915" 
d="M1431 -1133q21 80 12 113.5t-45 45.5l-231 -625l-24 -79q1 -213 288 545zM1414 -875l17 -5l-1 -3q57 -34 93 -93t1 -193q2 -4 -113 -284q-114 -316 -267 -479.5t-186 141.5l334 859q-53 33 -185 -37.5t-221 -5t-8 278.5q34 109 113 193l72 -49q88 -28 133 -45
q44 -4 83 -8q-13 33 -31 61q-104 162 -457 320q-484 164 -224 -239q-285 -115 -309 146q-26 373 466 203q524 -234 635 -447q14 -27 25 -55q10 -1 19 -2l75 7l86 -5q415 0 412 145q-19 78 -76 86t-127 -121q-188 126 22 246q173 24 235 -50q99 -78 41 -192
q-132 -195 -592 -251l-62 -3q5 -58 -3 -119zM1310 -746q-68 11 -99 21q-46 12 -98 31t-95 54q-40 -76 -30 -140t107 -68q17 3 34 4q108 13 180 -3q4 53 1 101zM1079 56l-66 47l-59 56l-44 42q-142 -258 -313 -178q-186 81 -41 454q65 274 -84 185q-262 -112 -58 -540
q-181 -85 -213 69q-28 415 387 667q269 72 99.5 -288t44.5 -389q112 251 238 188l33 -25l80 -89l64 -77q59 -52 100 -48t98 69t121 204t30 250.5t-343 190.5q-49 99 87 92q533 -24 641.5 -270.5t-144.5 -661.5l-159 2q363 567 28 755l-143 48q180 -101 138 -299.5
t-185 -395.5t-337 -58z" />
    </font>
</defs>
</svg>
